<svg width="56" height="56" viewBox="0 0 56 56" fill="none" xmlns="http://www.w3.org/2000/svg">
<path d="M36.0455 27.1862C36.06 26.0555 36.3604 24.9468 36.9185 23.9634C37.4767 22.98 38.2745 22.1537 39.2378 21.5615C38.6259 20.6875 37.8185 19.9683 36.88 19.4609C35.9414 18.9535 34.8975 18.6719 33.8311 18.6386C31.5563 18.3998 29.351 19.9998 28.1918 19.9998C27.0101 19.9998 25.2253 18.6623 23.3034 18.7018C22.0603 18.742 20.8488 19.1035 19.7869 19.7511C18.725 20.3987 17.8489 21.3103 17.2441 22.3972C14.6242 26.9332 16.5784 33.5995 19.0881 37.2661C20.3437 39.0615 21.8112 41.067 23.7314 40.9959C25.6104 40.918 26.3122 39.7977 28.5803 39.7977C30.8274 39.7977 31.4858 40.9959 33.4449 40.9507C35.4612 40.918 36.7315 39.1473 37.9431 37.3349C38.8453 36.0556 39.5395 34.6417 40 33.1456C38.8286 32.6501 37.829 31.8208 37.1258 30.7611C36.4225 29.7013 36.0468 28.458 36.0455 27.1862Z" fill="white"/>
<path d="M32.3453 16.2286C33.4446 14.9089 33.9862 13.2126 33.8551 11.5C32.1755 11.6764 30.6241 12.4791 29.5099 13.7482C28.9651 14.3682 28.5479 15.0895 28.282 15.8708C28.0162 16.6521 27.9069 17.4782 27.9605 18.3018C28.8006 18.3104 29.6317 18.1284 30.3912 17.7692C31.1507 17.4101 31.8189 16.8834 32.3453 16.2286Z" fill="white"/>
</svg>
