<svg width="56" height="56" viewBox="0 0 56 56" fill="none" xmlns="http://www.w3.org/2000/svg">
<g clip-path="url(#clip0_1_6526)">
<path d="M23.4668 41.6282C23.4668 42.6743 23.4995 43.7161 23.4554 44.7536C23.4255 45.4638 22.8321 45.7868 22.1176 45.5378C19.765 44.7166 17.653 43.4855 15.8071 41.8047C13.5399 39.7411 11.8819 37.2704 10.8572 34.3798C10.0033 31.9718 9.66313 29.4925 9.85099 26.9422C10.1741 22.5729 11.8349 18.7801 14.8607 15.6234C18.2209 12.118 22.3567 10.2223 27.2155 10.0174C35.4986 9.6687 42.9007 14.9075 45.3586 22.8206C46.1684 25.4264 46.3833 28.0864 45.9891 30.7891C45.2533 35.8287 42.8181 39.8691 38.7819 42.949C37.2947 44.0833 35.6409 44.9258 33.8733 45.5378C33.0535 45.821 32.5042 45.414 32.5056 44.523C32.5056 42.9589 32.5227 41.3962 32.5255 39.8321C32.5255 38.9725 32.4316 38.1243 32.0345 37.3486C31.8538 36.9943 31.609 36.674 31.3741 36.3069C31.7627 36.2457 32.1669 36.1873 32.5696 36.119C33.9601 35.8827 35.2808 35.4558 36.4536 34.6488C37.8298 33.7024 38.698 32.3845 39.1349 30.7962C39.6216 29.03 39.7782 27.2339 39.3569 25.4264C39.1164 24.3946 38.6339 23.4767 37.9451 22.674C37.7786 22.4804 37.7416 22.3224 37.8184 22.0762C38.281 20.6018 38.1144 19.1529 37.5793 17.734C37.5409 17.6315 37.3132 17.5248 37.1936 17.5433C36.613 17.6344 36.001 17.6785 35.4701 17.9048C34.5607 18.2933 33.7096 18.8142 32.823 19.2583C32.6522 19.3437 32.4174 19.3977 32.238 19.3536C29.4002 18.6605 26.568 18.6634 23.7301 19.3536C23.5607 19.3949 23.3259 19.3579 23.1793 19.2668C22.1219 18.6079 21.0516 17.9788 19.8291 17.6771C19.4648 17.5874 19.0819 17.5533 18.7062 17.5447C18.5909 17.5419 18.4059 17.6842 18.3646 17.8009C17.8437 19.2398 17.7071 20.6986 18.1753 22.1844C18.2109 22.2997 18.1668 22.4889 18.0885 22.5829C16.8759 24.0289 16.3451 25.6954 16.392 27.5726C16.4305 29.0898 16.634 30.5656 17.2773 31.9561C18.0615 33.6554 19.3694 34.7883 21.0858 35.4842C22.102 35.897 23.1651 36.1147 24.2467 36.2599C24.362 36.2755 24.4773 36.3012 24.5783 36.3197C24.3407 36.7096 24.0774 37.0711 23.8909 37.4682C23.7372 37.7955 23.6831 38.167 23.5679 38.5143C23.5309 38.6267 23.464 38.7775 23.3715 38.8146C21.971 39.3781 20.5791 39.5133 19.3082 38.5171C18.9168 38.2097 18.5909 37.7927 18.312 37.3757C17.7654 36.5588 17.1407 35.84 16.1743 35.5469C15.7915 35.4316 15.3616 35.4074 14.9603 35.4387C14.5888 35.4672 14.5205 35.7248 14.7753 36.008C14.9318 36.1816 15.1126 36.3453 15.3104 36.4691C16.1544 37.0028 16.7023 37.7785 17.1065 38.6623C17.4111 39.3312 17.6872 40.0115 18.2266 40.5366C19.2356 41.5186 20.4781 41.8446 21.8401 41.7962C22.3581 41.7777 22.8748 41.6923 23.4682 41.6297L23.4668 41.6282Z" fill="#FCFCFC"/>
</g>
<defs>
<clipPath id="clip0_1_6526">
<rect width="36.38" height="35.6243" fill="white" transform="translate(9.7998 10)"/>
</clipPath>
</defs>
</svg>
