<svg width="32" height="32" viewBox="0 0 32 32" fill="none" xmlns="http://www.w3.org/2000/svg">
<circle cx="16" cy="16" r="16" fill="#3F3F47"/>
<path d="M16 7C11.038 7 7 11.038 7 16C7 20.962 11.038 25 16 25C20.962 25 25 20.962 25 16C25 11.038 20.962 7 16 7ZM16 8.5C20.1512 8.5 23.5 11.8488 23.5 16C23.5018 17.7955 22.858 19.5317 21.686 20.892C20.514 22.2522 18.892 23.1456 17.116 23.4093V18.187H19.252L19.5873 16.0173H17.116V14.8322C17.116 13.9322 17.4123 13.132 18.2545 13.132H19.6083V11.239C19.3705 11.2068 18.8673 11.137 17.9163 11.137C15.9303 11.137 14.7662 12.1855 14.7662 14.575V16.0173H12.7248V18.187H14.7662V23.3905C13.0148 23.1022 11.4229 22.2006 10.275 20.8468C9.12711 19.4929 8.49797 17.775 8.5 16C8.5 11.8488 11.8488 8.5 16 8.5Z" fill="#9D9DA4"/>
</svg>
