<svg width="20" height="20" viewBox="0 0 20 20" fill="none" xmlns="http://www.w3.org/2000/svg">
<g filter="url(#filter0_b_1892_9826)">
<path fill-rule="evenodd" clip-rule="evenodd" d="M3.45703 9.54386C3.45703 6.10179 6.212 3 10.014 3C13.7309 3 16.5447 6.04289 16.5447 9.52422C16.5447 13.5618 13.2466 16.0681 10.0009 16.0681C8.9277 16.0681 7.73737 15.7802 6.78196 15.2174C6.44757 15.0145 6.16619 14.864 5.80628 14.9818L4.48442 15.3744C4.15068 15.4791 3.84966 15.2174 3.94782 14.864L4.38626 13.3982C4.45824 13.1953 4.44515 12.9794 4.34045 12.8092C3.77768 11.7753 3.45703 10.6432 3.45703 9.54386ZM6.13281 9.5505C6.13281 10.0086 6.51236 10.3881 6.97043 10.3881C7.43504 10.3816 7.80804 10.0086 7.80804 9.5505C7.80804 9.08589 7.43504 8.71289 6.97043 8.71289C6.50581 8.71289 6.13281 9.08589 6.13281 9.5505ZM9.15039 9.54417C9.15039 10.0088 9.52339 10.3818 9.988 10.3883C10.4526 10.3883 10.8256 10.0088 10.8256 9.55071C10.8256 9.0861 10.4526 8.7131 9.988 8.7131C9.52993 8.70655 9.15039 9.0861 9.15039 9.54417ZM13.0036 10.3881C12.539 10.3881 12.166 10.0086 12.166 9.5505C12.166 9.08589 12.539 8.71289 13.0036 8.71289C13.4682 8.71289 13.8412 9.08589 13.8412 9.5505C13.8412 10.0086 13.4682 10.3881 13.0036 10.3881Z" fill="#83C2B7"/>
</g>
<defs>
<filter id="filter0_b_1892_9826" x="-20.543" y="-21" width="61.0879" height="61.0684" filterUnits="userSpaceOnUse" color-interpolation-filters="sRGB">
<feFlood flood-opacity="0" result="BackgroundImageFix"/>
<feGaussianBlur in="BackgroundImageFix" stdDeviation="12"/>
<feComposite in2="SourceAlpha" operator="in" result="effect1_backgroundBlur_1892_9826"/>
<feBlend mode="normal" in="SourceGraphic" in2="effect1_backgroundBlur_1892_9826" result="shape"/>
</filter>
</defs>
</svg>
