<svg width="48" height="48" viewBox="0 0 48 48" fill="none" xmlns="http://www.w3.org/2000/svg">
<path d="M40.4155 5.13753L5.83326 25.0885C4.48279 25.8645 4.6544 27.7447 5.9974 28.3117L12.7728 31.1545C13.4796 31.451 14.2938 31.3175 14.8689 30.8107L35.3643 12.7479C35.7747 12.3823 36.3567 12.9419 36.006 13.3671L18.4862 34.7123C18.1926 35.07 18.0322 35.5184 18.0322 35.9812V41.2717C18.0322 43.0325 20.1586 43.7264 21.2031 42.4505L25.9409 36.6831L35.2375 40.5778C36.297 41.0255 37.5057 40.3614 37.6997 39.2199L43.0717 6.98789C43.3253 5.48074 41.7063 4.39142 40.4155 5.13753Z" fill="#346FFA"/>
</svg>
