<svg width="32" height="32" viewBox="0 0 32 32" fill="none" xmlns="http://www.w3.org/2000/svg">
<circle cx="16" cy="16" r="16" fill="#3F3F47"/>
<path d="M12.6267 11C13.0958 11 13.5199 11.039 13.9085 11.125C14.2916 11.2111 14.6222 11.3441 14.8982 11.5316C15.1718 11.7192 15.3853 11.9642 15.5389 12.2793C15.6874 12.5919 15.7654 12.98 15.7654 13.4331C15.7654 13.9252 15.6509 14.3398 15.4269 14.6729C15.2003 15.0065 14.8692 15.2721 14.4241 15.4856C15.0283 15.6602 15.4764 15.9647 15.7734 16.3999C16.073 16.84 16.2161 17.3661 16.2161 17.9732C16.2161 18.4734 16.13 18.9005 15.9425 19.2601C15.7624 19.6194 15.4967 19.9289 15.1688 20.1613C14.8482 20.3933 14.4681 20.5599 14.0565 20.6719C13.6412 20.784 13.2129 20.841 12.7827 20.8415H8V11.0055H12.6262L12.6267 11ZM19.2978 19.109C19.5894 19.3956 20.0115 19.5386 20.5611 19.5386C20.9542 19.5386 21.2933 19.4396 21.5794 19.2391C21.8635 19.0465 22.0325 18.8325 22.1005 18.6139H23.825C23.5569 19.4656 23.1268 20.0803 22.5591 20.4479C21.9915 20.8205 21.3038 21 20.5066 21C19.9465 21 19.4489 20.914 18.9907 20.7344C18.5594 20.5644 18.1688 20.3052 17.8445 19.9737C17.5344 19.6482 17.2948 19.2546 17.1253 18.7939C16.9557 18.3333 16.8752 17.8277 16.8752 17.2806C16.8752 16.7439 16.9662 16.2543 17.1463 15.7932C17.3138 15.3504 17.567 14.9451 17.8915 14.6004C18.2221 14.2593 18.6002 14.0038 19.0508 13.8032C19.4989 13.6027 19.9835 13.5141 20.5301 13.5141C21.1373 13.5141 21.6579 13.6237 22.1165 13.8632C22.5523 14.085 22.9312 14.4042 23.2238 14.7959C23.5184 15.1865 23.7239 15.6372 23.8515 16.1453C23.979 16.6454 24.018 17.1715 23.992 17.7317H18.8632C18.8632 18.2918 19.0508 18.8205 19.3373 19.107L19.2828 19.128L19.2978 19.109ZM12.4676 19.1425C12.6787 19.1425 12.8817 19.1215 13.0718 19.08C13.2519 19.0446 13.4241 18.9767 13.5799 18.8795C13.7204 18.7909 13.8405 18.6604 13.929 18.4914C14.015 18.3323 14.054 18.1113 14.054 17.8507C14.054 17.3506 13.908 16.991 13.6269 16.7724C13.3403 16.5589 12.9677 16.4519 12.5016 16.4519H10.16V19.153H12.4681V19.132L12.4676 19.1425ZM21.5429 15.3761C21.3058 15.118 20.9152 14.98 20.4356 14.98C20.1255 14.98 19.868 15.0295 19.6594 15.139C19.4678 15.2326 19.2989 15.3667 19.1643 15.5321C19.0444 15.6794 18.9558 15.8496 18.9037 16.0323C18.8572 16.1867 18.8276 16.3456 18.8152 16.5064H21.9905C21.9435 16.0063 21.7689 15.6392 21.5374 15.3786V15.3866L21.5429 15.3761ZM12.3481 14.9645C12.7312 14.9645 13.0488 14.876 13.2988 14.6909C13.5489 14.5114 13.6689 14.2088 13.6689 13.7977C13.6689 13.5686 13.6219 13.3811 13.5489 13.2351C13.4678 13.0954 13.3532 12.9781 13.2153 12.894C13.0664 12.8078 12.903 12.7495 12.7332 12.7219C12.5486 12.687 12.3609 12.6704 12.173 12.6724H10.1545V14.9645H12.3481ZM18.4146 11.6592H22.3946V12.6279H18.4146V11.6512V11.6592Z" fill="#9D9DA4"/>
</svg>
