<svg width="30" height="30" viewBox="0 0 30 30" fill="none" xmlns="http://www.w3.org/2000/svg">
<rect width="30" height="30" rx="5" fill="#181818"/>
<path d="M15 21.5247C14.3938 21.5247 13.8 21.486 13.2236 21.4114C12.6472 21.7855 9.31282 23.9422 8.99795 23.9828C8.99795 23.9828 8.86974 24.0291 8.76 23.9696C8.65026 23.9101 8.66974 23.7533 8.66974 23.7533C8.70256 23.5455 9.53436 20.9022 9.68718 20.4157C6.8718 19.1309 5 16.8551 5 14.2628C5 10.2517 9.47692 7 15 7C20.5231 7 25 10.2517 25 14.2628C25 18.2731 20.5231 21.5247 15 21.5247Z" fill="#FCFCFC"/>
<path d="M11.2206 13.1764H10.3597V16.2878C10.3597 16.5634 10.1126 16.7877 9.80772 16.7877C9.5028 16.7877 9.25671 16.5643 9.25671 16.2878V13.1764H8.39587C8.25961 13.1668 8.13219 13.1087 8.0392 13.0136C7.94621 12.9186 7.89453 12.7936 7.89453 12.6639C7.89453 12.5341 7.94621 12.4092 8.0392 12.3141C8.13219 12.2191 8.25961 12.1609 8.39587 12.1514H11.2196C11.3558 12.1609 11.4832 12.2191 11.5762 12.3141C11.6692 12.4092 11.7209 12.5341 11.7209 12.6639C11.7209 12.7936 11.6692 12.9186 11.5762 13.0136C11.4832 13.1087 11.3558 13.1668 11.2196 13.1764H11.2206ZM21.9928 15.9294C22.0368 15.9841 22.0689 16.0466 22.0873 16.1133C22.1056 16.1799 22.1098 16.2494 22.0996 16.3176C22.0896 16.3856 22.0654 16.4511 22.0286 16.5102C21.9917 16.5693 21.9429 16.6209 21.8849 16.662C21.7897 16.731 21.6733 16.7683 21.5535 16.7682C21.4679 16.7686 21.3834 16.75 21.3068 16.7138C21.2302 16.6775 21.1636 16.6247 21.1123 16.5596L19.8191 14.9332L19.6279 15.1147V16.2571C19.6277 16.3958 19.5696 16.5289 19.4663 16.6271C19.3631 16.7253 19.2231 16.7807 19.0769 16.7812C18.9305 16.7812 18.7901 16.726 18.6866 16.6277C18.5831 16.5294 18.5249 16.3961 18.5249 16.2571V12.6746C18.5309 12.5395 18.5916 12.4119 18.6944 12.3183C18.7972 12.2248 18.934 12.1725 19.0764 12.1725C19.2188 12.1725 19.3557 12.2248 19.4584 12.3183C19.5612 12.4119 19.6219 12.5395 19.6279 12.6746V13.8011L21.1672 12.3394C21.2074 12.3018 21.255 12.272 21.3074 12.2519C21.3597 12.2317 21.4157 12.2216 21.4722 12.2221C21.6094 12.2221 21.7486 12.2789 21.8526 12.3776C21.9472 12.4657 22.0047 12.5835 22.0143 12.709C22.0194 12.7674 22.0112 12.8262 21.9902 12.8813C21.9692 12.9364 21.936 12.9866 21.8928 13.0284L20.6358 14.221L21.9938 15.9294H21.9928ZM13.806 12.669C13.7129 12.4176 13.4305 12.1588 13.0707 12.1514C12.7118 12.1588 12.4294 12.4176 12.3363 12.6681L11.0176 15.9647C10.8499 16.4582 10.996 16.6425 11.148 16.7095C11.2579 16.757 11.3773 16.7815 11.498 16.7812C11.7284 16.7812 11.9039 16.6928 11.9569 16.5503L12.2304 15.8707H13.9119L14.1854 16.5503C14.2384 16.6928 14.4139 16.7812 14.6443 16.7812C14.7651 16.7811 14.8845 16.7563 14.9943 16.7086C15.1463 16.6425 15.2924 16.4591 15.1247 15.9638L13.806 12.6681V12.669ZM12.5206 14.9434L13.0716 13.4576L13.6217 14.9434H12.5206ZM18.3102 16.231C18.3071 16.3612 18.2497 16.4849 18.1506 16.575C18.0516 16.6651 17.9189 16.7141 17.7817 16.7114H16.013C15.945 16.7129 15.8774 16.7016 15.814 16.6783C15.7506 16.6549 15.6926 16.62 15.6435 16.5754C15.5943 16.5307 15.5549 16.4774 15.5274 16.4183C15.5 16.3592 15.4851 16.2956 15.4836 16.231V12.6746C15.4836 12.386 15.7365 12.1514 16.0473 12.1514C16.3581 12.1514 16.6101 12.386 16.6101 12.6746V15.7515H17.7817C18.0729 15.7515 18.3112 15.9666 18.3112 16.231H18.3102Z" fill="#181818"/>
</svg>
