<svg width="54" height="54" viewBox="0 0 54 54" fill="none" xmlns="http://www.w3.org/2000/svg">
<rect width="54" height="54" rx="10" fill="#181818"/>
<path d="M34.375 26.3791C34.3883 25.3426 34.6637 24.3263 35.1753 23.4249C35.6869 22.5234 36.4183 21.766 37.3013 21.2231C36.7404 20.422 36.0003 19.7627 35.14 19.2975C34.2797 18.8324 33.3227 18.5743 32.3452 18.5438C30.2599 18.3249 28.2384 19.7915 27.1758 19.7915C26.0926 19.7915 24.4566 18.5655 22.6948 18.6017C21.5553 18.6385 20.4447 18.9699 19.4713 19.5636C18.4979 20.1572 17.6949 20.9929 17.1404 21.9891C14.7388 26.1471 16.5302 32.258 18.8308 35.619C19.9818 37.2648 21.327 39.1032 23.0871 39.038C24.8095 38.9666 25.4528 37.9397 27.5319 37.9397C29.5918 37.9397 30.1953 39.038 31.9912 38.9966C33.8394 38.9666 35.0039 37.3434 36.1145 35.6821C36.9415 34.5094 37.5778 33.2133 38 31.8419C36.9262 31.3877 36.0099 30.6275 35.3653 29.6561C34.7207 28.6846 34.3762 27.5449 34.375 26.3791Z" fill="white"/>
<path d="M30.9827 16.3346C31.9904 15.1248 32.4869 13.5699 32.3667 12C30.8271 12.1617 29.4049 12.8975 28.3836 14.0609C27.8842 14.6292 27.5017 15.2904 27.258 16.0066C27.0143 16.7228 26.9142 17.48 26.9633 18.235C27.7334 18.2429 28.4952 18.076 29.1915 17.7468C29.8877 17.4176 30.5001 16.9348 30.9827 16.3346Z" fill="white"/>
</svg>
