<svg width="21" height="20" viewBox="0 0 21 20" fill="none" xmlns="http://www.w3.org/2000/svg">
<g id="Frame 2606903">
<g id="Group 1171275365">
<path id="Vector 25532" d="M13.0161 10.0967H16.1613C17.4529 10.0967 18.5 11.1438 18.5 12.4354V12.4354C18.5 13.727 17.4529 14.7741 16.1613 14.7741H13.0161" stroke="white" stroke-width="1.12903"/>
<path id="Rectangle 42479" d="M3.5 9.12891H16.0806V11.2257C16.0806 14.6997 13.2644 17.516 9.79032 17.516C6.31627 17.516 3.5 14.6997 3.5 11.2257V9.12891Z" fill="white"/>
<path id="Ellipse 1808" d="M15.7581 9.20965C15.7581 9.37429 15.6623 9.57815 15.382 9.80756C15.1041 10.035 14.6824 10.2542 14.1327 10.4445C13.0366 10.8239 11.5013 11.0645 9.79032 11.0645C8.07936 11.0645 6.54409 10.8239 5.44791 10.4445C4.89829 10.2542 4.47656 10.035 4.19863 9.80756C3.91831 9.57815 3.82258 9.37429 3.82258 9.20965C3.82258 9.045 3.91831 8.84114 4.19863 8.61173C4.47656 8.38427 4.89829 8.16507 5.44791 7.97481C6.54409 7.59536 8.07936 7.35481 9.79032 7.35481C11.5013 7.35481 13.0366 7.59536 14.1327 7.97481C14.6824 8.16507 15.1041 8.38427 15.382 8.61173C15.6623 8.84114 15.7581 9.045 15.7581 9.20965Z" fill="#643E29" stroke="white" stroke-width="0.645161"/>
<path id="Vector 25533" d="M9.55044 4.67156C9.55044 3.681 8.72227 3.20636 8.30819 3C9.15815 3 10.4658 3.49528 10.7927 4.36203C11.2099 5.46823 10.5337 6.15501 9.6812 6.96221C8.96201 7.64321 10.2043 8.73694 10.5965 9.12903C9.41968 9.12903 8.17743 8.07658 8.17743 7.02412C8.17743 5.90974 9.55044 5.90974 9.55044 4.67156Z" fill="white"/>
</g>
</g>
</svg>
