<svg width="14" height="14" viewBox="0 0 14 14" fill="none" xmlns="http://www.w3.org/2000/svg">
<g id="icon-park-outline:github" clip-path="url(#clip0_1676_2144)">
<g id="Group">
<path id="Vector" fill-rule="evenodd" clip-rule="evenodd" d="M7 1.16667C3.77825 1.16667 1.16667 3.77825 1.16667 7C1.16667 10.2217 3.77825 12.8333 7 12.8333C10.2217 12.8333 12.8333 10.2217 12.8333 7C12.8333 3.77825 10.2217 1.16667 7 1.16667ZM0 7C0 3.13396 3.13396 0 7 0C10.866 0 14 3.13396 14 7C14 10.866 10.866 14 7 14C3.13396 14 0 10.866 0 7Z" fill="#808087"/>
<path id="Vector_2" fill-rule="evenodd" clip-rule="evenodd" d="M5.59576 13.2628C5.53947 13.1898 5.53947 12.5409 5.59576 11.3162C4.99143 11.3372 4.60993 11.2952 4.45039 11.1905C4.21151 11.0333 3.97206 10.5488 3.76001 10.2073C3.54768 9.866 3.07664 9.81175 2.88647 9.73534C2.69631 9.65921 2.64847 9.348 3.4106 9.58309C4.17272 9.81846 4.20976 10.4595 4.45039 10.6092C4.69101 10.7591 5.26589 10.6938 5.52635 10.5736C5.78681 10.4534 5.76756 10.0066 5.81422 9.82955C5.87285 9.66417 5.66577 9.62742 5.66139 9.62625C5.40677 9.62625 4.07064 9.33546 3.70343 8.04163C3.33651 6.7475 3.80931 5.90167 4.0616 5.53825C4.2296 5.29559 4.21472 4.77905 4.01697 3.98834C4.73564 3.89646 5.2901 4.1225 5.68035 4.66675C5.68093 4.66967 6.19251 4.36255 7.00072 4.36255C7.80922 4.36255 8.09593 4.6128 8.31731 4.66675C8.53897 4.72071 8.71572 3.71417 10.0828 3.98834C9.79722 4.54921 9.55835 5.25009 9.74064 5.53825C9.92322 5.82613 10.639 6.74196 10.1994 8.04163C9.90601 8.90788 9.32968 9.43609 8.47014 9.62625C8.37185 9.65775 8.32256 9.7085 8.32256 9.7785C8.32256 9.8835 8.45556 9.89488 8.64747 10.3869C8.77581 10.7148 8.78485 11.6516 8.67547 13.1971C8.3981 13.2677 8.18226 13.3153 8.02797 13.3395C7.75468 13.3823 7.45776 13.4065 7.1661 13.4156C6.87443 13.4249 6.77322 13.424 6.36985 13.3864C6.10932 13.3628 5.85069 13.3215 5.59576 13.2628Z" fill="#808087"/>
</g>
</g>
<defs>
<clipPath id="clip0_1676_2144">
<rect width="14" height="14" fill="white"/>
</clipPath>
</defs>
</svg>
