<svg width="17" height="16" viewBox="0 0 17 16" fill="none" xmlns="http://www.w3.org/2000/svg">
<path d="M3.36129 14H14.0598M9.28763 2.13388C9.12103 2.02798 8.92079 1.98265 8.72271 2.00599C8.52463 2.02933 8.34162 2.11982 8.20637 2.26129C6.41928 4.12503 4.75413 6.09411 3.22055 8.15712C3.104 8.3135 3.04897 8.50476 3.06532 8.69668C3.08168 8.88859 3.16834 9.06863 3.3098 9.20457C4.73089 10.5581 6.176 11.6933 7.83737 12.7623C8.18063 12.984 8.63888 12.9277 8.91863 12.6365C10.7058 10.7722 12.3709 8.8026 13.9044 6.73901C14.0208 6.58296 14.0758 6.39216 14.0598 6.20063C14.0437 6.00909 13.9577 5.82926 13.8169 5.69322C12.4307 4.36824 10.9137 3.17505 9.28763 2.13388Z" stroke="#66666D" stroke-linecap="round" stroke-linejoin="round"/>
<path d="M7.14851 8.70711H9.26983L8.91628 5.52513" stroke="#66666D" stroke-linecap="round" stroke-linejoin="round"/>
</svg>
