<svg width="14" height="14" viewBox="0 0 14 14" fill="none" xmlns="http://www.w3.org/2000/svg">
<g id="Frame" clip-path="url(#clip0_1676_2116)">
<path id="Vector" d="M13.999 7.01397C13.999 5.86592 13.9984 4.71786 13.999 3.56981C13.999 3.18001 13.9525 2.79568 13.8265 2.42669C13.3201 0.941389 12.0138 0.00356668 10.4474 0.00137678C8.14682 -0.00136059 5.84624 0.000829309 3.54621 0.000829309C3.17008 0.000829309 2.80053 0.0501019 2.44356 0.167261C0.969154 0.650681 0.00556255 1.97502 0.00227758 3.53477C-0.00210238 5.84456 0.00118259 8.15381 0.00118259 10.4636C0.00118259 10.8397 0.0510046 11.2098 0.170906 11.5657C0.666389 13.0417 1.97764 13.9937 3.53198 13.997C5.84624 14.0019 8.1605 13.9992 10.4742 13.9975C11.0967 13.9975 11.6875 13.8574 12.2218 13.5355C13.3995 12.8265 13.9913 11.7764 13.9973 10.4023C14.0023 9.2723 13.9984 8.14286 13.9984 7.01287L13.999 7.01397ZM11.2549 12.6978C10.9998 12.7805 10.7206 12.8232 10.4518 12.8243C8.1512 12.8342 5.85062 12.8325 3.55059 12.8287C2.39428 12.8265 1.48544 12.1088 1.22812 10.9968C1.18541 10.8129 1.17392 10.618 1.17337 10.428C1.16954 8.14122 1.16954 5.85442 1.17173 3.56762C1.17282 2.49841 1.76576 1.63285 2.75235 1.30108C3.01405 1.21294 3.30477 1.17954 3.5829 1.17626C4.72169 1.16257 5.86048 1.17078 6.99927 1.17078C6.99927 1.17297 6.99927 1.17461 6.99927 1.1768C8.21525 1.1768 9.43179 1.16312 10.6478 1.18064C11.6864 1.19542 12.6587 2.08889 12.795 3.11705C12.8153 3.2698 12.8274 3.42528 12.8274 3.57912C12.8295 5.86154 12.8197 8.14395 12.8328 10.4258C12.8394 11.5202 12.1583 12.406 11.2549 12.6978V12.6978Z" fill="#808087"/>
<path id="Vector_2" d="M7.02383 3.50029C5.10432 3.47565 3.51877 5.04197 3.50016 6.98113C3.48209 8.89728 5.03862 10.4729 6.97401 10.4981C8.89244 10.5227 10.4796 8.95477 10.4977 7.01671C10.5158 5.10055 8.95923 3.52492 7.02329 3.50029H7.02383ZM6.99099 9.32869C5.69999 9.32158 4.66523 8.28083 4.66961 6.99481C4.67399 5.70004 5.72572 4.6571 7.01398 4.67024C8.30716 4.68338 9.33919 5.72796 9.32824 7.01124C9.31729 8.30382 8.27596 9.33636 6.99099 9.32924V9.32869Z" fill="#808087"/>
<path id="Vector_3" d="M10.7948 2.33307C10.3152 2.32869 9.91828 2.72615 9.91993 3.21012C9.92102 3.6908 10.3059 4.07622 10.7872 4.07787C11.2711 4.08006 11.6703 3.68314 11.6664 3.2041C11.6626 2.7278 11.2722 2.3369 10.7954 2.33252L10.7948 2.33307Z" fill="#808087"/>
</g>
<defs>
<clipPath id="clip0_1676_2116">
<rect width="14" height="14" fill="white"/>
</clipPath>
</defs>
</svg>
