<svg width="90" height="90" viewBox="0 0 90 90" fill="none" xmlns="http://www.w3.org/2000/svg">
<g filter="url(#filter0_i_284_39300)">
<circle cx="45" cy="45" r="45" fill="#202025"/>
</g>
<path fill-rule="evenodd" clip-rule="evenodd" d="M68.024 50.0459C69.8249 47.9843 70.8407 45.4257 70.7142 42.6984C70.4189 36.3326 64.0121 31.4582 56.4042 31.8111C48.7963 32.1641 42.8683 37.6107 43.1636 43.9765C43.4589 50.3422 49.8658 55.2166 57.4736 54.8637C59.7432 54.7584 61.8633 54.1998 63.7133 53.2987C64.7051 54.0044 66.0933 54.6635 69.5947 53.9526C68.5722 53.0208 68.129 51.9634 68.024 50.0459Z" fill="url(#paint0_radial_284_39300)"/>
<circle cx="51.8097" cy="43.5952" r="1.28872" transform="rotate(-2.01254 51.8097 43.5952)" fill="#27282E"/>
<circle cx="56.9601" cy="43.4145" r="1.28872" transform="rotate(-2.01254 56.9601 43.4145)" fill="#27282E"/>
<circle cx="62.1125" cy="43.2329" r="1.28872" transform="rotate(-2.01254 62.1125 43.2329)" fill="#27282E"/>
<path fill-rule="evenodd" clip-rule="evenodd" d="M22.4269 38.8173C20.229 36.3011 18.9892 33.1784 19.1437 29.8497C19.5041 22.0802 27.3236 16.1311 36.6091 16.5618C45.8945 16.9926 53.1297 23.6402 52.7692 31.4096C52.4088 39.1791 44.5893 45.1283 35.3038 44.6975C32.5339 44.569 29.9464 43.8873 27.6886 42.7876C26.478 43.649 24.7839 44.4538 20.5099 43.5861C21.7579 42.4487 22.2989 41.1579 22.4269 38.8173Z" fill="url(#paint1_radial_284_39300)"/>
<circle cx="1.57288" cy="1.57288" r="1.57288" transform="matrix(-0.999383 -0.0351182 -0.0351182 0.999383 43.8438 29.4287)" fill="#27282E"/>
<circle cx="1.57288" cy="1.57288" r="1.57288" transform="matrix(-0.999383 -0.0351182 -0.0351182 0.999383 37.5566 29.208)" fill="#27282E"/>
<circle cx="1.57288" cy="1.57288" r="1.57288" transform="matrix(-0.999383 -0.0351182 -0.0351182 0.999383 31.2695 28.9863)" fill="#27282E"/>
<defs>
<filter id="filter0_i_284_39300" x="-5" y="-5" width="100" height="100" filterUnits="userSpaceOnUse" color-interpolation-filters="sRGB">
<feFlood flood-opacity="0" result="BackgroundImageFix"/>
<feBlend mode="normal" in="SourceGraphic" in2="BackgroundImageFix" result="shape"/>
<feColorMatrix in="SourceAlpha" type="matrix" values="0 0 0 0 0 0 0 0 0 0 0 0 0 0 0 0 0 0 127 0" result="hardAlpha"/>
<feOffset dy="4"/>
<feGaussianBlur stdDeviation="6.65"/>
<feComposite in2="hardAlpha" operator="arithmetic" k2="-1" k3="1"/>
<feColorMatrix type="matrix" values="0 0 0 0 0.243137 0 0 0 0 0.454902 0 0 0 0 0.992157 0 0 0 0.6 0"/>
<feBlend mode="normal" in2="shape" result="effect1_innerShadow_284_39300"/>
</filter>
<radialGradient id="paint0_radial_284_39300" cx="0" cy="0" r="1" gradientUnits="userSpaceOnUse" gradientTransform="translate(48.2745 36.2886) rotate(44.3765) scale(32.7501 39.1404)">
<stop stop-color="#264AA6"/>
<stop offset="0.319045" stop-color="#3A70F7"/>
<stop offset="1" stop-color="#5691FE"/>
</radialGradient>
<radialGradient id="paint1_radial_284_39300" cx="0" cy="0" r="1" gradientUnits="userSpaceOnUse" gradientTransform="translate(46.5314 22.0266) rotate(135.623) scale(39.9716 47.771)">
<stop stop-color="#619EFF"/>
<stop offset="0.483411" stop-color="#3E74FD"/>
<stop offset="1" stop-color="#2F62E3"/>
</radialGradient>
</defs>
</svg>
