<svg width="32" height="32" viewBox="0 0 32 32" fill="none" xmlns="http://www.w3.org/2000/svg">
<circle cx="16" cy="16" r="16" fill="#3F3F47"/>
<path d="M11.44 11.8824C12.24 11.8824 12.88 11.2319 12.88 10.4412C12.88 9.65054 12.23 9 11.44 9C10.65 9 10 9.65054 10 10.4412C10 11.2319 10.65 11.8824 11.44 11.8824ZM14.25 12.9733V21H16.73V17.0367C16.73 15.9858 16.93 14.975 18.22 14.975C19.51 14.975 19.51 16.176 19.51 17.0967V21H22V16.5963C22 14.4345 21.54 12.7731 19.02 12.7731C17.81 12.7731 17 13.4337 16.67 14.0642H16.64V12.9633H14.26L14.25 12.9733ZM10.2 12.9733H12.69V21H10.2V12.9733Z" fill="#9D9DA4"/>
</svg>
