<svg width="56" height="56" viewBox="0 0 56 56" fill="none" xmlns="http://www.w3.org/2000/svg">
<path d="M13.4096 27.4035L15.7348 25.9996C15.4716 25.5609 14.989 24.9686 14.2871 24.508C13.0587 23.6964 11.6109 23.5648 10.6896 23.6525C9.52703 23.7841 8.12315 24.2886 7.44315 25.6267C6.9167 26.899 7.17992 28.3467 7.9038 29.1583C8.10122 29.3777 8.47412 29.7287 8.9567 30.0138C9.32961 30.277 9.89993 30.5622 10.4045 30.6938L11.1283 30.9351C12.6858 31.33 12.949 31.5274 13.1464 31.7467C13.2999 31.9222 13.3219 31.9222 13.1903 32.1416C13.1025 32.3171 13.0148 32.3829 12.6419 32.5803C12.3787 32.7119 12.1374 32.7777 11.918 32.7777C11.1283 32.8435 10.7335 32.7558 10.0096 32.3171C9.50509 31.988 9.30767 31.5493 9.15412 31.2642L6.74121 32.4925C6.85089 32.7338 7.35541 33.8745 8.56186 34.6422C9.70251 35.3222 10.8212 35.6074 12.1154 35.4977C12.6638 35.4538 13.3658 35.2564 13.9141 34.9932C14.66 34.5764 15.2083 34.1377 15.6032 33.4358C16.3051 32.0538 15.8664 30.6938 15.1645 29.9261C14.6819 29.3996 13.8703 28.8512 11.8741 28.3028L11.1722 28.0835C10.909 28.0177 10.6677 27.8861 10.3606 27.6887C10.0754 27.5351 10.0315 27.4693 9.96574 27.3596C9.81219 27.228 9.76832 27.1622 9.89993 26.7893C10.0974 26.5041 10.4483 26.4164 10.9528 26.3725C11.5451 26.3067 12.1812 26.3725 12.7954 26.7893C13.1245 27.0086 13.2561 27.1622 13.4096 27.4035Z" fill="#A9A9A9"/>
<path d="M22.3599 33.1067C20.6928 33.1067 19.2669 31.659 19.2669 29.7287C19.2669 27.8203 20.6928 26.3725 22.3599 26.3725C24.027 26.3725 25.4528 27.8203 25.4528 29.7287C25.4528 31.659 24.027 33.1067 22.3599 33.1067ZM16.854 29.7287C16.854 32.8874 19.2669 35.5855 22.3599 35.5855C25.4747 35.5855 27.8657 32.8874 27.8657 29.7287C27.8657 26.5699 25.4747 23.8719 22.3599 23.8719C19.2669 23.8719 16.854 26.5699 16.854 29.7287Z" fill="#A9A9A9"/>
<path d="M35.2785 33.1945C33.5895 33.1945 32.1198 31.6809 32.1198 29.7067C32.1198 27.7545 33.5895 26.2628 35.2785 26.2628C36.9676 26.2628 38.4592 27.7545 38.4592 29.7067C38.4592 31.6809 36.9676 33.1945 35.2785 33.1945ZM29.3779 40.9816H32.0101V33.7429C32.8218 35.1906 34.6863 35.5855 35.476 35.5855C38.5689 35.5855 41.0037 32.8874 41.0037 29.7067C41.0037 26.5699 38.5689 23.8499 35.476 23.8499C34.7082 23.8499 32.8218 24.2886 32.0101 25.6706V23.8499H29.3779V40.9816Z" fill="#A9A9A9"/>
<path d="M49.2597 34.379L47.3733 32.4048C47.0662 32.7119 46.9565 32.7777 46.6494 32.7777C46.0571 32.7777 45.7281 32.4487 45.7281 31.7467V26.0215H48.7772V23.477H45.7281V19.7041H43.0081V23.477H41.012V26.0215H43.0081V31.7467C43.0081 33.7429 44.741 35.4977 46.6494 35.4977C47.6804 35.4977 48.5578 35.0371 49.2597 34.379Z" fill="#A9A9A9"/>
</svg>
