<svg width="20" height="20" viewBox="0 0 20 20" fill="none" xmlns="http://www.w3.org/2000/svg">
<g filter="url(#filter0_b_1892_9855)">
<path fill-rule="evenodd" clip-rule="evenodd" d="M3.45942 8.52426L8.89312 11.8686L12.1621 17.285C12.5943 18.0011 13.6635 17.8622 13.9018 17.0602L17.7082 4.24464C17.9267 3.51171 17.2522 2.82774 16.5226 3.03887L3.69383 6.77179C2.89173 7.0046 2.74741 8.08594 3.45942 8.52426ZM10.0723 10.6816C10.0726 10.6819 10.0729 10.6822 10.0732 10.6825C10.2432 10.8525 10.5187 10.8525 10.6886 10.6825L13.6422 7.72896C13.8121 7.55904 13.8121 7.28355 13.6422 7.11363C13.4722 6.94371 13.1967 6.94371 13.0268 7.11363L10.0732 10.0672C9.90365 10.2368 9.90333 10.5116 10.0723 10.6816Z" fill="#6F7BE8"/>
</g>
<defs>
<filter id="filter0_b_1892_9855" x="-21" y="-21" width="62.75" height="62.75" filterUnits="userSpaceOnUse" color-interpolation-filters="sRGB">
<feFlood flood-opacity="0" result="BackgroundImageFix"/>
<feGaussianBlur in="BackgroundImageFix" stdDeviation="12"/>
<feComposite in2="SourceAlpha" operator="in" result="effect1_backgroundBlur_1892_9855"/>
<feBlend mode="normal" in="SourceGraphic" in2="effect1_backgroundBlur_1892_9855" result="shape"/>
</filter>
</defs>
</svg>
