<svg width="32" height="32" viewBox="0 0 32 32" fill="none" xmlns="http://www.w3.org/2000/svg">
<circle cx="16" cy="16" r="16" fill="#3F3F47"/>
<path fill-rule="evenodd" clip-rule="evenodd" d="M16 8C13.8272 8 13.5552 8.0096 12.7016 8.048C11.8504 8.0872 11.2688 8.2224 10.76 8.42C10.226 8.62068 9.7422 8.93547 9.3424 9.3424C8.93549 9.74222 8.6207 10.226 8.42 10.76C8.2224 11.2688 8.0872 11.8504 8.048 12.7016C8.0088 13.5552 8 13.8272 8 16C8 18.1728 8.0088 18.4448 8.048 19.2984C8.0872 20.1496 8.2224 20.7312 8.42 21.24C8.62072 21.774 8.93551 22.2578 9.3424 22.6576C9.74224 23.0645 10.226 23.3793 10.76 23.58C11.2688 23.7776 11.8504 23.9128 12.7016 23.952C13.5552 23.9904 13.8272 24 16 24C18.1728 24 18.4448 23.9904 19.2984 23.952C20.1496 23.9128 20.7312 23.7776 21.24 23.58C21.774 23.3793 22.2578 23.0645 22.6576 22.6576C23.0645 22.2578 23.3793 21.774 23.58 21.24C23.7776 20.7312 23.9128 20.1496 23.952 19.2984C23.9904 18.4448 24 18.1728 24 16C24 13.8272 23.9904 13.5552 23.952 12.7016C23.9128 11.8504 23.7776 11.2688 23.58 10.76C23.3793 10.226 23.0645 9.74222 22.6576 9.3424C22.2578 8.93547 21.774 8.62068 21.24 8.42C20.7312 8.2224 20.1496 8.0872 19.2984 8.048C18.4448 8.0096 18.1728 8 16 8ZM16 9.4416C18.136 9.4416 18.3888 9.4496 19.232 9.488C20.0128 9.524 20.436 9.6536 20.7184 9.7632C21.0912 9.9088 21.3584 10.0824 21.6384 10.3616C21.9184 10.6416 22.0912 10.9088 22.2368 11.2816C22.3456 11.564 22.4768 11.9872 22.512 12.7672C22.5504 13.6112 22.5584 13.8632 22.5584 16C22.5584 18.136 22.5504 18.3888 22.512 19.232C22.476 20.0128 22.3456 20.436 22.2368 20.7184C22.1085 21.0659 21.9041 21.3803 21.6384 21.6384C21.3584 21.9184 21.0912 22.0912 20.7184 22.2368C20.436 22.3456 20.0128 22.4768 19.2328 22.512C18.3896 22.5504 18.1368 22.5584 16 22.5584C13.864 22.5584 13.6104 22.5504 12.768 22.512C11.9872 22.476 11.564 22.3456 11.2816 22.2368C10.9341 22.1086 10.6197 21.9041 10.3616 21.6384C10.0959 21.3803 9.89141 21.0659 9.7632 20.7184C9.6536 20.436 9.5232 20.0128 9.488 19.2328C9.4496 18.3888 9.4416 18.1368 9.4416 16C9.4416 13.864 9.4496 13.6112 9.488 12.768C9.524 11.9872 9.6536 11.564 9.7632 11.2816C9.9088 10.9088 10.0824 10.6416 10.3616 10.3616C10.6416 10.0816 10.9088 9.9088 11.2816 9.7632C11.564 9.6536 11.9872 9.5232 12.7672 9.488C13.6112 9.4496 13.8632 9.4416 16 9.4416ZM16 18.6664C15.2928 18.6664 14.6146 18.3855 14.1146 17.8854C13.6145 17.3854 13.3336 16.7072 13.3336 16C13.3336 15.2928 13.6145 14.6146 14.1146 14.1146C14.6146 13.6145 15.2928 13.3336 16 13.3336C16.7072 13.3336 17.3854 13.6145 17.8854 14.1146C18.3855 14.6146 18.6664 15.2928 18.6664 16C18.6664 16.7072 18.3855 17.3854 17.8854 17.8854C17.3854 18.3855 16.7072 18.6664 16 18.6664ZM16 11.892C15.4605 11.892 14.9263 11.9983 14.4279 12.2047C13.9295 12.4111 13.4767 12.7137 13.0952 13.0952C12.7137 13.4767 12.4111 13.9295 12.2047 14.4279C11.9983 14.9263 11.892 15.4605 11.892 16C11.892 16.5395 11.9983 17.0737 12.2047 17.5721C12.4111 18.0705 12.7137 18.5233 13.0952 18.9048C13.4767 19.2863 13.9295 19.5889 14.4279 19.7953C14.9263 20.0017 15.4605 20.108 16 20.108C17.0895 20.108 18.1344 19.6752 18.9048 18.9048C19.6752 18.1344 20.108 17.0895 20.108 16C20.108 14.9105 19.6752 13.8656 18.9048 13.0952C18.1344 12.3248 17.0895 11.892 16 11.892ZM21.2304 11.7296C21.2304 11.8557 21.2056 11.9805 21.1573 12.097C21.1091 12.2134 21.0384 12.3193 20.9492 12.4084C20.8601 12.4976 20.7542 12.5683 20.6378 12.6165C20.5213 12.6648 20.3965 12.6896 20.2704 12.6896C20.1443 12.6896 20.0195 12.6648 19.903 12.6165C19.7866 12.5683 19.6807 12.4976 19.5916 12.4084C19.5024 12.3193 19.4317 12.2134 19.3835 12.097C19.3352 11.9805 19.3104 11.8557 19.3104 11.7296C19.3104 11.475 19.4115 11.2308 19.5916 11.0508C19.7716 10.8707 20.0158 10.7696 20.2704 10.7696C20.525 10.7696 20.7692 10.8707 20.9492 11.0508C21.1293 11.2308 21.2304 11.475 21.2304 11.7296Z" fill="#9D9DA4"/>
</svg>
