<svg width="28" height="28" viewBox="0 0 28 28" fill="none" xmlns="http://www.w3.org/2000/svg">
<path fill-rule="evenodd" clip-rule="evenodd" d="M13.0312 1.45825H14.9688C15.592 1.45824 16.1122 1.45823 16.5371 1.49295C16.9803 1.52916 17.3964 1.60746 17.7899 1.80794C18.3936 2.11553 18.8844 2.60635 19.192 3.21003C19.3925 3.60351 19.4708 4.01961 19.507 4.46281C19.5417 4.88773 19.5417 5.40786 19.5417 6.03101V6.12492H24.5C24.9832 6.12492 25.375 6.51667 25.375 6.99992C25.375 7.48317 24.9832 7.87492 24.5 7.87492H23.0417V20.1041C23.0417 21.0524 23.0417 21.8172 22.9911 22.4366C22.939 23.0744 22.8289 23.6345 22.5648 24.1528C22.1454 24.976 21.4761 25.6453 20.6529 26.0647C20.1346 26.3288 19.5745 26.4389 18.9367 26.491C18.3173 26.5416 17.5524 26.5416 16.6041 26.5416H11.3959C10.4476 26.5416 9.68268 26.5416 9.06329 26.491C8.42554 26.4389 7.86538 26.3288 7.34713 26.0647C6.52392 25.6453 5.85463 24.976 5.43518 24.1528C5.17112 23.6345 5.06103 23.0744 5.00892 22.4366C4.95832 21.8172 4.95832 21.0524 4.95833 20.104V7.87492H3.5C3.01675 7.87492 2.625 7.48317 2.625 6.99992C2.625 6.51667 3.01675 6.12492 3.5 6.12492H8.45833V6.03109C8.45832 5.4079 8.45831 4.88775 8.49303 4.46281C8.52924 4.01961 8.60754 3.60351 8.80802 3.21003C9.11562 2.60635 9.60643 2.11553 10.2101 1.80794C10.6036 1.60746 11.0197 1.52916 11.4629 1.49295C11.8878 1.45823 12.408 1.45824 13.0312 1.45825ZM17.7917 6.12492H10.2083V6.06659C10.2083 5.39875 10.209 4.9505 10.2372 4.60531C10.2646 4.27033 10.3134 4.11017 10.3673 4.00452C10.5071 3.73011 10.7302 3.50702 11.0046 3.3672C11.1103 3.31337 11.2704 3.26451 11.6054 3.23714C11.9506 3.20893 12.3988 3.20825 13.0667 3.20825H14.9333C15.6012 3.20825 16.0494 3.20893 16.3946 3.23714C16.7296 3.26451 16.8897 3.31337 16.9954 3.3672C17.2698 3.50702 17.4929 3.73011 17.6327 4.00452C17.6866 4.11017 17.7354 4.27033 17.7628 4.60531C17.791 4.9505 17.7917 5.39875 17.7917 6.06659V6.12492ZM12.5417 13.4166C12.5417 12.9333 12.1499 12.5416 11.6667 12.5416C11.1834 12.5416 10.7917 12.9333 10.7917 13.4166V19.2499C10.7917 19.7332 11.1834 20.1249 11.6667 20.1249C12.1499 20.1249 12.5417 19.7332 12.5417 19.2499V13.4166ZM17.2083 13.4166C17.2083 12.9333 16.8166 12.5416 16.3333 12.5416C15.8501 12.5416 15.4583 12.9333 15.4583 13.4166V19.2499C15.4583 19.7332 15.8501 20.1249 16.3333 20.1249C16.8166 20.1249 17.2083 19.7332 17.2083 19.2499V13.4166Z" fill="#808087"/>
</svg>
