<svg width="90" height="90" viewBox="0 0 90 90" fill="none" xmlns="http://www.w3.org/2000/svg">
<g filter="url(#filter0_i_284_39304)">
<circle cx="45" cy="45" r="45" fill="#202025"/>
</g>
<path fill-rule="evenodd" clip-rule="evenodd" d="M56.4775 33.8068C57.3747 32.0458 57.8806 30.0521 57.8806 27.9403C57.8806 20.7936 52.087 15 44.9403 15C37.7936 15 32 20.7936 32 27.9403C32 29.9338 32.4508 31.822 33.256 33.5085C34.1347 35.6789 35.3995 37.6079 36.5507 39.3637C38.0557 41.659 39.3665 43.6581 39.3665 45.5129H44.9306V45.5124H50.4909C50.4909 43.6577 51.8017 41.6585 53.3067 39.3632C54.4048 37.6884 55.6063 35.8559 56.4775 33.8068Z" fill="url(#paint0_radial_284_39304)"/>
<ellipse cx="45.0388" cy="52.286" rx="5.88451" ry="3.72253" fill="url(#paint1_linear_284_39304)"/>
<rect x="37.5352" y="48.8613" width="15.0052" height="3.77557" rx="1.88778" fill="url(#paint2_linear_284_39304)"/>
<rect x="37.5352" y="45.0859" width="15.0052" height="3.77557" rx="1.88778" fill="url(#paint3_linear_284_39304)"/>
<defs>
<filter id="filter0_i_284_39304" x="-5" y="-5" width="100" height="100" filterUnits="userSpaceOnUse" color-interpolation-filters="sRGB">
<feFlood flood-opacity="0" result="BackgroundImageFix"/>
<feBlend mode="normal" in="SourceGraphic" in2="BackgroundImageFix" result="shape"/>
<feColorMatrix in="SourceAlpha" type="matrix" values="0 0 0 0 0 0 0 0 0 0 0 0 0 0 0 0 0 0 127 0" result="hardAlpha"/>
<feOffset dy="4"/>
<feGaussianBlur stdDeviation="6.65"/>
<feComposite in2="hardAlpha" operator="arithmetic" k2="-1" k3="1"/>
<feColorMatrix type="matrix" values="0 0 0 0 1 0 0 0 0 0.792157 0 0 0 0 0 0 0 0 0.5 0"/>
<feBlend mode="normal" in2="shape" result="effect1_innerShadow_284_39304"/>
</filter>
<radialGradient id="paint0_radial_284_39304" cx="0" cy="0" r="1" gradientUnits="userSpaceOnUse" gradientTransform="translate(44.9403 19.1152) rotate(68.2176) scale(20.0096 16.9719)">
<stop stop-color="#FFCA00"/>
<stop offset="1" stop-color="#FF9D00"/>
</radialGradient>
<linearGradient id="paint1_linear_284_39304" x1="45.0388" y1="48.5635" x2="45.0388" y2="56.0085" gradientUnits="userSpaceOnUse">
<stop stop-color="#FE5101"/>
<stop offset="1" stop-color="#FEBB01"/>
</linearGradient>
<linearGradient id="paint2_linear_284_39304" x1="45.0378" y1="48.8613" x2="45.0378" y2="52.6369" gradientUnits="userSpaceOnUse">
<stop stop-color="#FDB101"/>
<stop offset="1" stop-color="#FF6E1D"/>
</linearGradient>
<linearGradient id="paint3_linear_284_39304" x1="45.0378" y1="45.0859" x2="45.0378" y2="48.8615" gradientUnits="userSpaceOnUse">
<stop stop-color="#FDB101"/>
<stop offset="1" stop-color="#FF6E1D"/>
</linearGradient>
</defs>
</svg>
