<svg width="90" height="90" viewBox="0 0 90 90" fill="none" xmlns="http://www.w3.org/2000/svg">
<g filter="url(#filter0_i_284_39295)">
<circle cx="45" cy="45" r="45" fill="#202025"/>
</g>
<g opacity="0.3">
<path fill-rule="evenodd" clip-rule="evenodd" d="M44.9306 45.5124H44.9268H39.3665C39.3665 43.6577 38.0557 41.6585 36.5507 39.3632C35.4001 37.6083 34.136 35.6803 33.2573 33.5113C32.4513 31.824 32 29.9349 32 27.9403C32 20.7936 37.7936 15 44.9403 15C52.087 15 57.8806 20.7936 57.8806 27.9403C57.8806 30.0521 57.3747 32.0458 56.4775 33.8068C55.6063 35.8559 54.4048 37.6884 53.3067 39.3632C51.8017 41.6585 50.4909 43.6577 50.4909 45.5124H44.9306Z" fill="url(#paint0_radial_284_39295)"/>
<ellipse cx="45.0388" cy="52.286" rx="5.88451" ry="3.72253" fill="url(#paint1_linear_284_39295)"/>
<rect x="37.5352" y="48.8613" width="15.0052" height="3.77557" rx="1.88778" fill="url(#paint2_linear_284_39295)"/>
<rect x="37.5352" y="45.0859" width="15.0052" height="3.77557" rx="1.88778" fill="url(#paint3_linear_284_39295)"/>
</g>
<defs>
<filter id="filter0_i_284_39295" x="0" y="0" width="90" height="94" filterUnits="userSpaceOnUse" color-interpolation-filters="sRGB">
<feFlood flood-opacity="0" result="BackgroundImageFix"/>
<feBlend mode="normal" in="SourceGraphic" in2="BackgroundImageFix" result="shape"/>
<feColorMatrix in="SourceAlpha" type="matrix" values="0 0 0 0 0 0 0 0 0 0 0 0 0 0 0 0 0 0 127 0" result="hardAlpha"/>
<feOffset dy="4"/>
<feGaussianBlur stdDeviation="6.65"/>
<feComposite in2="hardAlpha" operator="arithmetic" k2="-1" k3="1"/>
<feColorMatrix type="matrix" values="0 0 0 0 1 0 0 0 0 1 0 0 0 0 1 0 0 0 0.05 0"/>
<feBlend mode="normal" in2="shape" result="effect1_innerShadow_284_39295"/>
</filter>
<radialGradient id="paint0_radial_284_39295" cx="0" cy="0" r="1" gradientUnits="userSpaceOnUse" gradientTransform="translate(44.9403 19.1151) rotate(90) scale(26.3973 22.3901)">
<stop stop-color="#D5D5D6"/>
<stop offset="1" stop-color="#666F82"/>
</radialGradient>
<linearGradient id="paint1_linear_284_39295" x1="45.0388" y1="48.5635" x2="45.0388" y2="56.0085" gradientUnits="userSpaceOnUse">
<stop stop-color="#444D5E"/>
<stop offset="1" stop-color="#455167"/>
</linearGradient>
<linearGradient id="paint2_linear_284_39295" x1="45.0378" y1="48.8613" x2="45.0378" y2="52.6369" gradientUnits="userSpaceOnUse">
<stop stop-color="#8B94A4"/>
<stop offset="1" stop-color="#5D687E"/>
</linearGradient>
<linearGradient id="paint3_linear_284_39295" x1="45.0378" y1="45.0859" x2="45.0378" y2="48.8615" gradientUnits="userSpaceOnUse">
<stop stop-color="#8B94A4"/>
<stop offset="1" stop-color="#5D687E"/>
</linearGradient>
</defs>
</svg>
