<svg width="24" height="24" viewBox="0 0 24 24" fill="none" xmlns="http://www.w3.org/2000/svg">
<path fill-rule="evenodd" clip-rule="evenodd" d="M13.9714 2.3795C15.147 1.22616 17.0355 1.24606 18.1864 2.42393L19.0507 3.30839C20.1983 4.48287 20.1785 6.36476 19.0063 7.51479L8.48032 17.8422C8.11559 18.2001 7.62503 18.4005 7.11408 18.4005H4.82582C3.74841 18.4005 2.875 17.5271 2.875 16.4497V14.0856C2.875 13.5617 3.08567 13.0599 3.45958 12.693L13.9714 2.3795ZM16.8646 3.71558C16.428 3.2688 15.7117 3.26125 15.2658 3.69872L4.75392 14.0123C4.73424 14.0316 4.72315 14.058 4.72315 14.0856V16.4497C4.72315 16.5064 4.76912 16.5524 4.82582 16.5524H7.11408C7.14097 16.5524 7.16679 16.5418 7.18598 16.523L17.712 6.19557C18.1566 5.75935 18.1641 5.04553 17.7288 4.60004L16.8646 3.71558Z" fill="#FCFCFC"/>
<path fill-rule="evenodd" clip-rule="evenodd" d="M2.27344 21.0002C2.27344 20.4899 2.68716 20.0762 3.19751 20.0762H20.7405C21.2508 20.0762 21.6646 20.4899 21.6646 21.0002C21.6646 21.5106 21.2508 21.9243 20.7405 21.9243H3.19751C2.68716 21.9243 2.27344 21.5106 2.27344 21.0002Z" fill="#FCFCFC"/>
</svg>
