<svg width="56" height="56" viewBox="0 0 56 56" fill="none" xmlns="http://www.w3.org/2000/svg">
<g clip-path="url(#clip0_1_6515)">
<path d="M44.4976 28.0336C44.4976 25.3273 44.4963 22.6211 44.4976 19.9149C44.4976 18.996 44.3879 18.0901 44.0911 17.2203C42.8974 13.7191 39.8182 11.5084 36.126 11.5032C30.7032 11.4968 25.2804 11.502 19.8589 11.502C18.9723 11.502 18.1012 11.6181 17.2598 11.8943C13.7844 13.0338 11.5131 16.1556 11.5054 19.8323C11.495 25.277 11.5028 30.7204 11.5028 36.1652C11.5028 37.0518 11.6202 37.9242 11.9029 38.763C13.0708 42.2422 16.1616 44.4865 19.8254 44.4942C25.2804 44.5058 30.7355 44.4994 36.1892 44.4955C37.6566 44.4955 39.049 44.1651 40.3086 43.4063C43.0845 41.7351 44.4796 39.2598 44.4938 36.0206C44.5054 33.357 44.4963 30.6946 44.4963 28.031L44.4976 28.0336ZM38.0295 41.4318C37.4281 41.6267 36.77 41.7273 36.1363 41.7299C30.7135 41.7531 25.2907 41.7493 19.8693 41.7402C17.1437 41.7351 15.0014 40.0432 14.3949 37.4221C14.2942 36.9885 14.2671 36.5291 14.2658 36.0813C14.2568 30.6908 14.2568 25.3002 14.2619 19.9097C14.2645 17.3893 15.6621 15.349 17.9877 14.567C18.6045 14.3592 19.2898 14.2805 19.9454 14.2727C22.6297 14.2404 25.314 14.2598 27.9983 14.2598C27.9983 14.265 27.9983 14.2688 27.9983 14.274C30.8645 14.274 33.7321 14.2417 36.5983 14.283C39.0464 14.3179 41.3384 16.424 41.6598 18.8476C41.7075 19.2077 41.7359 19.5742 41.7359 19.9368C41.7411 25.317 41.7178 30.6972 41.7488 36.0761C41.7643 38.6559 40.1589 40.7439 38.0295 41.4318Z" fill="#FCFCFC"/>
<path d="M28.0572 19.7517C23.5326 19.6936 19.7952 23.3858 19.7513 27.9568C19.7088 32.4736 23.3777 36.1878 27.9397 36.2471C32.4617 36.3052 36.2029 32.6091 36.2455 28.0407C36.2881 23.5239 32.6192 19.8097 28.0559 19.7517H28.0572ZM27.9797 33.4906C24.9367 33.4738 22.4976 31.0205 22.5079 27.9891C22.5182 24.937 24.9973 22.4785 28.0339 22.5095C31.0821 22.5405 33.5148 25.0028 33.489 28.0278C33.4632 31.0747 31.0086 33.5086 27.9797 33.4919V33.4906Z" fill="#FCFCFC"/>
<path d="M36.9461 17.0013C35.8156 16.991 34.8799 17.9279 34.8838 19.0687C34.8864 20.2018 35.7936 21.1103 36.928 21.1142C38.0688 21.1194 39.0096 20.1837 39.0006 19.0545C38.9915 17.9318 38.0714 17.0103 36.9473 17L36.9461 17.0013Z" fill="#FCFCFC"/>
</g>
<defs>
<clipPath id="clip0_1_6515">
<rect width="33" height="33.0013" fill="white" transform="translate(11.5 11.5)"/>
</clipPath>
</defs>
</svg>
