<svg width="20" height="20" viewBox="0 0 20 20" fill="none" xmlns="http://www.w3.org/2000/svg">
<path fill-rule="evenodd" clip-rule="evenodd" d="M2.77248 3.86502C2.5 4.3998 2.5 5.09987 2.5 6.5V11.6667C2.5 12.4416 2.5 12.8291 2.58519 13.147C2.81635 14.0098 3.49022 14.6836 4.35295 14.9148C4.67087 15 5.05836 15 5.83333 15V16.9463C5.83333 17.3903 5.83333 17.6123 5.92436 17.7263C6.00352 17.8255 6.12356 17.8832 6.25045 17.8831C6.39636 17.8829 6.56972 17.7442 6.91646 17.4668L8.90434 15.8765C9.31043 15.5517 9.51347 15.3892 9.73957 15.2737C9.94016 15.1712 10.1537 15.0963 10.3743 15.051C10.6231 15 10.8831 15 11.4031 15H13.5C14.9001 15 15.6002 15 16.135 14.7275C16.6054 14.4878 16.9878 14.1054 17.2275 13.635C17.5 13.1002 17.5 12.4001 17.5 11V6.5C17.5 5.09987 17.5 4.3998 17.2275 3.86502C16.9878 3.39462 16.6054 3.01217 16.135 2.77248C15.6002 2.5 14.9001 2.5 13.5 2.5H6.5C5.09987 2.5 4.3998 2.5 3.86502 2.77248C3.39462 3.01217 3.01217 3.39462 2.77248 3.86502ZM6.25 7.70833C5.6747 7.70833 5.20833 8.1747 5.20833 8.75C5.20833 9.3253 5.6747 9.79167 6.25 9.79167C6.8253 9.79167 7.29167 9.3253 7.29167 8.75C7.29167 8.1747 6.8253 7.70833 6.25 7.70833ZM10 7.70833C9.4247 7.70833 8.95833 8.1747 8.95833 8.75C8.95833 9.3253 9.4247 9.79167 10 9.79167C10.5753 9.79167 11.0417 9.3253 11.0417 8.75C11.0417 8.1747 10.5753 7.70833 10 7.70833ZM13.75 7.70833C13.1747 7.70833 12.7083 8.1747 12.7083 8.75C12.7083 9.3253 13.1747 9.79167 13.75 9.79167C14.3253 9.79167 14.7917 9.3253 14.7917 8.75C14.7917 8.1747 14.3253 7.70833 13.75 7.70833Z" fill="#3F3F47"/>
</svg>
