<svg width="32" height="32" viewBox="0 0 32 32" fill="none" xmlns="http://www.w3.org/2000/svg">
<circle cx="16" cy="16" r="16" fill="#3F3F47"/>
<path d="M8.71 16.5C8.71 14.961 9.961 13.71 11.5 13.71H15.1V12H11.5C9.016 12 7 14.016 7 16.5C7 18.984 9.016 21 11.5 21H15.1V19.29H11.5C9.961 19.29 8.71 18.039 8.71 16.5ZM12.4 17.4H19.6V15.6H12.4V17.4ZM20.5 12H16.9V13.71H20.5C22.039 13.71 23.29 14.961 23.29 16.5C23.29 18.039 22.039 19.29 20.5 19.29H16.9V21H20.5C22.984 21 25 18.984 25 16.5C25 14.016 22.984 12 20.5 12Z" fill="#9D9DA4"/>
</svg>
