<svg width="30" height="30" viewBox="0 0 30 30" fill="none" xmlns="http://www.w3.org/2000/svg">
<g clip-path="url(#clip0_286_5915)">
<path d="M4.875 15C4.875 12.8625 6.6125 11.125 8.75 11.125H13.75V8.75H8.75C5.3 8.75 2.5 11.55 2.5 15C2.5 18.45 5.3 21.25 8.75 21.25H13.75V18.875H8.75C6.6125 18.875 4.875 17.1375 4.875 15ZM10 16.25H20V13.75H10V16.25ZM21.25 8.75H16.25V11.125H21.25C23.3875 11.125 25.125 12.8625 25.125 15C25.125 17.1375 23.3875 18.875 21.25 18.875H16.25V21.25H21.25C24.7 21.25 27.5 18.45 27.5 15C27.5 11.55 24.7 8.75 21.25 8.75Z" fill="#808388"/>
</g>
<defs>
<clipPath id="clip0_286_5915">
<rect width="30" height="30" fill="white"/>
</clipPath>
</defs>
</svg>
