<svg width="33" height="27" viewBox="0 0 33 27" fill="none" xmlns="http://www.w3.org/2000/svg">
<g filter="url(#filter0_b_286_5261)">
<path fill-rule="evenodd" clip-rule="evenodd" d="M9.61787 2.32544C9.60238 2.46694 9.60238 2.6351 9.60238 2.97141C9.60238 3.08284 9.60238 3.17581 9.60295 3.25547C5.99195 3.31101 3.93723 3.588 2.55569 4.96954C0.827695 6.69754 0.827695 9.47871 0.827695 15.041C0.827695 20.6034 0.827695 23.3846 2.55569 25.1126C4.28369 26.8406 7.06486 26.8406 12.6272 26.8406H20.4935C26.0559 26.8406 28.8371 26.8406 30.5651 25.1126C32.2931 23.3846 32.2931 20.6034 32.2931 15.041C32.2931 9.47871 32.2931 6.69754 30.5651 4.96954C29.1835 3.58803 27.1289 3.31102 23.518 3.25547C23.5186 3.17581 23.5186 3.08284 23.5186 2.97141C23.5186 2.6351 23.5186 2.46694 23.5031 2.32544C23.37 1.10908 22.4095 0.148596 21.1931 0.015485C21.0516 0 20.8835 0 20.5472 0H12.5738C12.2375 0 12.0693 0 11.9278 0.015485C10.7115 0.148596 9.75098 1.10908 9.61787 2.32544ZM12.1355 15.041C12.1355 12.5972 14.1166 10.6162 16.5603 10.6162C19.0041 10.6162 20.9851 12.5972 20.9851 15.041C20.9851 17.4848 19.0041 19.4658 16.5603 19.4658C14.1166 19.4658 12.1355 17.4848 12.1355 15.041ZM16.5603 7.66631C12.4874 7.66631 9.18564 10.9681 9.18564 15.041C9.18564 19.1139 12.4874 22.4157 16.5603 22.4157C20.6333 22.4157 23.935 19.1139 23.935 15.041C23.935 10.9681 20.6333 7.66631 16.5603 7.66631ZM24.4268 8.15801C24.4268 7.61495 24.867 7.17472 25.4101 7.17472H27.3767C27.9197 7.17472 28.36 7.61495 28.36 8.15801C28.36 8.70107 27.9197 9.1413 27.3767 9.1413H25.4101C24.867 9.1413 24.4268 8.70107 24.4268 8.15801Z" fill="#606265"/>
</g>
<defs>
<filter id="filter0_b_286_5261" x="-0.404249" y="-1.23189" width="33.9291" height="29.3043" filterUnits="userSpaceOnUse" color-interpolation-filters="sRGB">
<feFlood flood-opacity="0" result="BackgroundImageFix"/>
<feGaussianBlur in="BackgroundImageFix" stdDeviation="0.615943"/>
<feComposite in2="SourceAlpha" operator="in" result="effect1_backgroundBlur_286_5261"/>
<feBlend mode="normal" in="SourceGraphic" in2="effect1_backgroundBlur_286_5261" result="shape"/>
</filter>
</defs>
</svg>
