<svg width="60" height="60" viewBox="0 0 60 60" fill="none" xmlns="http://www.w3.org/2000/svg">
<rect width="60" height="60" rx="12" fill="white"/>
<path d="M26.2749 39.9053V34.6227C26.2749 33.9003 26.594 33.2147 27.1467 32.7496L43.9218 18.6324C44.5908 18.0694 45.6127 18.545 45.6128 19.4195L45.6128 24.7801C45.6128 25.5049 45.2917 26.1925 44.7358 26.6576L27.9637 40.6942C27.2942 41.2545 26.2749 40.7785 26.2749 39.9053Z" fill="black"/>
<rect x="39.162" y="40.9305" width="6.44434" height="6.44428" rx="1.02866" transform="rotate(-90 39.162 40.9305)" fill="black"/>
<path d="M31.0316 18.6313C31.7006 18.0688 32.7218 18.5443 32.722 19.4185V24.7798C32.7219 25.5044 32.4007 26.1917 31.845 26.6567L19.8245 36.7163V39.9009C19.8245 40.469 19.3643 40.9301 18.7962 40.9302H14.4984C14.3358 40.9431 14.1749 40.9155 14.0267 40.855C14.0192 40.852 14.0116 40.8494 14.0042 40.8462C13.98 40.8357 13.9563 40.8243 13.9329 40.812C13.9223 40.8065 13.9121 40.8003 13.9017 40.7944C13.88 40.782 13.858 40.7703 13.8372 40.7563C13.8233 40.747 13.8106 40.736 13.7972 40.7261C13.7632 40.7009 13.7303 40.6743 13.6995 40.645C13.6902 40.6361 13.6812 40.6269 13.6722 40.6177C13.6207 40.5649 13.5748 40.5067 13.5355 40.4429C13.5197 40.4175 13.5051 40.3915 13.4915 40.3647C13.4862 40.3541 13.4808 40.3434 13.4759 40.3325C13.4151 40.2012 13.3802 40.0551 13.3802 39.9009V35.5142C13.3802 35.4905 13.3825 35.4671 13.3841 35.4438V34.6216C13.3842 33.8993 13.7035 33.2136 14.2562 32.7485L31.0316 18.6313Z" fill="black"/>
</svg>
