<svg width="8" height="6" viewBox="0 0 8 6" fill="none" xmlns="http://www.w3.org/2000/svg">
<path d="M1.26238 2.66783C1.07892 2.46144 0.762881 2.44285 0.55649 2.62631C0.350099 2.80977 0.331508 3.1258 0.514967 3.3322L1.26238 2.66783ZM2.96275 5.33335L2.58904 5.66553C2.67867 5.76636 2.80524 5.82669 2.94 5.83283C3.07477 5.83897 3.2063 5.79038 3.30472 5.69811L2.96275 5.33335ZM7.45286 1.80923C7.65432 1.62036 7.66453 1.30394 7.47566 1.10249C7.2868 0.901031 6.97038 0.890824 6.76892 1.07969L7.45286 1.80923ZM0.514967 3.3322L2.58904 5.66553L3.33645 5.00116L1.26238 2.66783L0.514967 3.3322ZM3.30472 5.69811L7.45286 1.80923L6.76892 1.07969L2.62078 4.96858L3.30472 5.69811Z" fill="#FCFCFC"/>
</svg>
