<svg width="94" height="94" viewBox="0 0 94 94" fill="none" xmlns="http://www.w3.org/2000/svg">
<path d="M33.087 44.4486H7V42.2747C12.0725 42.2747 23.6667 40.8254 30.1884 32.1298C35.4058 25.1733 38.1594 14.2554 38.8841 9.66602H41.058L33.087 44.4486Z" fill="#CDF47C"/>
<path d="M30.9131 41.5514L57 41.5514L57 43.7253C51.9275 43.7253 40.3333 45.1746 33.8116 53.8702C28.5942 60.8267 25.8406 71.7446 25.1159 76.334L22.942 76.334L30.9131 41.5514Z" fill="#CDF47C"/>
<path d="M70.2174 64.9565H53V63.5217C56.3478 63.5217 64 62.5652 68.3043 56.8261C71.7478 52.2348 73.5652 45.029 74.0435 42H75.4783L70.2174 64.9565Z" fill="#606265"/>
<path d="M70.7396 63.0435L87.957 63.0435L87.957 64.4783C84.6092 64.4783 76.957 65.4348 72.6527 71.1739C69.2092 75.7652 67.3918 82.971 66.9136 86L65.4788 86L70.7396 63.0435Z" fill="#606265"/>
</svg>
