<svg width="30" height="30" viewBox="0 0 30 30" fill="none" xmlns="http://www.w3.org/2000/svg">
<rect width="30" height="30" rx="5" fill="#181818"/>
<path d="M24.9492 10.8801C24.9023 9.81739 24.7304 9.08681 24.4842 8.45375C24.2302 7.78177 23.8394 7.18015 23.3274 6.68002C22.8272 6.17211 22.2215 5.77744 21.5572 5.52745C20.9203 5.28128 20.1934 5.10943 19.1306 5.06257C18.0597 5.01175 17.7198 5 15.0039 5C12.288 5 11.948 5.01175 10.8812 5.05861C9.81831 5.10546 9.08759 5.27746 8.45456 5.52348C7.7823 5.77744 7.18057 6.16814 6.68034 6.68002C6.17233 7.18015 5.77774 7.78574 5.52755 8.44993C5.28133 9.08681 5.10945 9.81342 5.06259 10.8761C5.01175 11.9467 5 12.2866 5 15.002C5 17.7174 5.01175 18.0572 5.05862 19.1239C5.10548 20.1866 5.27751 20.9172 5.52373 21.5502C5.77774 22.2222 6.17233 22.8238 6.68034 23.3239C7.18057 23.8319 7.78627 24.2265 8.45059 24.4765C9.08759 24.7227 9.81434 24.8945 10.8774 24.9414C11.9441 24.9884 12.2842 25 15.0001 25C17.716 25 18.0559 24.9884 19.1228 24.9414C20.1857 24.8945 20.9164 24.7227 21.5494 24.4765C22.8938 23.9569 23.9567 22.8942 24.4764 21.5502C24.7225 20.9133 24.8945 20.1866 24.9414 19.1239C24.9882 18.0572 25 17.7174 25 15.002C25 12.2866 24.996 11.9467 24.9492 10.8801ZM23.1478 19.0458C23.1047 20.0225 22.9406 20.55 22.8039 20.9016C22.4677 21.7729 21.7761 22.4644 20.9046 22.8005C20.5529 22.9372 20.0216 23.1013 19.0484 23.1442C17.9933 23.1912 17.6769 23.2028 15.0079 23.2028C12.3388 23.2028 12.0184 23.1912 10.9671 23.1442C9.99019 23.1013 9.46264 22.9372 9.11094 22.8005C8.67727 22.6402 8.28253 22.3863 7.96212 22.0542C7.62996 21.7299 7.37596 21.3391 7.21568 20.9056C7.0789 20.5539 6.91481 20.0225 6.87191 19.0497C6.8249 17.9948 6.8133 17.6783 6.8133 15.0098C6.8133 12.3412 6.8249 12.0209 6.87191 10.97C6.91481 9.99321 7.0789 9.46576 7.21568 9.11413C7.37596 8.68039 7.62996 8.28587 7.96609 7.96537C8.29031 7.63327 8.68109 7.37932 9.11491 7.21922C9.46661 7.08247 9.99813 6.91841 10.9711 6.87537C12.0262 6.82852 12.3428 6.81677 15.0117 6.81677C17.6847 6.81677 18.0011 6.82852 19.0524 6.87537C20.0293 6.91841 20.5569 7.08247 20.9086 7.21922C21.3423 7.37932 21.737 7.63327 22.0574 7.96537C22.3896 8.28968 22.6436 8.68039 22.8039 9.11413C22.9406 9.46576 23.1047 9.99702 23.1478 10.97C23.1946 12.0249 23.2064 12.3412 23.2064 15.0098C23.2064 17.6783 23.1946 17.9909 23.1478 19.0458Z" fill="#FCFCFC"/>
<path d="M15.004 9.86426C12.167 9.86426 9.86523 12.1654 9.86523 15.002C9.86523 17.8386 12.167 20.1397 15.004 20.1397C17.8411 20.1397 20.1427 17.8386 20.1427 15.002C20.1427 12.1654 17.8411 9.86426 15.004 9.86426ZM15.004 18.3347C13.1635 18.3347 11.6706 16.8423 11.6706 15.002C11.6706 13.1617 13.1635 11.6693 15.004 11.6693C16.8446 11.6693 18.3373 13.1617 18.3373 15.002C18.3373 16.8423 16.8446 18.3347 15.004 18.3347Z" fill="#FCFCFC"/>
<path d="M21.5459 9.66157C21.5459 10.3241 21.0088 10.8612 20.3461 10.8612C19.6837 10.8612 19.1465 10.3241 19.1465 9.66157C19.1465 8.99893 19.6837 8.46191 20.3461 8.46191C21.0088 8.46191 21.5459 8.99893 21.5459 9.66157Z" fill="#FCFCFC"/>
</svg>
