<svg width="54" height="54" viewBox="0 0 54 54" fill="none" xmlns="http://www.w3.org/2000/svg">
<rect width="54" height="54" rx="10" fill="#181818"/>
<g clip-path="url(#clip0_1187_7943)">
<path d="M34.3706 13.5C36.4376 13.5915 38.3454 14.6244 39.3833 16.8932C40.4313 19.1846 40.1279 21.3807 38.5573 23.3738C38.358 23.6257 38.1173 23.8464 37.8892 24.0745C36.1518 25.8181 34.412 27.558 32.6759 29.3028C30.3707 31.618 26.5764 31.6631 24.2386 29.3993C23.7748 28.9493 23.7297 28.3527 24.1283 27.9265C24.5257 27.5015 25.1323 27.5053 25.6037 27.9365C27.2921 29.4796 29.6324 29.4608 31.2557 27.8588C33.156 25.9848 35.0625 24.1133 36.9102 22.1892C38.0358 21.0172 38.2564 19.5694 37.7112 18.059C37.1759 16.5773 36.0603 15.7337 34.4985 15.5344C33.1911 15.3677 32.0504 15.755 31.1103 16.6989C30.11 17.7042 29.1009 18.7008 28.0994 19.7048C27.7722 20.0332 27.3936 20.1473 26.9599 19.9856C26.2668 19.7274 26.1076 18.87 26.6528 18.3184C27.5842 17.3771 28.5155 16.4344 29.4644 15.5119C29.8505 15.1358 30.2566 14.7673 30.7016 14.4652C31.6881 13.7983 32.7975 13.5063 34.3706 13.5Z" fill="#FCFCFC"/>
<path d="M19.9802 39.4701C17.4983 39.4738 15.3247 38.0236 14.4272 35.7648C13.5059 33.4458 14.1038 30.8109 15.8763 29.0849C17.6838 27.325 19.4738 25.5437 21.2249 23.7274C23.5088 21.3596 27.4824 21.2856 29.7775 23.6159C30.1724 24.0157 30.22 24.561 29.8979 24.9759C29.592 25.3695 29.033 25.4811 28.6055 25.2241C28.5002 25.1602 28.4075 25.0712 28.316 24.9872C26.6877 23.4968 24.2985 23.5331 22.7304 25.09C20.8351 26.9702 18.9298 28.8404 17.0746 30.7595C15.9427 31.9303 15.7108 33.3731 16.2461 34.8835C16.78 36.3928 17.9132 37.2464 19.5026 37.4382C20.7875 37.5923 21.9106 37.2138 22.8357 36.29C23.846 35.2796 24.8626 34.2756 25.8691 33.2628C26.1875 32.9419 26.5573 32.8303 26.9797 32.9732C27.6654 33.2051 27.8647 34.0675 27.3508 34.609C26.8556 35.1305 26.3379 35.6306 25.829 36.1395C25.2236 36.7437 24.6369 37.3667 24.0064 37.9421C22.872 38.9775 21.5095 39.4525 19.9815 39.4713L19.9802 39.4701Z" fill="#FCFCFC"/>
</g>
<defs>
<clipPath id="clip0_1187_7943">
<rect width="26" height="25.9687" fill="white" transform="translate(14 13.5)"/>
</clipPath>
</defs>
</svg>
