<svg width="56" height="56" viewBox="0 0 56 56" fill="none" xmlns="http://www.w3.org/2000/svg">
<g clip-path="url(#clip0_1_6540)">
<path d="M35.6539 14.5C37.8004 14.595 39.7816 15.6676 40.8594 18.0237C41.9476 20.4032 41.6326 22.6838 40.0016 24.7535C39.7946 25.0152 39.5447 25.2443 39.3078 25.4812C37.5036 27.2919 35.6968 29.0986 33.894 30.9106C31.5001 33.3149 27.5599 33.3617 25.1322 31.0108C24.6505 30.5435 24.6037 29.9239 25.0176 29.4813C25.4303 29.0401 26.0603 29.044 26.5497 29.4918C28.3031 31.0942 30.7334 31.0746 32.4191 29.4111C34.3925 27.465 36.3724 25.5216 38.2911 23.5234C39.4601 22.3063 39.6892 20.8029 39.1229 19.2343C38.5671 17.6957 37.4086 16.8196 35.7866 16.6127C34.429 16.4395 33.2444 16.8418 32.2681 17.822C31.2294 18.8659 30.1815 19.9008 29.1414 20.9434C28.8017 21.2845 28.4086 21.403 27.9582 21.235C27.2383 20.9669 27.073 20.0765 27.6393 19.5038C28.6064 18.5262 29.5736 17.5473 30.559 16.5892C30.9599 16.1987 31.3817 15.816 31.8438 15.5023C32.8682 14.8098 34.0202 14.5065 35.6539 14.5Z" fill="#FCFCFC"/>
<path d="M20.7103 41.4687C18.1329 41.4726 15.8758 39.9666 14.9437 37.6209C13.987 35.2127 14.6079 32.4766 16.4485 30.6841C18.3256 28.8565 20.1844 27.0068 22.0029 25.1206C24.3746 22.6617 28.501 22.5849 30.8844 25.0048C31.2945 25.42 31.3439 25.9862 31.0094 26.4171C30.6918 26.8258 30.1112 26.9417 29.6673 26.6748C29.558 26.6085 29.4617 26.516 29.3666 26.4288C27.6757 24.8811 25.1947 24.9188 23.5662 26.5356C21.5981 28.4881 19.6195 30.4303 17.6929 32.4232C16.5175 33.639 16.2767 35.1372 16.8325 36.7058C17.387 38.2731 18.5638 39.1595 20.2143 39.3587C21.5486 39.5188 22.7149 39.1257 23.6756 38.1663C24.7248 37.1171 25.7804 36.0745 26.8257 35.0227C27.1564 34.6895 27.5404 34.5736 27.979 34.722C28.6911 34.9628 28.898 35.8584 28.3643 36.4207C27.8502 36.9622 27.3126 37.4816 26.7841 38.0101C26.1553 38.6375 25.5461 39.2845 24.8914 39.882C23.7133 40.9572 22.2984 41.4505 20.7116 41.47L20.7103 41.4687Z" fill="#FCFCFC"/>
</g>
<defs>
<clipPath id="clip0_1_6540">
<rect width="27" height="26.9675" fill="white" transform="translate(14.5 14.5)"/>
</clipPath>
</defs>
</svg>
