<svg width="56" height="56" viewBox="0 0 56 56" fill="none" xmlns="http://www.w3.org/2000/svg">
<g clip-path="url(#clip0_1_6521)">
<path d="M11.0047 27.9975C11.0047 24.4241 10.9954 20.8506 11.0074 17.2771C11.0167 14.5558 12.7821 12.1402 15.3759 11.3279C15.9794 11.1391 16.6322 11.0195 17.2623 11.0168C24.4199 10.9956 31.5775 10.9916 38.7365 11.0089C42.1664 11.0168 44.9768 13.8179 44.9861 17.2439C45.0047 24.4134 45.0047 31.583 44.9861 38.7526C44.9768 42.1652 42.1757 44.9756 38.7684 44.9862C31.5882 45.0075 24.4079 45.0075 17.2277 44.9862C13.8218 44.9756 11.0286 42.1599 11.01 38.7512C10.9901 35.1671 11.006 31.5817 11.006 27.9975H11.0047ZM13.3472 21.7453V22.1242C13.3472 27.5788 13.3472 33.0321 13.3472 38.4867C13.3472 40.9235 15.0688 42.6504 17.5029 42.6518C24.505 42.6544 31.5084 42.6558 38.5105 42.6518C40.9247 42.6518 42.6489 40.9209 42.6503 38.504C42.6529 33.0387 42.6503 27.5735 42.6503 22.1082C42.6503 21.9912 42.6396 21.8729 42.6343 21.7453H13.3472ZM42.6848 19.3696C42.6463 18.4124 42.7021 17.4845 42.5559 16.5898C42.2448 14.702 40.6349 13.3779 38.6952 13.3526C36.6386 13.3247 34.5807 13.346 32.5227 13.346C32.4603 13.346 32.3991 13.3553 32.3034 13.3619C32.3446 13.4417 32.3632 13.4909 32.3925 13.5321C33.7897 15.4279 35.1869 17.3249 36.5921 19.2141C36.6559 19.3005 36.8088 19.3616 36.9218 19.3643C37.5413 19.3789 38.1608 19.3709 38.7803 19.3709C40.0513 19.3709 41.3235 19.3709 42.6848 19.3709V19.3696ZM23.6754 19.3523C23.6608 19.3031 23.6595 19.2686 23.6435 19.246C22.2277 17.3249 20.8132 15.4039 19.3894 13.4896C19.3309 13.4098 19.1913 13.3526 19.0876 13.3513C18.4801 13.3393 17.8712 13.33 17.265 13.3513C15.3439 13.4151 13.7593 14.7219 13.4389 16.5898C13.3152 17.3117 13.3711 18.0654 13.3485 18.8033C13.3432 18.9867 13.3485 19.1689 13.3485 19.3536H23.6754V19.3523ZM22.2556 13.358C22.3021 13.4444 22.3261 13.5042 22.362 13.5534C23.7472 15.4305 25.1298 17.309 26.5257 19.1768C26.6055 19.2832 26.7943 19.3603 26.9338 19.3616C29.1128 19.3736 31.2917 19.3696 33.4693 19.3696C33.5517 19.3696 33.6341 19.3603 33.7458 19.3536C33.7046 19.2832 33.6873 19.2446 33.6634 19.2114C32.2662 17.3156 30.8703 15.4199 29.4624 13.5321C29.3826 13.4258 29.1885 13.354 29.0476 13.3526C26.8807 13.342 24.7124 13.3447 22.5454 13.346C22.4617 13.346 22.3766 13.3526 22.2569 13.3593L22.2556 13.358Z" fill="#FCFCFC"/>
<path d="M23.2183 32.1758C23.2183 30.4396 23.217 28.7034 23.2183 26.9671C23.2183 25.8704 24.1383 25.3266 25.0822 25.8704C28.0973 27.6066 31.1111 29.3455 34.1222 31.087C34.783 31.4686 35.0382 32.0894 34.7218 32.665C34.5822 32.919 34.331 33.1476 34.0757 33.2965C31.6535 34.7123 29.2207 36.1082 26.7905 37.5108C26.2162 37.8418 25.6459 38.1781 25.0676 38.5039C24.1356 39.029 23.2197 38.4906 23.217 37.4164C23.2143 35.6695 23.217 33.9213 23.217 32.1745L23.2183 32.1758ZM25.5807 28.8669V35.502C27.5044 34.3906 29.3882 33.3018 31.3238 32.1838C29.3815 31.0617 27.5017 29.9769 25.5807 28.8669Z" fill="#FCFCFC"/>
</g>
<defs>
<clipPath id="clip0_1_6521">
<rect width="34.0013" height="34.0026" fill="white" transform="translate(10.999 10.999)"/>
</clipPath>
</defs>
</svg>
