<svg width="16" height="16" viewBox="0 0 16 16" fill="none" xmlns="http://www.w3.org/2000/svg">
<rect x="1.5" y="1.5" width="13" height="13" rx="1.5" stroke="#808087"/>
<path fill-rule="evenodd" clip-rule="evenodd" d="M8.25469 6.398V7.2465C8.43238 6.97584 8.6773 6.75595 8.96548 6.60835C9.25365 6.46076 9.57522 6.39052 9.89869 6.4045C11.6262 6.4045 11.9997 7.4845 11.9997 8.8895V11.75H10.3997V9.214C10.3997 8.609 10.2777 7.831 9.33569 7.831C8.42219 7.831 8.26619 8.4895 8.26619 9.169V11.75H6.67119V6.398H8.25469ZM5.59969 5.053C5.59949 5.2115 5.55251 5.36642 5.46463 5.49833C5.37675 5.63023 5.25189 5.73327 5.10569 5.7945C4.95956 5.85524 4.79865 5.87113 4.64346 5.84014C4.48826 5.80916 4.3458 5.7327 4.23419 5.6205C4.12237 5.50823 4.04625 5.3654 4.01539 5.20998C3.98453 5.05456 4.00031 4.89349 4.06075 4.74701C4.12119 4.60054 4.22358 4.4752 4.35506 4.38677C4.48655 4.29834 4.64124 4.25075 4.79969 4.25C4.905 4.25 5.00928 4.27079 5.10653 4.31118C5.20379 4.35157 5.29211 4.41077 5.36644 4.48537C5.44077 4.55998 5.49963 4.64852 5.53966 4.74593C5.57968 4.84334 5.60009 4.94769 5.59969 5.053Z" fill="#808087"/>
<path d="M5.6 6.4043H4V11.7498H5.6V6.4043Z" fill="#808087"/>
</svg>
