<svg width="20" height="20" viewBox="0 0 20 20" fill="none" xmlns="http://www.w3.org/2000/svg">
<path fill-rule="evenodd" clip-rule="evenodd" d="M10.4087 2.45C7.14549 1.57563 3.78371 3.54061 2.89994 6.8389C2.01616 10.1372 3.94506 13.5198 7.20824 14.3942C10.4714 15.2685 13.8332 13.3036 14.717 10.0053C15.1414 8.42138 14.9259 6.73555 14.1179 5.31866C13.31 3.90177 11.9757 2.86988 10.4087 2.45ZM14.7101 16.6819L13.3309 14.7899C13.1356 14.4541 12.7088 14.3397 12.3717 14.5328C12.1963 14.6349 12.0681 14.803 12.0153 15C11.9625 15.197 11.9895 15.4067 12.0903 15.5827L13.1022 17.6477C13.3618 18.1029 13.939 18.2576 14.3914 17.9932C14.8439 17.7287 15.0002 17.1453 14.7406 16.69L14.7101 16.6819ZM11.4755 6.5271C11.7941 6.35703 11.9402 5.96013 11.7981 5.61676L11.7512 5.52304C11.2233 4.40786 10.0551 3.74267 8.84547 3.86499C8.46706 3.91535 8.19966 4.26656 8.24687 4.65639C8.30195 5.04228 8.6563 5.31795 9.04574 5.26995C9.64505 5.20662 10.2313 5.53469 10.5065 6.08519L10.5187 6.10961C10.5939 6.29744 10.7352 6.44433 10.9124 6.5231C11.0896 6.60187 11.294 6.59717 11.4755 6.5271Z" fill="#CE7CDC"/>
</svg>
