<svg width="20" height="20" viewBox="0 0 20 20" fill="none" xmlns="http://www.w3.org/2000/svg">
<path fill-rule="evenodd" clip-rule="evenodd" d="M16.875 12.082C16.875 15.8728 13.7942 18.9553 10.0042 18.957H10.0083H10H10.0042C6.215 18.9553 3.13333 15.8728 3.13333 12.082C3.13333 11.1986 3.13333 9.36531 4.93333 7.10698C5.01294 7.00813 5.12082 6.93594 5.24256 6.90005C5.3643 6.86417 5.49409 6.8663 5.61459 6.90616C5.73508 6.94602 5.84054 7.02172 5.91685 7.12313C5.99317 7.22454 6.03672 7.34683 6.04167 7.47365C6.05 7.80698 6.19167 8.58198 6.53333 8.84865C6.61667 8.91531 6.74167 8.98198 7.00833 8.92365C7.575 8.80698 7.66667 8.38198 7.70833 6.87365V6.87115C7.75833 5.00448 7.82667 2.44865 11 1.09115C11.2 1.00781 11.4167 1.02448 11.5917 1.14115C11.7667 1.25781 11.875 1.45781 11.875 1.66615C11.875 3.42448 12.8833 4.59948 14.05 5.95781C15.375 7.49115 16.875 9.24115 16.875 12.0828" fill="#F04251"/>
<path d="M9.9974 16.458C12.0474 16.458 13.5391 14.7913 13.5391 12.4997C13.5391 11.3163 12.5474 9.14966 11.0557 8.58299C10.9647 8.54972 10.8675 8.53695 10.771 8.54559C10.6745 8.55424 10.581 8.58408 10.4974 8.63299C10.4153 8.6842 10.3463 8.75375 10.2957 8.83617C10.2451 8.9186 10.2143 9.01164 10.2057 9.10799C10.1307 9.95799 9.7974 11.033 9.08906 11.4747C8.63073 11.7663 8.03073 11.7663 7.2974 11.4913C7.20247 11.4571 7.10068 11.4462 7.00064 11.4596C6.90061 11.473 6.80528 11.5103 6.72271 11.5683C6.64015 11.6263 6.57277 11.7034 6.5263 11.793C6.47983 11.8826 6.45562 11.9821 6.45573 12.083C6.45573 14.4997 8.0474 16.458 9.9974 16.458Z" fill="#FE818B"/>
</svg>
