<svg width="30" height="30" viewBox="0 0 30 30" fill="none" xmlns="http://www.w3.org/2000/svg">
<rect width="30" height="30" rx="5" fill="#181818"/>
<path d="M20.5481 4.00458L17.6699 4C14.4362 4 12.3465 6.12509 12.3465 9.41423V11.9106H9.45258C9.20251 11.9106 9 12.1115 9 12.3594V15.9763C9 16.2241 9.20274 16.4249 9.45258 16.4249H12.3465V25.5514C12.3465 25.7993 12.549 26 12.7991 26H16.5749C16.825 26 17.0275 25.799 17.0275 25.5514V16.4249H20.4112C20.6613 16.4249 20.8638 16.2241 20.8638 15.9763L20.8652 12.3594C20.8652 12.2404 20.8174 12.1264 20.7326 12.0422C20.6479 11.9579 20.5324 11.9106 20.4123 11.9106H17.0275V9.79439C17.0275 8.77727 17.272 8.26094 18.6087 8.26094L20.5477 8.26025C20.7975 8.26025 21 8.0593 21 7.81166V4.45317C21 4.20576 20.7977 4.00504 20.5481 4.00458Z" fill="#FCFCFC"/>
</svg>
