<svg width="48" height="48" viewBox="0 0 48 48" fill="none" xmlns="http://www.w3.org/2000/svg">
<path d="M20 30L13.8495 36.2274C12.9916 37.096 12.5626 37.5304 12.1939 37.561C11.874 37.5876 11.5608 37.459 11.3519 37.2153C11.1111 36.9344 11.1111 36.324 11.1111 35.1031V31.9832C11.1111 30.8879 10.2141 30.0954 9.13041 29.9366V29.9366C6.50749 29.5524 4.44755 27.4925 4.06335 24.8696C4 24.4371 4 23.921 4 22.8889V13.6C4 10.2397 4 8.55953 4.65396 7.27606C5.2292 6.14708 6.14708 5.2292 7.27606 4.65396C8.55953 4 10.2397 4 13.6 4H28.4C31.7603 4 33.4405 4 34.7239 4.65396C35.8529 5.2292 36.7708 6.14708 37.346 7.27606C38 8.55953 38 10.2397 38 13.6V22M38 44L33.6472 40.9738C33.0353 40.5484 32.7294 40.3357 32.3964 40.1849C32.1009 40.051 31.7902 39.9536 31.4711 39.8948C31.1117 39.8286 30.7391 39.8286 29.9938 39.8286H26.4C24.1598 39.8286 23.0397 39.8286 22.184 39.3926C21.4314 39.0091 20.8195 38.3972 20.436 37.6445C20 36.7889 20 35.6688 20 33.4286V28.4C20 26.1598 20 25.0397 20.436 24.184C20.8195 23.4314 21.4314 22.8195 22.184 22.436C23.0397 22 24.1598 22 26.4 22H37.6C39.8402 22 40.9603 22 41.816 22.436C42.5686 22.8195 43.1805 23.4314 43.564 24.184C44 25.0397 44 26.1598 44 28.4V33.8286C44 35.6923 44 36.6242 43.6955 37.3593C43.2895 38.3394 42.5108 39.1181 41.5307 39.5241C40.7957 39.8286 39.8638 39.8286 38 39.8286V44Z" stroke="white" stroke-width="1.5" stroke-linecap="round" stroke-linejoin="round"/>
</svg>
