<svg width="23" height="22" viewBox="0 0 23 22" fill="none" xmlns="http://www.w3.org/2000/svg">
<g id="Group 1171275365">
<path id="Vector 25532" d="M13.8228 10.7739H18.226C20.0343 10.7739 21.5002 12.2398 21.5002 14.0481V14.0481C21.5002 15.8564 20.0343 17.3223 18.226 17.3223H13.8228" stroke="white" stroke-width="1.58065"/>
<path id="Rectangle 42479" d="M0.5 9.41919H18.1129V12.3547C18.1129 17.2183 14.1701 21.1611 9.30645 21.1611C4.44278 21.1611 0.5 17.2183 0.5 12.3547V9.41919Z" fill="white"/>
<path id="Ellipse 1808" d="M17.6613 9.53203C17.6613 9.76253 17.5273 10.0479 17.1348 10.3691C16.7457 10.6876 16.1553 10.9944 15.3858 11.2608C13.8512 11.792 11.7018 12.1288 9.30645 12.1288C6.91111 12.1288 4.76173 11.792 3.22708 11.2608C2.4576 10.9944 1.86719 10.6876 1.47808 10.3691C1.08564 10.0479 0.951613 9.76253 0.951613 9.53203C0.951613 9.30153 1.08564 9.01613 1.47808 8.69495C1.86719 8.3765 2.4576 8.06962 3.22708 7.80326C4.76173 7.27204 6.91111 6.93526 9.30645 6.93526C11.7018 6.93526 13.8512 7.27204 15.3858 7.80326C16.1553 8.06962 16.7457 8.3765 17.1348 8.69495C17.5273 9.01613 17.6613 9.30153 17.6613 9.53203Z" fill="#643E29" stroke="white" stroke-width="0.903226"/>
<path id="Vector 25533" d="M8.97055 3.17856C8.97055 1.79178 7.81112 1.12729 7.23141 0.838379C8.42135 0.838385 10.252 1.53176 10.7097 2.74522C11.2938 4.2939 10.3471 5.25539 9.15362 6.38547C8.14675 7.33887 9.88589 8.87009 10.4351 9.41902C8.78748 9.41902 7.04834 7.94559 7.04834 6.47214C7.04834 4.91202 8.97055 4.91202 8.97055 3.17856Z" fill="white"/>
</g>
</svg>
