<svg width="13" height="12" viewBox="0 0 13 12" fill="none" xmlns="http://www.w3.org/2000/svg">
<path d="M5.29785 0.428711C5.69573 -0.142946 6.54061 -0.142953 6.93848 0.428711L7.78809 1.64844C7.98823 1.93598 8.32423 2.09797 8.67383 2.0752L10.1572 1.97852C10.8522 1.93317 11.3795 2.59422 11.1807 3.26172L10.7559 4.68652C10.656 5.02206 10.7391 5.38552 10.9746 5.64453L11.9756 6.74414C12.4443 7.25925 12.2562 8.08404 11.6104 8.34473L10.2314 8.90039C9.90663 9.03158 9.67468 9.32403 9.61914 9.66992L9.38281 11.1367C9.2724 11.8243 8.51078 12.1919 7.9043 11.8496L6.60938 11.1191C6.30431 10.947 5.93202 10.947 5.62695 11.1191L4.33203 11.8496C3.72555 12.1919 2.96393 11.8243 2.85352 11.1367L2.61719 9.66992C2.56165 9.32404 2.32969 9.03159 2.00488 8.90039L0.625977 8.34473C-0.0198835 8.08405 -0.208013 7.25925 0.260742 6.74414L1.26172 5.64453C1.4972 5.38553 1.58027 5.02205 1.48047 4.68652L1.05566 3.26172C0.856777 2.59421 1.38408 1.93315 2.0791 1.97852L3.5625 2.0752C3.91209 2.09796 4.2481 1.93598 4.44824 1.64844L5.29785 0.428711ZM8.42383 4.74121C8.28138 4.57239 8.02919 4.55095 7.86035 4.69336L5.47559 6.7041L4.40234 5.61816C4.2471 5.46108 3.99406 5.45905 3.83691 5.61426C3.67994 5.76951 3.67882 6.02258 3.83398 6.17969L5.16699 7.53027C5.31359 7.67832 5.54956 7.68882 5.70898 7.55469L8.37598 5.30469C8.54471 5.16232 8.56598 4.91005 8.42383 4.74121Z" fill="white"/>
</svg>
