<svg width="30" height="30" viewBox="0 0 30 30" fill="none" xmlns="http://www.w3.org/2000/svg">
<rect width="30" height="30" rx="5" fill="#181818"/>
<path d="M25.5403 9.49842C25.2872 8.515 24.5418 7.74052 23.5952 7.47768C21.8796 7 15 7 15 7C15 7 8.1204 7 6.40478 7.47768C5.45819 7.74052 4.71269 8.515 4.45975 9.49842C4 11.281 4 15 4 15C4 15 4 18.7191 4.45975 20.5017C4.71269 21.4851 5.45819 22.2595 6.40478 22.5224C8.1204 23 15 23 15 23C15 23 21.8796 23 23.5952 22.5224C24.5418 22.2595 25.2872 21.485 25.5403 20.5018C26 18.719 26 15 26 15C26 15 26 11.281 25.5403 9.49842Z" fill="#FCFCFC"/>
<path d="M13 18L19 15.0001L13 12V18Z" fill="#181818"/>
</svg>
