<svg width="16" height="16" viewBox="0 0 16 16" fill="none" xmlns="http://www.w3.org/2000/svg">
<g id="icon_help">
<g id="vector">
<path fill-rule="evenodd" clip-rule="evenodd" d="M1.33594 8.00065C1.33594 4.31875 4.32071 1.33398 8.0026 1.33398C11.6845 1.33398 14.6693 4.31875 14.6693 8.00065C14.6693 11.6826 11.6845 14.6673 8.0026 14.6673C4.32071 14.6673 1.33594 11.6826 1.33594 8.00065ZM8.0026 2.42242C4.92183 2.42242 2.42437 4.91988 2.42437 8.00065C2.42437 11.0814 4.92183 13.5789 8.0026 13.5789C11.0834 13.5789 13.5808 11.0814 13.5808 8.00065C13.5808 4.91988 11.0834 2.42242 8.0026 2.42242Z" fill="#808087"/>
<path fill-rule="evenodd" clip-rule="evenodd" d="M9.56839 5.37555C10.0138 5.78541 10.2759 6.39338 10.1845 7.11882C10.0881 7.88467 9.51674 8.27498 9.15976 8.51885C9.13125 8.53833 9.10409 8.55688 9.07866 8.57461C8.68684 8.84778 8.52899 9.00283 8.52899 9.33398C8.52899 9.62854 8.29021 9.86732 7.99565 9.86732C7.7011 9.86732 7.46232 9.62854 7.46232 9.33398C7.46232 8.41761 8.06517 7.98088 8.46863 7.6996C8.92016 7.3848 9.09206 7.25676 9.12622 6.98554C9.17317 6.61273 9.04524 6.3437 8.8461 6.16045C8.63419 5.96545 8.32517 5.85533 8.01826 5.86835C7.36762 5.89595 6.86927 6.389 6.86927 6.93489C6.86927 7.22944 6.63049 7.46823 6.33594 7.46823C6.04139 7.46823 5.8026 7.22944 5.8026 6.93489C5.8026 5.71079 6.86439 4.84968 7.97305 4.80264C8.54579 4.77834 9.13578 4.97744 9.56839 5.37555Z" fill="#808087"/>
<path d="M8.64287 10.9339C8.64287 11.2874 8.35634 11.5739 8.00287 11.5739C7.64941 11.5739 7.36287 11.2874 7.36287 10.9339C7.36287 10.5805 7.64941 10.2939 8.00287 10.2939C8.35634 10.2939 8.64287 10.5805 8.64287 10.9339Z" fill="#808087"/>
</g>
</g>
</svg>
