<svg width="20" height="20" viewBox="0 0 20 20" fill="none" xmlns="http://www.w3.org/2000/svg">
<g clip-path="url(#clip0_823_3601)">
<path d="M7.06528 17.4561L2.35316 18.3333C2.17109 18.3333 1.99648 18.261 1.86774 18.1323C1.73899 18.0035 1.66667 17.8289 1.66667 17.6468L2.54386 12.9347C2.54394 12.7529 2.61616 12.5785 2.74466 12.4499L13.327 1.86758C13.4557 1.73894 13.6302 1.66667 13.8122 1.66667C13.9942 1.66667 14.1688 1.73894 14.2975 1.86758L18.1324 5.69993C18.2611 5.82866 18.3333 6.00321 18.3333 6.1852C18.3333 6.36719 18.2611 6.54174 18.1324 6.67047L7.55012 17.2553C7.42147 17.3838 7.24711 17.4561 7.06528 17.4561Z" stroke="#17181C" stroke-width="1.5" stroke-linecap="round" stroke-linejoin="round"/>
<path d="M10.9259 5.37038L14.6296 9.07408" stroke="#17181C" stroke-width="1.5" stroke-linecap="round" stroke-linejoin="round"/>
</g>
<defs>
<clipPath id="clip0_823_3601">
<rect width="20" height="20" fill="white"/>
</clipPath>
</defs>
</svg>
