<svg width="16" height="16" viewBox="0 0 16 16" fill="none" xmlns="http://www.w3.org/2000/svg">
<path d="M5.375 3C5.375 2.79289 5.20711 2.625 5 2.625C4.79289 2.625 4.625 2.79289 4.625 3H5.375ZM4.73483 13.2652C4.88128 13.4116 5.11872 13.4116 5.26517 13.2652L7.65165 10.8787C7.7981 10.7322 7.7981 10.4948 7.65165 10.3483C7.5052 10.2019 7.26777 10.2019 7.12132 10.3483L5 12.4697L2.87868 10.3483C2.73223 10.2019 2.4948 10.2019 2.34835 10.3483C2.2019 10.4948 2.2019 10.7322 2.34835 10.8787L4.73483 13.2652ZM4.625 3V13H5.375V3H4.625Z" fill="#808388"/>
<path d="M10.625 13.5C10.625 13.7071 10.7929 13.875 11 13.875C11.2071 13.875 11.375 13.7071 11.375 13.5L10.625 13.5ZM11.2652 3.23483C11.1187 3.08839 10.8813 3.08839 10.7348 3.23483L8.34835 5.62132C8.2019 5.76777 8.2019 6.0052 8.34835 6.15165C8.4948 6.2981 8.73223 6.2981 8.87868 6.15165L11 4.03033L13.1213 6.15165C13.2678 6.2981 13.5052 6.2981 13.6517 6.15165C13.7981 6.0052 13.7981 5.76777 13.6517 5.62132L11.2652 3.23483ZM11.375 13.5L11.375 3.5L10.625 3.5L10.625 13.5L11.375 13.5Z" fill="#808388"/>
</svg>
