<svg width="21" height="21" viewBox="0 0 21 21" fill="none" xmlns="http://www.w3.org/2000/svg">
<g id="Icon / Communication / send">
<path id="Icon" d="M9.24952 11.7501L17.9995 3.00014M9.35584 12.0235L11.5459 17.6552C11.7389 18.1513 11.8353 18.3994 11.9743 18.4718C12.0948 18.5346 12.2384 18.5347 12.359 18.472C12.498 18.3998 12.5948 18.1518 12.7883 17.6559L18.2803 3.58281C18.455 3.13516 18.5423 2.91133 18.4945 2.76831C18.453 2.6441 18.3556 2.54663 18.2314 2.50514C18.0883 2.45736 17.8645 2.5447 17.4169 2.71939L3.34373 8.21134C2.84784 8.40486 2.59989 8.50163 2.52763 8.64071C2.46499 8.76129 2.46508 8.90483 2.52786 9.02533C2.60028 9.16433 2.84834 9.2608 3.34446 9.45373L8.97613 11.6438C9.07684 11.683 9.12719 11.7026 9.16959 11.7328C9.20717 11.7596 9.24004 11.7925 9.26685 11.8301C9.29709 11.8725 9.31667 11.9228 9.35584 12.0235Z" stroke="white" stroke-width="1.5" stroke-linecap="round" stroke-linejoin="round"/>
</g>
</svg>
