<svg width="32" height="32" viewBox="0 0 32 32" fill="none" xmlns="http://www.w3.org/2000/svg">
<circle cx="16" cy="16" r="16" fill="#3F3F47"/>
<path d="M19.4152 24C19.2026 24 18.9987 23.9156 18.8484 23.7655C18.6981 23.6153 18.6137 23.4117 18.6137 23.1993V21.1175C18.6386 20.8781 18.6129 20.636 18.5384 20.4071C18.4638 20.1782 18.342 19.9674 18.1808 19.7884C18.081 19.6803 18.013 19.5468 17.9841 19.4026C17.9553 19.2584 17.9667 19.109 18.0172 18.9709C18.0677 18.8328 18.1553 18.7112 18.2705 18.6195C18.3856 18.5279 18.5237 18.4696 18.6698 18.4512C20.6255 18.219 22.429 17.5945 22.429 14.2076C22.4296 13.5751 22.2427 12.9566 21.8919 12.4301C21.5682 11.9453 21.4501 11.3522 21.5633 10.7806C21.6355 10.4078 21.6355 10.0245 21.5633 9.65167C20.9631 9.85439 20.398 10.1488 19.8881 10.5244C19.7917 10.5928 19.6813 10.639 19.5649 10.6598C19.4485 10.6806 19.329 10.6754 19.2148 10.6445C17.7683 10.2362 16.2368 10.2362 14.7903 10.6445C14.6762 10.6754 14.5566 10.6806 14.4402 10.6598C14.3238 10.639 14.2135 10.5928 14.1171 10.5244C13.604 10.1444 13.0329 9.84973 12.4258 9.65167C12.3496 10.0241 12.3496 10.4082 12.4258 10.7806C12.5309 11.3594 12.4074 11.9564 12.0812 12.4461C11.7319 12.9763 11.5453 13.5969 11.5441 14.2316C11.5441 17.3463 13.051 18.179 15.3113 18.4672C15.4592 18.4856 15.5991 18.5447 15.7152 18.6381C15.8313 18.7314 15.9191 18.8553 15.9686 18.9957C16.0152 19.1319 16.0242 19.2782 15.9945 19.4191C15.9649 19.5601 15.8978 19.6904 15.8003 19.7964C15.6444 19.9629 15.5247 20.1598 15.4488 20.3748C15.373 20.5898 15.3425 20.8181 15.3594 21.0455V23.1993C15.3594 23.4117 15.275 23.6153 15.1247 23.7655C14.9744 23.9156 14.7705 24 14.5579 24C14.3453 24 14.1414 23.9156 13.9911 23.7655C13.8408 23.6153 13.7564 23.4117 13.7564 23.1993V22.7429C12.9688 22.8334 12.171 22.728 11.434 22.436C10.697 22.144 10.0437 21.6746 9.53229 21.0695C9.26939 20.7784 8.95397 20.5394 8.60251 20.3649C8.50041 20.3386 8.40449 20.2925 8.32023 20.2292C8.23597 20.1658 8.16502 20.0866 8.11144 19.9959C8.05785 19.9051 8.02267 19.8048 8.00791 19.7005C7.99315 19.5962 7.99909 19.49 8.02541 19.388C8.05172 19.286 8.09789 19.1902 8.16127 19.1061C8.22466 19.0219 8.30402 18.951 8.39482 18.8975C8.48562 18.8439 8.58609 18.8088 8.69049 18.7941C8.79489 18.7793 8.90118 18.7853 9.00328 18.8115C9.61986 19.0359 10.1708 19.4102 10.6063 19.9005C11.4079 20.7012 12.2094 21.4058 13.7323 21.1175C13.7055 20.6876 13.7683 20.2569 13.9167 19.8524C12.2655 19.4361 9.90901 18.2511 9.90901 14.2476C9.9069 13.2993 10.1858 12.3716 10.7105 11.5813C10.808 11.4354 10.8453 11.2576 10.8147 11.0849C10.6528 10.2206 10.7446 9.32798 11.0792 8.51469C11.1247 8.40625 11.1935 8.30914 11.2808 8.23026C11.3681 8.15139 11.4717 8.09267 11.5842 8.0583C11.8567 7.97823 12.8346 7.81809 14.6861 9.01913C16.185 8.65882 17.748 8.65882 19.2469 9.01913C21.0984 7.81809 22.0763 7.97022 22.3408 8.0583C22.4533 8.09267 22.5569 8.15139 22.6442 8.23026C22.7315 8.30914 22.8003 8.40625 22.8458 8.51469C23.181 9.33062 23.2729 10.226 23.1103 11.0929C23.0939 11.171 23.0932 11.2516 23.1084 11.33C23.1235 11.4083 23.1541 11.4829 23.1984 11.5493C23.7247 12.3418 24.0037 13.2726 24 14.2236C24 18.2831 21.6595 19.4601 19.9923 19.8284C20.1392 20.2581 20.1991 20.7126 20.1686 21.1656V23.1993C20.169 23.4036 20.0912 23.6003 19.9511 23.7492C19.8111 23.898 19.6193 23.9877 19.4152 24Z" fill="#9D9DA4"/>
</svg>
