<svg width="12" height="14" viewBox="0 0 12 14" fill="none" xmlns="http://www.w3.org/2000/svg">
<path fill-rule="evenodd" clip-rule="evenodd" d="M5.99997 0.466675C3.49875 0.466675 1.46663 2.49879 1.46663 5.00001V8.17186L0.222874 10.0375C0.164468 10.1251 0.133301 10.228 0.133301 10.3333V11C0.133301 11.2946 0.372082 11.5333 0.666634 11.5333H11.3333C11.6279 11.5333 11.8666 11.2946 11.8666 11V10.3333C11.8666 10.228 11.8355 10.1251 11.7771 10.0375L10.5333 8.17186V5.00001C10.5333 2.49879 8.50119 0.466675 5.99997 0.466675ZM4.39144 12.6H7.60871C7.28489 13.1556 6.68784 13.5333 6.00007 13.5333C5.31231 13.5333 4.71526 13.1556 4.39144 12.6Z" fill="white"/>
</svg>
