<svg viewBox="0 0 14 9" xmlns="http://www.w3.org/2000/svg">
<path fill="currentColor" d="M1.5431 3.28276C1.25744 2.98281 0.782706 2.97123 0.482759 3.2569C0.182811 3.54256 0.171232 4.01729 0.456897 4.31724L1.5431 3.28276ZM5 8L4.4569 8.51724C4.73408 8.80828 5.19141 8.82909 5.49388 8.56443L5 8ZM13.4939 1.56443C13.8056 1.29167 13.8372 0.817849 13.5644 0.506122C13.2917 0.194394 12.8178 0.162806 12.5061 0.435567L13.4939 1.56443ZM0.456897 4.31724L4.4569 8.51724L5.5431 7.48276L1.5431 3.28276L0.456897 4.31724ZM5.49388 8.56443L13.4939 1.56443L12.5061 0.435567L4.50612 7.43557L5.49388 8.56443Z"/>
</svg>
