<svg width="84" height="84" viewBox="0 0 84 84" fill="none" xmlns="http://www.w3.org/2000/svg">
<rect width="84" height="84" rx="20" fill="#346FFA"/>
<path d="M47.377 41.5709H55.764C59.2085 41.5709 62.0008 44.3632 62.0008 47.8077V47.8077C62.0008 51.2522 59.2085 54.0445 55.764 54.0445H47.377" stroke="white" stroke-width="3.01083"/>
<path d="M22 38.9888H55.5487V44.5808C55.5487 53.8451 48.0386 61.3552 38.7744 61.3552C29.5101 61.3552 22 53.8451 22 44.5808V38.9888Z" fill="white"/>
<path d="M54.6885 39.2027C54.6885 39.6418 54.4332 40.1854 53.6857 40.7972C52.9445 41.4038 51.8199 41.9883 50.3542 42.4957C47.4311 43.5076 43.337 44.1491 38.7744 44.1491C34.2118 44.1491 30.1177 43.5076 27.1945 42.4957C25.7288 41.9883 24.6042 41.4038 23.863 40.7972C23.1155 40.1854 22.8602 39.6418 22.8602 39.2027C22.8602 38.7636 23.1155 38.2199 23.863 37.6082C24.6042 37.0016 25.7288 36.417 27.1945 35.9096C30.1177 34.8977 34.2118 34.2562 38.7744 34.2562C43.337 34.2562 47.4311 34.8977 50.3542 35.9096C51.8199 36.417 52.9445 37.0016 53.6857 37.6082C54.4332 38.2199 54.6885 38.7636 54.6885 39.2027Z" fill="#643E29" stroke="white" stroke-width="1.72047"/>
<path d="M38.1341 27.1027C38.1341 24.4611 35.9256 23.1953 34.8214 22.645C37.0879 22.645 40.575 23.9658 41.4467 26.2772C42.5593 29.2272 40.756 31.0587 38.4828 33.2113C36.5649 35.0274 39.8776 37.9441 40.9237 38.9897C37.7853 38.9897 34.4727 36.1831 34.4727 33.3764C34.4727 30.4046 38.1341 30.4046 38.1341 27.1027Z" fill="white"/>
</svg>
