<svg width="20" height="20" viewBox="0 0 20 20" fill="none" xmlns="http://www.w3.org/2000/svg">
<g filter="url(#filter0_b_1892_9846)">
<path fill-rule="evenodd" clip-rule="evenodd" d="M12.8193 3.4798C13.2498 3.47859 13.6798 3.53811 14.0889 3.6741C16.6096 4.48577 17.5248 7.24651 16.7735 9.66397C16.3472 10.8995 15.6476 12.0279 14.7297 12.9509C13.4158 14.2305 11.9732 15.3672 10.4197 16.3472L10.2494 16.4508L10.0717 16.3414C8.50716 15.3769 7.05 14.2484 5.7166 12.9694C4.79973 12.0516 4.09314 10.9339 3.653 9.70088C2.87521 7.28772 3.77489 4.52187 6.31819 3.68163C6.51587 3.61284 6.71974 3.56451 6.92435 3.53732L7.00623 3.53709C7.19787 3.50858 7.3882 3.49508 7.57924 3.49454L7.65429 3.49433C8.08418 3.50609 8.50059 3.57997 8.90421 3.71597L8.94447 3.71586C8.97179 3.72875 8.9923 3.74302 9.00599 3.75594C9.15691 3.80396 9.29966 3.85815 9.43633 3.93281L9.69593 4.04807C9.75868 4.08131 9.82914 4.13217 9.89004 4.17612C9.92862 4.20397 9.96337 4.22905 9.98988 4.24512C10.001 4.25165 10.0124 4.25823 10.0238 4.26486C10.0824 4.29884 10.1434 4.33424 10.1949 4.37349C10.9513 3.79209 11.8709 3.47565 12.8193 3.4798ZM14.6481 8.38679C14.9278 8.3785 15.166 8.15335 15.1857 7.86605L15.1854 7.78485C15.2032 6.8289 14.6215 5.9647 13.7397 5.63285C13.4597 5.53743 13.1531 5.68908 13.0516 5.97594C12.9569 6.26277 13.1078 6.5762 13.3947 6.67706C13.8325 6.83958 14.1264 7.26928 14.1278 7.74621L14.1278 7.76736C14.1153 7.92364 14.1628 8.0743 14.2586 8.19002C14.3545 8.30574 14.498 8.37288 14.6481 8.38679Z" fill="#D27B96"/>
</g>
<defs>
<filter id="filter0_b_1892_9846" x="-20.6182" y="-20.5195" width="61.6465" height="60.9707" filterUnits="userSpaceOnUse" color-interpolation-filters="sRGB">
<feFlood flood-opacity="0" result="BackgroundImageFix"/>
<feGaussianBlur in="BackgroundImageFix" stdDeviation="12"/>
<feComposite in2="SourceAlpha" operator="in" result="effect1_backgroundBlur_1892_9846"/>
<feBlend mode="normal" in="SourceGraphic" in2="effect1_backgroundBlur_1892_9846" result="shape"/>
</filter>
</defs>
</svg>
