<svg width="16" height="16" viewBox="0 0 16 16" fill="none" xmlns="http://www.w3.org/2000/svg">
<rect x="1.5" y="1.5" width="13" height="13" rx="6.5" stroke="#808087"/>
<path d="M7.08963 7.68852C7.60628 7.43595 7.87599 7.05377 7.87599 6.45891C7.87599 5.2858 7.02139 5 6.03519 5H3.32031V10.8888H6.11156C7.15787 10.8888 8.14081 10.3754 8.14081 9.179C8.14081 8.43957 7.798 7.8929 7.08963 7.68852ZM4.58596 6.00529H5.77362C6.23016 6.00529 6.64121 6.13655 6.64121 6.67825C6.64121 7.1784 6.32114 7.37945 5.86947 7.37945H4.58596V6.00529ZM5.93934 9.88852H4.58596V8.26676H5.96533C6.52261 8.26676 6.87517 8.50438 6.87517 9.10755C6.87517 9.70241 6.45437 9.88852 5.93934 9.88852ZM11.7639 5.88897H9.4292V5.30906H11.7639V5.88897ZM12.6786 8.81843C12.6786 7.55725 11.9572 6.50544 10.6494 6.50544C9.37884 6.50544 8.51612 7.48248 8.51612 8.76193C8.51612 10.0896 9.33335 11.0001 10.6494 11.0001C11.6453 11.0001 12.2903 10.5415 12.6006 9.56616H11.5901C11.4812 9.93006 11.0328 10.1228 10.6851 10.1228C10.0141 10.1228 9.66154 9.72069 9.66154 9.03776H12.6689C12.6737 8.96797 12.6786 8.8932 12.6786 8.81843ZM9.66316 8.3C9.70053 7.74003 10.0645 7.38942 10.6136 7.38942C11.1888 7.38942 11.478 7.73504 11.5267 8.3H9.66316Z" fill="#808087"/>
</svg>
