<svg width="292" height="108" viewBox="0 0 292 108" fill="none" xmlns="http://www.w3.org/2000/svg">
<path d="M3.18125 79.616C3.70325 80.786 4.72925 81.416 6.25925 81.362C8.52725 81.29 9.31925 78.572 7.01525 77.87C6.16925 77.564 4.67525 77.15 3.37925 76.286C1.52525 75.026 1.30925 73.046 2.01125 71.57C2.78525 69.95 4.81925 69.392 6.13325 69.5C7.28525 69.59 8.86925 70.04 9.84125 71.444L8.05925 72.668C7.55525 71.948 6.83525 71.732 5.97125 71.66C5.21525 71.606 4.29725 71.804 3.95525 72.506C3.68525 73.136 3.63125 73.82 4.58525 74.486C5.59325 75.17 6.81725 75.512 7.71725 75.836C12.2713 77.294 10.9753 83.396 6.33125 83.522C4.08125 83.594 2.02925 82.424 1.20125 80.462L3.18125 79.616ZM18.4441 81.164C21.1801 81.164 22.9801 79.112 22.9801 76.502C22.9801 73.91 21.1801 71.84 18.4441 71.84C15.7081 71.84 13.9081 73.91 13.9081 76.502C13.9081 79.112 15.7081 81.164 18.4441 81.164ZM11.7481 76.502C11.7481 72.758 14.4841 69.662 18.4441 69.662C22.4041 69.662 25.1581 72.758 25.1581 76.502C25.1581 80.264 22.4041 83.342 18.4441 83.342C14.4841 83.342 11.7481 80.264 11.7481 76.502ZM32.7484 76.592C33.9904 76.592 34.9804 75.494 34.9804 74.27C34.9804 73.028 33.9724 71.93 32.7304 71.93H29.2564V76.592H32.7484ZM27.0964 83.198V69.806H32.7124C35.1784 69.806 37.1404 71.804 37.1404 74.27C37.1404 76.7 35.1784 78.716 32.7124 78.716H29.2564V83.198H27.0964ZM47.8118 69.806V71.93H44.0498V83.198H41.8898V71.93H38.0918V69.806H47.8118ZM55.1211 69.32H66.2991V70.76C66.2991 72.272 66.2991 73.928 65.8851 76.196H68.0271V78.014H61.7811V84.53H59.5311V78.014H53.4471V76.196H63.6531C64.0671 74.108 64.1031 72.506 64.1031 71.102H55.1211V69.32ZM72.9235 69.23H75.1915V70.58C75.1915 72.74 76.2895 74.738 78.8275 75.548L77.6575 77.294C75.9655 76.7 74.7955 75.584 74.1115 74.162C73.3915 75.818 72.0955 77.132 70.1875 77.78L69.0175 75.98C71.7355 75.098 72.9235 72.938 72.9235 70.688V69.23ZM71.6455 81.362C71.6455 79.418 73.7695 78.248 77.1715 78.248C80.5735 78.248 82.6795 79.418 82.6795 81.362C82.6795 83.36 80.5735 84.512 77.1715 84.512C73.7695 84.512 71.6455 83.36 71.6455 81.362ZM73.8955 81.362C73.8955 82.316 75.0295 82.802 77.1715 82.802C79.2955 82.802 80.4655 82.316 80.4655 81.362C80.4655 80.444 79.2955 79.976 77.1715 79.976C75.0295 79.976 73.8955 80.444 73.8955 81.362ZM77.3695 73.172V71.354H80.3755V68.384H82.6255V77.834H80.3755V73.172H77.3695ZM96.1979 68.366H98.4119V80.588H96.1979V79.274H93.1379V77.762H96.1979V68.366ZM84.8219 75.53C87.7739 75.53 91.6979 75.494 95.0999 75.062L95.2439 76.646C93.9659 76.862 92.6519 77.006 91.3559 77.114V80.156H89.1239V77.24C87.6839 77.294 86.3159 77.312 85.1099 77.312L84.8219 75.53ZM85.9919 71.804C85.9919 70.094 87.6479 68.924 90.0059 68.924C92.3639 68.924 94.0199 70.094 94.0199 71.804C94.0199 73.532 92.3639 74.666 90.0059 74.666C87.6479 74.666 85.9919 73.532 85.9919 71.804ZM86.8739 84.206V79.436H89.0879V82.424H98.7899V84.206H86.8739ZM88.1159 71.804C88.1159 72.614 88.9079 73.046 90.0059 73.046C91.1399 73.046 91.9139 72.614 91.9139 71.804C91.9139 70.994 91.1399 70.562 90.0059 70.562C88.9079 70.562 88.1159 70.994 88.1159 71.804ZM107.916 69.176C111.318 69.176 113.928 71.048 113.928 73.82C113.928 76.628 111.318 78.464 107.916 78.464C104.532 78.464 101.904 76.628 101.904 73.82C101.904 71.048 104.532 69.176 107.916 69.176ZM100.644 82.532V80.696H115.242V82.532H100.644ZM104.1 73.82C104.1 75.584 105.684 76.646 107.916 76.646C110.166 76.646 111.75 75.584 111.75 73.82C111.75 72.056 110.166 70.994 107.916 70.994C105.684 70.994 104.1 72.056 104.1 73.82ZM116.377 80.876H122.533V78.41H118.069V73.01H127.105V71.192H118.033V69.428H129.319V74.738H120.265V76.628H129.679V78.41H124.765V80.876H130.975V82.694H116.377V80.876ZM146.68 68.384H148.912V72.38H151.09V74.198H148.912V78.086H146.68V68.384ZM136.258 71.606V69.842H139.876V68.258H142.108V69.842H145.744V71.606H136.258ZM137.05 75.008C137.05 73.298 138.67 72.11 141.01 72.11C143.332 72.11 144.952 73.298 144.952 75.008C144.952 76.754 143.332 77.906 141.01 77.906C138.67 77.906 137.05 76.754 137.05 75.008ZM138.472 84.332V78.806H148.912V84.332H138.472ZM139.192 75.008C139.192 75.836 139.912 76.286 141.01 76.286C142.072 76.286 142.81 75.836 142.81 75.008C142.81 74.198 142.072 73.766 141.01 73.766C139.912 73.766 139.192 74.198 139.192 75.008ZM140.65 82.568H146.734V80.57H140.65V82.568ZM155.878 70.22C155.878 74.234 155.5 77.852 153.466 81.056L151.738 80.12C153.394 77.6 153.88 75.134 153.988 72.002H152.26V70.22H155.878ZM155.32 80.912C157.156 78.158 157.534 75.278 157.588 72.002H156.364V70.22H159.478C159.478 71.642 159.442 73.064 159.316 74.45H160.702V68.726H162.79V83.774H160.702V76.232H159.1C158.758 78.23 158.164 80.12 157.048 81.884L155.32 80.912ZM163.816 84.512V68.384H165.922V84.512H163.816ZM178.108 68.384H180.34V74.702H182.698V76.556H180.34V84.512H178.108V68.384ZM167.632 72.56V70.778H171.232V68.636H173.482V70.778H177.046V72.56H167.632ZM168.298 77.348C168.298 75.098 170.026 73.514 172.366 73.514C174.706 73.514 176.452 75.098 176.452 77.348C176.452 79.58 174.706 81.164 172.366 81.164C170.026 81.164 168.298 79.58 168.298 77.348ZM170.44 77.348C170.44 78.59 171.232 79.346 172.366 79.346C173.5 79.346 174.31 78.59 174.31 77.348C174.31 76.088 173.5 75.314 172.366 75.314C171.232 75.314 170.44 76.088 170.44 77.348ZM195.173 68.366H197.297V84.494H195.173V68.366ZM183.239 79.58C186.497 77.636 187.919 75.278 188.225 72.074H184.121V70.292H190.421C190.421 71.822 190.259 73.262 189.863 74.594H191.771V68.726H193.859V83.774H191.771V76.376H189.179C188.261 78.212 186.767 79.814 184.499 81.146L183.239 79.58ZM204.416 69.824H212.732V71.588H206.648V74.936H212.822V76.736H209.708V79.418C211.04 79.364 212.354 79.274 213.596 79.13L213.758 80.75C210.284 81.29 206.648 81.344 203.642 81.326L203.372 79.508C204.65 79.508 206.036 79.508 207.476 79.49V76.736H204.416V69.824ZM214.496 84.53V68.348H216.728V84.53H214.496ZM223.442 69.5C225.602 69.5 227.24 71.282 227.546 74.216H230.336V68.348H232.55V84.53H230.336V75.998H227.564C227.348 79.094 225.674 81.002 223.442 81.002C221.048 81.002 219.302 78.788 219.302 75.242C219.302 71.714 221.048 69.5 223.442 69.5ZM221.426 75.242C221.426 77.654 222.236 78.986 223.442 78.986C224.666 78.986 225.476 77.654 225.476 75.242C225.476 72.83 224.666 71.516 223.442 71.516C222.236 71.516 221.426 72.83 221.426 75.242ZM250.109 68.366H252.341V84.494H250.109V68.366ZM238.985 79.976C243.125 78.014 244.925 75.422 245.267 71.822H239.813V70.04H247.553C247.553 74.954 245.843 78.986 240.137 81.74L238.985 79.976ZM254.897 69.824H256.715V73.586H257.867V69.824H259.649V80.714H254.897V69.824ZM256.715 78.932H257.867V75.314H256.715V78.932ZM260.405 80.714V69.824H262.205V73.586H263.375V69.824H265.157V74.216H266.435V68.384H268.559V84.512H266.435V75.998H265.157V80.714H260.405ZM262.205 78.932H263.375V75.314H262.205V78.932ZM270.414 80.786H273.654V76.808C272.43 76.052 271.674 74.9 271.674 73.478C271.674 70.868 274.23 69.176 277.686 69.176C281.16 69.176 283.698 70.868 283.698 73.478C283.698 74.882 282.96 76.034 281.754 76.79V80.786H285.012V82.604H270.414V80.786ZM273.888 73.478C273.888 75.098 275.418 76.052 277.686 76.052C279.972 76.052 281.502 75.098 281.502 73.478C281.502 71.858 279.972 70.904 277.686 70.904C275.418 70.904 273.888 71.858 273.888 73.478ZM275.886 80.786H279.522V77.618C278.946 77.744 278.334 77.798 277.686 77.798C277.056 77.798 276.444 77.744 275.886 77.636V80.786ZM290.16 69.158L289.836 79.328H287.748L287.37 69.158H290.16ZM287.586 82.28C287.586 81.614 288.018 81.074 288.792 81.074C289.584 81.074 289.998 81.614 289.998 82.28C289.998 82.964 289.584 83.504 288.792 83.504C288.018 83.504 287.586 82.964 287.586 82.28Z" fill="white"/>
<path d="M28.9476 102.984C29.2516 103.352 29.6036 103.648 30.0036 103.872C30.4036 104.096 30.8076 104.208 31.2156 104.208C31.8156 104.208 32.3076 104.06 32.6916 103.764C33.0756 103.46 33.2676 103.072 33.2676 102.6C33.2676 102.32 33.1796 102.088 33.0036 101.904C32.8276 101.72 32.6116 101.572 32.3556 101.46C32.0996 101.348 31.7356 101.216 31.2636 101.064C30.6716 100.872 30.1956 100.692 29.8356 100.524C29.4756 100.348 29.1636 100.1 28.8996 99.78C28.6436 99.46 28.5156 99.044 28.5156 98.532C28.5156 98.084 28.6316 97.68 28.8636 97.32C29.1036 96.96 29.4356 96.68 29.8596 96.48C30.2916 96.28 30.7796 96.18 31.3236 96.18C31.8436 96.18 32.3396 96.304 32.8116 96.552C33.2916 96.792 33.6956 97.116 34.0236 97.524L33.2316 98.136C32.9916 97.816 32.7036 97.564 32.3676 97.38C32.0396 97.196 31.6916 97.104 31.3236 97.104C30.8116 97.104 30.3916 97.24 30.0636 97.512C29.7356 97.776 29.5716 98.116 29.5716 98.532C29.5716 98.828 29.6636 99.076 29.8476 99.276C30.0316 99.468 30.2596 99.624 30.5316 99.744C30.8036 99.864 31.1756 100.004 31.6476 100.164C32.2236 100.356 32.6876 100.54 33.0396 100.716C33.3996 100.884 33.7036 101.12 33.9516 101.424C34.1996 101.728 34.3236 102.12 34.3236 102.6C34.3236 103.088 34.1916 103.524 33.9276 103.908C33.6636 104.292 33.2956 104.592 32.8236 104.808C32.3516 105.024 31.8156 105.132 31.2156 105.132C30.6396 105.124 30.0756 104.98 29.5236 104.7C28.9796 104.42 28.5236 104.048 28.1556 103.584L28.9476 102.984ZM39.7412 104.208C40.3812 104.208 40.9452 104.06 41.4332 103.764C41.9292 103.468 42.3132 103.052 42.5852 102.516C42.8652 101.98 43.0052 101.364 43.0052 100.668C43.0052 99.972 42.8652 99.356 42.5852 98.82C42.3132 98.284 41.9292 97.868 41.4332 97.572C40.9452 97.276 40.3812 97.128 39.7412 97.128C39.1012 97.128 38.5332 97.276 38.0372 97.572C37.5412 97.868 37.1572 98.284 36.8852 98.82C36.6132 99.356 36.4772 99.972 36.4772 100.668C36.4772 101.364 36.6132 101.98 36.8852 102.516C37.1572 103.052 37.5412 103.468 38.0372 103.764C38.5332 104.06 39.1012 104.208 39.7412 104.208ZM35.4092 100.668C35.4092 99.804 35.5932 99.032 35.9612 98.352C36.3292 97.672 36.8412 97.144 37.4972 96.768C38.1532 96.384 38.9012 96.192 39.7412 96.192C40.5732 96.192 41.3172 96.384 41.9732 96.768C42.6372 97.144 43.1532 97.672 43.5212 98.352C43.8892 99.032 44.0732 99.804 44.0732 100.668C44.0732 101.532 43.8892 102.304 43.5212 102.984C43.1532 103.664 42.6372 104.196 41.9732 104.58C41.3172 104.956 40.5732 105.144 39.7412 105.144C38.9012 105.144 38.1532 104.956 37.4972 104.58C36.8412 104.196 36.3292 103.664 35.9612 102.984C35.5932 102.304 35.4092 101.532 35.4092 100.668ZM48.9096 100.884C49.4216 100.884 49.8376 100.716 50.1576 100.38C50.4776 100.036 50.6376 99.592 50.6376 99.048C50.6376 98.512 50.4736 98.076 50.1456 97.74C49.8256 97.396 49.4096 97.224 48.8976 97.224H46.5096L46.5216 100.884H48.9096ZM45.4656 96.288H48.9336C49.4616 96.288 49.9336 96.408 50.3496 96.648C50.7656 96.88 51.0896 97.204 51.3216 97.62C51.5536 98.036 51.6696 98.512 51.6696 99.048C51.6696 99.584 51.5536 100.06 51.3216 100.476C51.0896 100.892 50.7656 101.22 50.3496 101.46C49.9336 101.692 49.4616 101.808 48.9336 101.808H46.5216V105.048H45.4656V96.288ZM58.9927 97.224H56.3167V105.048H55.2607V97.224H52.5967V96.288H58.9927V97.224ZM63.5691 96.084C64.1131 96.084 64.6011 96.192 65.0331 96.408C65.4651 96.624 65.8011 96.924 66.0411 97.308C66.2891 97.684 66.4131 98.116 66.4131 98.604C66.4131 99.092 66.2891 99.528 66.0411 99.912C65.8011 100.296 65.4651 100.596 65.0331 100.812C64.6011 101.02 64.1131 101.124 63.5691 101.124C63.0171 101.124 62.5211 101.02 62.0811 100.812C61.6491 100.596 61.3091 100.296 61.0611 99.912C60.8211 99.528 60.7011 99.092 60.7011 98.604C60.7011 98.116 60.8211 97.684 61.0611 97.308C61.3091 96.924 61.6491 96.624 62.0811 96.408C62.5211 96.192 63.0171 96.084 63.5691 96.084ZM60.1971 102.744C61.5411 102.744 62.7651 102.724 63.8691 102.684C64.9811 102.636 66.0411 102.536 67.0491 102.384L67.1331 103.188C66.0931 103.388 65.0291 103.516 63.9411 103.572C62.8611 103.628 61.6571 103.656 60.3291 103.656L60.1971 102.744ZM61.7691 98.604C61.7691 99.068 61.9371 99.448 62.2731 99.744C62.6171 100.032 63.0491 100.176 63.5691 100.176C64.0811 100.176 64.5051 100.032 64.8411 99.744C65.1771 99.448 65.3451 99.068 65.3451 98.604C65.3451 98.14 65.1771 97.764 64.8411 97.476C64.5051 97.18 64.0811 97.032 63.5691 97.032C63.0491 97.032 62.6171 97.176 62.2731 97.464C61.9371 97.752 61.7691 98.132 61.7691 98.604ZM67.7091 95.316H68.8131V105.936H67.7091V95.316ZM75.743 95.484V97.728H81.875V98.616H78.743V99.684H82.991V100.572H73.403V99.684H77.651V98.616H74.675V95.484H75.743ZM74.567 101.388H81.791V103.908H75.683V104.94H82.139V105.78H74.591V103.116H80.699V102.228H74.567V101.388ZM92.5673 95.316V105.936H91.4753V95.316H92.5673ZM84.2513 99.84C84.2513 99.096 84.3673 98.444 84.5993 97.884C84.8313 97.324 85.1513 96.892 85.5593 96.588C85.9673 96.284 86.4353 96.132 86.9633 96.132C87.4833 96.132 87.9473 96.284 88.3553 96.588C88.7713 96.892 89.0953 97.324 89.3273 97.884C89.5593 98.444 89.6753 99.096 89.6753 99.84C89.6753 100.584 89.5593 101.24 89.3273 101.808C89.0953 102.368 88.7713 102.8 88.3553 103.104C87.9473 103.408 87.4833 103.56 86.9633 103.56C86.4353 103.56 85.9673 103.408 85.5593 103.104C85.1513 102.8 84.8313 102.368 84.5993 101.808C84.3673 101.24 84.2513 100.584 84.2513 99.84ZM85.3073 99.84C85.3073 100.392 85.3753 100.876 85.5113 101.292C85.6553 101.7 85.8513 102.016 86.0993 102.24C86.3553 102.464 86.6433 102.576 86.9633 102.576C87.2833 102.576 87.5673 102.464 87.8153 102.24C88.0713 102.016 88.2673 101.7 88.4033 101.292C88.5473 100.876 88.6193 100.392 88.6193 99.84C88.6193 99.288 88.5473 98.808 88.4033 98.4C88.2673 97.984 88.0713 97.668 87.8153 97.452C87.5673 97.228 87.2833 97.116 86.9633 97.116C86.6433 97.116 86.3553 97.228 86.0993 97.452C85.8513 97.668 85.6553 97.984 85.5113 98.4C85.3753 98.808 85.3073 99.288 85.3073 99.84ZM103.128 95.316V105.936H102.036V100.152H99.9355V99.264H102.036V95.316H103.128ZM94.8595 96.288H99.7555V97.176H95.9395V99.24H99.3115V100.116H95.9395V102.528C96.8835 102.528 97.6875 102.508 98.3515 102.468C99.0155 102.42 99.6875 102.336 100.368 102.216L100.476 103.104C99.7475 103.232 99.0235 103.32 98.3035 103.368C97.5915 103.408 96.7155 103.428 95.6755 103.428H94.8595V96.288ZM105.684 106.476H104.904L105.3 104.004H106.416L105.684 106.476ZM114.98 100.884C115.492 100.884 115.908 100.716 116.228 100.38C116.548 100.036 116.708 99.592 116.708 99.048C116.708 98.512 116.544 98.076 116.216 97.74C115.896 97.396 115.48 97.224 114.968 97.224H112.58L112.592 100.884H114.98ZM111.536 96.288H115.004C115.532 96.288 116.004 96.408 116.42 96.648C116.836 96.88 117.16 97.204 117.392 97.62C117.624 98.036 117.74 98.512 117.74 99.048C117.74 99.584 117.624 100.06 117.392 100.476C117.16 100.892 116.836 101.22 116.42 101.46C116.004 101.692 115.532 101.808 115.004 101.808H112.592V105.048H111.536V96.288ZM119.876 96.288V105.048H118.82V96.288H119.876ZM123.985 104.208C124.329 104.208 124.649 104.112 124.945 103.92C125.249 103.728 125.493 103.464 125.677 103.128C125.861 102.784 125.953 102.404 125.953 101.988C125.953 101.572 125.861 101.196 125.677 100.86C125.493 100.524 125.249 100.26 124.945 100.068C124.649 99.876 124.329 99.78 123.985 99.78C123.609 99.78 123.273 99.872 122.977 100.056C122.689 100.24 122.461 100.5 122.293 100.836C122.133 101.172 122.053 101.556 122.053 101.988C122.053 102.644 122.233 103.18 122.593 103.596C122.953 104.004 123.417 104.208 123.985 104.208ZM120.997 101.988C120.997 101.388 121.121 100.852 121.369 100.38C121.617 99.908 121.965 99.54 122.413 99.276C122.861 99.012 123.369 98.88 123.937 98.88C124.305 98.88 124.665 98.98 125.017 99.18C125.369 99.372 125.673 99.664 125.929 100.056V98.844H126.985V105.048H125.929V103.932C125.665 104.34 125.361 104.64 125.017 104.832C124.673 105.024 124.313 105.12 123.937 105.12C123.369 105.12 122.861 104.988 122.413 104.724C121.965 104.452 121.617 104.08 121.369 103.608C121.121 103.136 120.997 102.596 120.997 101.988ZM129.311 107.76L130.559 104.712L128.039 98.844H129.191L131.111 103.5L132.959 98.844H134.111L131.759 104.568L130.463 107.76H129.311ZM137.59 104.208C137.95 104.208 138.278 104.108 138.574 103.908C138.87 103.708 139.102 103.44 139.27 103.104C139.446 102.76 139.534 102.388 139.534 101.988C139.534 101.604 139.446 101.244 139.27 100.908C139.102 100.564 138.866 100.292 138.562 100.092C138.266 99.892 137.942 99.792 137.59 99.792C137.214 99.792 136.878 99.884 136.582 100.068C136.294 100.252 136.066 100.512 135.898 100.848C135.738 101.184 135.658 101.564 135.658 101.988C135.658 102.42 135.738 102.804 135.898 103.14C136.066 103.476 136.294 103.74 136.582 103.932C136.878 104.116 137.214 104.208 137.59 104.208ZM134.602 101.988C134.602 101.388 134.726 100.856 134.974 100.392C135.222 99.92 135.57 99.552 136.018 99.288C136.466 99.024 136.974 98.892 137.542 98.892C137.958 98.892 138.346 98.996 138.706 99.204C139.066 99.404 139.342 99.688 139.534 100.056V98.844H140.59V104.724C140.59 105.316 140.462 105.844 140.206 106.308C139.958 106.772 139.602 107.132 139.138 107.388C138.682 107.644 138.15 107.772 137.542 107.772C137.014 107.772 136.53 107.66 136.09 107.436C135.658 107.22 135.294 106.88 134.998 106.416L135.838 105.876C136.062 106.212 136.314 106.456 136.594 106.608C136.874 106.768 137.19 106.848 137.542 106.848C138.158 106.848 138.642 106.656 138.994 106.272C139.354 105.888 139.534 105.388 139.534 104.772V103.896C139.31 104.264 139.01 104.56 138.634 104.784C138.266 105 137.902 105.108 137.542 105.108C136.974 105.108 136.466 104.976 136.018 104.712C135.57 104.448 135.222 104.08 134.974 103.608C134.726 103.136 134.602 102.596 134.602 101.988ZM143.162 100.092C143.33 99.716 143.606 99.408 143.99 99.168C144.382 98.928 144.802 98.808 145.25 98.808V99.792C144.874 99.792 144.526 99.892 144.206 100.092C143.886 100.292 143.63 100.556 143.438 100.884C143.254 101.204 143.162 101.544 143.162 101.904V105.048H142.106V98.844H143.162V100.092ZM148.781 104.184C149.157 104.184 149.489 104.092 149.777 103.908C150.065 103.716 150.289 103.452 150.449 103.116C150.617 102.772 150.701 102.384 150.701 101.952C150.701 101.52 150.617 101.136 150.449 100.8C150.289 100.464 150.061 100.204 149.765 100.02C149.477 99.828 149.149 99.732 148.781 99.732C148.413 99.732 148.081 99.828 147.785 100.02C147.497 100.204 147.273 100.464 147.113 100.8C146.953 101.136 146.873 101.52 146.873 101.952C146.873 102.384 146.953 102.772 147.113 103.116C147.273 103.452 147.497 103.716 147.785 103.908C148.081 104.092 148.413 104.184 148.781 104.184ZM145.817 101.952C145.817 101.344 145.941 100.804 146.189 100.332C146.445 99.86 146.797 99.492 147.245 99.228C147.693 98.956 148.205 98.82 148.781 98.82C149.357 98.82 149.869 98.956 150.317 99.228C150.773 99.492 151.125 99.86 151.373 100.332C151.629 100.804 151.757 101.344 151.757 101.952C151.757 102.56 151.629 103.1 151.373 103.572C151.125 104.044 150.773 104.416 150.317 104.688C149.869 104.952 149.357 105.084 148.781 105.084C148.205 105.084 147.693 104.952 147.245 104.688C146.797 104.416 146.445 104.044 146.189 103.572C145.941 103.1 145.817 102.56 145.817 101.952ZM154.144 102.42C154.144 102.932 154.288 103.348 154.576 103.668C154.864 103.98 155.236 104.136 155.692 104.136C156.204 104.136 156.62 103.976 156.94 103.656C157.26 103.336 157.42 102.92 157.42 102.408V98.844H158.476V105.048H157.42V104.004C157.22 104.308 156.952 104.556 156.616 104.748C156.28 104.94 155.952 105.036 155.632 105.036C155.144 105.036 154.704 104.932 154.312 104.724C153.928 104.508 153.628 104.208 153.412 103.824C153.196 103.44 153.088 103 153.088 102.504V98.844H154.144V102.42ZM164.357 101.496C164.357 100.976 164.217 100.56 163.937 100.248C163.665 99.928 163.297 99.768 162.833 99.768C162.505 99.768 162.205 99.848 161.933 100.008C161.669 100.16 161.461 100.368 161.309 100.632C161.165 100.896 161.093 101.184 161.093 101.496V105.048H160.037V98.844H161.093V99.9C161.293 99.596 161.557 99.348 161.885 99.156C162.221 98.956 162.557 98.856 162.893 98.856C163.357 98.856 163.781 98.956 164.165 99.156C164.549 99.356 164.853 99.652 165.077 100.044C165.301 100.428 165.413 100.892 165.413 101.436V105.048H164.357V101.496ZM169.582 105.12C169.006 105.12 168.494 104.988 168.046 104.724C167.598 104.452 167.25 104.08 167.002 103.608C166.754 103.128 166.63 102.584 166.63 101.976C166.63 101.368 166.754 100.828 167.002 100.356C167.25 99.876 167.598 99.504 168.046 99.24C168.494 98.968 169.006 98.832 169.582 98.832C169.95 98.832 170.318 98.932 170.686 99.132C171.062 99.324 171.374 99.628 171.622 100.044V96.288H172.678V105.048H171.622V103.92C171.366 104.32 171.054 104.62 170.686 104.82C170.318 105.02 169.95 105.12 169.582 105.12ZM167.686 101.988C167.686 102.42 167.766 102.808 167.926 103.152C168.094 103.488 168.326 103.752 168.622 103.944C168.926 104.136 169.266 104.232 169.642 104.232C169.994 104.232 170.322 104.132 170.626 103.932C170.93 103.724 171.17 103.448 171.346 103.104C171.53 102.76 171.622 102.388 171.622 101.988C171.622 101.588 171.53 101.216 171.346 100.872C171.17 100.528 170.93 100.256 170.626 100.056C170.322 99.848 169.994 99.744 169.642 99.744C169.266 99.744 168.926 99.84 168.622 100.032C168.326 100.224 168.094 100.492 167.926 100.836C167.766 101.172 167.686 101.556 167.686 101.988ZM182.985 95.328V105.912H181.941V95.328H182.985ZM174.093 99.9C174.093 99.148 174.185 98.492 174.369 97.932C174.553 97.364 174.813 96.932 175.149 96.636C175.493 96.332 175.893 96.18 176.349 96.18C176.989 96.18 177.509 96.468 177.909 97.044C178.317 97.62 178.549 98.404 178.605 99.396H179.817V95.556H180.849V105.396H179.817V100.296H178.605C178.557 101.328 178.329 102.144 177.921 102.744C177.521 103.336 176.997 103.632 176.349 103.632C175.893 103.632 175.493 103.48 175.149 103.176C174.813 102.872 174.553 102.44 174.369 101.88C174.185 101.32 174.093 100.66 174.093 99.9ZM175.089 99.9C175.089 100.748 175.201 101.412 175.425 101.892C175.649 102.364 175.957 102.6 176.349 102.6C176.749 102.6 177.061 102.364 177.285 101.892C177.509 101.412 177.621 100.748 177.621 99.9C177.621 99.06 177.509 98.404 177.285 97.932C177.061 97.452 176.749 97.212 176.349 97.212C175.957 97.212 175.649 97.452 175.425 97.932C175.201 98.404 175.089 99.06 175.089 99.9ZM192.003 95.988C192.747 95.988 193.411 96.104 193.995 96.336C194.587 96.568 195.047 96.896 195.375 97.32C195.711 97.744 195.879 98.232 195.879 98.784C195.879 99.296 195.739 99.752 195.459 100.152C195.179 100.552 194.787 100.876 194.283 101.124C193.787 101.364 193.211 101.512 192.555 101.568V103.68H196.815V104.58H187.227V103.68H191.463V101.568C190.815 101.52 190.239 101.376 189.735 101.136C189.231 100.888 188.839 100.564 188.559 100.164C188.279 99.756 188.139 99.296 188.139 98.784C188.139 98.232 188.303 97.744 188.631 97.32C188.967 96.896 189.427 96.568 190.011 96.336C190.595 96.104 191.259 95.988 192.003 95.988ZM189.207 98.784C189.207 99.168 189.327 99.508 189.567 99.804C189.807 100.1 190.139 100.328 190.563 100.488C190.987 100.648 191.467 100.728 192.003 100.728C192.547 100.728 193.031 100.648 193.455 100.488C193.879 100.328 194.211 100.1 194.451 99.804C194.691 99.508 194.811 99.168 194.811 98.784C194.811 98.4 194.691 98.064 194.451 97.776C194.211 97.48 193.879 97.252 193.455 97.092C193.031 96.932 192.547 96.852 192.003 96.852C191.467 96.852 190.987 96.932 190.563 97.092C190.139 97.252 189.807 97.48 189.567 97.776C189.327 98.064 189.207 98.4 189.207 98.784ZM206.403 95.34V103.08H205.311V95.34H206.403ZM197.787 100.716C198.323 100.516 198.787 100.224 199.179 99.84C199.571 99.456 199.871 99.016 200.079 98.52C200.295 98.024 200.403 97.512 200.403 96.984V95.916H201.507V96.984C201.507 97.76 201.739 98.472 202.203 99.12C202.675 99.768 203.311 100.236 204.111 100.524L203.535 101.4C202.935 101.176 202.415 100.848 201.975 100.416C201.543 99.976 201.207 99.46 200.967 98.868C200.735 99.5 200.395 100.052 199.947 100.524C199.507 100.996 198.979 101.348 198.363 101.58L197.787 100.716ZM199.551 102.36H200.655V104.796H206.727V105.696H199.551V102.36ZM219.705 95.328V100.716H218.613V98.688H216.417V97.812H218.613V95.328H219.705ZM211.113 100.092C212.337 99.804 213.293 99.368 213.981 98.784C214.669 98.192 215.057 97.496 215.145 96.696H211.689V95.808H216.333C216.333 97.12 215.913 98.212 215.073 99.084C214.241 99.948 213.049 100.572 211.497 100.956L211.113 100.092ZM212.853 101.172H219.705V103.848H213.969V104.94H220.017V105.816H212.877V103.02H218.613V102.048H212.853V101.172ZM232.467 95.328V98.964H233.979V99.876H232.467V103.608H231.375V95.328H232.467ZM224.151 101.568C225.103 101.568 226.023 101.552 226.911 101.52V100.776C226.311 100.712 225.835 100.54 225.483 100.26C225.131 99.972 224.955 99.608 224.955 99.168C224.955 98.664 225.179 98.268 225.627 97.98C226.083 97.684 226.687 97.536 227.439 97.536C228.191 97.536 228.795 97.684 229.251 97.98C229.707 98.268 229.935 98.664 229.935 99.168C229.935 99.6 229.759 99.96 229.407 100.248C229.063 100.528 228.595 100.7 228.003 100.764V101.472C228.939 101.424 229.867 101.332 230.787 101.196L230.871 101.976C229.871 102.16 228.819 102.284 227.715 102.348C226.619 102.404 225.479 102.432 224.295 102.432L224.151 101.568ZM224.415 96.324H226.911V95.28H228.003V96.324H230.475V97.14H224.415V96.324ZM225.699 103.068H226.803V104.796H232.839V105.696H225.699V103.068ZM225.999 99.168C225.999 99.44 226.127 99.652 226.383 99.804C226.639 99.956 226.991 100.032 227.439 100.032C227.887 100.032 228.243 99.956 228.507 99.804C228.771 99.652 228.903 99.44 228.903 99.168C228.903 98.896 228.771 98.684 228.507 98.532C228.243 98.38 227.887 98.304 227.439 98.304C226.991 98.304 226.639 98.38 226.383 98.532C226.127 98.684 225.999 98.896 225.999 99.168ZM237.604 95.94C238.036 95.94 238.436 96.02 238.804 96.18C239.172 96.332 239.48 96.548 239.728 96.828H242.356V95.34H243.448V101.58H242.356V100.14H239.728C239.48 100.42 239.172 100.636 238.804 100.788C238.436 100.94 238.036 101.016 237.604 101.016C237.084 101.016 236.616 100.908 236.2 100.692C235.784 100.476 235.456 100.176 235.216 99.792C234.976 99.408 234.856 98.972 234.856 98.484C234.856 97.996 234.976 97.56 235.216 97.176C235.456 96.784 235.784 96.48 236.2 96.264C236.616 96.048 237.084 95.94 237.604 95.94ZM235.9 98.484C235.9 98.956 236.06 99.34 236.38 99.636C236.708 99.932 237.116 100.08 237.604 100.08C238.092 100.08 238.492 99.932 238.804 99.636C239.124 99.34 239.284 98.956 239.284 98.484C239.284 98.012 239.124 97.628 238.804 97.332C238.492 97.036 238.092 96.888 237.604 96.888C237.108 96.888 236.7 97.036 236.38 97.332C236.06 97.628 235.9 98.012 235.9 98.484ZM236.392 103.86C236.392 103.22 236.708 102.72 237.34 102.36C237.972 102 238.84 101.82 239.944 101.82C241.04 101.82 241.904 102 242.536 102.36C243.168 102.72 243.484 103.22 243.484 103.86C243.484 104.5 243.168 105 242.536 105.36C241.904 105.72 241.04 105.9 239.944 105.9C238.84 105.9 237.972 105.72 237.34 105.36C236.708 105 236.392 104.5 236.392 103.86ZM237.472 103.86C237.472 104.236 237.688 104.528 238.12 104.736C238.56 104.944 239.168 105.048 239.944 105.048C240.72 105.048 241.324 104.944 241.756 104.736C242.188 104.528 242.404 104.236 242.404 103.86C242.404 103.492 242.188 103.204 241.756 102.996C241.324 102.788 240.72 102.684 239.944 102.684C239.168 102.684 238.56 102.788 238.12 102.996C237.688 103.204 237.472 103.492 237.472 103.86ZM242.356 99.252V97.716H240.232C240.304 97.956 240.34 98.212 240.34 98.484C240.34 98.756 240.304 99.012 240.232 99.252H242.356ZM247.252 97.092V95.628H248.332V97.092H250.384V97.98H245.176V97.092H247.252ZM245.512 101.064C245.512 100.6 245.608 100.184 245.8 99.816C246 99.448 246.272 99.16 246.616 98.952C246.96 98.744 247.352 98.64 247.792 98.64C248.224 98.64 248.612 98.744 248.956 98.952C249.308 99.16 249.58 99.448 249.772 99.816C249.972 100.184 250.072 100.6 250.072 101.064C250.072 101.544 249.972 101.968 249.772 102.336C249.58 102.704 249.312 102.992 248.968 103.2C248.624 103.408 248.232 103.512 247.792 103.512C247.352 103.512 246.96 103.408 246.616 103.2C246.272 102.992 246 102.704 245.8 102.336C245.608 101.968 245.512 101.544 245.512 101.064ZM246.484 101.064C246.484 101.52 246.604 101.888 246.844 102.168C247.092 102.448 247.408 102.588 247.792 102.588C248.176 102.588 248.488 102.448 248.728 102.168C248.976 101.888 249.1 101.52 249.1 101.064C249.1 100.616 248.976 100.252 248.728 99.972C248.488 99.692 248.176 99.552 247.792 99.552C247.408 99.552 247.092 99.692 246.844 99.972C246.604 100.252 246.484 100.616 246.484 101.064ZM250.876 95.568H251.908V99.756H253.132V95.328H254.176V105.912H253.132V100.656H251.908V105.408H250.876V95.568ZM257.992 103.68V100.884C257.552 100.644 257.208 100.34 256.96 99.972C256.72 99.596 256.6 99.176 256.6 98.712C256.6 98.168 256.764 97.688 257.092 97.272C257.428 96.856 257.888 96.536 258.472 96.312C259.056 96.08 259.72 95.964 260.464 95.964C261.216 95.964 261.884 96.08 262.468 96.312C263.06 96.536 263.52 96.856 263.848 97.272C264.176 97.688 264.34 98.168 264.34 98.712C264.34 99.176 264.22 99.592 263.98 99.96C263.748 100.32 263.416 100.624 262.984 100.872V103.68H265.276V104.58H255.688V103.68H257.992ZM257.668 98.712C257.668 99.088 257.784 99.42 258.016 99.708C258.256 99.988 258.588 100.208 259.012 100.368C259.436 100.52 259.92 100.596 260.464 100.596C261.008 100.596 261.492 100.52 261.916 100.368C262.34 100.208 262.672 99.988 262.912 99.708C263.152 99.42 263.272 99.088 263.272 98.712C263.272 98.336 263.152 98.008 262.912 97.728C262.672 97.44 262.34 97.22 261.916 97.068C261.492 96.908 261.008 96.828 260.464 96.828C259.92 96.828 259.436 96.908 259.012 97.068C258.588 97.22 258.256 97.44 258.016 97.728C257.784 98.008 257.668 98.336 257.668 98.712ZM261.88 103.68V101.292C261.464 101.396 260.992 101.448 260.464 101.448C259.952 101.448 259.488 101.396 259.072 101.292V103.68H261.88Z" fill="#989BA0"/>
<g clip-path="url(#clip0_925_1348)">
<g filter="url(#filter0_d_925_1348)">
<path fill-rule="evenodd" clip-rule="evenodd" d="M160.767 22.7478C160.929 23.6687 161.009 24.604 161.007 25.5433C161.007 27.7055 159.999 30.5655 158.011 34.0389C157.073 35.6806 155.899 37.3315 154.664 38.911C155.353 39.1161 156.089 39.227 156.854 39.227C158.106 39.227 159.282 38.9293 160.3 38.4076C161.828 38.9293 163.592 39.227 165.471 39.227C171.287 39.227 176.002 36.3738 176.002 32.8541C176.002 29.976 172.85 27.5435 168.52 26.7523C167.51 24.3571 164.954 22.6562 161.96 22.6562C161.553 22.6562 161.155 22.6876 160.767 22.7478Z" fill="url(#paint0_linear_925_1348)"/>
</g>
<g filter="url(#filter1_d_925_1348)">
<path fill-rule="evenodd" clip-rule="evenodd" d="M135.261 14.1211C135.072 14.0792 134.881 14.0405 134.687 14.0051C133.677 11.6105 131.121 9.91016 128.128 9.91016C125.196 9.91016 122.684 11.5414 121.633 13.8586C118.42 14.4436 116 17.0188 116 20.107C116 23.6267 119.144 26.48 123.021 26.48C124.274 26.48 125.45 26.1822 126.468 25.6604C127.69 26.0779 129.064 26.3519 130.526 26.4448C130.491 26.1322 130.473 25.8317 130.473 25.5435C130.469 23.4466 130.877 21.3691 131.673 19.4287C132.434 17.5726 133.544 15.8793 134.943 14.4406C135.048 14.3324 135.154 14.2259 135.261 14.1211Z" fill="url(#paint1_linear_925_1348)"/>
</g>
<g filter="url(#filter2_d_925_1348)">
<path fill-rule="evenodd" clip-rule="evenodd" d="M150.997 42.0939C151.78 42.0939 152.517 41.7379 152.994 41.1184C154.291 39.4367 156.9 35.9856 158.012 34.0393C160 30.5659 161.008 27.7059 161.008 25.5437C161.013 23.4467 160.605 21.3691 159.808 19.4289C159.047 17.572 157.936 15.8782 156.536 14.4393C155.156 13.0113 153.509 11.8673 151.688 11.0723C147.897 9.42903 143.593 9.42903 139.801 11.0723C137.978 11.8674 136.329 13.0118 134.947 14.4407C133.547 15.8794 132.437 17.5727 131.677 19.4289C130.88 21.3693 130.473 23.4467 130.477 25.5437C130.477 27.7059 131.477 30.5611 133.445 34.0349C134.552 35.9861 137.174 39.4424 138.474 41.1227C138.952 41.7397 139.688 42.0939 140.468 42.0939H150.997ZM142.991 52.6826H149.414C149.668 52.6826 149.883 52.5068 149.888 52.2858L151.756 47.3672C151.756 47.1462 151.543 46.9704 151.287 46.9704H141.123C140.862 46.9704 140.654 47.1501 140.654 47.3672L142.522 52.2858C142.522 52.5068 142.735 52.6826 142.991 52.6826Z" fill="white" fill-opacity="0.1"/>
</g>
<mask id="mask0_925_1348" style="mask-type:luminance" maskUnits="userSpaceOnUse" x="140" y="46" width="12" height="8">
<path fill-rule="evenodd" clip-rule="evenodd" d="M149.409 53.0016H143.069C142.812 53.0016 142.292 53.0212 142.201 52.3539L140.328 47.4693C140.328 47.2523 140.583 46.9707 140.844 46.9707L151.282 46.9707C151.538 46.9707 151.751 47.1466 151.751 47.3675L149.883 52.2862C149.878 52.5071 149.663 53.0016 149.409 53.0016Z" fill="white"/>
</mask>
<g mask="url(#mask0_925_1348)">
<g filter="url(#filter3_f_925_1348)">
<path fill-rule="evenodd" clip-rule="evenodd" d="M147.025 53.2478H142.571C142.246 53.2478 141.977 53.032 141.977 52.7609L140.688 49.4668C141.953 49.6426 142.993 50.3591 143.441 51.3155C145.144 51.596 146.492 52.3235 147.025 53.2478Z" fill="white" fill-opacity="0.1"/>
</g>
</g>
<path d="M133.307 34.1137L133.306 34.1136C131.335 30.6332 130.317 27.7484 130.317 25.5438M133.307 34.1137L161.008 25.5437M133.307 34.1137C134.421 36.0768 137.05 39.5428 138.348 41.2204C138.857 41.8771 139.639 42.2535 140.468 42.2535H150.998C151.828 42.2535 152.613 41.8752 153.121 41.2158C154.415 39.5368 157.032 36.0763 158.151 34.1184M133.307 34.1137L158.012 34.0393M130.317 25.5438C130.313 23.426 130.725 21.328 131.529 19.3683C132.297 17.4934 133.419 15.7829 134.832 14.3296C136.229 12.8858 137.895 11.7295 139.737 10.926L139.738 10.9259C143.57 9.26507 147.92 9.26507 151.752 10.9259L151.752 10.926C153.592 11.7294 155.256 12.8853 156.651 14.3282C158.065 15.7817 159.187 17.4927 159.956 19.3684C160.761 21.3279 161.173 23.4261 161.168 25.544M130.317 25.5438C130.317 25.5439 130.317 25.5439 130.317 25.544L130.477 25.5437H130.317C130.317 25.5437 130.317 25.5438 130.317 25.5438ZM161.168 25.544L161.008 25.5437M161.168 25.544C161.168 25.5439 161.168 25.5438 161.168 25.5437H161.008M161.168 25.544C161.168 27.7488 160.143 30.6385 158.151 34.1184M161.008 25.5437C161.008 27.7059 160.001 30.5659 158.012 34.0393M158.151 34.1184L158.012 34.0393M158.151 34.1184C158.151 34.1185 158.151 34.1185 158.151 34.1185L158.012 34.0393" fill="white" fill-opacity="0.1" stroke="url(#paint2_linear_925_1348)" stroke-width="0.319148"/>
<mask id="mask1_925_1348" style="mask-type:luminance" maskUnits="userSpaceOnUse" x="130" y="9" width="32" height="34">
<path d="M133.306 34.1137L133.306 34.1136C131.335 30.6332 130.317 27.7484 130.317 25.5438M133.306 34.1137L161.008 25.5437M133.306 34.1137C134.42 36.0768 137.05 39.5428 138.348 41.2204C138.856 41.8771 139.639 42.2535 140.468 42.2535H150.997C151.828 42.2535 152.613 41.8752 153.121 41.2158C154.415 39.5368 157.032 36.0764 158.15 34.1185M133.306 34.1137L158.012 34.0393M130.317 25.5438C130.313 23.4261 130.725 21.328 131.529 19.3684C132.297 17.4934 133.419 15.7829 134.832 14.3295C136.229 12.8858 137.895 11.7294 139.737 10.926L139.737 10.9259C143.57 9.26507 147.92 9.26507 151.752 10.9259L151.752 10.926C153.592 11.7294 155.256 12.8853 156.651 14.3282C158.065 15.7817 159.187 17.4927 159.956 19.3684C160.761 21.3279 161.173 23.4261 161.168 25.544M130.317 25.5438C130.317 25.5439 130.317 25.5439 130.317 25.544L130.477 25.5437H130.317C130.317 25.5437 130.317 25.5438 130.317 25.5438ZM161.168 25.544L161.008 25.5437M161.168 25.544C161.168 25.5439 161.168 25.5438 161.168 25.5437H161.008M161.168 25.544C161.168 27.7488 160.143 30.6385 158.15 34.1185M161.008 25.5437C161.008 27.7059 160 30.5659 158.012 34.0393M158.15 34.1185C158.15 34.1185 158.15 34.1185 158.15 34.1184L158.012 34.0393M158.15 34.1185L158.012 34.0393" fill="white" stroke="white" stroke-width="0.319148"/>
</mask>
<g mask="url(#mask1_925_1348)">
<g filter="url(#filter4_f_925_1348)">
<path fill-rule="evenodd" clip-rule="evenodd" d="M132.731 11.7168C132.551 11.8901 132.374 12.0668 132.199 12.2469C130.327 14.173 128.842 16.44 127.824 18.9249C126.759 21.5227 126.213 24.304 126.219 27.1114C126.219 27.4998 126.243 27.905 126.291 28.3266C126.867 28.37 127.453 28.3923 128.048 28.3923C135.851 28.3923 142.177 24.5514 142.177 19.8133C142.177 16.0719 138.232 12.8899 132.731 11.7168Z" fill="#FF5C00"/>
</g>
<g filter="url(#filter5_f_925_1348)">
<path fill-rule="evenodd" clip-rule="evenodd" d="M156.288 41.3429C152.54 40.2107 149.836 36.992 149.836 33.1981C149.836 29.041 153.082 25.5744 157.392 24.7869C158.559 22.2038 161.071 20.254 164.134 19.6602C164.391 20.9861 164.519 22.3364 164.516 23.6928C164.516 26.5554 163.168 30.3418 160.507 34.9402C159.295 37.0395 157.838 39.2429 156.288 41.3429Z" fill="#FFCA00"/>
</g>
<g opacity="0.497858" filter="url(#filter6_f_925_1348)">
<ellipse cx="140.896" cy="18.1965" rx="11.4893" ry="12.1086" fill="white"/>
</g>
<g opacity="0.497858" filter="url(#filter7_f_925_1348)">
<ellipse cx="159.411" cy="45.6008" rx="11.4893" ry="12.1086" fill="white"/>
</g>
</g>
<path fill-rule="evenodd" clip-rule="evenodd" d="M149.408 52.683H142.986C142.729 52.683 142.516 52.5071 142.516 52.2862L140.648 47.3675C140.648 47.1504 140.857 46.9707 141.118 46.9707H151.281C151.538 46.9707 151.751 47.1466 151.751 47.3675L149.883 52.2862C149.878 52.5071 149.663 52.683 149.408 52.683Z" fill="white" fill-opacity="0.1"/>
<path d="M140.489 47.3675V47.3968L140.499 47.4242L142.358 52.318C142.377 52.6343 142.678 52.8425 142.986 52.8425H149.408C149.715 52.8425 150.016 52.6338 150.041 52.3195L151.9 47.4242L151.91 47.3968V47.3675C151.91 47.0335 151.599 46.8111 151.281 46.8111H141.118C140.794 46.8111 140.489 47.0391 140.489 47.3675Z" stroke="white" stroke-opacity="0.1" stroke-width="0.319148"/>
<mask id="mask2_925_1348" style="mask-type:alpha" maskUnits="userSpaceOnUse" x="140" y="46" width="13" height="8">
<path d="M151.28 46.6523H141.117C140.691 46.6523 140.328 46.9611 140.328 47.3678L140.349 47.4808L142.199 52.3543L142.213 52.4346C142.288 52.7673 142.614 53.0019 142.985 53.0019H149.407L149.49 52.9979C149.846 52.9636 150.146 52.7116 150.194 52.373L150.195 52.3587L152.048 47.4808L152.069 47.3678C152.069 46.9588 151.704 46.6523 151.28 46.6523Z" fill="url(#paint3_linear_925_1348)"/>
</mask>
<g mask="url(#mask2_925_1348)">
<g filter="url(#filter8_f_925_1348)">
<ellipse cx="143.372" cy="48.5325" rx="3.65312" ry="2.36456" fill="white" fill-opacity="0.1"/>
</g>
</g>
<path opacity="0.298145" fill-rule="evenodd" clip-rule="evenodd" d="M146.004 46.3972C145.815 46.3972 145.66 46.3031 145.66 46.1882V42.8908C145.66 42.7759 145.815 42.6818 146.004 42.6818C146.193 42.6818 146.347 42.7759 146.347 42.8908V46.1882C146.347 46.3051 146.193 46.3972 146.004 46.3972ZM142.053 46.3001L140.602 43.0911C140.532 42.9343 140.62 42.7567 140.799 42.692C140.975 42.6295 141.173 42.7038 141.256 42.8639L142.706 46.0729C142.777 46.2297 142.689 46.4077 142.509 46.472C142.468 46.4868 142.424 46.4941 142.38 46.4936C142.24 46.4965 142.112 46.4205 142.053 46.3001ZM149.954 46.3001L151.405 43.0911C151.475 42.9343 151.387 42.7567 151.208 42.692C151.032 42.6295 150.834 42.7038 150.751 42.8639L149.301 46.0729C149.231 46.2297 149.318 46.4077 149.498 46.472C149.539 46.4868 149.583 46.4941 149.627 46.4936C149.767 46.4965 149.895 46.4205 149.954 46.3001Z" fill="white" fill-opacity="0.9"/>
<mask id="path-19-outside-1_925_1348" maskUnits="userSpaceOnUse" x="130" y="9.00195" width="32" height="45" fill="black">
<rect fill="white" x="130" y="9.00195" width="32" height="45"/>
<path fill-rule="evenodd" clip-rule="evenodd" d="M151.134 42.002C151.921 42.002 152.662 41.6421 153.139 41.017C154.417 39.3424 156.967 35.9351 158.056 34.0107C160.01 30.5647 161 27.7273 161 25.5821C161.005 23.5016 160.604 21.4404 159.821 19.5154C159.073 17.6732 157.982 15.9927 156.606 14.5651C155.25 13.1484 153.631 12.0135 151.842 11.2247C148.117 9.59437 143.887 9.59437 140.162 11.2247C138.371 12.0136 136.75 13.1489 135.392 14.5666C134.017 15.994 132.926 17.6739 132.179 19.5154C131.397 21.4406 130.996 23.5016 131 25.5821C131 27.7273 131.983 30.56 133.917 34.0064C135.001 35.9357 137.563 39.348 138.845 41.0213C139.322 41.6439 140.062 42.002 140.846 42.002H151.134ZM142.983 52.6831H149.406C149.66 52.6831 149.875 52.5072 149.88 52.2863L151.748 47.3676C151.748 47.1467 151.535 46.9708 151.278 46.9708H141.115C140.854 46.9708 140.646 47.1505 140.646 47.3676L142.514 52.2863C142.514 52.5072 142.726 52.6831 142.983 52.6831Z"/>
</mask>
<path fill-rule="evenodd" clip-rule="evenodd" d="M151.134 42.002C151.921 42.002 152.662 41.6421 153.139 41.017C154.417 39.3424 156.967 35.9351 158.056 34.0107C160.01 30.5647 161 27.7273 161 25.5821C161.005 23.5016 160.604 21.4404 159.821 19.5154C159.073 17.6732 157.982 15.9927 156.606 14.5651C155.25 13.1484 153.631 12.0135 151.842 11.2247C148.117 9.59437 143.887 9.59437 140.162 11.2247C138.371 12.0136 136.75 13.1489 135.392 14.5666C134.017 15.994 132.926 17.6739 132.179 19.5154C131.397 21.4406 130.996 23.5016 131 25.5821C131 27.7273 131.983 30.56 133.917 34.0064C135.001 35.9357 137.563 39.348 138.845 41.0213C139.322 41.6439 140.062 42.002 140.846 42.002H151.134ZM142.983 52.6831H149.406C149.66 52.6831 149.875 52.5072 149.88 52.2863L151.748 47.3676C151.748 47.1467 151.535 46.9708 151.278 46.9708H141.115C140.854 46.9708 140.646 47.1505 140.646 47.3676L142.514 52.2863C142.514 52.5072 142.726 52.6831 142.983 52.6831Z" fill="white" fill-opacity="0.1"/>
<path d="M153.139 41.017L153.392 41.2106L153.392 41.2106L153.139 41.017ZM158.056 34.0107L157.778 33.8533L157.778 33.8535L158.056 34.0107ZM161 25.5821L160.681 25.5814V25.5821H161ZM159.821 19.5154L159.525 19.6355L159.525 19.6357L159.821 19.5154ZM156.606 14.5651L156.375 14.7858L156.376 14.7866L156.606 14.5651ZM151.842 11.2247L151.971 10.9327L151.97 10.9323L151.842 11.2247ZM140.162 11.2247L140.034 10.9323L140.033 10.9326L140.162 11.2247ZM135.392 14.5666L135.622 14.788L135.623 14.7873L135.392 14.5666ZM132.179 19.5154L132.475 19.6356L132.475 19.6355L132.179 19.5154ZM131 25.5821H131.319L131.319 25.5815L131 25.5821ZM133.917 34.0064L133.639 34.1626L133.639 34.1628L133.917 34.0064ZM138.845 41.0213L139.099 40.8272L139.099 40.8272L138.845 41.0213ZM149.88 52.2863L149.582 52.173L149.562 52.2244L149.561 52.2793L149.88 52.2863ZM151.748 47.3676L152.046 47.4809L152.067 47.4261V47.3676H151.748ZM140.646 47.3676H140.327V47.4261L140.347 47.4809L140.646 47.3676ZM142.514 52.2863H142.833V52.2277L142.812 52.173L142.514 52.2863ZM152.885 40.8234C152.469 41.3679 151.823 41.6828 151.134 41.6828V42.3211C152.018 42.3211 152.854 41.9163 153.392 41.2106L152.885 40.8234ZM157.778 33.8535C156.702 35.7549 154.167 39.1435 152.885 40.8234L153.392 41.2106C154.666 39.5412 157.231 36.1153 158.333 34.1679L157.778 33.8535ZM160.681 25.5821C160.681 27.6429 159.724 30.421 157.778 33.8533L158.333 34.1681C160.295 30.7084 161.319 27.8117 161.319 25.5821H160.681ZM159.525 19.6357C160.293 21.5222 160.685 23.5423 160.681 25.5814L161.319 25.5828C161.324 23.4609 160.915 21.3586 160.117 19.3952L159.525 19.6357ZM156.376 14.7866C157.723 16.1848 158.793 17.8309 159.525 19.6355L160.117 19.3954C159.353 17.5156 158.24 15.8006 156.835 14.3437L156.376 14.7866ZM151.714 11.5167C153.464 12.2886 155.048 13.3992 156.375 14.7858L156.836 14.3445C155.451 12.8976 153.799 11.7384 151.971 10.9327L151.714 11.5167ZM140.29 11.5171C143.934 9.92245 148.07 9.92245 151.714 11.5171L151.97 10.9323C148.163 9.2663 143.841 9.2663 140.034 10.9323L140.29 11.5171ZM135.623 14.7873C136.952 13.3998 138.538 12.2887 140.291 11.5168L140.033 10.9326C138.204 11.7384 136.548 12.898 135.162 14.3458L135.623 14.7873ZM132.475 19.6355C133.207 17.8315 134.275 16.186 135.622 14.788L135.162 14.3452C133.759 15.8019 132.646 17.5163 131.883 19.3954L132.475 19.6355ZM131.319 25.5815C131.315 23.5424 131.708 21.5223 132.475 19.6356L131.883 19.3953C131.085 21.3588 130.677 23.4609 130.681 25.5827L131.319 25.5815ZM134.195 33.8503C132.269 30.4172 131.319 27.6435 131.319 25.5821H130.681C130.681 27.8111 131.697 30.7027 133.639 34.1626L134.195 33.8503ZM139.099 40.8272C137.813 39.1485 135.266 35.7555 134.195 33.8501L133.639 34.1628C134.736 36.1159 137.314 39.5476 138.592 41.2154L139.099 40.8272ZM140.846 41.6828C140.159 41.6828 139.514 41.3695 139.099 40.8272L138.592 41.2154C139.131 41.9183 139.964 42.3211 140.846 42.3211V41.6828ZM151.134 41.6828H140.846V42.3211H151.134V41.6828ZM149.406 52.3639H142.983V53.0022H149.406V52.3639ZM149.561 52.2793C149.561 52.2833 149.559 52.2999 149.532 52.322C149.505 52.3447 149.46 52.3639 149.406 52.3639V53.0022C149.783 53.0022 150.189 52.7339 150.199 52.2932L149.561 52.2793ZM151.45 47.2543L149.582 52.173L150.178 52.3996L152.046 47.4809L151.45 47.2543ZM151.278 47.2899C151.335 47.2899 151.379 47.3096 151.404 47.3308C151.429 47.3511 151.429 47.3652 151.429 47.3676H152.067C152.067 46.9204 151.657 46.6516 151.278 46.6516V47.2899ZM141.115 47.2899H151.278V46.6516H141.115V47.2899ZM140.965 47.3676C140.965 47.3659 140.965 47.3515 140.989 47.3309C141.014 47.31 141.057 47.2899 141.115 47.2899V46.6516C140.728 46.6516 140.327 46.9278 140.327 47.3676H140.965ZM142.812 52.173L140.944 47.2543L140.347 47.4809L142.215 52.3996L142.812 52.173ZM142.983 52.3639C142.926 52.3639 142.883 52.3443 142.857 52.3231C142.833 52.3027 142.833 52.2887 142.833 52.2863H142.195C142.195 52.7334 142.605 53.0022 142.983 53.0022V52.3639Z" fill="url(#paint4_linear_925_1348)" mask="url(#path-19-outside-1_925_1348)"/>
<g opacity="0.9" filter="url(#filter9_d_925_1348)">
<path fill-rule="evenodd" clip-rule="evenodd" d="M141.894 48.6162C141.744 48.2003 142.052 47.7617 142.494 47.7617H149.965C150.414 47.7617 150.723 48.2143 150.559 48.633L149.401 51.5866C149.305 51.8311 149.07 51.9919 148.807 51.9919H143.557C143.288 51.9919 143.048 51.8231 142.957 51.5699L141.894 48.6162Z" fill="url(#paint5_linear_925_1348)"/>
</g>
</g>
<defs>
<filter id="filter0_d_925_1348" x="147.43" y="19.252" width="30.6976" height="25.932" filterUnits="userSpaceOnUse" color-interpolation-filters="sRGB">
<feFlood flood-opacity="0" result="BackgroundImageFix"/>
<feColorMatrix in="SourceAlpha" type="matrix" values="0 0 0 0 0 0 0 0 0 0 0 0 0 0 0 0 0 0 127 0" result="hardAlpha"/>
<feOffset dx="-2.55318" dy="1.27659"/>
<feGaussianBlur stdDeviation="2.34042"/>
<feColorMatrix type="matrix" values="0 0 0 0 0 0 0 0 0 0 0 0 0 0 0 0 0 0 0.165981 0"/>
<feBlend mode="normal" in2="BackgroundImageFix" result="effect1_dropShadow_925_1348"/>
<feBlend mode="normal" in="SourceGraphic" in2="effect1_dropShadow_925_1348" result="shape"/>
</filter>
<filter id="filter1_d_925_1348" x="112.17" y="8.63356" width="24.3642" height="21.6767" filterUnits="userSpaceOnUse" color-interpolation-filters="sRGB">
<feFlood flood-opacity="0" result="BackgroundImageFix"/>
<feColorMatrix in="SourceAlpha" type="matrix" values="0 0 0 0 0 0 0 0 0 0 0 0 0 0 0 0 0 0 127 0" result="hardAlpha"/>
<feOffset dx="-1.27659" dy="1.27659"/>
<feGaussianBlur stdDeviation="1.27659"/>
<feColorMatrix type="matrix" values="0 0 0 0 0 0 0 0 0 0 0 0 0 0 0 0 0 0 0.274967 0"/>
<feBlend mode="normal" in2="BackgroundImageFix" result="effect1_dropShadow_925_1348"/>
<feBlend mode="normal" in="SourceGraphic" in2="effect1_dropShadow_925_1348" result="shape"/>
</filter>
<filter id="filter2_d_925_1348" x="124.094" y="4.73348" width="43.2972" height="55.6097" filterUnits="userSpaceOnUse" color-interpolation-filters="sRGB">
<feFlood flood-opacity="0" result="BackgroundImageFix"/>
<feColorMatrix in="SourceAlpha" type="matrix" values="0 0 0 0 0 0 0 0 0 0 0 0 0 0 0 0 0 0 127 0" result="hardAlpha"/>
<feOffset dy="1.27659"/>
<feGaussianBlur stdDeviation="3.19148"/>
<feColorMatrix type="matrix" values="0 0 0 0 0 0 0 0 0 0 0 0 0 0 0 0 0 0 0.551911 0"/>
<feBlend mode="normal" in2="BackgroundImageFix" result="effect1_dropShadow_925_1348"/>
<feBlend mode="normal" in="SourceGraphic" in2="effect1_dropShadow_925_1348" result="shape"/>
</filter>
<filter id="filter3_f_925_1348" x="138.952" y="47.7317" width="9.80607" height="7.25139" filterUnits="userSpaceOnUse" color-interpolation-filters="sRGB">
<feFlood flood-opacity="0" result="BackgroundImageFix"/>
<feBlend mode="normal" in="SourceGraphic" in2="BackgroundImageFix" result="shape"/>
<feGaussianBlur stdDeviation="0.867534" result="effect1_foregroundBlur_925_1348"/>
</filter>
<filter id="filter4_f_925_1348" x="121.014" y="6.51159" width="26.3713" height="27.0862" filterUnits="userSpaceOnUse" color-interpolation-filters="sRGB">
<feFlood flood-opacity="0" result="BackgroundImageFix"/>
<feBlend mode="normal" in="SourceGraphic" in2="BackgroundImageFix" result="shape"/>
<feGaussianBlur stdDeviation="2.6026" result="effect1_foregroundBlur_925_1348"/>
</filter>
<filter id="filter5_f_925_1348" x="144.631" y="14.455" width="25.0901" height="32.094" filterUnits="userSpaceOnUse" color-interpolation-filters="sRGB">
<feFlood flood-opacity="0" result="BackgroundImageFix"/>
<feBlend mode="normal" in="SourceGraphic" in2="BackgroundImageFix" result="shape"/>
<feGaussianBlur stdDeviation="2.6026" result="effect1_foregroundBlur_925_1348"/>
</filter>
<filter id="filter6_f_925_1348" x="120.731" y="-2.58745" width="40.3272" height="41.5675" filterUnits="userSpaceOnUse" color-interpolation-filters="sRGB">
<feFlood flood-opacity="0" result="BackgroundImageFix"/>
<feBlend mode="normal" in="SourceGraphic" in2="BackgroundImageFix" result="shape"/>
<feGaussianBlur stdDeviation="4.33767" result="effect1_foregroundBlur_925_1348"/>
</filter>
<filter id="filter7_f_925_1348" x="139.247" y="24.8168" width="40.3272" height="41.5675" filterUnits="userSpaceOnUse" color-interpolation-filters="sRGB">
<feFlood flood-opacity="0" result="BackgroundImageFix"/>
<feBlend mode="normal" in="SourceGraphic" in2="BackgroundImageFix" result="shape"/>
<feGaussianBlur stdDeviation="4.33767" result="effect1_foregroundBlur_925_1348"/>
</filter>
<filter id="filter8_f_925_1348" x="136.249" y="42.6978" width="14.245" height="11.6688" filterUnits="userSpaceOnUse" color-interpolation-filters="sRGB">
<feFlood flood-opacity="0" result="BackgroundImageFix"/>
<feBlend mode="normal" in="SourceGraphic" in2="BackgroundImageFix" result="shape"/>
<feGaussianBlur stdDeviation="1.73507" result="effect1_foregroundBlur_925_1348"/>
</filter>
<filter id="filter9_d_925_1348" x="137.171" y="45.6341" width="15.5585" height="11.039" filterUnits="userSpaceOnUse" color-interpolation-filters="sRGB">
<feFlood flood-opacity="0" result="BackgroundImageFix"/>
<feColorMatrix in="SourceAlpha" type="matrix" values="0 0 0 0 0 0 0 0 0 0 0 0 0 0 0 0 0 0 127 0" result="hardAlpha"/>
<feOffset dx="-1.27659" dy="1.27659"/>
<feGaussianBlur stdDeviation="1.70212"/>
<feColorMatrix type="matrix" values="0 0 0 0 1 0 0 0 0 0.701961 0 0 0 0 0.203922 0 0 0 0.4 0"/>
<feBlend mode="normal" in2="BackgroundImageFix" result="effect1_dropShadow_925_1348"/>
<feBlend mode="normal" in="SourceGraphic" in2="effect1_dropShadow_925_1348" result="shape"/>
</filter>
<linearGradient id="paint0_linear_925_1348" x1="165.891" y1="24.8922" x2="160.707" y2="37.2928" gradientUnits="userSpaceOnUse">
<stop stop-color="#FFCA00"/>
<stop offset="1" stop-color="#FF5C00"/>
</linearGradient>
<linearGradient id="paint1_linear_925_1348" x1="122.688" y1="15.6218" x2="127.517" y2="23.7353" gradientUnits="userSpaceOnUse">
<stop stop-color="#FFCA00"/>
<stop offset="1" stop-color="#FF5C00"/>
</linearGradient>
<linearGradient id="paint2_linear_925_1348" x1="134.233" y1="10.2389" x2="135.076" y2="34.5527" gradientUnits="userSpaceOnUse">
<stop stop-color="#A9FFED" stop-opacity="0.516361"/>
<stop offset="0.519881" stop-color="#C6DFFF" stop-opacity="0.463172"/>
<stop offset="1" stop-color="#CCE2FF" stop-opacity="0.199786"/>
</linearGradient>
<linearGradient id="paint3_linear_925_1348" x1="137.349" y1="47.4659" x2="137.725" y2="53.4031" gradientUnits="userSpaceOnUse">
<stop stop-color="white" stop-opacity="0.285957"/>
<stop offset="1" stop-color="#FFE4B4" stop-opacity="0.463172"/>
</linearGradient>
<linearGradient id="paint4_linear_925_1348" x1="143.425" y1="7.64645" x2="130.303" y2="34.1145" gradientUnits="userSpaceOnUse">
<stop stop-color="#FFE6A9" stop-opacity="0.516361"/>
<stop offset="0.519881" stop-color="#C6DFFF" stop-opacity="0.463172"/>
<stop offset="1" stop-color="#CCE2FF" stop-opacity="0.199786"/>
</linearGradient>
<linearGradient id="paint5_linear_925_1348" x1="141.875" y1="47.8937" x2="141.875" y2="51.9919" gradientUnits="userSpaceOnUse">
<stop stop-color="white"/>
</linearGradient>
<clipPath id="clip0_925_1348">
<rect width="60" height="60" fill="white" transform="translate(116)"/>
</clipPath>
</defs>
</svg>
