<svg width="292" height="106" viewBox="0 0 292 106" fill="none" xmlns="http://www.w3.org/2000/svg">
<path d="M3.18125 77.616C3.70325 78.786 4.72925 79.416 6.25925 79.362C8.52725 79.29 9.31925 76.572 7.01525 75.87C6.16925 75.564 4.67525 75.15 3.37925 74.286C1.52525 73.026 1.30925 71.046 2.01125 69.57C2.78525 67.95 4.81925 67.392 6.13325 67.5C7.28525 67.59 8.86925 68.04 9.84125 69.444L8.05925 70.668C7.55525 69.948 6.83525 69.732 5.97125 69.66C5.21525 69.606 4.29725 69.804 3.95525 70.506C3.68525 71.136 3.63125 71.82 4.58525 72.486C5.59325 73.17 6.81725 73.512 7.71725 73.836C12.2713 75.294 10.9753 81.396 6.33125 81.522C4.08125 81.594 2.02925 80.424 1.20125 78.462L3.18125 77.616ZM18.4441 79.164C21.1801 79.164 22.9801 77.112 22.9801 74.502C22.9801 71.91 21.1801 69.84 18.4441 69.84C15.7081 69.84 13.9081 71.91 13.9081 74.502C13.9081 77.112 15.7081 79.164 18.4441 79.164ZM11.7481 74.502C11.7481 70.758 14.4841 67.662 18.4441 67.662C22.4041 67.662 25.1581 70.758 25.1581 74.502C25.1581 78.264 22.4041 81.342 18.4441 81.342C14.4841 81.342 11.7481 78.264 11.7481 74.502ZM32.7484 74.592C33.9904 74.592 34.9804 73.494 34.9804 72.27C34.9804 71.028 33.9724 69.93 32.7304 69.93H29.2564V74.592H32.7484ZM27.0964 81.198V67.806H32.7124C35.1784 67.806 37.1404 69.804 37.1404 72.27C37.1404 74.7 35.1784 76.716 32.7124 76.716H29.2564V81.198H27.0964ZM47.8118 67.806V69.93H44.0498V81.198H41.8898V69.93H38.0918V67.806H47.8118ZM55.1211 67.32H66.2991V68.76C66.2991 70.272 66.2991 71.928 65.8851 74.196H68.0271V76.014H61.7811V82.53H59.5311V76.014H53.4471V74.196H63.6531C64.0671 72.108 64.1031 70.506 64.1031 69.102H55.1211V67.32ZM72.9235 67.23H75.1915V68.58C75.1915 70.74 76.2895 72.738 78.8275 73.548L77.6575 75.294C75.9655 74.7 74.7955 73.584 74.1115 72.162C73.3915 73.818 72.0955 75.132 70.1875 75.78L69.0175 73.98C71.7355 73.098 72.9235 70.938 72.9235 68.688V67.23ZM71.6455 79.362C71.6455 77.418 73.7695 76.248 77.1715 76.248C80.5735 76.248 82.6795 77.418 82.6795 79.362C82.6795 81.36 80.5735 82.512 77.1715 82.512C73.7695 82.512 71.6455 81.36 71.6455 79.362ZM73.8955 79.362C73.8955 80.316 75.0295 80.802 77.1715 80.802C79.2955 80.802 80.4655 80.316 80.4655 79.362C80.4655 78.444 79.2955 77.976 77.1715 77.976C75.0295 77.976 73.8955 78.444 73.8955 79.362ZM77.3695 71.172V69.354H80.3755V66.384H82.6255V75.834H80.3755V71.172H77.3695ZM96.1979 66.366H98.4119V78.588H96.1979V77.274H93.1379V75.762H96.1979V66.366ZM84.8219 73.53C87.7739 73.53 91.6979 73.494 95.0999 73.062L95.2439 74.646C93.9659 74.862 92.6519 75.006 91.3559 75.114V78.156H89.1239V75.24C87.6839 75.294 86.3159 75.312 85.1099 75.312L84.8219 73.53ZM85.9919 69.804C85.9919 68.094 87.6479 66.924 90.0059 66.924C92.3639 66.924 94.0199 68.094 94.0199 69.804C94.0199 71.532 92.3639 72.666 90.0059 72.666C87.6479 72.666 85.9919 71.532 85.9919 69.804ZM86.8739 82.206V77.436H89.0879V80.424H98.7899V82.206H86.8739ZM88.1159 69.804C88.1159 70.614 88.9079 71.046 90.0059 71.046C91.1399 71.046 91.9139 70.614 91.9139 69.804C91.9139 68.994 91.1399 68.562 90.0059 68.562C88.9079 68.562 88.1159 68.994 88.1159 69.804ZM107.916 67.176C111.318 67.176 113.928 69.048 113.928 71.82C113.928 74.628 111.318 76.464 107.916 76.464C104.532 76.464 101.904 74.628 101.904 71.82C101.904 69.048 104.532 67.176 107.916 67.176ZM100.644 80.532V78.696H115.242V80.532H100.644ZM104.1 71.82C104.1 73.584 105.684 74.646 107.916 74.646C110.166 74.646 111.75 73.584 111.75 71.82C111.75 70.056 110.166 68.994 107.916 68.994C105.684 68.994 104.1 70.056 104.1 71.82ZM116.377 78.876H122.533V76.41H118.069V71.01H127.105V69.192H118.033V67.428H129.319V72.738H120.265V74.628H129.679V76.41H124.765V78.876H130.975V80.694H116.377V78.876ZM146.68 66.384H148.912V70.38H151.09V72.198H148.912V76.086H146.68V66.384ZM136.258 69.606V67.842H139.876V66.258H142.108V67.842H145.744V69.606H136.258ZM137.05 73.008C137.05 71.298 138.67 70.11 141.01 70.11C143.332 70.11 144.952 71.298 144.952 73.008C144.952 74.754 143.332 75.906 141.01 75.906C138.67 75.906 137.05 74.754 137.05 73.008ZM138.472 82.332V76.806H148.912V82.332H138.472ZM139.192 73.008C139.192 73.836 139.912 74.286 141.01 74.286C142.072 74.286 142.81 73.836 142.81 73.008C142.81 72.198 142.072 71.766 141.01 71.766C139.912 71.766 139.192 72.198 139.192 73.008ZM140.65 80.568H146.734V78.57H140.65V80.568ZM155.878 68.22C155.878 72.234 155.5 75.852 153.466 79.056L151.738 78.12C153.394 75.6 153.88 73.134 153.988 70.002H152.26V68.22H155.878ZM155.32 78.912C157.156 76.158 157.534 73.278 157.588 70.002H156.364V68.22H159.478C159.478 69.642 159.442 71.064 159.316 72.45H160.702V66.726H162.79V81.774H160.702V74.232H159.1C158.758 76.23 158.164 78.12 157.048 79.884L155.32 78.912ZM163.816 82.512V66.384H165.922V82.512H163.816ZM178.108 66.384H180.34V72.702H182.698V74.556H180.34V82.512H178.108V66.384ZM167.632 70.56V68.778H171.232V66.636H173.482V68.778H177.046V70.56H167.632ZM168.298 75.348C168.298 73.098 170.026 71.514 172.366 71.514C174.706 71.514 176.452 73.098 176.452 75.348C176.452 77.58 174.706 79.164 172.366 79.164C170.026 79.164 168.298 77.58 168.298 75.348ZM170.44 75.348C170.44 76.59 171.232 77.346 172.366 77.346C173.5 77.346 174.31 76.59 174.31 75.348C174.31 74.088 173.5 73.314 172.366 73.314C171.232 73.314 170.44 74.088 170.44 75.348ZM195.173 66.366H197.297V82.494H195.173V66.366ZM183.239 77.58C186.497 75.636 187.919 73.278 188.225 70.074H184.121V68.292H190.421C190.421 69.822 190.259 71.262 189.863 72.594H191.771V66.726H193.859V81.774H191.771V74.376H189.179C188.261 76.212 186.767 77.814 184.499 79.146L183.239 77.58ZM204.416 67.824H212.732V69.588H206.648V72.936H212.822V74.736H209.708V77.418C211.04 77.364 212.354 77.274 213.596 77.13L213.758 78.75C210.284 79.29 206.648 79.344 203.642 79.326L203.372 77.508C204.65 77.508 206.036 77.508 207.476 77.49V74.736H204.416V67.824ZM214.496 82.53V66.348H216.728V82.53H214.496ZM223.442 67.5C225.602 67.5 227.24 69.282 227.546 72.216H230.336V66.348H232.55V82.53H230.336V73.998H227.564C227.348 77.094 225.674 79.002 223.442 79.002C221.048 79.002 219.302 76.788 219.302 73.242C219.302 69.714 221.048 67.5 223.442 67.5ZM221.426 73.242C221.426 75.654 222.236 76.986 223.442 76.986C224.666 76.986 225.476 75.654 225.476 73.242C225.476 70.83 224.666 69.516 223.442 69.516C222.236 69.516 221.426 70.83 221.426 73.242ZM250.109 66.366H252.341V82.494H250.109V66.366ZM238.985 77.976C243.125 76.014 244.925 73.422 245.267 69.822H239.813V68.04H247.553C247.553 72.954 245.843 76.986 240.137 79.74L238.985 77.976ZM254.897 67.824H256.715V71.586H257.867V67.824H259.649V78.714H254.897V67.824ZM256.715 76.932H257.867V73.314H256.715V76.932ZM260.405 78.714V67.824H262.205V71.586H263.375V67.824H265.157V72.216H266.435V66.384H268.559V82.512H266.435V73.998H265.157V78.714H260.405ZM262.205 76.932H263.375V73.314H262.205V76.932ZM270.414 78.786H273.654V74.808C272.43 74.052 271.674 72.9 271.674 71.478C271.674 68.868 274.23 67.176 277.686 67.176C281.16 67.176 283.698 68.868 283.698 71.478C283.698 72.882 282.96 74.034 281.754 74.79V78.786H285.012V80.604H270.414V78.786ZM273.888 71.478C273.888 73.098 275.418 74.052 277.686 74.052C279.972 74.052 281.502 73.098 281.502 71.478C281.502 69.858 279.972 68.904 277.686 68.904C275.418 68.904 273.888 69.858 273.888 71.478ZM275.886 78.786H279.522V75.618C278.946 75.744 278.334 75.798 277.686 75.798C277.056 75.798 276.444 75.744 275.886 75.636V78.786ZM290.16 67.158L289.836 77.328H287.748L287.37 67.158H290.16ZM287.586 80.28C287.586 79.614 288.018 79.074 288.792 79.074C289.584 79.074 289.998 79.614 289.998 80.28C289.998 80.964 289.584 81.504 288.792 81.504C288.018 81.504 287.586 80.964 287.586 80.28Z" fill="white"/>
<path d="M28.9476 100.984C29.2516 101.352 29.6036 101.648 30.0036 101.872C30.4036 102.096 30.8076 102.208 31.2156 102.208C31.8156 102.208 32.3076 102.06 32.6916 101.764C33.0756 101.46 33.2676 101.072 33.2676 100.6C33.2676 100.32 33.1796 100.088 33.0036 99.904C32.8276 99.72 32.6116 99.572 32.3556 99.46C32.0996 99.348 31.7356 99.216 31.2636 99.064C30.6716 98.872 30.1956 98.692 29.8356 98.524C29.4756 98.348 29.1636 98.1 28.8996 97.78C28.6436 97.46 28.5156 97.044 28.5156 96.532C28.5156 96.084 28.6316 95.68 28.8636 95.32C29.1036 94.96 29.4356 94.68 29.8596 94.48C30.2916 94.28 30.7796 94.18 31.3236 94.18C31.8436 94.18 32.3396 94.304 32.8116 94.552C33.2916 94.792 33.6956 95.116 34.0236 95.524L33.2316 96.136C32.9916 95.816 32.7036 95.564 32.3676 95.38C32.0396 95.196 31.6916 95.104 31.3236 95.104C30.8116 95.104 30.3916 95.24 30.0636 95.512C29.7356 95.776 29.5716 96.116 29.5716 96.532C29.5716 96.828 29.6636 97.076 29.8476 97.276C30.0316 97.468 30.2596 97.624 30.5316 97.744C30.8036 97.864 31.1756 98.004 31.6476 98.164C32.2236 98.356 32.6876 98.54 33.0396 98.716C33.3996 98.884 33.7036 99.12 33.9516 99.424C34.1996 99.728 34.3236 100.12 34.3236 100.6C34.3236 101.088 34.1916 101.524 33.9276 101.908C33.6636 102.292 33.2956 102.592 32.8236 102.808C32.3516 103.024 31.8156 103.132 31.2156 103.132C30.6396 103.124 30.0756 102.98 29.5236 102.7C28.9796 102.42 28.5236 102.048 28.1556 101.584L28.9476 100.984ZM39.7412 102.208C40.3812 102.208 40.9452 102.06 41.4332 101.764C41.9292 101.468 42.3132 101.052 42.5852 100.516C42.8652 99.98 43.0052 99.364 43.0052 98.668C43.0052 97.972 42.8652 97.356 42.5852 96.82C42.3132 96.284 41.9292 95.868 41.4332 95.572C40.9452 95.276 40.3812 95.128 39.7412 95.128C39.1012 95.128 38.5332 95.276 38.0372 95.572C37.5412 95.868 37.1572 96.284 36.8852 96.82C36.6132 97.356 36.4772 97.972 36.4772 98.668C36.4772 99.364 36.6132 99.98 36.8852 100.516C37.1572 101.052 37.5412 101.468 38.0372 101.764C38.5332 102.06 39.1012 102.208 39.7412 102.208ZM35.4092 98.668C35.4092 97.804 35.5932 97.032 35.9612 96.352C36.3292 95.672 36.8412 95.144 37.4972 94.768C38.1532 94.384 38.9012 94.192 39.7412 94.192C40.5732 94.192 41.3172 94.384 41.9732 94.768C42.6372 95.144 43.1532 95.672 43.5212 96.352C43.8892 97.032 44.0732 97.804 44.0732 98.668C44.0732 99.532 43.8892 100.304 43.5212 100.984C43.1532 101.664 42.6372 102.196 41.9732 102.58C41.3172 102.956 40.5732 103.144 39.7412 103.144C38.9012 103.144 38.1532 102.956 37.4972 102.58C36.8412 102.196 36.3292 101.664 35.9612 100.984C35.5932 100.304 35.4092 99.532 35.4092 98.668ZM48.9096 98.884C49.4216 98.884 49.8376 98.716 50.1576 98.38C50.4776 98.036 50.6376 97.592 50.6376 97.048C50.6376 96.512 50.4736 96.076 50.1456 95.74C49.8256 95.396 49.4096 95.224 48.8976 95.224H46.5096L46.5216 98.884H48.9096ZM45.4656 94.288H48.9336C49.4616 94.288 49.9336 94.408 50.3496 94.648C50.7656 94.88 51.0896 95.204 51.3216 95.62C51.5536 96.036 51.6696 96.512 51.6696 97.048C51.6696 97.584 51.5536 98.06 51.3216 98.476C51.0896 98.892 50.7656 99.22 50.3496 99.46C49.9336 99.692 49.4616 99.808 48.9336 99.808H46.5216V103.048H45.4656V94.288ZM58.9927 95.224H56.3167V103.048H55.2607V95.224H52.5967V94.288H58.9927V95.224ZM63.5691 94.084C64.1131 94.084 64.6011 94.192 65.0331 94.408C65.4651 94.624 65.8011 94.924 66.0411 95.308C66.2891 95.684 66.4131 96.116 66.4131 96.604C66.4131 97.092 66.2891 97.528 66.0411 97.912C65.8011 98.296 65.4651 98.596 65.0331 98.812C64.6011 99.02 64.1131 99.124 63.5691 99.124C63.0171 99.124 62.5211 99.02 62.0811 98.812C61.6491 98.596 61.3091 98.296 61.0611 97.912C60.8211 97.528 60.7011 97.092 60.7011 96.604C60.7011 96.116 60.8211 95.684 61.0611 95.308C61.3091 94.924 61.6491 94.624 62.0811 94.408C62.5211 94.192 63.0171 94.084 63.5691 94.084ZM60.1971 100.744C61.5411 100.744 62.7651 100.724 63.8691 100.684C64.9811 100.636 66.0411 100.536 67.0491 100.384L67.1331 101.188C66.0931 101.388 65.0291 101.516 63.9411 101.572C62.8611 101.628 61.6571 101.656 60.3291 101.656L60.1971 100.744ZM61.7691 96.604C61.7691 97.068 61.9371 97.448 62.2731 97.744C62.6171 98.032 63.0491 98.176 63.5691 98.176C64.0811 98.176 64.5051 98.032 64.8411 97.744C65.1771 97.448 65.3451 97.068 65.3451 96.604C65.3451 96.14 65.1771 95.764 64.8411 95.476C64.5051 95.18 64.0811 95.032 63.5691 95.032C63.0491 95.032 62.6171 95.176 62.2731 95.464C61.9371 95.752 61.7691 96.132 61.7691 96.604ZM67.7091 93.316H68.8131V103.936H67.7091V93.316ZM75.743 93.484V95.728H81.875V96.616H78.743V97.684H82.991V98.572H73.403V97.684H77.651V96.616H74.675V93.484H75.743ZM74.567 99.388H81.791V101.908H75.683V102.94H82.139V103.78H74.591V101.116H80.699V100.228H74.567V99.388ZM92.5673 93.316V103.936H91.4753V93.316H92.5673ZM84.2513 97.84C84.2513 97.096 84.3673 96.444 84.5993 95.884C84.8313 95.324 85.1513 94.892 85.5593 94.588C85.9673 94.284 86.4353 94.132 86.9633 94.132C87.4833 94.132 87.9473 94.284 88.3553 94.588C88.7713 94.892 89.0953 95.324 89.3273 95.884C89.5593 96.444 89.6753 97.096 89.6753 97.84C89.6753 98.584 89.5593 99.24 89.3273 99.808C89.0953 100.368 88.7713 100.8 88.3553 101.104C87.9473 101.408 87.4833 101.56 86.9633 101.56C86.4353 101.56 85.9673 101.408 85.5593 101.104C85.1513 100.8 84.8313 100.368 84.5993 99.808C84.3673 99.24 84.2513 98.584 84.2513 97.84ZM85.3073 97.84C85.3073 98.392 85.3753 98.876 85.5113 99.292C85.6553 99.7 85.8513 100.016 86.0993 100.24C86.3553 100.464 86.6433 100.576 86.9633 100.576C87.2833 100.576 87.5673 100.464 87.8153 100.24C88.0713 100.016 88.2673 99.7 88.4033 99.292C88.5473 98.876 88.6193 98.392 88.6193 97.84C88.6193 97.288 88.5473 96.808 88.4033 96.4C88.2673 95.984 88.0713 95.668 87.8153 95.452C87.5673 95.228 87.2833 95.116 86.9633 95.116C86.6433 95.116 86.3553 95.228 86.0993 95.452C85.8513 95.668 85.6553 95.984 85.5113 96.4C85.3753 96.808 85.3073 97.288 85.3073 97.84ZM103.128 93.316V103.936H102.036V98.152H99.9355V97.264H102.036V93.316H103.128ZM94.8595 94.288H99.7555V95.176H95.9395V97.24H99.3115V98.116H95.9395V100.528C96.8835 100.528 97.6875 100.508 98.3515 100.468C99.0155 100.42 99.6875 100.336 100.368 100.216L100.476 101.104C99.7475 101.232 99.0235 101.32 98.3035 101.368C97.5915 101.408 96.7155 101.428 95.6755 101.428H94.8595V94.288ZM105.684 104.476H104.904L105.3 102.004H106.416L105.684 104.476ZM114.98 98.884C115.492 98.884 115.908 98.716 116.228 98.38C116.548 98.036 116.708 97.592 116.708 97.048C116.708 96.512 116.544 96.076 116.216 95.74C115.896 95.396 115.48 95.224 114.968 95.224H112.58L112.592 98.884H114.98ZM111.536 94.288H115.004C115.532 94.288 116.004 94.408 116.42 94.648C116.836 94.88 117.16 95.204 117.392 95.62C117.624 96.036 117.74 96.512 117.74 97.048C117.74 97.584 117.624 98.06 117.392 98.476C117.16 98.892 116.836 99.22 116.42 99.46C116.004 99.692 115.532 99.808 115.004 99.808H112.592V103.048H111.536V94.288ZM119.876 94.288V103.048H118.82V94.288H119.876ZM123.985 102.208C124.329 102.208 124.649 102.112 124.945 101.92C125.249 101.728 125.493 101.464 125.677 101.128C125.861 100.784 125.953 100.404 125.953 99.988C125.953 99.572 125.861 99.196 125.677 98.86C125.493 98.524 125.249 98.26 124.945 98.068C124.649 97.876 124.329 97.78 123.985 97.78C123.609 97.78 123.273 97.872 122.977 98.056C122.689 98.24 122.461 98.5 122.293 98.836C122.133 99.172 122.053 99.556 122.053 99.988C122.053 100.644 122.233 101.18 122.593 101.596C122.953 102.004 123.417 102.208 123.985 102.208ZM120.997 99.988C120.997 99.388 121.121 98.852 121.369 98.38C121.617 97.908 121.965 97.54 122.413 97.276C122.861 97.012 123.369 96.88 123.937 96.88C124.305 96.88 124.665 96.98 125.017 97.18C125.369 97.372 125.673 97.664 125.929 98.056V96.844H126.985V103.048H125.929V101.932C125.665 102.34 125.361 102.64 125.017 102.832C124.673 103.024 124.313 103.12 123.937 103.12C123.369 103.12 122.861 102.988 122.413 102.724C121.965 102.452 121.617 102.08 121.369 101.608C121.121 101.136 120.997 100.596 120.997 99.988ZM129.311 105.76L130.559 102.712L128.039 96.844H129.191L131.111 101.5L132.959 96.844H134.111L131.759 102.568L130.463 105.76H129.311ZM137.59 102.208C137.95 102.208 138.278 102.108 138.574 101.908C138.87 101.708 139.102 101.44 139.27 101.104C139.446 100.76 139.534 100.388 139.534 99.988C139.534 99.604 139.446 99.244 139.27 98.908C139.102 98.564 138.866 98.292 138.562 98.092C138.266 97.892 137.942 97.792 137.59 97.792C137.214 97.792 136.878 97.884 136.582 98.068C136.294 98.252 136.066 98.512 135.898 98.848C135.738 99.184 135.658 99.564 135.658 99.988C135.658 100.42 135.738 100.804 135.898 101.14C136.066 101.476 136.294 101.74 136.582 101.932C136.878 102.116 137.214 102.208 137.59 102.208ZM134.602 99.988C134.602 99.388 134.726 98.856 134.974 98.392C135.222 97.92 135.57 97.552 136.018 97.288C136.466 97.024 136.974 96.892 137.542 96.892C137.958 96.892 138.346 96.996 138.706 97.204C139.066 97.404 139.342 97.688 139.534 98.056V96.844H140.59V102.724C140.59 103.316 140.462 103.844 140.206 104.308C139.958 104.772 139.602 105.132 139.138 105.388C138.682 105.644 138.15 105.772 137.542 105.772C137.014 105.772 136.53 105.66 136.09 105.436C135.658 105.22 135.294 104.88 134.998 104.416L135.838 103.876C136.062 104.212 136.314 104.456 136.594 104.608C136.874 104.768 137.19 104.848 137.542 104.848C138.158 104.848 138.642 104.656 138.994 104.272C139.354 103.888 139.534 103.388 139.534 102.772V101.896C139.31 102.264 139.01 102.56 138.634 102.784C138.266 103 137.902 103.108 137.542 103.108C136.974 103.108 136.466 102.976 136.018 102.712C135.57 102.448 135.222 102.08 134.974 101.608C134.726 101.136 134.602 100.596 134.602 99.988ZM143.162 98.092C143.33 97.716 143.606 97.408 143.99 97.168C144.382 96.928 144.802 96.808 145.25 96.808V97.792C144.874 97.792 144.526 97.892 144.206 98.092C143.886 98.292 143.63 98.556 143.438 98.884C143.254 99.204 143.162 99.544 143.162 99.904V103.048H142.106V96.844H143.162V98.092ZM148.781 102.184C149.157 102.184 149.489 102.092 149.777 101.908C150.065 101.716 150.289 101.452 150.449 101.116C150.617 100.772 150.701 100.384 150.701 99.952C150.701 99.52 150.617 99.136 150.449 98.8C150.289 98.464 150.061 98.204 149.765 98.02C149.477 97.828 149.149 97.732 148.781 97.732C148.413 97.732 148.081 97.828 147.785 98.02C147.497 98.204 147.273 98.464 147.113 98.8C146.953 99.136 146.873 99.52 146.873 99.952C146.873 100.384 146.953 100.772 147.113 101.116C147.273 101.452 147.497 101.716 147.785 101.908C148.081 102.092 148.413 102.184 148.781 102.184ZM145.817 99.952C145.817 99.344 145.941 98.804 146.189 98.332C146.445 97.86 146.797 97.492 147.245 97.228C147.693 96.956 148.205 96.82 148.781 96.82C149.357 96.82 149.869 96.956 150.317 97.228C150.773 97.492 151.125 97.86 151.373 98.332C151.629 98.804 151.757 99.344 151.757 99.952C151.757 100.56 151.629 101.1 151.373 101.572C151.125 102.044 150.773 102.416 150.317 102.688C149.869 102.952 149.357 103.084 148.781 103.084C148.205 103.084 147.693 102.952 147.245 102.688C146.797 102.416 146.445 102.044 146.189 101.572C145.941 101.1 145.817 100.56 145.817 99.952ZM154.144 100.42C154.144 100.932 154.288 101.348 154.576 101.668C154.864 101.98 155.236 102.136 155.692 102.136C156.204 102.136 156.62 101.976 156.94 101.656C157.26 101.336 157.42 100.92 157.42 100.408V96.844H158.476V103.048H157.42V102.004C157.22 102.308 156.952 102.556 156.616 102.748C156.28 102.94 155.952 103.036 155.632 103.036C155.144 103.036 154.704 102.932 154.312 102.724C153.928 102.508 153.628 102.208 153.412 101.824C153.196 101.44 153.088 101 153.088 100.504V96.844H154.144V100.42ZM164.357 99.496C164.357 98.976 164.217 98.56 163.937 98.248C163.665 97.928 163.297 97.768 162.833 97.768C162.505 97.768 162.205 97.848 161.933 98.008C161.669 98.16 161.461 98.368 161.309 98.632C161.165 98.896 161.093 99.184 161.093 99.496V103.048H160.037V96.844H161.093V97.9C161.293 97.596 161.557 97.348 161.885 97.156C162.221 96.956 162.557 96.856 162.893 96.856C163.357 96.856 163.781 96.956 164.165 97.156C164.549 97.356 164.853 97.652 165.077 98.044C165.301 98.428 165.413 98.892 165.413 99.436V103.048H164.357V99.496ZM169.582 103.12C169.006 103.12 168.494 102.988 168.046 102.724C167.598 102.452 167.25 102.08 167.002 101.608C166.754 101.128 166.63 100.584 166.63 99.976C166.63 99.368 166.754 98.828 167.002 98.356C167.25 97.876 167.598 97.504 168.046 97.24C168.494 96.968 169.006 96.832 169.582 96.832C169.95 96.832 170.318 96.932 170.686 97.132C171.062 97.324 171.374 97.628 171.622 98.044V94.288H172.678V103.048H171.622V101.92C171.366 102.32 171.054 102.62 170.686 102.82C170.318 103.02 169.95 103.12 169.582 103.12ZM167.686 99.988C167.686 100.42 167.766 100.808 167.926 101.152C168.094 101.488 168.326 101.752 168.622 101.944C168.926 102.136 169.266 102.232 169.642 102.232C169.994 102.232 170.322 102.132 170.626 101.932C170.93 101.724 171.17 101.448 171.346 101.104C171.53 100.76 171.622 100.388 171.622 99.988C171.622 99.588 171.53 99.216 171.346 98.872C171.17 98.528 170.93 98.256 170.626 98.056C170.322 97.848 169.994 97.744 169.642 97.744C169.266 97.744 168.926 97.84 168.622 98.032C168.326 98.224 168.094 98.492 167.926 98.836C167.766 99.172 167.686 99.556 167.686 99.988ZM182.985 93.328V103.912H181.941V93.328H182.985ZM174.093 97.9C174.093 97.148 174.185 96.492 174.369 95.932C174.553 95.364 174.813 94.932 175.149 94.636C175.493 94.332 175.893 94.18 176.349 94.18C176.989 94.18 177.509 94.468 177.909 95.044C178.317 95.62 178.549 96.404 178.605 97.396H179.817V93.556H180.849V103.396H179.817V98.296H178.605C178.557 99.328 178.329 100.144 177.921 100.744C177.521 101.336 176.997 101.632 176.349 101.632C175.893 101.632 175.493 101.48 175.149 101.176C174.813 100.872 174.553 100.44 174.369 99.88C174.185 99.32 174.093 98.66 174.093 97.9ZM175.089 97.9C175.089 98.748 175.201 99.412 175.425 99.892C175.649 100.364 175.957 100.6 176.349 100.6C176.749 100.6 177.061 100.364 177.285 99.892C177.509 99.412 177.621 98.748 177.621 97.9C177.621 97.06 177.509 96.404 177.285 95.932C177.061 95.452 176.749 95.212 176.349 95.212C175.957 95.212 175.649 95.452 175.425 95.932C175.201 96.404 175.089 97.06 175.089 97.9ZM192.003 93.988C192.747 93.988 193.411 94.104 193.995 94.336C194.587 94.568 195.047 94.896 195.375 95.32C195.711 95.744 195.879 96.232 195.879 96.784C195.879 97.296 195.739 97.752 195.459 98.152C195.179 98.552 194.787 98.876 194.283 99.124C193.787 99.364 193.211 99.512 192.555 99.568V101.68H196.815V102.58H187.227V101.68H191.463V99.568C190.815 99.52 190.239 99.376 189.735 99.136C189.231 98.888 188.839 98.564 188.559 98.164C188.279 97.756 188.139 97.296 188.139 96.784C188.139 96.232 188.303 95.744 188.631 95.32C188.967 94.896 189.427 94.568 190.011 94.336C190.595 94.104 191.259 93.988 192.003 93.988ZM189.207 96.784C189.207 97.168 189.327 97.508 189.567 97.804C189.807 98.1 190.139 98.328 190.563 98.488C190.987 98.648 191.467 98.728 192.003 98.728C192.547 98.728 193.031 98.648 193.455 98.488C193.879 98.328 194.211 98.1 194.451 97.804C194.691 97.508 194.811 97.168 194.811 96.784C194.811 96.4 194.691 96.064 194.451 95.776C194.211 95.48 193.879 95.252 193.455 95.092C193.031 94.932 192.547 94.852 192.003 94.852C191.467 94.852 190.987 94.932 190.563 95.092C190.139 95.252 189.807 95.48 189.567 95.776C189.327 96.064 189.207 96.4 189.207 96.784ZM206.403 93.34V101.08H205.311V93.34H206.403ZM197.787 98.716C198.323 98.516 198.787 98.224 199.179 97.84C199.571 97.456 199.871 97.016 200.079 96.52C200.295 96.024 200.403 95.512 200.403 94.984V93.916H201.507V94.984C201.507 95.76 201.739 96.472 202.203 97.12C202.675 97.768 203.311 98.236 204.111 98.524L203.535 99.4C202.935 99.176 202.415 98.848 201.975 98.416C201.543 97.976 201.207 97.46 200.967 96.868C200.735 97.5 200.395 98.052 199.947 98.524C199.507 98.996 198.979 99.348 198.363 99.58L197.787 98.716ZM199.551 100.36H200.655V102.796H206.727V103.696H199.551V100.36ZM219.705 93.328V98.716H218.613V96.688H216.417V95.812H218.613V93.328H219.705ZM211.113 98.092C212.337 97.804 213.293 97.368 213.981 96.784C214.669 96.192 215.057 95.496 215.145 94.696H211.689V93.808H216.333C216.333 95.12 215.913 96.212 215.073 97.084C214.241 97.948 213.049 98.572 211.497 98.956L211.113 98.092ZM212.853 99.172H219.705V101.848H213.969V102.94H220.017V103.816H212.877V101.02H218.613V100.048H212.853V99.172ZM232.467 93.328V96.964H233.979V97.876H232.467V101.608H231.375V93.328H232.467ZM224.151 99.568C225.103 99.568 226.023 99.552 226.911 99.52V98.776C226.311 98.712 225.835 98.54 225.483 98.26C225.131 97.972 224.955 97.608 224.955 97.168C224.955 96.664 225.179 96.268 225.627 95.98C226.083 95.684 226.687 95.536 227.439 95.536C228.191 95.536 228.795 95.684 229.251 95.98C229.707 96.268 229.935 96.664 229.935 97.168C229.935 97.6 229.759 97.96 229.407 98.248C229.063 98.528 228.595 98.7 228.003 98.764V99.472C228.939 99.424 229.867 99.332 230.787 99.196L230.871 99.976C229.871 100.16 228.819 100.284 227.715 100.348C226.619 100.404 225.479 100.432 224.295 100.432L224.151 99.568ZM224.415 94.324H226.911V93.28H228.003V94.324H230.475V95.14H224.415V94.324ZM225.699 101.068H226.803V102.796H232.839V103.696H225.699V101.068ZM225.999 97.168C225.999 97.44 226.127 97.652 226.383 97.804C226.639 97.956 226.991 98.032 227.439 98.032C227.887 98.032 228.243 97.956 228.507 97.804C228.771 97.652 228.903 97.44 228.903 97.168C228.903 96.896 228.771 96.684 228.507 96.532C228.243 96.38 227.887 96.304 227.439 96.304C226.991 96.304 226.639 96.38 226.383 96.532C226.127 96.684 225.999 96.896 225.999 97.168ZM237.604 93.94C238.036 93.94 238.436 94.02 238.804 94.18C239.172 94.332 239.48 94.548 239.728 94.828H242.356V93.34H243.448V99.58H242.356V98.14H239.728C239.48 98.42 239.172 98.636 238.804 98.788C238.436 98.94 238.036 99.016 237.604 99.016C237.084 99.016 236.616 98.908 236.2 98.692C235.784 98.476 235.456 98.176 235.216 97.792C234.976 97.408 234.856 96.972 234.856 96.484C234.856 95.996 234.976 95.56 235.216 95.176C235.456 94.784 235.784 94.48 236.2 94.264C236.616 94.048 237.084 93.94 237.604 93.94ZM235.9 96.484C235.9 96.956 236.06 97.34 236.38 97.636C236.708 97.932 237.116 98.08 237.604 98.08C238.092 98.08 238.492 97.932 238.804 97.636C239.124 97.34 239.284 96.956 239.284 96.484C239.284 96.012 239.124 95.628 238.804 95.332C238.492 95.036 238.092 94.888 237.604 94.888C237.108 94.888 236.7 95.036 236.38 95.332C236.06 95.628 235.9 96.012 235.9 96.484ZM236.392 101.86C236.392 101.22 236.708 100.72 237.34 100.36C237.972 100 238.84 99.82 239.944 99.82C241.04 99.82 241.904 100 242.536 100.36C243.168 100.72 243.484 101.22 243.484 101.86C243.484 102.5 243.168 103 242.536 103.36C241.904 103.72 241.04 103.9 239.944 103.9C238.84 103.9 237.972 103.72 237.34 103.36C236.708 103 236.392 102.5 236.392 101.86ZM237.472 101.86C237.472 102.236 237.688 102.528 238.12 102.736C238.56 102.944 239.168 103.048 239.944 103.048C240.72 103.048 241.324 102.944 241.756 102.736C242.188 102.528 242.404 102.236 242.404 101.86C242.404 101.492 242.188 101.204 241.756 100.996C241.324 100.788 240.72 100.684 239.944 100.684C239.168 100.684 238.56 100.788 238.12 100.996C237.688 101.204 237.472 101.492 237.472 101.86ZM242.356 97.252V95.716H240.232C240.304 95.956 240.34 96.212 240.34 96.484C240.34 96.756 240.304 97.012 240.232 97.252H242.356ZM247.252 95.092V93.628H248.332V95.092H250.384V95.98H245.176V95.092H247.252ZM245.512 99.064C245.512 98.6 245.608 98.184 245.8 97.816C246 97.448 246.272 97.16 246.616 96.952C246.96 96.744 247.352 96.64 247.792 96.64C248.224 96.64 248.612 96.744 248.956 96.952C249.308 97.16 249.58 97.448 249.772 97.816C249.972 98.184 250.072 98.6 250.072 99.064C250.072 99.544 249.972 99.968 249.772 100.336C249.58 100.704 249.312 100.992 248.968 101.2C248.624 101.408 248.232 101.512 247.792 101.512C247.352 101.512 246.96 101.408 246.616 101.2C246.272 100.992 246 100.704 245.8 100.336C245.608 99.968 245.512 99.544 245.512 99.064ZM246.484 99.064C246.484 99.52 246.604 99.888 246.844 100.168C247.092 100.448 247.408 100.588 247.792 100.588C248.176 100.588 248.488 100.448 248.728 100.168C248.976 99.888 249.1 99.52 249.1 99.064C249.1 98.616 248.976 98.252 248.728 97.972C248.488 97.692 248.176 97.552 247.792 97.552C247.408 97.552 247.092 97.692 246.844 97.972C246.604 98.252 246.484 98.616 246.484 99.064ZM250.876 93.568H251.908V97.756H253.132V93.328H254.176V103.912H253.132V98.656H251.908V103.408H250.876V93.568ZM257.992 101.68V98.884C257.552 98.644 257.208 98.34 256.96 97.972C256.72 97.596 256.6 97.176 256.6 96.712C256.6 96.168 256.764 95.688 257.092 95.272C257.428 94.856 257.888 94.536 258.472 94.312C259.056 94.08 259.72 93.964 260.464 93.964C261.216 93.964 261.884 94.08 262.468 94.312C263.06 94.536 263.52 94.856 263.848 95.272C264.176 95.688 264.34 96.168 264.34 96.712C264.34 97.176 264.22 97.592 263.98 97.96C263.748 98.32 263.416 98.624 262.984 98.872V101.68H265.276V102.58H255.688V101.68H257.992ZM257.668 96.712C257.668 97.088 257.784 97.42 258.016 97.708C258.256 97.988 258.588 98.208 259.012 98.368C259.436 98.52 259.92 98.596 260.464 98.596C261.008 98.596 261.492 98.52 261.916 98.368C262.34 98.208 262.672 97.988 262.912 97.708C263.152 97.42 263.272 97.088 263.272 96.712C263.272 96.336 263.152 96.008 262.912 95.728C262.672 95.44 262.34 95.22 261.916 95.068C261.492 94.908 261.008 94.828 260.464 94.828C259.92 94.828 259.436 94.908 259.012 95.068C258.588 95.22 258.256 95.44 258.016 95.728C257.784 96.008 257.668 96.336 257.668 96.712ZM261.88 101.68V99.292C261.464 99.396 260.992 99.448 260.464 99.448C259.952 99.448 259.488 99.396 259.072 99.292V101.68H261.88Z" fill="#989BA0"/>
<g clip-path="url(#clip0_924_1266)">
<g filter="url(#filter0_d_924_1266)">
<path fill-rule="evenodd" clip-rule="evenodd" d="M158.933 31.1518C165.056 25.8349 172.915 13.8469 170.186 10.4069C167.383 7.03432 153.987 12.1508 147.47 16.9887L144.58 15.9058C144.014 15.6938 143.38 15.7665 142.878 16.1011L132.176 23.2337C131.821 23.4703 131.944 24.0182 132.366 24.0827L138.039 24.9488C137.487 25.571 137.164 26.0693 137.065 26.4578C136.942 26.9425 137.205 27.8189 137.652 28.8212C136.395 29.7391 135.41 31.4399 135.227 31.9992C134.945 32.8602 136.098 35.2303 137.457 36.8586C138.816 38.487 140.856 40.1429 141.761 40.0493C142.355 39.9878 144.27 39.3713 145.431 38.3178C146.258 38.9005 146.999 39.2877 147.471 39.2708C147.872 39.2564 148.427 39.0475 149.15 38.6439L148.807 44.4166C148.781 44.8414 149.294 45.0759 149.6 44.7799L158.849 35.8564C159.283 35.4378 159.487 34.8362 159.397 34.2409L158.933 31.1518Z" fill="white" fill-opacity="0.1"/>
</g>
<mask id="mask0_924_1266" style="mask-type:luminance" maskUnits="userSpaceOnUse" x="131" y="9" width="40" height="36">
<path fill-rule="evenodd" clip-rule="evenodd" d="M158.933 31.1518C165.056 25.8349 172.915 13.8469 170.186 10.4069C167.383 7.03432 153.987 12.1508 147.47 16.9887L144.58 15.9058C144.014 15.6938 143.38 15.7665 142.878 16.1011L132.176 23.2337C131.821 23.4703 131.944 24.0182 132.366 24.0827L138.039 24.9488C137.487 25.571 137.164 26.0693 137.065 26.4578C136.942 26.9425 137.205 27.8189 137.652 28.8212C136.395 29.7391 135.41 31.4399 135.227 31.9992C134.945 32.8602 136.098 35.2303 137.457 36.8586C138.816 38.487 140.856 40.1429 141.761 40.0493C142.355 39.9878 144.27 39.3713 145.431 38.3178C146.258 38.9005 146.999 39.2877 147.471 39.2708C147.872 39.2564 148.427 39.0475 149.15 38.6439L148.807 44.4166C148.781 44.8414 149.294 45.0759 149.6 44.7799L158.849 35.8564C159.283 35.4378 159.487 34.8362 159.397 34.2409L158.933 31.1518Z" fill="white"/>
</mask>
<g mask="url(#mask0_924_1266)">
<path opacity="0.396583" fill-rule="evenodd" clip-rule="evenodd" d="M177.695 4.10742L189.434 18.7135L144.672 55.0594L132.934 40.4533L177.695 4.10742Z" fill="#00081B"/>
<g opacity="0.600153" filter="url(#filter1_f_924_1266)">
<path d="M168.912 10.0374C168.495 9.91744 160.78 9.30735 156.277 12.8715C151.775 16.4357 149.255 18.0468 144.884 16.7878C140.513 15.5288 132.518 23.4227 132.518 23.4227C132.518 23.4227 138.537 25.2733 138.007 27.1154C137.476 28.9574 135.927 33.31 135.748 33.9318" stroke="white" stroke-width="2.68043" stroke-linecap="round"/>
</g>
</g>
<path fill-rule="evenodd" clip-rule="evenodd" d="M147.464 16.9893L144.573 15.906C144.007 15.6939 143.374 15.7667 142.872 16.1012L132.17 23.2339C131.815 23.4705 131.937 24.0184 132.36 24.0829L138.034 24.9491C139.473 23.3255 142.465 20.8579 147.064 17.293C147.194 17.192 147.328 17.0907 147.464 16.9893Z" fill="white" fill-opacity="0.1"/>
<path fill-rule="evenodd" clip-rule="evenodd" d="M149.146 38.6446L148.803 44.4162C148.778 44.841 149.29 45.0755 149.597 44.7795L158.845 35.856C159.279 35.4374 159.483 34.8359 159.394 34.2405L158.93 31.1523C158.809 31.2569 158.69 31.3588 158.571 31.458C154.097 35.1914 151.043 37.5867 149.146 38.6446Z" fill="black" fill-opacity="0.3"/>
<mask id="path-9-outside-1_924_1266" maskUnits="userSpaceOnUse" x="126.806" y="-0.203215" width="55.1794" height="48.6982" fill="black">
<rect fill="white" x="126.806" y="-0.203215" width="55.1794" height="48.6982"/>
<path fill-rule="evenodd" clip-rule="evenodd" d="M158.925 31.1525C165.048 25.8357 172.908 13.8473 170.179 10.4072C167.375 7.03461 153.979 12.1511 147.462 16.989L144.572 15.9059C144.006 15.6939 143.372 15.7666 142.87 16.1012L132.168 23.2338C131.813 23.4704 131.936 24.0183 132.358 24.0828L138.032 24.949C137.48 25.5713 137.156 26.0696 137.058 26.4581C136.935 26.9428 137.197 27.8191 137.644 28.8214C136.388 29.7392 135.402 31.4401 135.219 31.9993C134.937 32.8604 136.09 35.2304 137.449 36.8588C138.809 38.4872 140.848 40.1431 141.753 40.0495C142.347 39.9879 144.262 39.3715 145.423 38.318C146.251 38.9008 146.991 39.288 147.463 39.2711C147.864 39.2567 148.419 39.0478 149.142 38.6443L148.799 44.4179C148.774 44.8427 149.286 45.0772 149.593 44.7812L158.841 35.8576C159.275 35.439 159.479 34.8375 159.39 34.2421L158.925 31.1525Z"/>
</mask>
<path fill-rule="evenodd" clip-rule="evenodd" d="M158.925 31.1525C165.048 25.8357 172.908 13.8473 170.179 10.4072C167.375 7.03461 153.979 12.1511 147.462 16.989L144.572 15.9059C144.006 15.6939 143.372 15.7666 142.87 16.1012L132.168 23.2338C131.813 23.4704 131.936 24.0183 132.358 24.0828L138.032 24.949C137.48 25.5713 137.156 26.0696 137.058 26.4581C136.935 26.9428 137.197 27.8191 137.644 28.8214C136.388 29.7392 135.402 31.4401 135.219 31.9993C134.937 32.8604 136.09 35.2304 137.449 36.8588C138.809 38.4872 140.848 40.1431 141.753 40.0495C142.347 39.9879 144.262 39.3715 145.423 38.318C146.251 38.9008 146.991 39.288 147.463 39.2711C147.864 39.2567 148.419 39.0478 149.142 38.6443L148.799 44.4179C148.774 44.8427 149.286 45.0772 149.593 44.7812L158.841 35.8576C159.275 35.439 159.479 34.8375 159.39 34.2421L158.925 31.1525Z" fill="white" fill-opacity="0.1"/>
<path d="M170.179 10.4072L170.459 10.2208L170.454 10.2149L170.179 10.4072ZM158.925 31.1525L158.684 30.9171L158.555 31.0284L158.58 31.1909L158.925 31.1525ZM147.462 16.989L147.336 17.286L147.526 17.3574L147.684 17.2403L147.462 16.989ZM144.572 15.9059L144.445 16.2029L144.445 16.2029L144.572 15.9059ZM142.87 16.1012L143.078 16.3624L143.078 16.3624L142.87 16.1012ZM132.168 23.2338L131.961 22.9726L131.961 22.9726L132.168 23.2338ZM132.358 24.0828L132.409 23.7662L132.409 23.7662L132.358 24.0828ZM138.032 24.949L138.303 25.1546L138.685 24.7242L138.083 24.6323L138.032 24.949ZM137.058 26.4581L136.718 26.3798L136.718 26.3798L137.058 26.4581ZM137.644 28.8214L137.864 29.0742L138.066 28.9268L137.966 28.7039L137.644 28.8214ZM135.219 31.9993L135.553 32.0969L135.553 32.0969L135.219 31.9993ZM141.753 40.0495L141.708 39.7305L141.708 39.7305L141.753 40.0495ZM145.423 38.318L145.632 38.0643L145.39 37.8938L145.176 38.0873L145.423 38.318ZM147.463 39.2711L147.483 39.5918L147.483 39.5918L147.463 39.2711ZM149.142 38.6443L149.49 38.6676L149.527 38.0515L148.958 38.369L149.142 38.6443ZM148.799 44.4179L148.451 44.3946L148.451 44.3946L148.799 44.4179ZM149.593 44.7812L149.847 45.005L149.847 45.005L149.593 44.7812ZM158.841 35.8576L159.095 36.0814L159.095 36.0814L158.841 35.8576ZM159.39 34.2421L159.044 34.2806L159.044 34.2806L159.39 34.2421ZM169.899 10.5935C170.481 11.3272 170.54 12.5917 170.094 14.2708C169.655 15.9255 168.751 17.8864 167.564 19.9202C165.189 23.9879 161.714 28.2857 158.684 30.9171L159.167 31.3879C162.259 28.7025 165.776 24.3477 168.179 20.232C169.381 18.174 170.313 16.1605 170.771 14.4337C171.223 12.7312 171.241 11.2072 170.459 10.2209L169.899 10.5935ZM147.684 17.2403C150.908 14.8465 155.851 12.3742 160.334 10.9222C162.576 10.196 164.681 9.73188 166.387 9.65304C168.116 9.57311 169.316 9.89303 169.904 10.5994L170.454 10.2149C169.64 9.23503 168.114 8.9298 166.339 9.01186C164.541 9.09501 162.364 9.58005 160.092 10.3161C155.546 11.7887 150.533 14.2935 147.241 16.7377L147.684 17.2403ZM147.589 16.692L144.698 15.6089L144.445 16.2029L147.336 17.286L147.589 16.692ZM144.698 15.6089C144.017 15.3536 143.258 15.4436 142.663 15.84L143.078 16.3624C143.487 16.0896 143.995 16.0342 144.445 16.2029L144.698 15.6089ZM142.663 15.84L131.961 22.9726L132.376 23.495L143.078 16.3624L142.663 15.84ZM131.961 22.9726C131.658 23.1741 131.568 23.5036 131.631 23.7823C131.693 24.0617 131.924 24.3409 132.307 24.3995L132.409 23.7662C132.371 23.7603 132.329 23.7332 132.313 23.6634C132.297 23.5928 132.323 23.5302 132.376 23.495L131.961 22.9726ZM132.307 24.3995L137.981 25.2656L138.083 24.6323L132.409 23.7662L132.307 24.3995ZM137.397 26.5364C137.477 26.2225 137.757 25.7712 138.303 25.1546L137.76 24.7433C137.203 25.3714 136.836 25.9167 136.718 26.3798L137.397 26.5364ZM137.966 28.7039C137.747 28.2112 137.576 27.7584 137.476 27.3756C137.373 26.9825 137.355 26.7033 137.397 26.5364L136.718 26.3798C136.638 26.6976 136.689 27.0989 136.799 27.5157C136.91 27.9428 137.095 28.4293 137.322 28.9388L137.966 28.7039ZM135.553 32.0969C135.631 31.8575 135.905 31.3206 136.323 30.722C136.739 30.1268 137.276 29.5035 137.864 29.0742L137.425 28.5685C136.756 29.0571 136.172 29.7431 135.735 30.3677C135.301 30.9888 134.99 31.582 134.885 31.9018L135.553 32.0969ZM137.724 36.6661C137.063 35.8743 136.45 34.8985 136.039 34.0188C135.833 33.579 135.681 33.1711 135.598 32.8281C135.512 32.4739 135.509 32.2314 135.553 32.0969L134.885 31.9018C134.788 32.1978 134.824 32.5745 134.918 32.9577C135.014 33.3522 135.182 33.8 135.399 34.2639C135.833 35.1916 136.476 36.2149 137.174 37.0516L137.724 36.6661ZM141.708 39.7305C141.592 39.7425 141.375 39.6973 141.05 39.537C140.739 39.3835 140.377 39.1491 139.991 38.8543C139.221 38.2656 138.389 37.4626 137.724 36.6661L137.174 37.0516C137.869 37.8835 138.737 38.7226 139.552 39.3455C139.959 39.6565 140.362 39.9203 140.73 40.1018C141.084 40.2766 141.462 40.4033 141.798 40.3685L141.708 39.7305ZM145.176 38.0873C144.634 38.5791 143.904 38.9783 143.226 39.2633C142.542 39.5509 141.953 39.7051 141.708 39.7305L141.798 40.3685C142.148 40.3323 142.813 40.1475 143.525 39.8481C144.243 39.5462 145.051 39.1104 145.67 38.5486L145.176 38.0873ZM147.443 38.9503C147.302 38.9554 147.067 38.8964 146.734 38.7356C146.411 38.58 146.037 38.3496 145.632 38.0643L145.215 38.5717C145.637 38.8691 146.047 39.1237 146.419 39.3033C146.781 39.4775 147.152 39.6037 147.483 39.5918L147.443 38.9503ZM148.958 38.369C148.239 38.77 147.749 38.9394 147.443 38.9503L147.483 39.5918C147.979 39.574 148.599 39.3256 149.327 38.9197L148.958 38.369ZM148.794 38.6211L148.451 44.3946L149.147 44.4411L149.49 38.6676L148.794 38.6211ZM148.451 44.3946C148.43 44.7375 148.631 45.0243 148.921 45.1568C149.214 45.291 149.584 45.2583 149.847 45.005L149.338 44.5574C149.312 44.5833 149.29 44.5899 149.276 44.5918C149.26 44.594 149.242 44.592 149.222 44.5829C149.185 44.5659 149.142 44.523 149.147 44.4411L148.451 44.3946ZM149.847 45.005L159.095 36.0814L158.587 35.6339L149.338 44.5574L149.847 45.005ZM159.095 36.0814C159.603 35.5911 159.838 34.8923 159.735 34.2037L159.044 34.2806C159.12 34.7827 158.946 35.2869 158.587 35.6339L159.095 36.0814ZM159.735 34.2037L159.27 31.114L158.58 31.1909L159.044 34.2806L159.735 34.2037Z" fill="url(#paint0_linear_924_1266)" mask="url(#path-9-outside-1_924_1266)"/>
<ellipse cx="158.756" cy="19.5849" rx="3.2734" ry="3.26892" transform="rotate(51.0679 158.756 19.5849)" fill="url(#paint1_linear_924_1266)"/>
<path fill-rule="evenodd" clip-rule="evenodd" d="M142.891 32.0688C142.08 31.0643 142.236 29.5922 143.241 28.7807L149.53 23.7002C150.534 22.8888 152.006 23.0453 152.818 24.0498V24.0498C153.629 25.0543 153.473 26.5264 152.468 27.3379L146.179 32.4184C145.175 33.2298 143.703 33.0733 142.891 32.0688V32.0688Z" fill="url(#paint2_linear_924_1266)"/>
<g filter="url(#filter2_d_924_1266)">
<path fill-rule="evenodd" clip-rule="evenodd" d="M123.641 37.1721C123.035 37.9767 122.606 38.8847 122.367 39.8692L122.171 40.676C122.145 40.7937 122.245 40.9013 122.363 40.8812L123.177 40.74C123.688 40.6503 124.276 40.6805 124.92 40.8288C124.961 40.8392 124.985 40.8645 124.998 40.8837C125.011 40.9029 125.024 40.9362 125.013 40.978C125.006 41.0159 124.98 41.0472 124.946 41.0637C123.806 41.6091 122.743 42.6318 121.787 44.1088C120.991 45.3335 120.571 46.654 120.53 48.0343L120.502 49.0408C120.498 49.1726 120.644 49.2566 120.757 49.1869L121.614 48.6573C122.2 48.2955 122.769 48.0698 123.302 47.9895C123.953 47.891 124.614 47.9021 125.269 48.0226C125.727 48.1082 126.172 48.2424 126.593 48.4256C127.609 48.87 128.731 49.0785 129.831 49.0303C130.942 48.9807 132.045 48.6672 133.023 48.123C133.888 47.6421 134.631 47.0055 135.235 46.2282C135.815 45.4782 136.244 44.6304 136.504 43.7108C136.764 42.7894 136.846 41.8418 136.744 40.8936C136.639 39.9107 136.343 38.9717 135.864 38.099C135.385 37.2262 134.752 36.4748 133.982 35.8618C133.239 35.2702 132.399 34.8333 131.485 34.567C130.571 34.2978 129.63 34.2122 128.691 34.3099C127.716 34.411 126.785 34.7058 125.92 35.1868C125.026 35.6841 124.259 36.3509 123.641 37.1721Z" fill="url(#paint3_radial_924_1266)"/>
</g>
</g>
<defs>
<filter id="filter0_d_924_1266" x="126.161" y="6.19315" width="52.1756" height="48.9939" filterUnits="userSpaceOnUse" color-interpolation-filters="sRGB">
<feFlood flood-opacity="0" result="BackgroundImageFix"/>
<feColorMatrix in="SourceAlpha" type="matrix" values="0 0 0 0 0 0 0 0 0 0 0 0 0 0 0 0 0 0 127 0" result="hardAlpha"/>
<feOffset dx="0.893476" dy="3.5739"/>
<feGaussianBlur stdDeviation="3.35054"/>
<feColorMatrix type="matrix" values="0 0 0 0 0 0 0 0 0 0 0 0 0 0 0 0 0 0 0.65281 0"/>
<feBlend mode="normal" in2="BackgroundImageFix" result="effect1_dropShadow_924_1266"/>
<feBlend mode="normal" in="SourceGraphic" in2="effect1_dropShadow_924_1266" result="shape"/>
</filter>
<filter id="filter1_f_924_1266" x="120.869" y="-0.525667" width="58.4888" height="44.9049" filterUnits="userSpaceOnUse" color-interpolation-filters="sRGB">
<feFlood flood-opacity="0" result="BackgroundImageFix"/>
<feBlend mode="normal" in="SourceGraphic" in2="BackgroundImageFix" result="shape"/>
<feGaussianBlur stdDeviation="4.55385" result="effect1_foregroundBlur_924_1266"/>
</filter>
<filter id="filter2_d_924_1266" x="113.799" y="30.2508" width="27.0108" height="25.6631" filterUnits="userSpaceOnUse" color-interpolation-filters="sRGB">
<feFlood flood-opacity="0" result="BackgroundImageFix"/>
<feColorMatrix in="SourceAlpha" type="matrix" values="0 0 0 0 0 0 0 0 0 0 0 0 0 0 0 0 0 0 127 0" result="hardAlpha"/>
<feOffset dx="-1.34021" dy="1.34021"/>
<feGaussianBlur stdDeviation="2.68043"/>
<feColorMatrix type="matrix" values="0 0 0 0 1 0 0 0 0 0.360784 0 0 0 0 0 0 0 0 0.630555 0"/>
<feBlend mode="normal" in2="BackgroundImageFix" result="effect1_dropShadow_924_1266"/>
<feBlend mode="normal" in="SourceGraphic" in2="effect1_dropShadow_924_1266" result="shape"/>
</filter>
<linearGradient id="paint0_linear_924_1266" x1="148.02" y1="2.46292" x2="136.076" y2="36.9711" gradientUnits="userSpaceOnUse">
<stop stop-color="#FFFDF3" stop-opacity="0.282797"/>
<stop offset="0.382543" stop-color="#FEA6A6" stop-opacity="0.776647"/>
<stop offset="0.755261" stop-color="#FFCC8F" stop-opacity="0.536274"/>
<stop offset="1" stop-color="#FF80AE" stop-opacity="0.203274"/>
</linearGradient>
<linearGradient id="paint1_linear_924_1266" x1="159.813" y1="20.5637" x2="161.773" y2="21.0771" gradientUnits="userSpaceOnUse">
<stop stop-color="#F2F3FA"/>
<stop offset="1" stop-color="#FFF6D3"/>
</linearGradient>
<linearGradient id="paint2_linear_924_1266" x1="150.335" y1="24.8964" x2="142.325" y2="31.3675" gradientUnits="userSpaceOnUse">
<stop stop-color="#C5C6CD"/>
<stop offset="1" stop-color="#565D72"/>
</linearGradient>
<radialGradient id="paint3_radial_924_1266" cx="0" cy="0" r="1" gradientUnits="userSpaceOnUse" gradientTransform="translate(119.892 47.9853) rotate(-35.9421) scale(16.37 12.995)">
<stop stop-color="#FFCA00"/>
<stop offset="1" stop-color="#FF5C00"/>
</radialGradient>
<clipPath id="clip0_924_1266">
<rect width="60" height="60" fill="white" transform="translate(116)"/>
</clipPath>
</defs>
</svg>
