<svg width="60" height="60" viewBox="0 0 60 60" fill="none" xmlns="http://www.w3.org/2000/svg">
<g clip-path="url(#clip0_1021_1926)">
<g filter="url(#filter0_d_1021_1926)">
<path fill-rule="evenodd" clip-rule="evenodd" d="M44.7647 22.7468C44.926 23.6678 45.0067 24.6033 45.0046 25.5427C45.0046 27.7049 43.9967 30.5649 42.0082 34.0383C41.07 35.68 39.8963 37.3309 38.6614 38.9104C39.3505 39.1155 40.0865 39.2264 40.8511 39.2264C42.1037 39.2264 43.2797 38.9287 44.2978 38.407C45.8251 38.9287 47.589 39.2264 49.4679 39.2264C55.2845 39.2264 59.9998 36.3731 59.9998 32.8534C59.9998 29.9754 56.847 27.5429 52.5173 26.7517C51.5077 24.3563 48.9513 22.6553 45.9573 22.6553C45.5508 22.6553 45.1523 22.6866 44.7647 22.7468Z" fill="url(#paint0_linear_1021_1926)"/>
</g>
<g filter="url(#filter1_d_1021_1926)">
<path fill-rule="evenodd" clip-rule="evenodd" d="M19.261 14.1204C19.0723 14.0785 18.8811 14.0399 18.6875 14.0045C17.6776 11.6097 15.1215 9.90918 12.1279 9.90918C9.19571 9.90918 6.68331 11.5406 5.63243 13.8581C2.41991 14.4431 0 17.0182 0 20.1064C0 23.6261 3.14352 26.4793 7.02126 26.4793C8.27393 26.4793 9.44998 26.1816 10.4682 25.6598C11.6901 26.0773 13.0636 26.3513 14.5263 26.4442C14.4908 26.1315 14.473 25.8309 14.473 25.5426C14.4689 23.4456 14.8766 21.3682 15.6729 19.4278C16.4335 17.5716 17.5436 15.8783 18.9429 14.4396C19.0474 14.3315 19.1534 14.2251 19.261 14.1204Z" fill="url(#paint1_linear_1021_1926)"/>
</g>
<g filter="url(#filter2_d_1021_1926)">
<path fill-rule="evenodd" clip-rule="evenodd" d="M34.9936 42.093C35.7757 42.093 36.5131 41.7369 36.9906 41.1174C38.2868 39.4358 40.8959 35.9846 42.0081 34.0383C43.9966 30.5649 45.0046 27.7049 45.0046 25.5427C45.0092 23.4457 44.6015 21.3681 43.8047 19.4279C43.0435 17.571 41.9326 15.8772 40.5322 14.4383C39.1524 13.0103 37.5054 11.8664 35.6845 11.0713C31.893 9.42805 27.5887 9.42805 23.7972 11.0713C21.974 11.8664 20.3248 13.0108 18.9428 14.4397C17.5434 15.8785 16.4334 17.5718 15.6727 19.4279C14.8764 21.3683 14.4688 23.4457 14.4728 25.5427C14.4728 27.7049 15.4735 30.5601 17.4414 34.034C18.5486 35.9851 21.1703 39.4414 22.4706 41.1217C22.948 41.7387 23.6838 42.093 24.4639 42.093H34.9936ZM26.9875 52.682H33.4099C33.6643 52.682 33.8793 52.5061 33.8841 52.2852L35.7522 47.3665C35.7522 47.1456 35.5396 46.9697 35.2828 46.9697H25.1194C24.8583 46.9697 24.65 47.1494 24.65 47.3665L26.5181 52.2852C26.5181 52.5061 26.7307 52.682 26.9875 52.682Z" fill="white" fill-opacity="0.1"/>
</g>
<mask id="mask0_1021_1926" style="mask-type:luminance" maskUnits="userSpaceOnUse" x="24" y="46" width="12" height="7">
<path fill-rule="evenodd" clip-rule="evenodd" d="M33.4105 52.9997H27.0704C26.8136 52.9997 26.2935 53.0192 26.2024 52.352L24.3298 47.4674C24.3298 47.2503 24.5849 46.9688 24.846 46.9688L35.2833 46.9688C35.5401 46.9688 35.7527 47.1446 35.7527 47.3655L33.8847 52.2842C33.8799 52.5051 33.6649 52.9997 33.4105 52.9997Z" fill="white"/>
</mask>
<g mask="url(#mask0_1021_1926)">
<g filter="url(#filter3_f_1021_1926)">
<path fill-rule="evenodd" clip-rule="evenodd" d="M31.0289 53.2469H26.5742C26.2494 53.2469 25.9804 53.031 25.9804 52.7599L24.691 49.4658C25.9566 49.6417 26.997 50.3583 27.4444 51.3149C29.1477 51.5953 30.4954 52.3227 31.0289 53.2469Z" fill="white" fill-opacity="0.1"/>
</g>
</g>
<path d="M17.3027 34.1127L17.3026 34.1126C15.331 30.6322 14.3133 27.7474 14.3133 25.5429M17.3027 34.1127L45.0046 25.5427M17.3027 34.1127C18.4167 36.0758 21.0463 39.5418 22.3444 41.2194C22.8527 41.8761 23.6354 42.2525 24.4639 42.2525H34.9937C35.8243 42.2525 36.6088 41.8742 37.117 41.2149C38.4112 39.5358 41.0278 36.0754 42.1467 34.1176M17.3027 34.1127L42.0082 34.0383M14.3133 25.5429C14.3092 23.4251 14.7209 21.327 15.5251 19.3674C16.2935 17.4924 17.4148 15.7819 18.8283 14.3286C20.2248 12.8848 21.8913 11.7285 23.7334 10.925L23.7338 10.9249C27.5658 9.26409 31.916 9.26409 35.7481 10.9249L35.7485 10.9251C37.5883 11.7284 39.2525 12.8843 40.6468 14.3272C42.0614 15.7807 43.1835 17.4917 43.9524 19.3674C44.7571 21.3269 45.1689 23.4252 45.1642 25.5431M14.3133 25.5429C14.3133 25.5429 14.3133 25.543 14.3133 25.543L14.4729 25.5427H14.3133C14.3133 25.5428 14.3133 25.5428 14.3133 25.5429ZM45.1642 25.5431L45.0046 25.5427M45.1642 25.5431C45.1642 25.5429 45.1642 25.5428 45.1642 25.5427H45.0046M45.1642 25.5431C45.1641 27.7479 44.139 30.6376 42.1467 34.1176M45.0046 25.5427C45.0046 27.7049 43.9967 30.5649 42.0082 34.0383M42.1467 34.1176C42.1467 34.1175 42.1467 34.1175 42.1467 34.1175L42.0082 34.0383M42.1467 34.1176L42.0082 34.0383" fill="white" fill-opacity="0.1" stroke="url(#paint2_linear_1021_1926)" stroke-width="0.319148"/>
<mask id="mask1_1021_1926" style="mask-type:luminance" maskUnits="userSpaceOnUse" x="14" y="9" width="32" height="34">
<path d="M17.3026 34.1127L17.3025 34.1126C15.3309 30.6322 14.3132 27.7474 14.3132 25.5429M17.3026 34.1127L45.0045 25.5427M17.3026 34.1127C18.4166 36.0759 21.0462 39.5418 22.3443 41.2194C22.8525 41.8761 23.6353 42.2525 24.4638 42.2525H34.9935C35.8242 42.2525 36.6087 41.8742 37.1169 41.2149C38.4111 39.5358 41.0277 36.0754 42.1466 34.1176M17.3026 34.1127L42.0081 34.0383M14.3132 25.5429C14.3091 23.4251 14.7208 21.327 15.525 19.3674C16.2934 17.4924 17.4147 15.7819 18.8282 14.3286C20.2247 12.8848 21.8912 11.7285 23.7333 10.925L23.7336 10.9249C27.5657 9.26409 31.9159 9.26409 35.7479 10.9249L35.7483 10.9251C37.5882 11.7284 39.2524 12.8843 40.6467 14.3272C42.0612 15.7807 43.1833 17.4916 43.9522 19.3673C44.757 21.3269 45.1688 23.4251 45.1641 25.5431M14.3132 25.5429C14.3132 25.5429 14.3132 25.543 14.3132 25.543L14.4727 25.5427H14.3132C14.3132 25.5428 14.3132 25.5428 14.3132 25.5429ZM45.1641 25.5431L45.0045 25.5427M45.1641 25.5431C45.1641 25.5429 45.1641 25.5428 45.1641 25.5427H45.0045M45.1641 25.5431C45.164 27.7479 44.1389 30.6376 42.1466 34.1176M45.0045 25.5427C45.0045 27.7049 43.9966 30.5649 42.0081 34.0383M42.1466 34.1176C42.1466 34.1175 42.1466 34.1175 42.1466 34.1175L42.0081 34.0383M42.1466 34.1176L42.0081 34.0383" fill="white" stroke="white" stroke-width="0.319148"/>
</mask>
<g mask="url(#mask1_1021_1926)">
<g filter="url(#filter4_f_1021_1926)">
<path fill-rule="evenodd" clip-rule="evenodd" d="M16.7249 11.7158C16.5445 11.8892 16.3671 12.066 16.1929 12.2463C14.3206 14.1724 12.8354 16.4394 11.8177 18.9243C10.7522 21.5221 10.2068 24.3034 10.2122 27.1108C10.2122 27.4991 10.2363 27.9041 10.2844 28.3256C10.8602 28.3689 11.4467 28.3913 12.0418 28.3913C19.8446 28.3913 26.17 24.5503 26.17 19.8123C26.17 16.071 22.226 12.889 16.7249 11.7158Z" fill="#FF5C00"/>
</g>
<g filter="url(#filter5_f_1021_1926)">
<path fill-rule="evenodd" clip-rule="evenodd" d="M40.2819 41.3422C36.5338 40.21 33.8301 36.9914 33.8301 33.1976C33.8301 29.0405 37.0763 25.574 41.3858 24.7864C42.5533 22.2031 45.0654 20.2531 48.1283 19.6592C48.385 20.9851 48.5137 22.3354 48.5107 23.6919C48.5107 26.5544 47.1621 30.3408 44.5015 34.9392C43.289 37.0386 41.8323 39.2421 40.2819 41.3422Z" fill="#FFCA00"/>
</g>
<g opacity="0.497858" filter="url(#filter6_f_1021_1926)">
<ellipse cx="24.8936" cy="18.1956" rx="11.4893" ry="12.1086" fill="white"/>
</g>
<g opacity="0.497858" filter="url(#filter7_f_1021_1926)">
<ellipse cx="43.4043" cy="45.5989" rx="11.4893" ry="12.1086" fill="white"/>
</g>
</g>
<path fill-rule="evenodd" clip-rule="evenodd" d="M33.4101 52.681H26.9877C26.7309 52.681 26.5182 52.5051 26.5182 52.2842L24.6502 47.3655C24.6502 47.1485 24.8585 46.9688 25.1196 46.9688H35.283C35.5397 46.9688 35.7524 47.1446 35.7524 47.3655L33.8843 52.2842C33.8795 52.5051 33.6645 52.681 33.4101 52.681Z" fill="white" fill-opacity="0.1"/>
<path d="M24.4906 47.3655V47.3948L24.501 47.4222L26.3596 52.316C26.3786 52.6323 26.6802 52.8406 26.9877 52.8406H33.4101C33.7165 52.8406 34.0178 52.6318 34.0424 52.3175L35.9015 47.4222L35.9119 47.3948V47.3655C35.9119 47.0315 35.6006 46.8092 35.283 46.8092H25.1196C24.7956 46.8092 24.4906 47.0371 24.4906 47.3655Z" stroke="white" stroke-opacity="0.1" stroke-width="0.319148"/>
<mask id="mask2_1021_1926" style="mask-type:alpha" maskUnits="userSpaceOnUse" x="24" y="46" width="13" height="8">
<path d="M35.2832 46.6514H25.1199C24.6943 46.6514 24.3313 46.9601 24.3313 47.3668L24.352 47.4798L26.2023 52.3533L26.2158 52.4337C26.2915 52.7663 26.6173 53.0009 26.9879 53.0009H33.4104L33.4934 52.9969C33.8494 52.9627 34.1496 52.7106 34.1972 52.372L34.1982 52.3578L36.051 47.4798L36.0718 47.3668C36.0718 46.9578 35.7068 46.6514 35.2832 46.6514Z" fill="url(#paint3_linear_1021_1926)"/>
</mask>
<g mask="url(#mask2_1021_1926)">
<g filter="url(#filter8_f_1021_1926)">
<ellipse cx="27.3766" cy="48.5316" rx="3.65312" ry="2.36456" fill="white" fill-opacity="0.1"/>
</g>
</g>
<path opacity="0.298145" fill-rule="evenodd" clip-rule="evenodd" d="M29.9998 46.3962C29.8108 46.3962 29.6562 46.3022 29.6562 46.1872V42.8898C29.6562 42.7749 29.8108 42.6808 29.9998 42.6808C30.1888 42.6808 30.3434 42.7749 30.3434 42.8898V46.1872C30.3434 46.3041 30.1892 46.3962 29.9998 46.3962ZM26.0495 46.2992L24.5985 43.0901C24.5282 42.9333 24.6161 42.7557 24.7951 42.691C24.9713 42.6285 25.1688 42.7029 25.2518 42.8629L26.7024 46.072C26.7727 46.2287 26.6848 46.4067 26.5054 46.4711C26.4642 46.4858 26.4204 46.4931 26.3763 46.4926C26.2362 46.4956 26.1079 46.4195 26.0495 46.2992ZM33.95 46.2992L35.4009 43.0901C35.4712 42.9333 35.3833 42.7557 35.2043 42.691C35.0281 42.6285 34.8306 42.7029 34.7476 42.8629L33.2971 46.072C33.2267 46.2287 33.3146 46.4067 33.494 46.4711C33.5353 46.4858 33.579 46.4931 33.6231 46.4926C33.7633 46.4956 33.8915 46.4195 33.95 46.2992Z" fill="white" fill-opacity="0.9"/>
<mask id="path-17-outside-1_1021_1926" maskUnits="userSpaceOnUse" x="13.9999" y="9" width="32" height="45" fill="black">
<rect fill="white" x="13.9999" y="9" width="32" height="45"/>
<path fill-rule="evenodd" clip-rule="evenodd" d="M35.1343 42C35.9206 42 36.6615 41.6401 37.1385 41.015C38.4165 39.3404 40.9664 35.9332 42.0556 34.0088C44.0095 30.5628 44.9998 27.7253 44.9998 25.5801C45.0044 23.4996 44.6038 21.4385 43.8208 19.5135C43.0729 17.6713 41.9814 15.9908 40.6054 14.5632C39.2496 13.1464 37.6313 12.0115 35.8422 11.2227C32.1166 9.59242 27.8874 9.59242 24.1618 11.2227C22.3705 12.0116 20.7499 13.147 19.392 14.5646C18.017 15.992 16.9263 17.672 16.1789 19.5135C15.3965 21.4386 14.9959 23.4997 14.9999 25.5801C14.9999 27.7253 15.9832 30.558 17.9168 34.0045C19.001 35.9337 21.5633 39.3461 22.8453 41.0194C23.3223 41.642 24.0615 42 24.8459 42H35.1343ZM26.9831 52.6811H33.4055C33.6599 52.6811 33.875 52.5052 33.8797 52.2843L35.7478 47.3656C35.7478 47.1447 35.5352 46.9688 35.2784 46.9688H25.115C24.8539 46.9688 24.6456 47.1485 24.6456 47.3656L26.5137 52.2843C26.5137 52.5052 26.7263 52.6811 26.9831 52.6811Z"/>
</mask>
<path fill-rule="evenodd" clip-rule="evenodd" d="M35.1343 42C35.9206 42 36.6615 41.6401 37.1385 41.015C38.4165 39.3404 40.9664 35.9332 42.0556 34.0088C44.0095 30.5628 44.9998 27.7253 44.9998 25.5801C45.0044 23.4996 44.6038 21.4385 43.8208 19.5135C43.0729 17.6713 41.9814 15.9908 40.6054 14.5632C39.2496 13.1464 37.6313 12.0115 35.8422 11.2227C32.1166 9.59242 27.8874 9.59242 24.1618 11.2227C22.3705 12.0116 20.7499 13.147 19.392 14.5646C18.017 15.992 16.9263 17.672 16.1789 19.5135C15.3965 21.4386 14.9959 23.4997 14.9999 25.5801C14.9999 27.7253 15.9832 30.558 17.9168 34.0045C19.001 35.9337 21.5633 39.3461 22.8453 41.0194C23.3223 41.642 24.0615 42 24.8459 42H35.1343ZM26.9831 52.6811H33.4055C33.6599 52.6811 33.875 52.5052 33.8797 52.2843L35.7478 47.3656C35.7478 47.1447 35.5352 46.9688 35.2784 46.9688H25.115C24.8539 46.9688 24.6456 47.1485 24.6456 47.3656L26.5137 52.2843C26.5137 52.5052 26.7263 52.6811 26.9831 52.6811Z" fill="white" fill-opacity="0.1"/>
<path d="M37.1385 41.015L37.3922 41.2087L37.1385 41.015ZM42.0556 34.0088L41.778 33.8514L41.7778 33.8516L42.0556 34.0088ZM44.9998 25.5801L44.6807 25.5794V25.5801H44.9998ZM43.8208 19.5135L43.5251 19.6335L43.5252 19.6337L43.8208 19.5135ZM40.6054 14.5632L40.3748 14.7838L40.3756 14.7847L40.6054 14.5632ZM35.8422 11.2227L35.9709 10.9307L35.9701 10.9304L35.8422 11.2227ZM24.1618 11.2227L24.0339 10.9304L24.0332 10.9307L24.1618 11.2227ZM19.392 14.5646L19.6218 14.786L19.6225 14.7854L19.392 14.5646ZM16.1789 19.5135L16.4746 19.6337L16.4746 19.6335L16.1789 19.5135ZM14.9999 25.5801H15.3191L15.3191 25.5795L14.9999 25.5801ZM17.9168 34.0045L17.6385 34.1606L17.6386 34.1609L17.9168 34.0045ZM22.8453 41.0194L23.0986 40.8253L22.8453 41.0194ZM33.8797 52.2843L33.5814 52.171L33.5619 52.2224L33.5607 52.2774L33.8797 52.2843ZM35.7478 47.3656L36.0461 47.4789L36.0669 47.4242V47.3656H35.7478ZM24.6456 47.3656H24.3265V47.4242L24.3473 47.4789L24.6456 47.3656ZM26.5137 52.2843H26.8328V52.2258L26.812 52.171L26.5137 52.2843ZM36.8848 40.8214C36.4693 41.3659 35.8229 41.6809 35.1343 41.6809V42.3191C36.0182 42.3191 36.8537 41.9143 37.3922 41.2087L36.8848 40.8214ZM41.7778 33.8516C40.7017 35.753 38.1668 39.1416 36.8848 40.8214L37.3922 41.2087C38.6663 39.5392 41.2312 36.1133 42.3333 34.166L41.7778 33.8516ZM44.6807 25.5801C44.6807 27.6409 43.7241 30.4191 41.778 33.8514L42.3332 34.1662C44.2949 30.7065 45.319 27.8098 45.319 25.5801H44.6807ZM43.5252 19.6337C44.2925 21.5202 44.6851 23.5403 44.6807 25.5794L45.319 25.5808C45.3236 23.4589 44.9151 21.3567 44.1164 19.3932L43.5252 19.6337ZM40.3756 14.7847C41.7233 16.1829 42.7925 17.8289 43.5251 19.6335L44.1165 19.3934C43.3534 17.5136 42.2395 15.7987 40.8352 14.3417L40.3756 14.7847ZM35.7134 11.5148C37.4641 12.2866 39.0479 13.3972 40.3748 14.7838L40.836 14.3425C39.4513 12.8956 37.7984 11.7364 35.9709 10.9307L35.7134 11.5148ZM24.2898 11.5151C27.9337 9.92049 32.0703 9.92049 35.7142 11.5151L35.9701 10.9304C32.163 9.26435 27.841 9.26435 24.0339 10.9304L24.2898 11.5151ZM19.6225 14.7854C20.9515 13.3979 22.5375 12.2868 24.2905 11.5148L24.0332 10.9307C22.2034 11.7364 20.5483 12.8961 19.1615 14.3439L19.6225 14.7854ZM16.4746 19.6335C17.2068 17.8296 18.2752 16.1841 19.6218 14.786L19.1621 14.3432C17.7589 15.8 16.6458 17.5144 15.8832 19.3935L16.4746 19.6335ZM15.3191 25.5795C15.3152 23.5404 15.7078 21.5204 16.4746 19.6337L15.8833 19.3933C15.0852 21.3568 14.6767 23.4589 14.6808 25.5807L15.3191 25.5795ZM18.1951 33.8483C16.2691 30.4153 15.3191 27.6415 15.3191 25.5801H14.6808C14.6808 27.8091 15.6974 30.7008 17.6385 34.1606L18.1951 33.8483ZM23.0986 40.8253C21.8125 39.1466 19.2658 35.7535 18.195 33.8481L17.6386 34.1609C18.7362 36.1139 21.3141 39.5456 22.592 41.2135L23.0986 40.8253ZM24.8459 41.6809C24.1589 41.6809 23.5141 41.3675 23.0986 40.8253L22.592 41.2135C23.1305 41.9164 23.9642 42.3191 24.8459 42.3191V41.6809ZM35.1343 41.6809H24.8459V42.3191H35.1343V41.6809ZM33.4055 52.362H26.9831V53.0003H33.4055V52.362ZM33.5607 52.2774C33.5606 52.2813 33.5589 52.2979 33.5323 52.3201C33.505 52.3427 33.4603 52.362 33.4055 52.362V53.0003C33.7832 53.0003 34.1892 52.732 34.1988 52.2912L33.5607 52.2774ZM35.4494 47.2523L33.5814 52.171L34.1781 52.3976L36.0461 47.4789L35.4494 47.2523ZM35.2784 47.288C35.3351 47.288 35.3789 47.3076 35.4042 47.3288C35.4284 47.3492 35.4286 47.3632 35.4286 47.3656H36.0669C36.0669 46.9185 35.6569 46.6497 35.2784 46.6497V47.288ZM25.115 47.288H35.2784V46.6497H25.115V47.288ZM24.9648 47.3656C24.9648 47.364 24.965 47.3495 24.9892 47.3289C25.0138 47.308 25.057 47.288 25.115 47.288V46.6497C24.728 46.6497 24.3265 46.9258 24.3265 47.3656H24.9648ZM26.812 52.171L24.944 47.2523L24.3473 47.4789L26.2153 52.3976L26.812 52.171ZM26.9831 52.362C26.9264 52.362 26.8825 52.3423 26.8573 52.3211C26.833 52.3008 26.8328 52.2867 26.8328 52.2843H26.1945C26.1945 52.7315 26.6046 53.0003 26.9831 53.0003V52.362Z" fill="url(#paint4_linear_1021_1926)" mask="url(#path-17-outside-1_1021_1926)"/>
<g opacity="0.9" filter="url(#filter9_d_1021_1926)">
<path fill-rule="evenodd" clip-rule="evenodd" d="M25.8908 48.6153C25.741 48.1993 26.0492 47.7607 26.4913 47.7607H33.962C34.4117 47.7607 34.7204 48.2133 34.5563 48.632L33.3984 51.5856C33.3026 51.8301 33.0668 51.991 32.8042 51.991H27.5547C27.2855 51.991 27.0453 51.8221 26.9541 51.5689L25.8908 48.6153Z" fill="url(#paint5_linear_1021_1926)"/>
</g>
</g>
<defs>
<filter id="filter0_d_1021_1926" x="31.4274" y="19.251" width="30.7" height="25.933" filterUnits="userSpaceOnUse" color-interpolation-filters="sRGB">
<feFlood flood-opacity="0" result="BackgroundImageFix"/>
<feColorMatrix in="SourceAlpha" type="matrix" values="0 0 0 0 0 0 0 0 0 0 0 0 0 0 0 0 0 0 127 0" result="hardAlpha"/>
<feOffset dx="-2.55318" dy="1.27659"/>
<feGaussianBlur stdDeviation="2.34042"/>
<feColorMatrix type="matrix" values="0 0 0 0 0 0 0 0 0 0 0 0 0 0 0 0 0 0 0.165981 0"/>
<feBlend mode="normal" in2="BackgroundImageFix" result="effect1_dropShadow_1021_1926"/>
<feBlend mode="normal" in="SourceGraphic" in2="effect1_dropShadow_1021_1926" result="shape"/>
</filter>
<filter id="filter1_d_1021_1926" x="-3.82978" y="8.63259" width="24.3673" height="21.6767" filterUnits="userSpaceOnUse" color-interpolation-filters="sRGB">
<feFlood flood-opacity="0" result="BackgroundImageFix"/>
<feColorMatrix in="SourceAlpha" type="matrix" values="0 0 0 0 0 0 0 0 0 0 0 0 0 0 0 0 0 0 127 0" result="hardAlpha"/>
<feOffset dx="-1.27659" dy="1.27659"/>
<feGaussianBlur stdDeviation="1.27659"/>
<feColorMatrix type="matrix" values="0 0 0 0 0 0 0 0 0 0 0 0 0 0 0 0 0 0 0.274967 0"/>
<feBlend mode="normal" in2="BackgroundImageFix" result="effect1_dropShadow_1021_1926"/>
<feBlend mode="normal" in="SourceGraphic" in2="effect1_dropShadow_1021_1926" result="shape"/>
</filter>
<filter id="filter2_d_1021_1926" x="8.08982" y="4.7325" width="43.2978" height="55.6087" filterUnits="userSpaceOnUse" color-interpolation-filters="sRGB">
<feFlood flood-opacity="0" result="BackgroundImageFix"/>
<feColorMatrix in="SourceAlpha" type="matrix" values="0 0 0 0 0 0 0 0 0 0 0 0 0 0 0 0 0 0 127 0" result="hardAlpha"/>
<feOffset dy="1.27659"/>
<feGaussianBlur stdDeviation="3.19148"/>
<feColorMatrix type="matrix" values="0 0 0 0 0 0 0 0 0 0 0 0 0 0 0 0 0 0 0.551911 0"/>
<feBlend mode="normal" in2="BackgroundImageFix" result="effect1_dropShadow_1021_1926"/>
<feBlend mode="normal" in="SourceGraphic" in2="effect1_dropShadow_1021_1926" result="shape"/>
</filter>
<filter id="filter3_f_1021_1926" x="22.956" y="47.7308" width="9.80797" height="7.25139" filterUnits="userSpaceOnUse" color-interpolation-filters="sRGB">
<feFlood flood-opacity="0" result="BackgroundImageFix"/>
<feBlend mode="normal" in="SourceGraphic" in2="BackgroundImageFix" result="shape"/>
<feGaussianBlur stdDeviation="0.867534" result="effect1_foregroundBlur_1021_1926"/>
</filter>
<filter id="filter4_f_1021_1926" x="5.00695" y="6.51062" width="26.3682" height="27.0862" filterUnits="userSpaceOnUse" color-interpolation-filters="sRGB">
<feFlood flood-opacity="0" result="BackgroundImageFix"/>
<feBlend mode="normal" in="SourceGraphic" in2="BackgroundImageFix" result="shape"/>
<feGaussianBlur stdDeviation="2.6026" result="effect1_foregroundBlur_1021_1926"/>
</filter>
<filter id="filter5_f_1021_1926" x="28.6249" y="14.454" width="25.091" height="32.093" filterUnits="userSpaceOnUse" color-interpolation-filters="sRGB">
<feFlood flood-opacity="0" result="BackgroundImageFix"/>
<feBlend mode="normal" in="SourceGraphic" in2="BackgroundImageFix" result="shape"/>
<feGaussianBlur stdDeviation="2.6026" result="effect1_foregroundBlur_1021_1926"/>
</filter>
<filter id="filter6_f_1021_1926" x="4.72889" y="-2.58843" width="40.3293" height="41.5675" filterUnits="userSpaceOnUse" color-interpolation-filters="sRGB">
<feFlood flood-opacity="0" result="BackgroundImageFix"/>
<feBlend mode="normal" in="SourceGraphic" in2="BackgroundImageFix" result="shape"/>
<feGaussianBlur stdDeviation="4.33767" result="effect1_foregroundBlur_1021_1926"/>
</filter>
<filter id="filter7_f_1021_1926" x="23.2396" y="24.8149" width="40.3293" height="41.5675" filterUnits="userSpaceOnUse" color-interpolation-filters="sRGB">
<feFlood flood-opacity="0" result="BackgroundImageFix"/>
<feBlend mode="normal" in="SourceGraphic" in2="BackgroundImageFix" result="shape"/>
<feGaussianBlur stdDeviation="4.33767" result="effect1_foregroundBlur_1021_1926"/>
</filter>
<filter id="filter8_f_1021_1926" x="20.2533" y="42.6969" width="14.2465" height="11.6698" filterUnits="userSpaceOnUse" color-interpolation-filters="sRGB">
<feFlood flood-opacity="0" result="BackgroundImageFix"/>
<feBlend mode="normal" in="SourceGraphic" in2="BackgroundImageFix" result="shape"/>
<feGaussianBlur stdDeviation="1.73507" result="effect1_foregroundBlur_1021_1926"/>
</filter>
<filter id="filter9_d_1021_1926" x="21.1716" y="45.6331" width="15.5569" height="11.039" filterUnits="userSpaceOnUse" color-interpolation-filters="sRGB">
<feFlood flood-opacity="0" result="BackgroundImageFix"/>
<feColorMatrix in="SourceAlpha" type="matrix" values="0 0 0 0 0 0 0 0 0 0 0 0 0 0 0 0 0 0 127 0" result="hardAlpha"/>
<feOffset dx="-1.27659" dy="1.27659"/>
<feGaussianBlur stdDeviation="1.70212"/>
<feColorMatrix type="matrix" values="0 0 0 0 1 0 0 0 0 0.701961 0 0 0 0 0.203922 0 0 0 0.4 0"/>
<feBlend mode="normal" in2="BackgroundImageFix" result="effect1_dropShadow_1021_1926"/>
<feBlend mode="normal" in="SourceGraphic" in2="effect1_dropShadow_1021_1926" result="shape"/>
</filter>
<linearGradient id="paint0_linear_1021_1926" x1="49.8884" y1="24.8913" x2="44.7039" y2="37.2921" gradientUnits="userSpaceOnUse">
<stop stop-color="#FFCA00"/>
<stop offset="1" stop-color="#FF5C00"/>
</linearGradient>
<linearGradient id="paint1_linear_1021_1926" x1="6.68833" y1="15.6209" x2="11.5172" y2="23.7344" gradientUnits="userSpaceOnUse">
<stop stop-color="#FFCA00"/>
<stop offset="1" stop-color="#FF5C00"/>
</linearGradient>
<linearGradient id="paint2_linear_1021_1926" x1="18.2295" y1="10.2379" x2="19.0725" y2="34.5517" gradientUnits="userSpaceOnUse">
<stop stop-color="#A9FFED" stop-opacity="0.516361"/>
<stop offset="0.519881" stop-color="#C6DFFF" stop-opacity="0.463172"/>
<stop offset="1" stop-color="#CCE2FF" stop-opacity="0.199786"/>
</linearGradient>
<linearGradient id="paint3_linear_1021_1926" x1="21.3522" y1="47.465" x2="21.7283" y2="53.4021" gradientUnits="userSpaceOnUse">
<stop stop-color="white" stop-opacity="0.285957"/>
<stop offset="1" stop-color="#FFE4B4" stop-opacity="0.463172"/>
</linearGradient>
<linearGradient id="paint4_linear_1021_1926" x1="27.4251" y1="7.6445" x2="14.3024" y2="34.1126" gradientUnits="userSpaceOnUse">
<stop stop-color="#FFE6A9" stop-opacity="0.516361"/>
<stop offset="0.519881" stop-color="#C6DFFF" stop-opacity="0.463172"/>
<stop offset="1" stop-color="#CCE2FF" stop-opacity="0.199786"/>
</linearGradient>
<linearGradient id="paint5_linear_1021_1926" x1="25.8719" y1="47.8928" x2="25.8719" y2="51.991" gradientUnits="userSpaceOnUse">
<stop stop-color="white"/>
</linearGradient>
<clipPath id="clip0_1021_1926">
<rect width="60" height="60" fill="white"/>
</clipPath>
</defs>
</svg>
