<svg width="60" height="60" viewBox="0 0 60 60" fill="none" xmlns="http://www.w3.org/2000/svg">
<g clip-path="url(#clip0_1012_1919)">
<g filter="url(#filter0_d_1012_1919)">
<path fill-rule="evenodd" clip-rule="evenodd" d="M44.7647 22.7468C44.926 23.6677 45.0067 24.6031 45.0046 25.5423C45.0046 27.7046 43.9967 30.5645 42.0082 34.0379C41.07 35.6796 39.8962 37.3305 38.6614 38.91C39.3504 39.1151 40.0865 39.2261 40.851 39.2261C42.1036 39.2261 43.2796 38.9283 44.2978 38.4066C45.825 38.9283 47.589 39.2261 49.4678 39.2261C55.2844 39.2261 59.9997 36.3728 59.9997 32.8531C59.9997 29.975 56.8468 27.5425 52.5171 26.7513C51.5073 24.3561 48.9511 22.6553 45.9572 22.6553C45.5507 22.6553 45.1523 22.6866 44.7647 22.7468Z" fill="url(#paint0_linear_1012_1919)"/>
</g>
<g filter="url(#filter1_d_1012_1919)">
<path fill-rule="evenodd" clip-rule="evenodd" d="M19.2612 14.1201C19.0724 14.0782 18.8811 14.0395 18.6873 14.0042C17.6773 11.6095 15.1214 9.90918 12.1279 9.90918C9.19587 9.90918 6.68359 11.5405 5.6326 13.8577C2.42 14.4427 0 17.0178 0 20.106C0 23.6257 3.14352 26.479 7.02126 26.479C8.27392 26.479 9.44997 26.1812 10.4682 25.6594C11.6901 26.0769 13.0636 26.351 14.5262 26.4439C14.4907 26.1312 14.473 25.8307 14.473 25.5426C14.4689 23.4456 14.8766 21.3682 15.6729 19.4278C16.4335 17.5716 17.5436 15.8783 18.9429 14.4396C19.0475 14.3314 19.1536 14.2249 19.2612 14.1201Z" fill="url(#paint1_linear_1012_1919)"/>
</g>
<g filter="url(#filter2_d_1012_1919)">
<path fill-rule="evenodd" clip-rule="evenodd" d="M34.9937 42.093C35.7759 42.093 36.5133 41.7369 36.9907 41.1174C38.2869 39.4358 40.896 35.9846 42.0083 34.0383C43.9968 30.5649 45.0047 27.7049 45.0047 25.5427C45.0093 23.4457 44.6016 21.3681 43.8048 19.4279C43.0436 17.571 41.9327 15.8772 40.5324 14.4383C39.1525 13.0103 37.5055 11.8664 35.6847 11.0713C31.8931 9.42805 27.5888 9.42805 23.7973 11.0713C21.9741 11.8664 20.3249 13.0108 18.9429 14.4397C17.5435 15.8785 16.4335 17.5718 15.6729 19.4279C14.8765 21.3683 14.4689 23.4457 14.4729 25.5427C14.4729 27.7049 15.4737 30.5601 17.4415 34.034C18.5487 35.9851 21.1705 39.4414 22.4707 41.1217C22.9481 41.7387 23.6839 42.093 24.464 42.093H34.9937ZM26.9876 52.6817H33.4101C33.6645 52.6817 33.8795 52.5058 33.8843 52.2849L35.7523 47.3662C35.7523 47.1453 35.5397 46.9694 35.2829 46.9694H25.1196C24.8585 46.9694 24.6502 47.1491 24.6502 47.3662L26.5182 52.2849C26.5182 52.5058 26.7308 52.6817 26.9876 52.6817Z" fill="white" fill-opacity="0.1"/>
</g>
<mask id="mask0_1012_1919" style="mask-type:luminance" maskUnits="userSpaceOnUse" x="24" y="46" width="12" height="7">
<path fill-rule="evenodd" clip-rule="evenodd" d="M33.4105 52.9997H27.0705C26.8137 52.9997 26.2936 53.0192 26.2025 52.352L24.3298 47.4674C24.3298 47.2503 24.5849 46.9688 24.846 46.9688L35.2834 46.9688C35.5402 46.9688 35.7528 47.1446 35.7528 47.3655L33.8848 52.2842C33.88 52.5051 33.6649 52.9997 33.4105 52.9997Z" fill="white"/>
</mask>
<g mask="url(#mask0_1012_1919)">
<g filter="url(#filter3_f_1012_1919)">
<path fill-rule="evenodd" clip-rule="evenodd" d="M31.0292 53.2469H26.5743C26.2495 53.2469 25.9805 53.031 25.9805 52.7599L24.6912 49.4658C25.9566 49.6417 26.9969 50.3582 27.4444 51.3145C29.1479 51.595 30.4957 52.3225 31.0292 53.2469Z" fill="white" fill-opacity="0.1"/>
</g>
</g>
<path d="M17.3026 34.1127L17.3026 34.1126C15.331 30.6322 14.3133 27.7474 14.3132 25.5429M17.3026 34.1127L45.0046 25.5427M17.3026 34.1127C18.4166 36.0758 21.0462 39.5418 22.3444 41.2194C22.8526 41.8761 23.6353 42.2525 24.4639 42.2525H34.9936C35.8243 42.2525 36.6087 41.8742 37.117 41.2149C38.4111 39.5358 41.0277 36.0754 42.1466 34.1176M17.3026 34.1127L42.0081 34.0383M14.3132 25.5429C14.3092 23.4251 14.7209 21.327 15.5251 19.3674C16.2934 17.4924 17.4147 15.7819 18.8283 14.3286C20.2247 12.8848 21.8912 11.7285 23.7334 10.925L23.7337 10.9249C27.5657 9.26409 31.916 9.26409 35.748 10.9249L35.7484 10.9251C37.5883 11.7284 39.2525 12.8843 40.6468 14.3272C42.0613 15.7807 43.1834 17.4917 43.9523 19.3674C44.7571 21.3269 45.1688 23.4252 45.1641 25.5431M14.3132 25.5429C14.3132 25.5429 14.3132 25.543 14.3132 25.543L14.4728 25.5427H14.3132C14.3132 25.5428 14.3132 25.5428 14.3132 25.5429ZM45.1641 25.5431L45.0046 25.5427M45.1641 25.5431C45.1641 25.5429 45.1641 25.5428 45.1641 25.5427H45.0046M45.1641 25.5431C45.164 27.7479 44.1389 30.6376 42.1466 34.1176M45.0046 25.5427C45.0046 27.7049 43.9966 30.5649 42.0081 34.0383M42.1466 34.1176C42.1466 34.1175 42.1467 34.1175 42.1467 34.1175L42.0081 34.0383M42.1466 34.1176L42.0081 34.0383" fill="white" fill-opacity="0.1" stroke="url(#paint2_linear_1012_1919)" stroke-width="0.319148"/>
<mask id="mask1_1012_1919" style="mask-type:luminance" maskUnits="userSpaceOnUse" x="14" y="9" width="32" height="34">
<path d="M17.3025 34.1127L17.3024 34.1126C15.3309 30.6322 14.3132 27.7474 14.3131 25.5429M17.3025 34.1127L45.0045 25.5427M17.3025 34.1127C18.4165 36.0759 21.0461 39.5418 22.3443 41.2194C22.8525 41.8761 23.6352 42.2525 24.4638 42.2525H34.9935C35.8242 42.2525 36.6086 41.8742 37.1169 41.2149C38.411 39.5358 41.0276 36.0754 42.1465 34.1176M17.3025 34.1127L42.008 34.0383M14.3131 25.5429C14.309 23.4251 14.7208 21.327 15.525 19.3674C16.2933 17.4924 17.4146 15.7819 18.8282 14.3286C20.2246 12.8848 21.8911 11.7285 23.7332 10.925L23.7336 10.9249C27.5656 9.26409 31.9158 9.26409 35.7479 10.9249L35.7483 10.9251C37.5881 11.7284 39.2524 12.8843 40.6467 14.3272C42.0612 15.7807 43.1833 17.4916 43.9521 19.3673C44.757 21.3269 45.1687 23.4251 45.164 25.5431M14.3131 25.5429C14.3131 25.5429 14.3131 25.543 14.3131 25.543L14.4727 25.5427H14.3131C14.3131 25.5428 14.3131 25.5428 14.3131 25.5429ZM45.164 25.5431L45.0045 25.5427M45.164 25.5431C45.164 25.5429 45.164 25.5428 45.164 25.5427H45.0045M45.164 25.5431C45.1639 27.7479 44.1388 30.6376 42.1465 34.1176M45.0045 25.5427C45.0045 27.7049 43.9965 30.5649 42.008 34.0383M42.1465 34.1176C42.1465 34.1175 42.1465 34.1175 42.1466 34.1175L42.008 34.0383M42.1465 34.1176L42.008 34.0383" fill="white" stroke="white" stroke-width="0.319148"/>
</mask>
<g mask="url(#mask1_1012_1919)">
<g filter="url(#filter4_f_1012_1919)">
<path fill-rule="evenodd" clip-rule="evenodd" d="M16.7245 11.7168C16.5442 11.8901 16.367 12.0668 16.1929 12.2469C14.3206 14.173 12.8354 16.44 11.8177 18.9249C10.7522 21.5227 10.2068 24.304 10.2122 27.1114C10.2122 27.4998 10.2363 27.905 10.2844 28.3266C10.8602 28.37 11.4467 28.3923 12.0418 28.3923C19.8446 28.3923 26.17 24.5514 26.17 19.8133C26.17 16.0719 22.2258 12.8899 16.7245 11.7168Z" fill="#FF5C00"/>
</g>
<g filter="url(#filter5_f_1012_1919)">
<path fill-rule="evenodd" clip-rule="evenodd" d="M40.2821 41.3419C36.5339 40.2098 33.8301 36.9911 33.8301 33.1971C33.8301 29.04 37.0764 25.5735 41.3859 24.7859C42.5536 22.2029 45.0655 20.2531 48.1282 19.6592C48.385 20.9851 48.5136 22.3354 48.5106 23.6919C48.5106 26.5544 47.162 30.3408 44.5014 34.9392C43.289 37.0385 41.8324 39.2419 40.2821 41.3419Z" fill="#FFCA00"/>
</g>
<g opacity="0.497858" filter="url(#filter6_f_1012_1919)">
<ellipse cx="24.8936" cy="18.1956" rx="11.4893" ry="12.1086" fill="white"/>
</g>
<g opacity="0.497858" filter="url(#filter7_f_1012_1919)">
<ellipse cx="43.4044" cy="45.5989" rx="11.4893" ry="12.1086" fill="white"/>
</g>
</g>
<path fill-rule="evenodd" clip-rule="evenodd" d="M33.4101 52.681H26.9876C26.7308 52.681 26.5182 52.5051 26.5182 52.2842L24.6501 47.3655C24.6501 47.1485 24.8585 46.9688 25.1196 46.9688H35.2829C35.5397 46.9688 35.7523 47.1446 35.7523 47.3655L33.8843 52.2842C33.8795 52.5051 33.6644 52.681 33.4101 52.681Z" fill="white" fill-opacity="0.1"/>
<path d="M24.4906 47.3655V47.3948L24.501 47.4222L26.3596 52.316C26.3786 52.6323 26.6801 52.8406 26.9876 52.8406H33.4101C33.7165 52.8406 34.0178 52.6318 34.0423 52.3175L35.9015 47.4222L35.9119 47.3948V47.3655C35.9119 47.0315 35.6005 46.8092 35.2829 46.8092H25.1196C24.7955 46.8092 24.4906 47.0371 24.4906 47.3655Z" stroke="white" stroke-opacity="0.1" stroke-width="0.319148"/>
<mask id="mask2_1012_1919" style="mask-type:alpha" maskUnits="userSpaceOnUse" x="24" y="46" width="13" height="8">
<path d="M35.2832 46.6514H25.1199C24.6943 46.6514 24.3313 46.9601 24.3313 47.3668L24.352 47.4798L26.2023 52.3533L26.2158 52.4337C26.2915 52.7663 26.6173 53.0009 26.9879 53.0009H33.4104L33.4934 52.9969C33.8494 52.9627 34.1496 52.7106 34.1972 52.372L34.1982 52.3578L36.051 47.4798L36.0718 47.3668C36.0718 46.9578 35.7068 46.6514 35.2832 46.6514Z" fill="url(#paint3_linear_1012_1919)"/>
</mask>
<g mask="url(#mask2_1012_1919)">
<g filter="url(#filter8_f_1012_1919)">
<ellipse cx="27.3765" cy="48.5316" rx="3.65312" ry="2.36456" fill="white" fill-opacity="0.1"/>
</g>
</g>
<path opacity="0.298145" fill-rule="evenodd" clip-rule="evenodd" d="M29.9997 46.3962C29.8107 46.3962 29.6561 46.3022 29.6561 46.1872V42.8898C29.6561 42.7749 29.8107 42.6808 29.9997 42.6808C30.1887 42.6808 30.3434 42.7749 30.3434 42.8898V46.1872C30.3434 46.3041 30.1891 46.3962 29.9997 46.3962ZM26.0494 46.2992L24.5985 43.0901C24.5281 42.9333 24.616 42.7557 24.795 42.691C24.9713 42.6285 25.1688 42.7029 25.2517 42.8629L26.7023 46.072C26.7726 46.2287 26.6847 46.4067 26.5053 46.4711C26.4641 46.4858 26.4203 46.4931 26.3763 46.4926C26.2361 46.4956 26.1078 46.4195 26.0494 46.2992ZM33.9499 46.2992L35.4009 43.0901C35.4712 42.9333 35.3833 42.7557 35.2043 42.691C35.028 42.6285 34.8306 42.7029 34.7476 42.8629L33.297 46.072C33.2267 46.2287 33.3146 46.4067 33.494 46.4711C33.5352 46.4858 33.579 46.4931 33.623 46.4926C33.7632 46.4956 33.8915 46.4195 33.9499 46.2992Z" fill="white" fill-opacity="0.9"/>
<mask id="path-17-outside-1_1012_1919" maskUnits="userSpaceOnUse" x="14" y="9" width="32" height="45" fill="black">
<rect fill="white" x="14" y="9" width="32" height="45"/>
<path fill-rule="evenodd" clip-rule="evenodd" d="M35.1344 42C35.9207 42 36.6616 41.6401 37.1386 41.015C38.4167 39.3404 40.9666 35.9332 42.0557 34.0088C44.0096 30.5628 45 27.7253 45 25.5801C45.0045 23.4996 44.6039 21.4385 43.8209 19.5135C43.073 17.6713 41.9815 15.9908 40.6055 14.5632C39.2497 13.1464 37.6314 12.0115 35.8423 11.2227C32.1168 9.59242 27.8875 9.59242 24.162 11.2227C22.3706 12.0116 20.75 13.147 19.3921 14.5646C18.0171 15.992 16.9264 17.672 16.179 19.5135C15.3966 21.4386 14.996 23.4997 15 25.5801C15 27.7253 15.9833 30.558 17.9169 34.0045C19.0011 35.9337 21.5634 39.3461 22.8454 41.0194C23.3224 41.642 24.0617 42 24.846 42H35.1344ZM26.9832 52.6811H33.4057C33.66 52.6811 33.8751 52.5052 33.8799 52.2843L35.7479 47.3656C35.7479 47.1447 35.5353 46.9688 35.2785 46.9688H25.1152C24.8541 46.9688 24.6458 47.1485 24.6458 47.3656L26.5138 52.2843C26.5138 52.5052 26.7264 52.6811 26.9832 52.6811Z"/>
</mask>
<path fill-rule="evenodd" clip-rule="evenodd" d="M35.1344 42C35.9207 42 36.6616 41.6401 37.1386 41.015C38.4167 39.3404 40.9666 35.9332 42.0557 34.0088C44.0096 30.5628 45 27.7253 45 25.5801C45.0045 23.4996 44.6039 21.4385 43.8209 19.5135C43.073 17.6713 41.9815 15.9908 40.6055 14.5632C39.2497 13.1464 37.6314 12.0115 35.8423 11.2227C32.1168 9.59242 27.8875 9.59242 24.162 11.2227C22.3706 12.0116 20.75 13.147 19.3921 14.5646C18.0171 15.992 16.9264 17.672 16.179 19.5135C15.3966 21.4386 14.996 23.4997 15 25.5801C15 27.7253 15.9833 30.558 17.9169 34.0045C19.0011 35.9337 21.5634 39.3461 22.8454 41.0194C23.3224 41.642 24.0617 42 24.846 42H35.1344ZM26.9832 52.6811H33.4057C33.66 52.6811 33.8751 52.5052 33.8799 52.2843L35.7479 47.3656C35.7479 47.1447 35.5353 46.9688 35.2785 46.9688H25.1152C24.8541 46.9688 24.6458 47.1485 24.6458 47.3656L26.5138 52.2843C26.5138 52.5052 26.7264 52.6811 26.9832 52.6811Z" fill="white" fill-opacity="0.1"/>
<path d="M37.1386 41.015L37.3924 41.2087L37.1386 41.015ZM42.0557 34.0088L41.7781 33.8514L41.778 33.8516L42.0557 34.0088ZM45 25.5801L44.6808 25.5794V25.5801H45ZM43.8209 19.5135L43.5252 19.6335L43.5253 19.6337L43.8209 19.5135ZM40.6055 14.5632L40.3749 14.7838L40.3757 14.7847L40.6055 14.5632ZM35.8423 11.2227L35.971 10.9307L35.9702 10.9304L35.8423 11.2227ZM24.162 11.2227L24.034 10.9304L24.0333 10.9307L24.162 11.2227ZM19.3921 14.5646L19.622 14.786L19.6226 14.7854L19.3921 14.5646ZM16.179 19.5135L16.4747 19.6337L16.4748 19.6335L16.179 19.5135ZM15 25.5801H15.3192L15.3192 25.5795L15 25.5801ZM17.9169 34.0045L17.6386 34.1606L17.6387 34.1609L17.9169 34.0045ZM22.8454 41.0194L23.0988 40.8253L22.8454 41.0194ZM33.8799 52.2843L33.5815 52.171L33.562 52.2224L33.5608 52.2774L33.8799 52.2843ZM35.7479 47.3656L36.0463 47.4789L36.0671 47.4242V47.3656H35.7479ZM24.6458 47.3656H24.3266V47.4242L24.3474 47.4789L24.6458 47.3656ZM26.5138 52.2843H26.8329V52.2258L26.8121 52.171L26.5138 52.2843ZM36.8849 40.8214C36.4694 41.3659 35.8231 41.6809 35.1344 41.6809V42.3191C36.0184 42.3191 36.8538 41.9143 37.3924 41.2087L36.8849 40.8214ZM41.778 33.8516C40.7018 35.753 38.1669 39.1416 36.8849 40.8214L37.3924 41.2087C38.6664 39.5392 41.2313 36.1133 42.3335 34.166L41.778 33.8516ZM44.6808 25.5801C44.6808 27.6409 43.7242 30.4191 41.7781 33.8514L42.3333 34.1662C44.295 30.7065 45.3191 27.8098 45.3191 25.5801H44.6808ZM43.5253 19.6337C44.2927 21.5202 44.6853 23.5403 44.6808 25.5794L45.3191 25.5808C45.3237 23.4589 44.9152 21.3567 44.1166 19.3932L43.5253 19.6337ZM40.3757 14.7847C41.7234 16.1829 42.7926 17.8289 43.5252 19.6335L44.1166 19.3934C43.3535 17.5136 42.2396 15.7987 40.8353 14.3417L40.3757 14.7847ZM35.7135 11.5148C37.4643 12.2866 39.048 13.3972 40.3749 14.7838L40.8361 14.3425C39.4514 12.8956 37.7986 11.7364 35.971 10.9307L35.7135 11.5148ZM24.2899 11.5151C27.9339 9.92049 32.0704 9.92049 35.7143 11.5151L35.9702 10.9304C32.1631 9.26435 27.8411 9.26435 24.034 10.9304L24.2899 11.5151ZM19.6226 14.7854C20.9517 13.3979 22.5376 12.2868 24.2906 11.5148L24.0333 10.9307C22.2035 11.7364 20.5484 12.8961 19.1616 14.3439L19.6226 14.7854ZM16.4748 19.6335C17.2069 17.8296 18.2753 16.1841 19.622 14.786L19.1623 14.3432C17.759 15.8 16.646 17.5144 15.8833 19.3935L16.4748 19.6335ZM15.3192 25.5795C15.3153 23.5404 15.7079 21.5204 16.4747 19.6337L15.8834 19.3933C15.0853 21.3568 14.6768 23.4589 14.6809 25.5807L15.3192 25.5795ZM18.1953 33.8483C16.2692 30.4153 15.3192 27.6415 15.3192 25.5801H14.6809C14.6809 27.8091 15.6975 30.7008 17.6386 34.1606L18.1953 33.8483ZM23.0988 40.8253C21.8126 39.1466 19.266 35.7535 18.1951 33.8481L17.6387 34.1609C18.7363 36.1139 21.3142 39.5456 22.5921 41.2135L23.0988 40.8253ZM24.846 41.6809C24.1591 41.6809 23.5142 41.3675 23.0988 40.8253L22.5921 41.2135C23.1307 41.9164 23.9643 42.3191 24.846 42.3191V41.6809ZM35.1344 41.6809H24.846V42.3191H35.1344V41.6809ZM33.4057 52.362H26.9832V53.0003H33.4057V52.362ZM33.5608 52.2774C33.5607 52.2813 33.5591 52.2979 33.5324 52.3201C33.5051 52.3427 33.4604 52.362 33.4057 52.362V53.0003C33.7833 53.0003 34.1894 52.732 34.1989 52.2912L33.5608 52.2774ZM35.4496 47.2523L33.5815 52.171L34.1782 52.3976L36.0463 47.4789L35.4496 47.2523ZM35.2785 47.288C35.3352 47.288 35.3791 47.3076 35.4043 47.3288C35.4286 47.3492 35.4288 47.3632 35.4288 47.3656H36.0671C36.0671 46.9185 35.657 46.6497 35.2785 46.6497V47.288ZM25.1152 47.288H35.2785V46.6497H25.1152V47.288ZM24.9649 47.3656C24.9649 47.364 24.9651 47.3495 24.9893 47.3289C25.0139 47.308 25.0572 47.288 25.1152 47.288V46.6497C24.7282 46.6497 24.3266 46.9258 24.3266 47.3656H24.9649ZM26.8121 52.171L24.9441 47.2523L24.3474 47.4789L26.2154 52.3976L26.8121 52.171ZM26.9832 52.362C26.9265 52.362 26.8826 52.3423 26.8574 52.3211C26.8331 52.3008 26.8329 52.2867 26.8329 52.2843H26.1946C26.1946 52.7315 26.6047 53.0003 26.9832 53.0003V52.362Z" fill="url(#paint4_linear_1012_1919)" mask="url(#path-17-outside-1_1012_1919)"/>
<g opacity="0.9" filter="url(#filter9_d_1012_1919)">
<path fill-rule="evenodd" clip-rule="evenodd" d="M25.8906 48.6153C25.7409 48.1993 26.0491 47.7607 26.4912 47.7607H33.9619C34.4116 47.7607 34.7203 48.2133 34.5561 48.632L33.3983 51.5856C33.3025 51.8301 33.0666 51.991 32.804 51.991H27.5546C27.2854 51.991 27.0452 51.8221 26.954 51.5689L25.8906 48.6153Z" fill="url(#paint5_linear_1012_1919)"/>
</g>
</g>
<defs>
<filter id="filter0_d_1012_1919" x="31.4274" y="19.251" width="30.7001" height="25.932" filterUnits="userSpaceOnUse" color-interpolation-filters="sRGB">
<feFlood flood-opacity="0" result="BackgroundImageFix"/>
<feColorMatrix in="SourceAlpha" type="matrix" values="0 0 0 0 0 0 0 0 0 0 0 0 0 0 0 0 0 0 127 0" result="hardAlpha"/>
<feOffset dx="-2.55318" dy="1.27659"/>
<feGaussianBlur stdDeviation="2.34042"/>
<feColorMatrix type="matrix" values="0 0 0 0 0 0 0 0 0 0 0 0 0 0 0 0 0 0 0.165981 0"/>
<feBlend mode="normal" in2="BackgroundImageFix" result="effect1_dropShadow_1012_1919"/>
<feBlend mode="normal" in="SourceGraphic" in2="effect1_dropShadow_1012_1919" result="shape"/>
</filter>
<filter id="filter1_d_1012_1919" x="-3.82978" y="8.63259" width="24.3676" height="21.6757" filterUnits="userSpaceOnUse" color-interpolation-filters="sRGB">
<feFlood flood-opacity="0" result="BackgroundImageFix"/>
<feColorMatrix in="SourceAlpha" type="matrix" values="0 0 0 0 0 0 0 0 0 0 0 0 0 0 0 0 0 0 127 0" result="hardAlpha"/>
<feOffset dx="-1.27659" dy="1.27659"/>
<feGaussianBlur stdDeviation="1.27659"/>
<feColorMatrix type="matrix" values="0 0 0 0 0 0 0 0 0 0 0 0 0 0 0 0 0 0 0.274967 0"/>
<feBlend mode="normal" in2="BackgroundImageFix" result="effect1_dropShadow_1012_1919"/>
<feBlend mode="normal" in="SourceGraphic" in2="effect1_dropShadow_1012_1919" result="shape"/>
</filter>
<filter id="filter2_d_1012_1919" x="8.08994" y="4.7325" width="43.2977" height="55.6087" filterUnits="userSpaceOnUse" color-interpolation-filters="sRGB">
<feFlood flood-opacity="0" result="BackgroundImageFix"/>
<feColorMatrix in="SourceAlpha" type="matrix" values="0 0 0 0 0 0 0 0 0 0 0 0 0 0 0 0 0 0 127 0" result="hardAlpha"/>
<feOffset dy="1.27659"/>
<feGaussianBlur stdDeviation="3.19148"/>
<feColorMatrix type="matrix" values="0 0 0 0 0 0 0 0 0 0 0 0 0 0 0 0 0 0 0.551911 0"/>
<feBlend mode="normal" in2="BackgroundImageFix" result="effect1_dropShadow_1012_1919"/>
<feBlend mode="normal" in="SourceGraphic" in2="effect1_dropShadow_1012_1919" result="shape"/>
</filter>
<filter id="filter3_f_1012_1919" x="22.9561" y="47.7308" width="9.80803" height="7.25139" filterUnits="userSpaceOnUse" color-interpolation-filters="sRGB">
<feFlood flood-opacity="0" result="BackgroundImageFix"/>
<feBlend mode="normal" in="SourceGraphic" in2="BackgroundImageFix" result="shape"/>
<feGaussianBlur stdDeviation="0.867534" result="effect1_foregroundBlur_1012_1919"/>
</filter>
<filter id="filter4_f_1012_1919" x="5.00695" y="6.51159" width="26.3682" height="27.0862" filterUnits="userSpaceOnUse" color-interpolation-filters="sRGB">
<feFlood flood-opacity="0" result="BackgroundImageFix"/>
<feBlend mode="normal" in="SourceGraphic" in2="BackgroundImageFix" result="shape"/>
<feGaussianBlur stdDeviation="2.6026" result="effect1_foregroundBlur_1012_1919"/>
</filter>
<filter id="filter5_f_1012_1919" x="28.6249" y="14.454" width="25.0911" height="32.093" filterUnits="userSpaceOnUse" color-interpolation-filters="sRGB">
<feFlood flood-opacity="0" result="BackgroundImageFix"/>
<feBlend mode="normal" in="SourceGraphic" in2="BackgroundImageFix" result="shape"/>
<feGaussianBlur stdDeviation="2.6026" result="effect1_foregroundBlur_1012_1919"/>
</filter>
<filter id="filter6_f_1012_1919" x="4.72895" y="-2.58843" width="40.3294" height="41.5675" filterUnits="userSpaceOnUse" color-interpolation-filters="sRGB">
<feFlood flood-opacity="0" result="BackgroundImageFix"/>
<feBlend mode="normal" in="SourceGraphic" in2="BackgroundImageFix" result="shape"/>
<feGaussianBlur stdDeviation="4.33767" result="effect1_foregroundBlur_1012_1919"/>
</filter>
<filter id="filter7_f_1012_1919" x="23.2397" y="24.8149" width="40.3294" height="41.5675" filterUnits="userSpaceOnUse" color-interpolation-filters="sRGB">
<feFlood flood-opacity="0" result="BackgroundImageFix"/>
<feBlend mode="normal" in="SourceGraphic" in2="BackgroundImageFix" result="shape"/>
<feGaussianBlur stdDeviation="4.33767" result="effect1_foregroundBlur_1012_1919"/>
</filter>
<filter id="filter8_f_1012_1919" x="20.2533" y="42.6969" width="14.2464" height="11.6698" filterUnits="userSpaceOnUse" color-interpolation-filters="sRGB">
<feFlood flood-opacity="0" result="BackgroundImageFix"/>
<feBlend mode="normal" in="SourceGraphic" in2="BackgroundImageFix" result="shape"/>
<feGaussianBlur stdDeviation="1.73507" result="effect1_foregroundBlur_1012_1919"/>
</filter>
<filter id="filter9_d_1012_1919" x="21.1715" y="45.6331" width="15.557" height="11.039" filterUnits="userSpaceOnUse" color-interpolation-filters="sRGB">
<feFlood flood-opacity="0" result="BackgroundImageFix"/>
<feColorMatrix in="SourceAlpha" type="matrix" values="0 0 0 0 0 0 0 0 0 0 0 0 0 0 0 0 0 0 127 0" result="hardAlpha"/>
<feOffset dx="-1.27659" dy="1.27659"/>
<feGaussianBlur stdDeviation="1.70212"/>
<feColorMatrix type="matrix" values="0 0 0 0 1 0 0 0 0 0.701961 0 0 0 0 0.203922 0 0 0 0.4 0"/>
<feBlend mode="normal" in2="BackgroundImageFix" result="effect1_dropShadow_1012_1919"/>
<feBlend mode="normal" in="SourceGraphic" in2="effect1_dropShadow_1012_1919" result="shape"/>
</filter>
<linearGradient id="paint0_linear_1012_1919" x1="49.8884" y1="24.8912" x2="44.704" y2="37.2919" gradientUnits="userSpaceOnUse">
<stop stop-color="#FFCA00"/>
<stop offset="1" stop-color="#FF5C00"/>
</linearGradient>
<linearGradient id="paint1_linear_1012_1919" x1="6.68843" y1="15.6208" x2="11.5171" y2="23.7343" gradientUnits="userSpaceOnUse">
<stop stop-color="#FFCA00"/>
<stop offset="1" stop-color="#FF5C00"/>
</linearGradient>
<linearGradient id="paint2_linear_1012_1919" x1="18.2294" y1="10.2379" x2="19.0725" y2="34.5517" gradientUnits="userSpaceOnUse">
<stop stop-color="#A9FFED" stop-opacity="0.516361"/>
<stop offset="0.519881" stop-color="#C6DFFF" stop-opacity="0.463172"/>
<stop offset="1" stop-color="#CCE2FF" stop-opacity="0.199786"/>
</linearGradient>
<linearGradient id="paint3_linear_1012_1919" x1="21.3522" y1="47.465" x2="21.7283" y2="53.4021" gradientUnits="userSpaceOnUse">
<stop stop-color="white" stop-opacity="0.285957"/>
<stop offset="1" stop-color="#FFE4B4" stop-opacity="0.463172"/>
</linearGradient>
<linearGradient id="paint4_linear_1012_1919" x1="27.4252" y1="7.6445" x2="14.3025" y2="34.1126" gradientUnits="userSpaceOnUse">
<stop stop-color="#FFE6A9" stop-opacity="0.516361"/>
<stop offset="0.519881" stop-color="#C6DFFF" stop-opacity="0.463172"/>
<stop offset="1" stop-color="#CCE2FF" stop-opacity="0.199786"/>
</linearGradient>
<linearGradient id="paint5_linear_1012_1919" x1="25.8718" y1="47.8928" x2="25.8718" y2="51.991" gradientUnits="userSpaceOnUse">
<stop stop-color="white"/>
</linearGradient>
<clipPath id="clip0_1012_1919">
<rect width="60" height="60" fill="white"/>
</clipPath>
</defs>
</svg>
