<svg width="60" height="60" viewBox="0 0 60 60" fill="none" xmlns="http://www.w3.org/2000/svg">
<g clip-path="url(#clip0_1021_1888)">
<g filter="url(#filter0_d_1021_1888)">
<path fill-rule="evenodd" clip-rule="evenodd" d="M42.9326 31.1538C49.0556 25.8369 56.9145 13.8488 54.186 10.4088C51.3822 7.03627 37.9861 12.1527 31.4694 16.9907L28.5792 15.9078C28.0134 15.6957 27.3799 15.7684 26.8778 16.103L16.1757 23.2357C15.8207 23.4722 15.9435 24.0202 16.3659 24.0847L22.0386 24.9507C21.487 25.573 21.1634 26.0713 21.0649 26.4598C20.9419 26.9445 21.2043 27.8209 21.6515 28.8232C20.3948 29.741 19.4093 31.4419 19.2263 32.0011C18.9447 32.8622 20.0973 35.2322 21.4565 36.8606C22.8157 38.489 24.8556 40.1449 25.7602 40.0512C26.3546 39.9897 28.2691 39.3733 29.4303 38.3198C30.2577 38.9025 30.9983 39.2897 31.4702 39.2727C31.8712 39.2584 32.4261 39.0494 33.1495 38.6459L32.8062 44.4185C32.7809 44.8434 33.2932 45.0778 33.5999 44.7819L42.8484 35.8583C43.2822 35.4397 43.4865 34.8382 43.397 34.2428L42.9326 31.1538Z" fill="white" fill-opacity="0.1"/>
</g>
<mask id="mask0_1021_1888" style="mask-type:luminance" maskUnits="userSpaceOnUse" x="15" y="9" width="40" height="36">
<path fill-rule="evenodd" clip-rule="evenodd" d="M42.9326 31.1538C49.0556 25.8369 56.9145 13.8488 54.186 10.4088C51.3822 7.03627 37.9861 12.1527 31.4694 16.9907L28.5792 15.9078C28.0134 15.6957 27.3799 15.7684 26.8778 16.103L16.1757 23.2357C15.8207 23.4722 15.9435 24.0202 16.3659 24.0847L22.0386 24.9507C21.487 25.573 21.1634 26.0713 21.0649 26.4598C20.9419 26.9445 21.2043 27.8209 21.6515 28.8232C20.3948 29.741 19.4093 31.4419 19.2263 32.0011C18.9447 32.8622 20.0973 35.2322 21.4565 36.8606C22.8157 38.489 24.8556 40.1449 25.7602 40.0512C26.3546 39.9897 28.2691 39.3733 29.4303 38.3198C30.2577 38.9025 30.9983 39.2897 31.4702 39.2727C31.8712 39.2584 32.4261 39.0494 33.1495 38.6459L32.8062 44.4185C32.7809 44.8434 33.2932 45.0778 33.5999 44.7819L42.8484 35.8583C43.2822 35.4397 43.4865 34.8382 43.397 34.2428L42.9326 31.1538Z" fill="white"/>
</mask>
<g mask="url(#mask0_1021_1888)">
<path opacity="0.396583" fill-rule="evenodd" clip-rule="evenodd" d="M61.6941 4.1084L73.4324 18.7145L28.6712 55.0604L16.9329 40.4543L61.6941 4.1084Z" fill="#00081B"/>
<g opacity="0.600153" filter="url(#filter1_f_1021_1888)">
<path d="M52.912 10.0394C52.4954 9.91939 44.7799 9.3093 40.2773 12.8735C35.7747 16.4377 33.2555 18.0488 28.8843 16.7897C24.5131 15.5307 16.518 23.4246 16.518 23.4246C16.518 23.4246 22.5373 25.2752 22.0067 27.1173C21.4761 28.9594 19.9269 33.3119 19.7478 33.9338" stroke="white" stroke-width="2.68043" stroke-linecap="round"/>
</g>
</g>
<path fill-rule="evenodd" clip-rule="evenodd" d="M31.4707 16.9883L28.5794 15.905C28.0136 15.693 27.3801 15.7657 26.878 16.1003L16.1759 23.2329C15.8209 23.4695 15.9437 24.0174 16.3662 24.0819L22.0399 24.9481C23.4795 23.3245 26.4711 20.857 31.0702 17.2921C31.2006 17.191 31.3341 17.0897 31.4707 16.9883Z" fill="white" fill-opacity="0.1"/>
<path fill-rule="evenodd" clip-rule="evenodd" d="M33.1496 38.6455L32.8063 44.4172C32.781 44.842 33.2933 45.0765 33.6 44.7805L42.8485 35.857C43.2823 35.4384 43.4866 34.8368 43.3971 34.2415L42.9328 31.1533C42.8125 31.2578 42.6928 31.3598 42.5739 31.459C38.1001 35.1924 35.046 37.5877 33.1496 38.6455Z" fill="black" fill-opacity="0.3"/>
<mask id="path-7-outside-1_1021_1888" maskUnits="userSpaceOnUse" x="10.8128" y="-0.203215" width="55.1794" height="48.6982" fill="black">
<rect fill="white" x="10.8128" y="-0.203215" width="55.1794" height="48.6982"/>
<path fill-rule="evenodd" clip-rule="evenodd" d="M42.9319 31.1525C49.0549 25.8357 56.9143 13.8473 54.1857 10.4072C51.3819 7.03461 37.9858 12.1511 31.4691 16.989L28.5785 15.9059C28.0127 15.6939 27.3791 15.7666 26.8771 16.1012L16.175 23.2338C15.82 23.4704 15.9428 24.0183 16.3652 24.0828L22.0384 24.949C21.4867 25.5713 21.1632 26.0696 21.0646 26.4581C20.9416 26.9428 21.204 27.8191 21.6511 28.8214C20.3944 29.7392 19.4088 31.4401 19.2259 31.9993C18.9443 32.8604 20.0968 35.2304 21.4561 36.8588C22.8153 38.4872 24.8552 40.1431 25.7598 40.0495C26.3542 39.9879 28.2686 39.3715 29.4299 38.318C30.2573 38.9008 30.998 39.288 31.47 39.2711C31.8709 39.2567 32.4257 39.0478 33.149 38.6443L32.8056 44.4179C32.7803 44.8427 33.2926 45.0772 33.5993 44.7812L42.8478 35.8576C43.2816 35.439 43.4859 34.8375 43.3964 34.2421L42.9319 31.1525Z"/>
</mask>
<path fill-rule="evenodd" clip-rule="evenodd" d="M42.9319 31.1525C49.0549 25.8357 56.9143 13.8473 54.1857 10.4072C51.3819 7.03461 37.9858 12.1511 31.4691 16.989L28.5785 15.9059C28.0127 15.6939 27.3791 15.7666 26.8771 16.1012L16.175 23.2338C15.82 23.4704 15.9428 24.0183 16.3652 24.0828L22.0384 24.949C21.4867 25.5713 21.1632 26.0696 21.0646 26.4581C20.9416 26.9428 21.204 27.8191 21.6511 28.8214C20.3944 29.7392 19.4088 31.4401 19.2259 31.9993C18.9443 32.8604 20.0968 35.2304 21.4561 36.8588C22.8153 38.4872 24.8552 40.1431 25.7598 40.0495C26.3542 39.9879 28.2686 39.3715 29.4299 38.318C30.2573 38.9008 30.998 39.288 31.47 39.2711C31.8709 39.2567 32.4257 39.0478 33.149 38.6443L32.8056 44.4179C32.7803 44.8427 33.2926 45.0772 33.5993 44.7812L42.8478 35.8576C43.2816 35.439 43.4859 34.8375 43.3964 34.2421L42.9319 31.1525Z" fill="white" fill-opacity="0.1"/>
<path d="M54.1857 10.4072L54.4659 10.2208L54.461 10.2149L54.1857 10.4072ZM42.9319 31.1525L42.6904 30.9171L42.5622 31.0284L42.5866 31.1909L42.9319 31.1525ZM31.4691 16.989L31.3427 17.286L31.5331 17.3574L31.6908 17.2403L31.4691 16.989ZM28.5785 15.9059L28.4521 16.2029L28.5785 15.9059ZM26.8771 16.1012L27.0847 16.3624L26.8771 16.1012ZM16.175 23.2338L15.9673 22.9726L16.175 23.2338ZM16.3652 24.0828L16.4163 23.7662L16.4163 23.7662L16.3652 24.0828ZM22.0384 24.949L22.31 25.1546L22.6915 24.7242L22.0894 24.6323L22.0384 24.949ZM21.0646 26.4581L20.7251 26.3798L20.7251 26.3798L21.0646 26.4581ZM21.6511 28.8214L21.8707 29.0742L22.0726 28.9268L21.9732 28.7039L21.6511 28.8214ZM19.2259 31.9993L19.5598 32.0969L19.5598 32.0969L19.2259 31.9993ZM25.7598 40.0495L25.7147 39.7305L25.7598 40.0495ZM29.4299 38.318L29.6385 38.0643L29.3964 37.8938L29.1831 38.0873L29.4299 38.318ZM31.47 39.2711L31.4897 39.5918L31.4897 39.5918L31.47 39.2711ZM33.149 38.6443L33.497 38.6676L33.5337 38.0515L32.9646 38.369L33.149 38.6443ZM32.8056 44.4179L32.4575 44.3946L32.8056 44.4179ZM33.5993 44.7812L33.8535 45.005L33.8535 45.005L33.5993 44.7812ZM42.8478 35.8576L43.1019 36.0814L42.8478 35.8576ZM43.3964 34.2421L43.0511 34.2806L43.3964 34.2421ZM53.9055 10.5935C54.4875 11.3272 54.5465 12.5917 54.1008 14.2708C53.6616 15.9255 52.758 17.8864 51.5705 19.9202C49.1954 23.9879 45.7208 28.2857 42.6904 30.9171L43.1733 31.3879C46.266 28.7025 49.7826 24.3477 52.1858 20.232C53.3875 18.174 54.3198 16.1605 54.7781 14.4337C55.23 12.7312 55.2482 11.2072 54.4659 10.2209L53.9055 10.5935ZM31.6908 17.2403C34.9152 14.8465 39.8582 12.3742 44.3406 10.9222C46.5824 10.196 48.6882 9.73187 50.3934 9.65304C52.1225 9.57311 53.3231 9.89303 53.9103 10.5994L54.461 10.2149C53.6464 9.23503 52.121 8.9298 50.3461 9.01186C48.5474 9.09502 46.3712 9.58005 44.0989 10.3161C39.5531 11.7887 34.5397 14.2935 31.2474 16.7377L31.6908 17.2403ZM31.5955 16.692L28.7049 15.6089L28.4521 16.2029L31.3427 17.286L31.5955 16.692ZM28.7049 15.6089C28.0235 15.3536 27.2643 15.4436 26.6695 15.84L27.0847 16.3624C27.494 16.0896 28.0019 16.0342 28.4521 16.2029L28.7049 15.6089ZM26.6695 15.84L15.9673 22.9726L16.3826 23.495L27.0847 16.3624L26.6695 15.84ZM15.9673 22.9726C15.6651 23.1741 15.5748 23.5036 15.6373 23.7823C15.6999 24.0617 15.9303 24.3409 16.3142 24.3995L16.4163 23.7662C16.3777 23.7603 16.3355 23.7332 16.3199 23.6634C16.3041 23.5928 16.3299 23.5302 16.3826 23.495L15.9673 22.9726ZM16.3142 24.3995L21.9874 25.2656L22.0894 24.6323L16.4163 23.7662L16.3142 24.3995ZM21.4041 26.5364C21.4837 26.2225 21.7634 25.7712 22.31 25.1546L21.7668 24.7433C21.2101 25.3714 20.8426 25.9167 20.7251 26.3798L21.4041 26.5364ZM21.9732 28.7039C21.7534 28.2112 21.5831 27.7584 21.4828 27.3756C21.3798 26.9825 21.3617 26.7033 21.4041 26.5364L20.7251 26.3798C20.6445 26.6976 20.6961 27.0989 20.8053 27.5157C20.9173 27.9428 21.1018 28.4293 21.3291 28.9388L21.9732 28.7039ZM19.5598 32.0969C19.6381 31.8575 19.9114 31.3206 20.3299 30.722C20.746 30.1268 21.283 29.5035 21.8707 29.0742L21.4316 28.5685C20.7625 29.0571 20.1784 29.7431 19.7418 30.3677C19.3076 30.9888 18.9966 31.582 18.892 31.9018L19.5598 32.0969ZM21.731 36.6661C21.0701 35.8743 20.457 34.8985 20.0454 34.0188C19.8396 33.579 19.6879 33.1711 19.6045 32.8281C19.5183 32.4739 19.5158 32.2314 19.5598 32.0969L18.892 31.9018C18.7952 32.1978 18.8311 32.5745 18.9244 32.9577C19.0203 33.3522 19.1889 33.8 19.4059 34.2639C19.84 35.1916 20.4828 36.2149 21.1811 37.0516L21.731 36.6661ZM25.7147 39.7305C25.5986 39.7425 25.382 39.6973 25.0571 39.537C24.7458 39.3835 24.3839 39.1491 23.9981 38.8543C23.2274 38.2656 22.3959 37.4626 21.731 36.6661L21.1811 37.0516C21.8755 37.8835 22.7435 38.7226 23.5587 39.3455C23.9659 39.6565 24.3685 39.9203 24.7366 40.1018C25.091 40.2766 25.4686 40.4033 25.8048 40.3685L25.7147 39.7305ZM29.1831 38.0873C28.641 38.5791 27.9108 38.9783 27.2329 39.2633C26.5488 39.5509 25.9596 39.7051 25.7147 39.7305L25.8048 40.3685C26.1544 40.3323 26.8196 40.1475 27.5317 39.8481C28.2499 39.5462 29.0575 39.1104 29.6767 38.5486L29.1831 38.0873ZM31.4502 38.9503C31.3089 38.9554 31.0741 38.8964 30.7405 38.7356C30.4177 38.58 30.0436 38.3496 29.6385 38.0643L29.2213 38.5717C29.6436 38.8691 30.0535 39.1237 30.4259 39.3032C30.7875 39.4775 31.159 39.6037 31.4897 39.5918L31.4502 38.9503ZM32.9646 38.369C32.2457 38.77 31.7561 38.9394 31.4502 38.9503L31.4897 39.5918C31.9857 39.574 32.6057 39.3256 33.3334 38.9197L32.9646 38.369ZM32.801 38.6211L32.4575 44.3946L33.1536 44.4411L33.497 38.6676L32.801 38.6211ZM32.4575 44.3946C32.4371 44.7375 32.6378 45.0243 32.9273 45.1568C33.2205 45.291 33.5909 45.2583 33.8535 45.005L33.3451 44.5574C33.3183 44.5833 33.2963 44.5899 33.2828 44.5918C33.2673 44.594 33.2485 44.592 33.2286 44.5829C33.1916 44.5659 33.1487 44.523 33.1536 44.4411L32.4575 44.3946ZM33.8535 45.005L43.1019 36.0814L42.5936 35.6339L33.3451 44.5574L33.8535 45.005ZM43.1019 36.0814C43.6101 35.5911 43.8451 34.8923 43.7416 34.2037L43.0511 34.2806C43.1266 34.7827 42.9531 35.2869 42.5936 35.6339L43.1019 36.0814ZM43.7416 34.2037L43.2771 31.114L42.5866 31.1909L43.0511 34.2806L43.7416 34.2037Z" fill="url(#paint0_linear_1021_1888)" mask="url(#path-7-outside-1_1021_1888)"/>
<ellipse cx="42.7625" cy="19.5849" rx="3.2734" ry="3.26892" transform="rotate(51.0679 42.7625 19.5849)" fill="url(#paint1_linear_1021_1888)"/>
<path fill-rule="evenodd" clip-rule="evenodd" d="M26.8954 32.0698C26.084 31.0653 26.2405 29.5932 27.245 28.7817L33.5341 23.7012C34.5386 22.8897 36.0107 23.0462 36.8222 24.0507C37.6337 25.0552 37.4772 26.5274 36.4727 27.3388L30.1835 32.4193C29.179 33.2308 27.7069 33.0743 26.8954 32.0698Z" fill="url(#paint2_linear_1021_1888)"/>
<g filter="url(#filter2_d_1021_1888)">
<path fill-rule="evenodd" clip-rule="evenodd" d="M7.64487 37.1721C7.03928 37.9767 6.61005 38.8847 6.3711 39.8692L6.17565 40.676C6.14944 40.7937 6.2492 40.9013 6.3673 40.8812L7.18181 40.74C7.69223 40.6503 8.28044 40.6805 8.92388 40.8288C8.96549 40.8392 8.98897 40.8645 9.0019 40.8837C9.01483 40.9029 9.02833 40.9362 9.01782 40.978C9.00996 41.0159 8.98405 41.0472 8.95007 41.0637C7.8099 41.6091 6.74767 42.6318 5.79149 44.1088C4.99568 45.3335 4.57535 46.654 4.53469 48.0343L4.50633 49.0408C4.5022 49.1726 4.64878 49.2566 4.76116 49.1869L5.61829 48.6573C6.20403 48.2955 6.77364 48.0698 7.30597 47.9895C7.9574 47.891 8.61881 47.9021 9.27332 48.0226C9.73172 48.1082 10.1761 48.2424 10.5972 48.4256C11.6138 48.87 12.7352 49.0785 13.8353 49.0303C14.9464 48.9807 16.049 48.6672 17.0273 48.123C17.8919 47.6421 18.6353 47.0055 19.2392 46.2282C19.8198 45.4782 20.2486 44.6304 20.5088 43.7108C20.7681 42.7894 20.8503 41.8418 20.748 40.8936C20.6434 39.9107 20.3477 38.9717 19.8683 38.099C19.389 37.2262 18.7562 36.4748 17.9866 35.8618C17.2432 35.2702 16.4029 34.8333 15.4889 34.567C14.5757 34.2978 13.6342 34.2122 12.6953 34.3099C11.7201 34.411 10.789 34.7058 9.92432 35.1868C9.03034 35.6841 8.26292 36.3509 7.64487 37.1721Z" fill="url(#paint3_radial_1021_1888)"/>
</g>
</g>
<defs>
<filter id="filter0_d_1021_1888" x="10.1601" y="6.19412" width="52.1777" height="48.9949" filterUnits="userSpaceOnUse" color-interpolation-filters="sRGB">
<feFlood flood-opacity="0" result="BackgroundImageFix"/>
<feColorMatrix in="SourceAlpha" type="matrix" values="0 0 0 0 0 0 0 0 0 0 0 0 0 0 0 0 0 0 127 0" result="hardAlpha"/>
<feOffset dx="0.893476" dy="3.5739"/>
<feGaussianBlur stdDeviation="3.35054"/>
<feColorMatrix type="matrix" values="0 0 0 0 0 0 0 0 0 0 0 0 0 0 0 0 0 0 0.65281 0"/>
<feBlend mode="normal" in2="BackgroundImageFix" result="effect1_dropShadow_1021_1888"/>
<feBlend mode="normal" in="SourceGraphic" in2="effect1_dropShadow_1021_1888" result="shape"/>
</filter>
<filter id="filter1_f_1021_1888" x="4.87277" y="-0.522738" width="58.4875" height="44.9049" filterUnits="userSpaceOnUse" color-interpolation-filters="sRGB">
<feFlood flood-opacity="0" result="BackgroundImageFix"/>
<feBlend mode="normal" in="SourceGraphic" in2="BackgroundImageFix" result="shape"/>
<feGaussianBlur stdDeviation="4.55385" result="effect1_foregroundBlur_1021_1888"/>
</filter>
<filter id="filter2_d_1021_1888" x="-2.19484" y="30.2499" width="27.0061" height="25.6631" filterUnits="userSpaceOnUse" color-interpolation-filters="sRGB">
<feFlood flood-opacity="0" result="BackgroundImageFix"/>
<feColorMatrix in="SourceAlpha" type="matrix" values="0 0 0 0 0 0 0 0 0 0 0 0 0 0 0 0 0 0 127 0" result="hardAlpha"/>
<feOffset dx="-1.34021" dy="1.34021"/>
<feGaussianBlur stdDeviation="2.68043"/>
<feColorMatrix type="matrix" values="0 0 0 0 1 0 0 0 0 0.360784 0 0 0 0 0 0 0 0 0.630555 0"/>
<feBlend mode="normal" in2="BackgroundImageFix" result="effect1_dropShadow_1021_1888"/>
<feBlend mode="normal" in="SourceGraphic" in2="effect1_dropShadow_1021_1888" result="shape"/>
</filter>
<linearGradient id="paint0_linear_1021_1888" x1="32.0266" y1="2.46292" x2="20.0832" y2="36.9711" gradientUnits="userSpaceOnUse">
<stop stop-color="#FFFDF3" stop-opacity="0.282797"/>
<stop offset="0.382543" stop-color="#FEA6A6" stop-opacity="0.776647"/>
<stop offset="0.755261" stop-color="#FFCC8F" stop-opacity="0.536274"/>
<stop offset="1" stop-color="#FF80AE" stop-opacity="0.203274"/>
</linearGradient>
<linearGradient id="paint1_linear_1021_1888" x1="43.8192" y1="20.5637" x2="45.7792" y2="21.0771" gradientUnits="userSpaceOnUse">
<stop stop-color="#F2F3FA"/>
<stop offset="1" stop-color="#FFF6D3"/>
</linearGradient>
<linearGradient id="paint2_linear_1021_1888" x1="34.3394" y1="24.8974" x2="26.3289" y2="31.3685" gradientUnits="userSpaceOnUse">
<stop stop-color="#C5C6CD"/>
<stop offset="1" stop-color="#565D72"/>
</linearGradient>
<radialGradient id="paint3_radial_1021_1888" cx="0" cy="0" r="1" gradientUnits="userSpaceOnUse" gradientTransform="translate(3.89633 47.9853) rotate(-35.9421) scale(16.37 12.995)">
<stop stop-color="#FFCA00"/>
<stop offset="1" stop-color="#FF5C00"/>
</radialGradient>
<clipPath id="clip0_1021_1888">
<rect width="60" height="60" fill="white"/>
</clipPath>
</defs>
</svg>
