<svg width="64" height="65" viewBox="0 0 64 65" fill="none" xmlns="http://www.w3.org/2000/svg">
<rect x="23.9141" y="0.748047" width="40.186" height="46.1395" rx="4.75684" transform="rotate(9.40889 23.9141 0.748047)" fill="#0E5A6F"/>
<path d="M39.4265 28.0185C42.6386 28.5508 45.4057 29.9653 47.3374 31.6325C48.3015 32.4644 49.0905 33.3886 49.6137 34.3375C50.1286 35.27 50.445 36.3362 50.2702 37.3913C50.0825 38.5241 49.3835 39.3256 48.4844 39.8309C47.6337 40.3098 46.5768 40.5451 45.4782 40.6496C43.2701 40.858 40.4154 40.5792 37.4272 40.084C34.439 39.5889 31.6467 38.9333 29.6241 38.0224C28.6179 37.5692 27.6934 37.0055 27.0426 36.2778C26.3534 35.508 25.9515 34.5254 26.1392 33.3925C26.314 32.3375 26.9575 31.4303 27.7459 30.7125C28.547 29.9843 29.5903 29.3652 30.773 28.8863C33.1388 27.9339 36.2158 27.4865 39.4265 28.0185ZM41.8702 13.2718C43.648 13.5664 45.2359 14.5551 46.2846 16.0205C47.3334 17.4859 47.7571 19.3079 47.4625 21.0856C47.1679 22.8634 46.1792 24.4513 44.7138 25.5001C43.2484 26.5488 41.4264 26.9725 39.6487 26.6779C37.8709 26.3833 36.283 25.3946 35.2342 23.9292C34.1855 22.4639 33.7618 20.6419 34.0564 18.8641C34.351 17.0864 35.3397 15.4984 36.8051 14.4497C38.2705 13.4009 40.0924 12.9772 41.8702 13.2718Z" fill="#4194AB"/>
<rect y="18.5381" width="40.186" height="46.1395" rx="4.75684" fill="#CFF5FF"/>
<path d="M19.7613 42.9049C23.0172 42.9049 25.9782 43.8479 28.1565 45.1769C29.2436 45.8401 30.1731 46.6228 30.8444 47.4734C31.5048 48.3092 31.9913 49.3093 31.9913 50.3788C31.9913 51.527 31.4328 52.432 30.6284 53.0775C29.8674 53.689 28.8632 54.094 27.7964 54.3766C25.6521 54.9433 22.7903 55.1349 19.7613 55.1349C16.7323 55.1349 13.8705 54.9446 11.7262 54.3766C10.6594 54.094 9.6552 53.689 8.89422 53.0775C8.0884 52.4307 7.53125 51.527 7.53125 50.3788C7.53125 49.3093 8.01773 48.3092 8.67816 47.4721C9.34945 46.6228 10.2776 45.8414 11.366 45.1756C13.5444 43.8493 16.5067 42.9049 19.7613 42.9049ZM19.7613 27.957C21.5633 27.957 23.2915 28.6729 24.5657 29.9471C25.8399 31.2213 26.5558 32.9495 26.5558 34.7515C26.5558 36.5535 25.8399 38.2817 24.5657 39.5559C23.2915 40.8301 21.5633 41.546 19.7613 41.546C17.9593 41.546 16.2311 40.8301 14.9569 39.5559C13.6827 38.2817 12.9668 36.5535 12.9668 34.7515C12.9668 32.9495 13.6827 31.2213 14.9569 29.9471C16.2311 28.6729 17.9593 27.957 19.7613 27.957Z" fill="#5CDBFE"/>
</svg>
