<svg width="64" height="64" viewBox="0 0 64 64" fill="none" xmlns="http://www.w3.org/2000/svg">
<path d="M14.6128 44.245L25.2416 4.57765C25.8007 2.4912 27.9453 1.25301 30.0317 1.81207L46.8515 6.31891C47.8681 6.59132 48.7321 7.262 49.2481 8.17937L58.9782 25.4783C59.4792 26.3692 59.6117 27.4207 59.3471 28.408L52.3912 54.3677C51.8322 56.4541 49.6876 57.6923 47.6011 57.1333L17.3784 49.0351C15.2919 48.4761 14.0537 46.3315 14.6128 44.245Z" fill="#8C3D87"/>
<path d="M4.79883 59.3782V18.3115C4.79883 16.1515 6.54989 14.4004 8.70994 14.4004H26.123C27.1755 14.4004 28.1836 14.8246 28.9195 15.5772L42.7953 29.7684C43.5098 30.4991 43.9099 31.4806 43.9099 32.5027V59.3782C43.9099 61.5382 42.1589 63.2893 39.9988 63.2893H8.70994C6.54989 63.2893 4.79883 61.5382 4.79883 59.3782Z" fill="white"/>
<path d="M12.6191 43.7344H36.0858" stroke="#DA7CD4" stroke-width="2.34667" stroke-linecap="round"/>
<path d="M12.6191 49.6006H36.0858" stroke="#DA7CD4" stroke-width="2.34667" stroke-linecap="round"/>
<path d="M12.6191 55.4668H26.308" stroke="#DA7CD4" stroke-width="2.34667" stroke-linecap="round"/>
</svg>
