<svg width="98" height="36" viewBox="0 0 98 36" fill="none" xmlns="http://www.w3.org/2000/svg">
<path d="M17.3186 25.2962C19.0239 27.656 23.3111 31.4299 26.8176 27.6476C30.3242 23.8652 26.0327 19.5157 23.4486 17.8137C21.0733 16.1921 17.013 12.2042 19.774 9.22594C22.5351 6.24768 26.1991 8.76964 27.686 10.4029" stroke="#D9D9D9" stroke-width="3.82034"/>
<path d="M76.5168 8.15381H82.3196M88.1223 8.15381H82.3196M82.3196 8.15381V29.7064" stroke="#D9D9D9" stroke-width="3.82034"/>
<path fill-rule="evenodd" clip-rule="evenodd" d="M43.6769 23.0181C47.9758 23.0181 51.4608 19.5331 51.4608 15.2342C51.4608 15.0446 51.4541 14.8566 51.4408 14.6704C50.1819 13.7954 48.6524 13.2825 47.0032 13.2825C42.7042 13.2825 39.2192 16.7675 39.2192 21.0664C39.2192 21.256 39.226 21.444 39.2393 21.6302C40.4981 22.5052 42.0276 23.0181 43.6769 23.0181Z" fill="#A5949A"/>
<path fill-rule="evenodd" clip-rule="evenodd" d="M43.7151 23.0184C39.4787 23.0184 36.0445 19.5841 36.0445 15.3478C36.0445 15.1611 36.0512 14.9759 36.0643 14.7925C37.3049 13.9301 38.8121 13.4246 40.4375 13.4246C44.6738 13.4246 48.108 16.8588 48.108 21.0951C48.108 21.2819 48.1014 21.467 48.0883 21.6504C46.8477 22.5128 45.3404 23.0184 43.7151 23.0184Z" fill="#A5949A"/>
<path fill-rule="evenodd" clip-rule="evenodd" d="M40.2765 24.9291C38.1462 21.1951 39.4463 16.4411 43.1803 14.3108C43.3451 14.2168 43.5118 14.1295 43.6803 14.0488C45.064 14.7086 46.2673 15.7828 47.0845 17.2153C49.2148 20.9493 47.9147 25.7033 44.1807 27.8336C44.0159 27.9276 43.8492 28.0149 43.6808 28.0956C42.297 27.4358 41.0937 26.3615 40.2765 24.9291Z" fill="#A5949A"/>
<path fill-rule="evenodd" clip-rule="evenodd" d="M48.0859 21.6492C46.8323 22.5125 45.3132 23.0179 43.6761 23.0179C42.0417 23.0179 40.5249 22.5142 39.2726 21.6535C39.0571 18.7524 40.4843 15.848 43.1794 14.3104C43.3441 14.2164 43.5109 14.1291 43.6793 14.0483C45.063 14.7082 46.2664 15.7824 47.0836 17.2148C47.8816 18.6137 48.1983 20.1556 48.0859 21.6492Z" fill="#F91A50"/>
<path fill-rule="evenodd" clip-rule="evenodd" d="M43.6798 21.9585C44.9189 21.9585 46.0796 21.6233 47.0764 21.0387C47.0661 18.5474 45.7009 16.3759 43.6795 15.2228C41.6582 16.3758 40.2931 18.5472 40.2827 21.0384C41.2796 21.6232 42.4405 21.9585 43.6798 21.9585ZM39.2594 20.3012C39.4852 17.9885 40.7232 15.9726 42.5245 14.7019C41.8433 14.4696 41.1128 14.3435 40.3529 14.3435C39.1138 14.3435 37.9531 14.6786 36.9563 15.2632C36.9646 17.2729 37.8546 19.0744 39.2594 20.3012ZM43.6795 14.0277C42.6708 13.5502 41.543 13.2831 40.3529 13.2831C39.1791 13.2831 38.066 13.5429 37.0679 14.0082C37.6445 10.8806 40.3855 8.51133 43.6798 8.51133C46.9743 8.51133 49.7154 10.8808 50.2918 14.0085C49.2936 13.543 48.1802 13.2831 47.0062 13.2831C45.816 13.2831 44.6882 13.5502 43.6795 14.0277ZM44.8345 14.7019C45.5158 14.4696 46.2462 14.3435 47.0062 14.3435C48.2455 14.3435 49.4064 14.6788 50.4033 15.2636C50.3949 17.2734 49.5048 19.075 48.0997 20.3017C47.874 17.9888 46.636 15.9727 44.8345 14.7019ZM51.4266 16.0008C51.1989 18.3325 49.9423 20.3627 48.1167 21.6314C47.945 24.0283 46.688 26.1248 44.8345 27.4322C45.5158 27.6646 46.2462 27.7906 47.0062 27.7906C50.7195 27.7906 53.7297 24.7804 53.7297 21.0671C53.7297 19.046 52.838 17.2333 51.4266 16.0008ZM43.6795 28.1064C42.6708 28.5839 41.543 28.851 40.3529 28.851C36.0539 28.851 32.5689 25.366 32.5689 21.0671C32.5689 18.417 33.8931 16.0763 35.916 14.6706C36.2051 10.635 39.5706 7.45093 43.6798 7.45093C47.7892 7.45093 51.1548 10.6353 51.4437 14.671C53.4662 16.0768 54.7901 18.4173 54.7901 21.0671C54.7901 25.366 51.3051 28.851 47.0062 28.851C45.816 28.851 44.6882 28.5839 43.6795 28.1064ZM42.5245 27.4322C41.8433 27.6646 41.1128 27.7906 40.3529 27.7906C36.6395 27.7906 33.6293 24.7804 33.6293 21.0671C33.6293 19.0458 34.5212 17.2328 35.933 16.0002C36.1606 18.332 37.4169 20.3621 39.2423 21.6309C39.4139 24.028 40.6709 26.1247 42.5245 27.4322ZM43.6795 26.9113C41.99 25.9475 40.7589 24.2723 40.3942 22.2935C41.3924 22.7589 42.5058 23.0189 43.6798 23.0189C44.8536 23.0189 45.9667 22.7591 46.9648 22.2938C46.6 24.2724 45.3689 25.9476 43.6795 26.9113Z" fill="black"/>
<path d="M60.7202 29.6688V18.4168M60.7202 18.4168V8.08105H67.7C69.2951 8.08105 72.4853 9.09791 72.4853 13.1653C72.4853 17.2327 69.2951 18.3611 67.7 18.4168H60.7202Z" stroke="#D9D9D9" stroke-width="3.82034"/>
</svg>
