<svg width="98" height="36" viewBox="0 0 98 36" fill="none" xmlns="http://www.w3.org/2000/svg">
<path d="M28.3228 11.8676L24.829 7.20766C24.8023 7.17226 24.7678 7.14352 24.7282 7.12371C24.6885 7.10391 24.6448 7.09357 24.6005 7.09351H13.5085C11.9006 7.10471 10.8256 8.07766 10.8256 9.46919V12.2882H28.2928C28.3249 12.2883 28.3564 12.2793 28.3837 12.2625C28.411 12.2456 28.4331 12.2215 28.4475 12.1928C28.4618 12.164 28.4679 12.1319 28.465 12.0999C28.4621 12.0679 28.4504 12.0374 28.4312 12.0117L28.3228 11.8676Z" fill="white"/>
<path d="M88.211 7.09351H80.6959V12.2882H84.5317C84.8519 12.2882 85.0074 12.2072 85.1871 11.9549L88.316 7.4193L88.353 7.36561C88.3713 7.3397 88.3821 7.30925 88.3842 7.2776C88.3863 7.24595 88.3797 7.21432 88.365 7.1862C88.3503 7.15808 88.3282 7.13455 88.301 7.1182C88.2739 7.10184 88.2427 7.0933 88.211 7.09351Z" fill="white"/>
<path d="M67.23 13.9892V9.37593C67.23 9.37593 67.2219 8.49368 66.522 7.80456C66.0732 7.36148 65.3402 7.00024 64.1426 7.00024H49.9428C49.8862 7.00027 49.8309 7.01697 49.7837 7.04826C49.7366 7.07955 49.6996 7.12403 49.6776 7.17617C49.6702 7.19352 49.6646 7.21161 49.6609 7.23012C49.6569 7.24924 49.6549 7.26872 49.6549 7.28825V7.46834V7.69875V11.4931V11.7276V12.1968H61.2129C61.2318 12.1968 61.2506 12.2 61.2684 12.2062C61.2816 12.2106 61.2942 12.2166 61.3059 12.2241L61.3114 12.2278C61.343 12.2497 61.3664 12.2815 61.3778 12.3182C61.3812 12.3292 61.3836 12.3405 61.3849 12.3519C61.3849 12.3579 61.3849 12.3636 61.3849 12.3696V13.0118V15.884V16.3229C61.3849 16.3687 61.3667 16.4127 61.3343 16.4451C61.3019 16.4775 61.258 16.4957 61.2122 16.4957H55.4477C55.4019 16.4957 55.358 16.4775 55.3256 16.4451C55.2932 16.4127 55.275 16.3687 55.275 16.3229V16.018V14.2128V13.5114C55.2745 13.4356 55.2441 13.363 55.1905 13.3093C55.1369 13.2557 55.0643 13.2253 54.9885 13.2247H49.6549V27.218V27.8578V27.9459C49.655 27.9654 49.657 27.9849 49.6609 28.004C49.6646 28.0225 49.6702 28.0406 49.6776 28.058C49.6997 28.1101 49.7367 28.1545 49.7838 28.1858C49.8309 28.217 49.8862 28.2338 49.9428 28.2339H54.9875C55.0441 28.2337 55.0993 28.217 55.1465 28.1857C55.1937 28.1544 55.2307 28.11 55.2529 28.058C55.2601 28.0405 55.2657 28.0225 55.2696 28.004C55.2735 27.9849 55.2754 27.9654 55.2753 27.9459V27.8578V27.0418V21.5875H64.3358C64.358 21.5875 64.3799 21.5875 64.402 21.5875C64.9532 21.5807 65.5161 21.3683 65.9927 21.0287C66.0308 21.0026 66.0685 20.9737 66.1055 20.9447C66.1425 20.9158 66.1787 20.8866 66.2147 20.8564C66.2668 20.811 66.3204 20.7639 66.371 20.7154C66.8919 20.2142 67.241 19.5516 67.2287 18.8784L67.23 13.9892Z" fill="white"/>
<path d="M47.5512 9.53877C47.5207 9.16241 47.4085 8.79723 47.2226 8.46865C47.0367 8.14006 46.7814 7.85596 46.4746 7.63614L46.4277 7.60278C46.4043 7.58662 46.3806 7.57072 46.3566 7.55508L46.3397 7.54439C46.2845 7.50964 46.2279 7.47628 46.1701 7.44431C45.7281 7.20764 45.2343 7.08458 44.733 7.0862H32.6324C31.9437 7.08828 31.3162 7.30748 30.8278 7.68331C30.8041 7.70129 30.7807 7.7198 30.7578 7.73883C30.7244 7.76489 30.6919 7.7946 30.6601 7.82353C30.6283 7.85246 30.6025 7.87566 30.5747 7.90459L30.5731 7.90589C30.1332 8.34201 29.8639 8.92138 29.8141 9.53903C29.8141 9.55545 29.8122 9.57187 29.8122 9.58855V9.59038V12.2887H42.2712C42.2943 12.2887 42.3172 12.2933 42.3384 12.3023L42.3536 12.3096C42.3612 12.3138 42.3685 12.3186 42.3754 12.3239C42.3967 12.34 42.414 12.3608 42.4259 12.3846C42.4378 12.4085 42.444 12.4348 42.4439 12.4615V23.0154C42.444 23.0381 42.4395 23.0606 42.4309 23.0816C42.4222 23.1026 42.4095 23.1216 42.3934 23.1377C42.3774 23.1537 42.3583 23.1665 42.3374 23.1751C42.3164 23.1838 42.2939 23.1883 42.2712 23.1882H35.0794C35.0506 23.1882 35.0224 23.1811 34.9971 23.1674L34.9921 23.1642C34.9794 23.1571 34.9677 23.1484 34.9572 23.1382C34.925 23.1056 34.9069 23.0617 34.9067 23.0159V13.6047C34.9068 13.5632 34.8979 13.5222 34.8806 13.4845C34.8665 13.4536 34.847 13.4253 34.8231 13.4011C34.8165 13.3946 34.8097 13.3884 34.8025 13.3826C34.7512 13.3401 34.6868 13.3168 34.6202 13.3167H29.8013V25.3958C29.799 25.5953 29.8172 25.7945 29.8557 25.9903C29.8576 26.0002 29.8596 26.0101 29.8617 26.02C29.8695 26.0575 29.8781 26.0948 29.8878 26.1316C29.8909 26.1438 29.894 26.1576 29.8974 26.1686C29.9065 26.2025 29.9159 26.2363 29.9263 26.2697C29.9308 26.2843 29.9354 26.2992 29.9401 26.3138C29.9573 26.3659 29.9758 26.418 29.9961 26.4701C30.0301 26.5577 30.0685 26.6435 30.1113 26.7271C30.1214 26.7474 30.1321 26.7675 30.1428 26.7876C30.1535 26.8077 30.1688 26.8342 30.1819 26.8574L30.2115 26.9077C30.2653 26.9965 30.3238 27.0823 30.3869 27.1647C30.4072 27.1908 30.4277 27.2169 30.4491 27.2429C30.7303 27.5846 31.0846 27.8588 31.4858 28.0453C31.8871 28.2318 32.325 28.3258 32.7674 28.3204H44.5898C46.1787 28.3412 47.5725 27.073 47.5546 25.3948V16.4644V11.4727V9.59038C47.5533 9.57317 47.5527 9.55702 47.5512 9.53877Z" fill="white"/>
<path d="M79.6683 7.09351H68.8173C68.7699 7.09418 68.7232 7.10587 68.6811 7.12765C68.6353 7.15225 68.5972 7.18881 68.5706 7.23343C68.544 7.27805 68.5301 7.32905 68.5302 7.38099V12.0002C68.5302 12.0764 68.5604 12.1494 68.6141 12.2034C68.6678 12.2574 68.7407 12.2879 68.8168 12.2882H73.874C73.9108 12.2883 73.9466 12.3002 73.9762 12.322C74.0059 12.3438 74.0278 12.3745 74.0389 12.4097C74.0423 12.4206 74.0446 12.4319 74.0459 12.4433C74.0459 12.4493 74.0459 12.455 74.0459 12.461V27.3024V27.8773V28.0371C74.0459 28.0566 74.0479 28.0761 74.0519 28.0952C74.0555 28.1137 74.0611 28.1318 74.0686 28.1492C74.0907 28.2012 74.1276 28.2457 74.1748 28.2769C74.2219 28.3082 74.2772 28.325 74.3337 28.3251H79.3792C79.4553 28.3251 79.5283 28.2949 79.5823 28.2412C79.6362 28.1875 79.6667 28.1145 79.667 28.0384V7.09351H79.6683Z" fill="white"/>
<path d="M28.4501 24.356C28.4501 24.2955 28.4501 24.2358 28.448 24.1769C28.4451 24.087 28.4394 23.9989 28.4316 23.9137C28.4274 23.8694 28.4222 23.8251 28.4167 23.7813C28.4154 23.7722 28.4144 23.7633 28.4134 23.7552C28.4076 23.7135 28.4016 23.6721 28.3946 23.6306C28.393 23.6205 28.391 23.6101 28.3894 23.5996C28.3829 23.5624 28.3758 23.5248 28.3683 23.4876C28.3665 23.4784 28.3644 23.4693 28.3626 23.4599C28.355 23.4237 28.3467 23.3875 28.3381 23.3512C28.3347 23.3379 28.3316 23.3252 28.3282 23.3111C28.3198 23.2775 28.3112 23.2439 28.3021 23.2105C28.3021 23.2074 28.3003 23.2042 28.2993 23.2009C28.2948 23.1844 28.2899 23.1683 28.2852 23.1519C28.2774 23.1258 28.2696 23.0997 28.2615 23.0737L28.2459 23.0241C28.2334 22.9866 28.2198 22.9491 28.2073 22.9118L28.1922 22.8712C28.1818 22.8435 28.1714 22.8162 28.1607 22.7891L28.1419 22.7421C28.1289 22.7106 28.1159 22.6793 28.1021 22.6483C28.0969 22.6358 28.0914 22.6222 28.0859 22.6113C28.0708 22.5777 28.0552 22.5443 28.0393 22.511L28.0193 22.4698C28.0049 22.4408 27.9903 22.4119 27.9752 22.3832C27.97 22.3728 27.9648 22.3627 27.9593 22.3525C27.9395 22.3152 27.919 22.2782 27.8981 22.2415L27.8794 22.2089C27.8624 22.1797 27.8452 22.151 27.8273 22.1223L27.8083 22.0913C27.7853 22.0546 27.7622 22.0184 27.7382 21.9821L27.7241 21.9613C27.7035 21.9308 27.6827 21.9008 27.6614 21.8708L27.6403 21.8411C27.6144 21.8052 27.5883 21.7695 27.5621 21.7343C27.5345 21.6986 27.5066 21.6634 27.479 21.6282L27.4254 21.5607C27.3762 21.4995 27.3264 21.4387 27.2758 21.3782C27.2331 21.3261 27.1899 21.2771 27.1456 21.2271C27.1079 21.1835 27.0699 21.14 27.0315 21.0967C26.9888 21.0486 26.9454 21.0008 26.9013 20.9534C26.8403 20.8867 26.7788 20.8203 26.7166 20.7543C26.6747 20.7096 26.6325 20.6652 26.59 20.6211C26.5061 20.5342 26.4216 20.4473 26.3365 20.3605C26.2925 20.3151 26.248 20.2698 26.2034 20.2244L25.943 19.958C25.8117 19.8241 25.68 19.6881 25.5478 19.5501C25.131 19.1133 24.5168 18.4904 23.8313 17.8039C23.6411 17.6136 23.4455 17.4184 23.247 17.2211L23.0092 16.9847L22.887 16.8633L22.6479 16.6261C21.1988 15.1902 19.7529 13.776 19.3398 13.3713C19.3182 13.3506 19.2945 13.3323 19.2689 13.3168C19.2056 13.2776 19.1327 13.2567 19.0582 13.2566H11.5147C11.5034 13.2566 11.4922 13.2599 11.4828 13.2662C11.4733 13.2725 11.4659 13.2814 11.4615 13.2919C11.4571 13.3024 11.4559 13.3139 11.4581 13.3251C11.4602 13.3362 11.4656 13.3465 11.4736 13.3546L12.0021 13.8928L12.1323 14.026L15.0169 16.962L20.7842 22.8341C20.8081 22.8583 20.8244 22.8891 20.8309 22.9225C20.8374 22.9559 20.8339 22.9905 20.8208 23.022C20.8078 23.0534 20.7857 23.0802 20.7573 23.0991C20.729 23.118 20.6958 23.1281 20.6617 23.1281H9.2889C9.24312 23.1279 9.19794 23.1386 9.15715 23.1594C9.11636 23.1802 9.08115 23.2105 9.05447 23.2478C9.0361 23.2729 9.02201 23.3009 9.0128 23.3307C9.00993 23.3395 9.00759 23.3489 9.0055 23.3583C9.00174 23.3773 8.99982 23.3967 8.99977 23.4161V27.5681V27.9759C8.99976 27.9858 9.00028 27.9956 9.00133 28.0054C9.00749 28.0668 9.03345 28.1245 9.07531 28.1699C9.08136 28.1768 9.08789 28.1834 9.09485 28.1894C9.14764 28.2373 9.21631 28.264 9.2876 28.2642H24.4475C25.5296 28.2642 26.5848 27.8501 27.3298 27.0653C28.1873 26.1622 28.4402 25.1827 28.4477 24.3547L28.4501 24.356Z" fill="white"/>
</svg>
