<svg width="98" height="36" viewBox="0 0 98 36" fill="none" xmlns="http://www.w3.org/2000/svg">
<path d="M28.7204 12.0903L25.3033 7.51826C25.2772 7.48352 25.2435 7.45532 25.2047 7.43589C25.1659 7.41646 25.1232 7.40631 25.0799 7.40625H14.2314C12.6588 7.41725 11.6074 8.37186 11.6074 9.73715V12.503H28.6911C28.7225 12.5031 28.7533 12.4943 28.78 12.4778C28.8067 12.4612 28.8283 12.4376 28.8423 12.4094C28.8564 12.3812 28.8623 12.3497 28.8595 12.3183C28.8567 12.2869 28.8452 12.2569 28.8264 12.2317L28.7204 12.0903Z" fill="url(#paint0_linear_1408_8348)"/>
<path d="M88.0075 7.40625H80.6574V12.503H84.409C84.7221 12.503 84.8742 12.4235 85.05 12.176L88.1102 7.72591L88.1464 7.67323C88.1643 7.64781 88.1748 7.61793 88.1769 7.58687C88.179 7.55582 88.1725 7.52479 88.1581 7.4972C88.1438 7.46961 88.1221 7.44652 88.0956 7.43047C88.069 7.41443 88.0385 7.40605 88.0075 7.40625Z" fill="url(#paint1_linear_1408_8348)"/>
<path d="M67.3144 14.2625V9.73618C67.3144 9.73618 67.3065 8.87056 66.622 8.19443C66.183 7.7597 65.4661 7.40527 64.2947 7.40527H50.4068C50.3514 7.4053 50.2973 7.42169 50.2512 7.45238C50.2051 7.48308 50.169 7.52673 50.1474 7.57789C50.1401 7.59491 50.1347 7.61265 50.1311 7.63082C50.1272 7.64957 50.1252 7.66869 50.1252 7.68785V7.86455V8.09061V11.8134V12.0436V12.5039H61.4295C61.4479 12.5039 61.4663 12.507 61.4837 12.5131C61.4966 12.5174 61.509 12.5233 61.5204 12.5307L61.5258 12.5343C61.5567 12.5558 61.5795 12.587 61.5907 12.623C61.594 12.6338 61.5964 12.6448 61.5976 12.656C61.5976 12.6619 61.5976 12.6675 61.5976 12.6734V13.3035V16.1216V16.5522C61.5976 16.5972 61.5798 16.6403 61.5481 16.6721C61.5165 16.7039 61.4735 16.7217 61.4287 16.7217H55.7909C55.7461 16.7217 55.7031 16.7039 55.6714 16.6721C55.6397 16.6403 55.6219 16.5972 55.6219 16.5522V16.253V14.4819V13.7937C55.6214 13.7193 55.5917 13.648 55.5393 13.5954C55.4868 13.5428 55.4159 13.513 55.3417 13.5124H50.1252V27.2419V27.8697V27.9561C50.1253 27.9753 50.1272 27.9944 50.1311 28.0131C50.1347 28.0313 50.1401 28.049 50.1474 28.0661C50.1691 28.1172 50.2052 28.1608 50.2513 28.1914C50.2974 28.2221 50.3514 28.2386 50.4068 28.2387H55.3407C55.396 28.2385 55.4501 28.2221 55.4962 28.1914C55.5424 28.1607 55.5785 28.1171 55.6003 28.0661C55.6073 28.049 55.6128 28.0312 55.6166 28.0131C55.6204 27.9944 55.6223 27.9753 55.6222 27.9561V27.8697V27.069V21.7175H64.4838C64.5054 21.7175 64.5268 21.7175 64.5485 21.7175C65.0876 21.7109 65.6381 21.5025 66.1043 21.1692C66.1415 21.1437 66.1784 21.1153 66.2146 21.0869C66.2508 21.0585 66.2862 21.0299 66.3214 21.0002C66.3723 20.9557 66.4248 20.9094 66.4742 20.8619C66.9837 20.3701 67.3251 19.7201 67.3131 19.0595L67.3144 14.2625Z" fill="url(#paint2_linear_1408_8348)"/>
<path d="M47.8763 9.80455C47.8464 9.43529 47.7368 9.07699 47.5549 8.7546C47.3731 8.43221 47.1234 8.15347 46.8234 7.93778L46.7775 7.90505C46.7546 7.88919 46.7314 7.8736 46.708 7.85825L46.6914 7.84777C46.6374 7.81367 46.5821 7.78094 46.5255 7.74957C46.0933 7.51736 45.6103 7.39662 45.12 7.39821H33.2851C32.6116 7.40025 31.9978 7.61532 31.5202 7.98407C31.497 8.00171 31.474 8.01987 31.4516 8.03854C31.419 8.06411 31.3872 8.09326 31.3561 8.12165C31.325 8.15003 31.2998 8.17279 31.2725 8.20118L31.271 8.20245C30.8407 8.63035 30.5774 9.1988 30.5286 9.80481C30.5286 9.82092 30.5268 9.83703 30.5268 9.85339C30.5268 9.85339 30.5268 9.85467 30.5268 9.85518V12.5027H42.7123C42.7349 12.5027 42.7572 12.5072 42.778 12.516L42.7928 12.5231C42.8003 12.5273 42.8074 12.532 42.8142 12.5372C42.835 12.5529 42.8519 12.5733 42.8636 12.5968C42.8752 12.6202 42.8812 12.646 42.8812 12.6722V23.0272C42.8812 23.0494 42.8769 23.0715 42.8684 23.0921C42.8599 23.1127 42.8475 23.1314 42.8318 23.1471C42.8161 23.1629 42.7975 23.1754 42.777 23.1839C42.7565 23.1924 42.7345 23.1967 42.7123 23.1967H35.6784C35.6502 23.1967 35.6226 23.1897 35.5979 23.1762L35.593 23.1732C35.5806 23.1662 35.5691 23.1576 35.5589 23.1476C35.5274 23.1157 35.5096 23.0726 35.5094 23.0277V13.7938C35.5096 13.7531 35.5009 13.7129 35.484 13.6759C35.4701 13.6455 35.4511 13.6179 35.4277 13.5941C35.4213 13.5877 35.4146 13.5816 35.4075 13.5759C35.3574 13.5342 35.2943 13.5113 35.2292 13.5112H30.5161V25.3627C30.5139 25.5584 30.5317 25.7539 30.5694 25.946C30.5712 25.9557 30.5732 25.9654 30.5753 25.9751C30.5829 26.0119 30.5913 26.0485 30.6007 26.0846C30.6038 26.0966 30.6068 26.1101 30.6102 26.1209C30.6191 26.1541 30.6282 26.1874 30.6384 26.2201C30.6428 26.2344 30.6474 26.249 30.6519 26.2633C30.6688 26.3145 30.6868 26.3656 30.7067 26.4167C30.7399 26.5027 30.7775 26.5868 30.8193 26.6689C30.8292 26.6888 30.8397 26.7085 30.8501 26.7282C30.8606 26.7479 30.8756 26.774 30.8884 26.7968L30.9174 26.8461C30.9699 26.9332 31.0272 27.0174 31.0888 27.0982C31.1087 27.1238 31.1288 27.1494 31.1497 27.175C31.4248 27.5102 31.7713 27.7793 32.1637 27.9622C32.5561 28.1452 32.9845 28.2374 33.4171 28.2321H44.9799C46.534 28.2526 47.8972 27.0082 47.8796 25.3616V16.5996V11.702V9.85518C47.8783 9.83831 47.8778 9.82245 47.8763 9.80455Z" fill="url(#paint3_linear_1408_8348)"/>
<path d="M79.6525 7.40625H69.0397C68.9933 7.40691 68.9477 7.41838 68.9064 7.43975C68.8617 7.46388 68.8244 7.49976 68.7984 7.54354C68.7724 7.58731 68.7588 7.63735 68.7589 7.68831V12.2205C68.7589 12.2952 68.7884 12.3669 68.8409 12.4198C68.8935 12.4728 68.9647 12.5027 69.0392 12.503H73.9853C74.0213 12.5032 74.0564 12.5148 74.0854 12.5362C74.1143 12.5576 74.1358 12.5877 74.1466 12.6222C74.1499 12.633 74.1522 12.644 74.1535 12.6552C74.1535 12.6611 74.1535 12.6667 74.1535 12.6726V27.2341V27.7983V27.955C74.1535 27.9742 74.1555 27.9933 74.1593 28.0121C74.1629 28.0302 74.1684 28.048 74.1756 28.065C74.1973 28.1161 74.2334 28.1597 74.2795 28.1904C74.3256 28.2211 74.3797 28.2375 74.435 28.2376H79.3697C79.4441 28.2376 79.5155 28.208 79.5683 28.1553C79.6211 28.1026 79.6509 28.031 79.6512 27.9563V7.40625H79.6525Z" fill="url(#paint4_linear_1408_8348)"/>
<path d="M28.8459 24.4016C28.8459 24.3423 28.8459 24.2838 28.8438 24.226C28.841 24.1377 28.8354 24.0513 28.8278 23.9677C28.8237 23.9242 28.8186 23.8807 28.8133 23.8378C28.812 23.8288 28.811 23.8201 28.8099 23.8122C28.8043 23.7713 28.7985 23.7306 28.7916 23.69C28.7901 23.68 28.788 23.6698 28.7865 23.6595C28.7801 23.623 28.7733 23.5861 28.7659 23.5496C28.7641 23.5406 28.762 23.5317 28.7603 23.5225C28.7529 23.4869 28.7447 23.4514 28.7363 23.4158C28.733 23.4028 28.7299 23.3903 28.7266 23.3765C28.7185 23.3435 28.7101 23.3105 28.7012 23.2777C28.7012 23.2747 28.6994 23.2716 28.6984 23.2683C28.694 23.2522 28.6892 23.2363 28.6846 23.2202C28.677 23.1946 28.6693 23.1691 28.6614 23.1435L28.6461 23.0949C28.6339 23.0581 28.6207 23.0213 28.6084 22.9847L28.5936 22.9448C28.5835 22.9177 28.5733 22.8908 28.5628 22.8642L28.5445 22.8182C28.5317 22.7873 28.519 22.7566 28.5055 22.7262C28.5004 22.7139 28.4951 22.7006 28.4897 22.6898C28.4749 22.6569 28.4596 22.6241 28.4441 22.5914L28.4245 22.551C28.4105 22.5226 28.3962 22.4942 28.3814 22.4661C28.3763 22.4559 28.3712 22.4459 28.3659 22.4359C28.3465 22.3993 28.3264 22.363 28.306 22.327L28.2877 22.295C28.2711 22.2664 28.2543 22.2382 28.2367 22.2101L28.2181 22.1797C28.1957 22.1436 28.173 22.1081 28.1496 22.0725L28.1358 22.0521C28.1157 22.0222 28.0953 21.9927 28.0744 21.9633L28.0538 21.9342C28.0285 21.8989 28.003 21.8639 27.9774 21.8293C27.9504 21.7943 27.9231 21.7598 27.8961 21.7253L27.8436 21.659C27.7956 21.599 27.7468 21.5393 27.6974 21.48C27.6556 21.4289 27.6133 21.3808 27.57 21.3317C27.5332 21.2889 27.496 21.2463 27.4584 21.2038C27.4167 21.1566 27.3742 21.1097 27.3311 21.0632C27.2714 20.9977 27.2112 20.9326 27.1504 20.8678C27.1095 20.824 27.0682 20.7805 27.0266 20.7371C26.9446 20.6519 26.862 20.5667 26.7787 20.4814C26.7357 20.4369 26.6921 20.3924 26.6486 20.3479L26.3938 20.0866C26.2654 19.9552 26.1366 19.8218 26.0073 19.6864C25.5997 19.2578 24.999 18.6466 24.3284 17.9731C24.1425 17.7864 23.9511 17.5948 23.757 17.4013L23.5244 17.1693L23.4049 17.0502L23.1711 16.8174C21.7538 15.4087 20.3397 14.0211 19.9356 13.624C19.9145 13.6037 19.8913 13.5858 19.8663 13.5705C19.8044 13.5321 19.733 13.5116 19.6602 13.5115H12.2823C12.2712 13.5115 12.2604 13.5147 12.2511 13.5209C12.2419 13.527 12.2346 13.5358 12.2303 13.5461C12.226 13.5564 12.2248 13.5677 12.2269 13.5786C12.229 13.5896 12.2343 13.5997 12.2421 13.6076L12.759 14.1357L12.8864 14.2664L15.7076 17.1471L21.3483 22.9085C21.3717 22.9322 21.3876 22.9624 21.394 22.9952C21.4004 23.028 21.397 23.0619 21.3841 23.0928C21.3713 23.1236 21.3497 23.15 21.322 23.1685C21.2943 23.187 21.2618 23.1969 21.2285 23.1969H10.1054C10.0606 23.1967 10.0164 23.2072 9.97656 23.2276C9.93666 23.2481 9.90223 23.2778 9.87613 23.3143C9.85816 23.339 9.84439 23.3665 9.83537 23.3956C9.83257 23.4043 9.83027 23.4135 9.82824 23.4227C9.82456 23.4414 9.82268 23.4605 9.82263 23.4795V27.5532V27.9534C9.82262 27.963 9.82313 27.9727 9.82416 27.9823C9.83018 28.0425 9.85558 28.0991 9.89651 28.1436C9.90243 28.1505 9.90881 28.1569 9.91562 28.1628C9.96725 28.2098 10.0344 28.236 10.1041 28.2362H24.9312C25.9895 28.2362 27.0215 27.8299 27.7501 27.0599C28.5888 26.1738 28.8362 25.2128 28.8436 24.4004L28.8459 24.4016Z" fill="url(#paint5_linear_1408_8348)"/>
<defs>
<linearGradient id="paint0_linear_1408_8348" x1="11.6074" y1="12.5029" x2="28.86" y2="12.5029" gradientUnits="userSpaceOnUse">
<stop stop-color="#DE2E36"/>
<stop offset="1" stop-color="#C03A53"/>
</linearGradient>
<linearGradient id="paint1_linear_1408_8348" x1="80.6574" y1="12.5029" x2="88.4953" y2="7.40625" gradientUnits="userSpaceOnUse">
<stop stop-color="#4F3B88"/>
<stop offset="1" stop-color="#6565A6"/>
</linearGradient>
<linearGradient id="paint2_linear_1408_8348" x1="50.1252" y1="23.5937" x2="67.3147" y2="11.9018" gradientUnits="userSpaceOnUse">
<stop stop-color="#903A68"/>
<stop offset="1" stop-color="#703B7A"/>
</linearGradient>
<linearGradient id="paint3_linear_1408_8348" x1="30.516" y1="22.8956" x2="47.88" y2="15.5663" gradientUnits="userSpaceOnUse">
<stop stop-color="#B93D56"/>
<stop offset="1" stop-color="#973964"/>
</linearGradient>
<linearGradient id="paint4_linear_1408_8348" x1="68.7589" y1="8.70235" x2="79.6523" y2="26.0948" gradientUnits="userSpaceOnUse">
<stop stop-color="#6C3C7D"/>
<stop offset="1" stop-color="#563B85"/>
</linearGradient>
<linearGradient id="paint5_linear_1408_8348" x1="9.82263" y1="20.8739" x2="28.8461" y2="20.8739" gradientUnits="userSpaceOnUse">
<stop stop-color="#E02E34"/>
<stop offset="1" stop-color="#BE364F"/>
</linearGradient>
</defs>
</svg>
