<svg width="98" height="36" viewBox="0 0 98 36" fill="none" xmlns="http://www.w3.org/2000/svg">
<path d="M70.5747 30.2112C70.5736 29.4886 70.5723 28.766 70.5708 28.0434C70.5708 27.5629 70.5737 27.0824 70.5684 26.6022C70.5684 26.5052 70.5955 26.4833 70.6895 26.4836C71.9727 26.4867 73.2561 26.4871 74.5397 26.4848C74.8137 26.4848 75.0855 26.4683 75.3539 26.3953C76.1679 26.1736 76.5945 25.4996 76.5958 24.7446C76.6054 19.629 76.6048 14.5136 76.5938 9.39822C76.5912 8.438 75.9591 7.77173 74.9706 7.68053C74.7284 7.65822 74.4861 7.65896 74.2438 7.65896C57.3462 7.65896 40.4486 7.65896 23.551 7.65896C23.2678 7.65896 22.9875 7.67326 22.7115 7.747C21.8978 7.96407 21.4878 8.61238 21.4132 9.39628C21.4057 9.47632 21.4096 9.55757 21.4096 9.63882C21.4096 13.1554 21.4105 16.6722 21.4122 20.1894C21.4122 20.3048 21.3866 20.3349 21.2683 20.3349C20.1142 20.3298 18.96 20.332 17.8056 20.3318C17.7654 20.3318 17.7252 20.3284 17.6845 20.3267C17.6845 16.0717 17.6845 11.8168 17.6845 7.56194C17.6845 7.5178 17.6796 7.47366 17.6772 7.42951C17.6933 6.92326 17.826 6.42757 18.0648 5.98105C18.7999 4.62524 19.9441 3.91532 21.4919 3.91507C39.8302 3.91168 58.1686 3.9112 76.5071 3.91363C76.7372 3.91013 76.9672 3.92587 77.1947 3.96068C79.0223 4.26992 80.3388 5.81661 80.3393 7.66308C80.3409 13.9368 80.3409 20.2111 80.3393 26.4858C80.3417 26.6796 80.3277 26.8733 80.2976 27.0647C80.0161 28.7244 78.7713 29.9447 77.1091 30.1974C77.0365 30.2083 76.9567 30.1882 76.8911 30.2362H76.7215C76.6873 30.192 76.6394 30.2119 76.5977 30.2119C74.5901 30.2114 72.5825 30.2112 70.5747 30.2112Z" fill="#02BE8C"/>
<path d="M66.0253 13.7169C66.0218 17.924 66.0218 22.1312 66.0253 26.3383V30.1503H69.7199V10.456C69.7221 10.3957 69.7177 10.3353 69.7068 10.276C69.6545 10.0458 69.4638 9.80739 69.0622 9.8086C66.992 9.81515 64.9216 9.812 62.8512 9.812C62.8026 9.81109 62.7541 9.81288 62.7058 9.81734C62.564 9.83151 62.4326 9.89827 62.3376 10.0045C62.2425 10.1108 62.1905 10.2488 62.192 10.3914C62.192 11.2597 62.1936 12.1278 62.192 12.9958C62.192 13.0971 62.2205 13.1962 62.2741 13.282C62.402 13.4948 62.5982 13.5695 62.8369 13.5695C63.8498 13.568 64.8627 13.5714 65.8756 13.5656C65.9997 13.5649 66.0253 13.5969 66.0253 13.7169Z" fill="#02BE8C"/>
<path d="M17.7666 21.1117C17.7312 21.1117 17.6939 21.1224 17.6602 21.1023L17.6592 21.1483C17.6995 21.1893 17.6806 21.2405 17.6806 21.2863C17.6817 23.065 17.6822 24.8436 17.6822 26.6223C17.6822 26.6562 17.6985 26.6972 17.6592 26.7215V26.8185C17.691 26.9781 17.7203 27.1381 17.7549 27.297C18.0769 28.7755 19.288 29.9276 20.7833 30.1806C20.8802 30.1968 20.9812 30.1903 21.0728 30.2342H21.2666C21.2937 30.1857 21.3393 30.2099 21.3751 30.2099H29.7658H42.2422V26.4838H23.5221C23.4087 26.4838 23.2956 26.4818 23.1829 26.4743C22.2177 26.4103 21.652 25.8883 21.4507 25.0329C21.4139 24.8764 21.4173 24.8764 21.5811 24.8764H31.9326C32.1189 24.8764 32.3043 24.874 32.4898 24.8629C33.3099 24.8129 34.0467 24.1532 34.1767 23.3429C34.2528 22.8697 34.1932 22.3916 34.2233 21.9167C34.2293 21.8192 34.2058 21.7244 34.1845 21.6298C34.1077 21.2866 33.9161 21.0043 33.7145 20.7251C33.228 20.0513 32.7609 19.3623 32.1928 18.752C30.8499 17.3165 29.4887 15.8984 28.1094 14.4976C28.0465 14.4297 27.9699 14.3759 27.8846 14.3398C27.7994 14.3037 27.7075 14.2862 27.615 14.2883C26.1095 14.2854 24.6042 14.2828 23.0991 14.2805C22.9923 14.2803 22.8857 14.2924 22.75 14.3007C24.8921 16.5769 27.0151 18.8333 29.1572 21.11H29.0143C25.2651 21.1111 21.5159 21.1117 17.7666 21.1117Z" fill="#02BE8C"/>
<path d="M49.0958 19.5771C49.0958 17.8612 49.095 16.1453 49.0934 14.4294C49.0934 14.3261 49.1145 14.2826 49.2237 14.2914C49.3117 14.2984 49.4011 14.2865 49.4902 14.2863C50.5032 14.283 51.5161 14.2803 52.529 14.278C52.8488 14.278 52.8938 14.3212 52.8853 14.6418C52.8689 15.2431 52.8766 15.8449 52.8747 16.4464C52.8747 16.5312 52.8989 16.5538 52.9825 16.5538C54.4232 16.5512 55.8639 16.5512 57.3048 16.5538C57.3842 16.5538 57.4053 16.5317 57.4051 16.4532C57.4024 15.5123 57.401 14.5717 57.4063 13.6309C57.4063 13.5131 57.3465 13.5257 57.2716 13.5257C54.6002 13.5257 51.9286 13.5257 49.2569 13.5257C49.0963 13.5257 49.0963 13.5257 49.0963 13.3656C49.0963 12.2108 49.098 11.0564 49.0936 9.90161C49.0936 9.78568 49.1215 9.75438 49.239 9.75438C51.7332 9.75729 54.2272 9.75729 56.7211 9.75438C57.5121 9.75438 58.3031 9.74881 59.0954 9.751C59.3248 9.751 59.5545 9.76288 59.772 9.85505C59.914 9.91266 60.0451 9.9942 60.1597 10.0961C60.3869 10.3028 60.602 10.5203 60.8138 10.743C61.0895 11.034 61.1994 11.3782 61.1939 11.7692C61.1728 13.2349 61.1767 14.7003 61.1825 16.1657C61.1854 16.9086 61.1934 17.6516 61.2024 18.3945C61.2078 18.6131 61.1632 18.83 61.072 19.0287C60.7813 19.6506 60.3229 20.0903 59.6535 20.2899C59.4977 20.3331 59.3362 20.3519 59.1746 20.3457C57.1207 20.3098 55.0665 20.336 53.0123 20.3307C52.9033 20.3307 52.8798 20.3605 52.8802 20.465C52.8836 21.8902 52.8803 23.3156 52.8856 24.7406C52.8856 24.8618 52.8512 24.8841 52.7378 24.8837C51.5675 24.8793 50.3972 24.8793 49.2269 24.8837C49.1166 24.8837 49.0956 24.8533 49.0958 24.7493C49.0976 23.0253 49.0976 21.3012 49.0958 19.5771Z" fill="#02BE8C"/>
<path d="M36.7208 14.3035C36.5948 14.5571 36.4853 14.7995 36.4289 15.0597C36.2399 15.9265 36.3804 16.74 36.8269 17.5052C37.2884 18.2962 37.9319 18.9181 38.634 19.4895C39.2113 19.9593 39.855 20.3321 40.4609 20.7599C40.6652 20.9042 40.8708 21.0464 41.0438 21.2302C41.2861 21.4873 41.4402 21.7868 41.4872 22.1378C41.4942 22.1916 41.5078 22.2135 41.5659 22.2166C41.7583 22.2273 41.7566 22.2297 41.7992 22.0468C41.9039 21.5955 42.1655 21.2465 42.5132 20.9527C42.7101 20.7921 42.9191 20.6468 43.1382 20.5181C44.0785 19.9457 44.9719 19.3129 45.7169 18.4914C46.1205 18.0466 46.4679 17.5639 46.6969 17.0039C47.0411 16.1642 47.0215 15.3304 46.653 14.5033C46.6349 14.463 46.6155 14.423 46.6 14.382C46.5794 14.3272 46.5951 14.301 46.6593 14.3015C46.9539 14.3038 47.2485 14.3038 47.5431 14.3015C47.602 14.3015 47.6216 14.3238 47.6226 14.3782C47.6226 14.4385 47.632 14.4994 47.632 14.5591C47.632 17.3852 47.632 20.2113 47.632 23.0374C47.632 23.7468 47.1334 24.5739 46.3238 24.7999C46.0864 24.8661 45.848 24.8812 45.6069 24.8814C43.1775 24.8835 40.748 24.8841 38.3186 24.8831C37.9438 24.8831 37.5675 24.9197 37.1942 24.8664C36.3611 24.7475 35.6563 24.0444 35.5342 23.214C35.5171 23.0942 35.509 22.9733 35.51 22.8523C35.5182 20.0502 35.5342 17.2496 35.5124 14.4466C35.5124 14.327 35.5451 14.2996 35.6599 14.3022C36.0037 14.3085 36.3509 14.3035 36.7208 14.3035Z" fill="#02BE8C"/>
<path d="M34.1844 13.4967H34.0429C30.1134 13.4967 26.1838 13.4977 22.2542 13.4996C22.1353 13.4996 22.1101 13.4691 22.1115 13.3541C22.1181 12.772 22.114 12.1916 22.1157 11.6105C22.1183 10.683 22.7473 9.93064 23.6562 9.77323C23.7958 9.75168 23.937 9.74211 24.0783 9.74462C26.5111 9.74317 28.9439 9.74243 31.3766 9.74243C31.5798 9.74243 31.7227 9.8101 31.8395 9.98497C32.5811 11.0995 33.3312 12.2084 34.0781 13.3192C34.1117 13.3696 34.1403 13.4225 34.1844 13.4967Z" fill="#02BE8C"/>
<path d="M41.5789 9.74365C42.871 9.74365 44.1624 9.74365 45.4532 9.74365C45.7074 9.74365 45.9601 9.75093 46.2099 9.81132C46.9795 9.99687 47.5457 10.6335 47.6104 11.4264C47.6651 12.0948 47.6218 12.7662 47.6324 13.4361C47.6324 13.4846 47.6223 13.5152 47.5663 13.5113C47.1268 13.48 46.6871 13.5355 46.2479 13.5052C45.9392 13.4836 45.6732 13.3527 45.429 13.1744C44.5527 12.5346 43.6292 12.4111 42.6466 12.9129C42.4005 13.0346 42.1717 13.1884 41.9661 13.3704C41.7437 13.5717 41.53 13.5644 41.2969 13.3643C40.9057 13.0272 40.4655 12.781 39.9586 12.6687C39.4711 12.5561 38.9604 12.602 38.5007 12.7999C38.17 12.9408 37.8553 13.1135 37.5868 13.3602C37.4587 13.4781 37.2983 13.5149 37.1278 13.5147C36.6275 13.5147 36.127 13.5106 35.6257 13.5147C35.5414 13.5147 35.5288 13.4834 35.5256 13.4102C35.4983 12.7723 35.5096 12.1344 35.5363 11.4972C35.5709 10.6634 36.1756 9.97528 37.018 9.7941C37.192 9.75932 37.3692 9.74306 37.5466 9.74559C38.8904 9.74462 40.2343 9.74462 41.5782 9.74559L41.5789 9.74365Z" fill="#02BE8C"/>
<path d="M39.9843 17.4502C39.4658 17.6791 38.9416 17.6933 38.4117 17.4926C38.3168 17.4565 38.3168 17.4941 38.3172 17.5671C38.3189 17.7854 38.3155 18.0022 38.3143 18.22H38.1709L38.1692 17.3752C38.1692 17.3471 38.1714 17.319 38.1709 17.2908C38.1709 17.2435 38.1721 17.2038 38.2378 17.2021C38.3034 17.2004 38.3177 17.2355 38.3168 17.292C38.3168 17.3267 38.3051 17.3648 38.3286 17.3978C38.3543 17.228 38.3473 17.1931 38.2853 17.1795C38.1665 17.1536 38.1469 17.1778 38.1457 17.3512C38.0229 17.3066 37.9311 17.213 37.8131 17.1376C37.8131 17.2469 37.7937 17.3425 37.7072 17.4073C37.6522 17.4501 37.5826 17.4696 37.5134 17.4613C37.479 17.4588 37.4455 17.4495 37.4147 17.434C37.3839 17.4184 37.3565 17.397 37.334 17.3708C37.3115 17.3447 37.2943 17.3143 37.2836 17.2815C37.2728 17.2488 37.2686 17.2142 37.2711 17.1797C37.2791 17.0211 37.3901 16.9343 37.604 16.9282C37.5439 16.8414 37.487 16.7601 37.431 16.6787C36.8816 15.8802 37.0589 14.8453 37.6132 14.238C37.7237 14.1167 37.7193 14.1179 37.6147 13.9826C37.5849 13.9442 37.4935 13.9016 37.5485 13.8543C37.6035 13.807 37.6263 13.9057 37.6646 13.9377C37.6913 13.9623 37.7144 13.9906 37.7334 14.0216C37.7702 14.0757 37.8017 14.0536 37.8414 14.0231C37.8812 13.9925 37.8843 13.9651 37.8492 13.9261C37.7847 13.8533 37.7244 13.7781 37.6626 13.7034C37.6445 13.6813 37.6227 13.6571 37.6595 13.6338C37.6888 13.6149 37.7014 13.6437 37.7155 13.6602C37.7709 13.724 37.8264 13.7881 37.8795 13.8543C37.9192 13.9028 37.9521 13.9498 38.0207 13.8856C38.0893 13.8213 38.0091 13.8041 37.9894 13.7728C37.9544 13.7235 37.9162 13.6764 37.8753 13.6319C37.8577 13.6103 37.8322 13.587 37.8661 13.561C37.9001 13.5351 37.9146 13.5732 37.9313 13.5909C38.0018 13.6622 38.0461 13.7898 38.1348 13.8026C38.2143 13.8142 38.3044 13.7262 38.395 13.6908C39.4852 13.2612 40.6747 13.8024 41.0711 14.9071L41.1067 15.0042C41.2213 14.8715 41.3773 14.8004 41.4515 14.6379C41.5038 14.5237 41.6937 14.5263 41.7356 14.6437C41.7894 14.7965 41.9251 14.8666 42.0108 14.9809C42.0566 14.9704 42.0527 14.9358 42.061 14.9134C42.3956 14.0017 43.2178 13.4696 44.1832 13.5482C44.4512 13.5698 44.7031 13.6568 44.9396 13.7842C44.9919 13.8123 45.0213 13.8125 45.0571 13.7621C45.1031 13.7009 45.1522 13.642 45.2041 13.5858C45.2206 13.5669 45.2352 13.5305 45.2703 13.5627C45.3054 13.595 45.2703 13.6139 45.2548 13.6333C45.2126 13.6874 45.1673 13.7391 45.1242 13.7922C45.1 13.8222 45.062 13.8489 45.1177 13.8892C45.1639 13.9224 45.1971 13.9311 45.2357 13.8788C45.2838 13.814 45.3355 13.752 45.3905 13.693C45.4147 13.6687 45.4297 13.5991 45.4762 13.6369C45.5293 13.6806 45.4597 13.7097 45.4382 13.74C45.391 13.8055 45.3395 13.8676 45.2839 13.9261C45.2371 13.9746 45.2664 13.9988 45.3023 14.0323C45.3432 14.0701 45.3689 14.0595 45.3992 14.0202C45.4409 13.9658 45.4862 13.9142 45.5307 13.862C45.546 13.8438 45.5622 13.8218 45.5896 13.8453C45.617 13.8688 45.6027 13.8873 45.5862 13.9071C45.5838 13.9103 45.5806 13.913 45.5785 13.9164C45.53 13.9891 45.4205 14.0447 45.4331 14.1232C45.4457 14.2018 45.5395 14.2591 45.5949 14.3282C45.855 14.6504 46.0078 15.0461 46.0317 15.4597C46.0556 15.8733 45.9494 16.2839 45.7282 16.634C45.6684 16.7294 45.602 16.8203 45.538 16.9142C45.5574 16.9491 45.5886 16.9265 45.6124 16.929C45.6792 16.9343 45.7418 16.9639 45.7883 17.0122C45.8348 17.0605 45.8621 17.1241 45.8651 17.1912C45.8682 17.3246 45.7597 17.4441 45.6204 17.4609C45.5536 17.4681 45.4866 17.4499 45.4327 17.4098C45.3788 17.3698 45.342 17.3108 45.3297 17.2448C45.3231 17.214 45.3175 17.1831 45.3115 17.1526C45.32 17.1611 45.326 17.1596 45.328 17.1482C45.328 17.1448 45.326 17.1409 45.3248 17.1371L45.3125 17.1538C45.1753 17.2164 45.1026 17.3049 45.114 17.474C45.131 17.7211 45.1165 17.9707 45.1155 18.219H44.9701C44.9682 17.969 44.9655 17.7192 44.9651 17.4691C44.9651 17.4087 44.9631 17.3769 44.8866 17.4138C44.3293 17.6806 43.7636 17.7049 43.1895 17.4701C43.1806 17.468 43.1715 17.467 43.1623 17.4672C43.1588 17.4901 43.1538 17.5128 43.1473 17.5351C43.14 17.5585 43.1255 17.5789 43.1058 17.5934C43.0861 17.608 43.0623 17.6158 43.0378 17.6158C43.0156 17.6189 42.9929 17.615 42.9729 17.6049C42.9529 17.5947 42.9365 17.5786 42.9259 17.5588C42.8997 17.5077 42.9002 17.4519 42.9479 17.4157C42.9957 17.3796 42.9886 17.3621 42.9416 17.3345C42.7979 17.2522 42.6649 17.1526 42.5455 17.0379C42.5266 17.0192 42.5051 16.986 42.4767 17.0177C42.4283 17.0726 42.3384 17.0927 42.3338 17.1839C42.3304 17.2201 42.3313 17.2565 42.3364 17.2925C42.3587 17.4138 42.3161 17.4725 42.1889 17.4589C41.825 17.4444 41.4612 17.4444 41.0975 17.4589C40.9487 17.4759 40.9335 17.3908 40.9449 17.2719C40.9492 17.2249 40.9776 17.1671 40.9291 17.1242C40.8564 17.0604 40.7862 16.9947 40.7091 16.9375C40.673 16.9108 40.6568 16.9617 40.6365 16.9809C40.4911 17.1264 40.3375 17.2578 40.1502 17.3461C40.096 17.3813 40.0107 17.3667 39.9843 17.4502ZM41.559 14.8921C41.4459 14.9947 41.3339 15.0985 41.2198 15.1992C41.1837 15.2307 41.1639 15.261 41.1714 15.3119C41.1859 15.4017 41.1934 15.4926 41.207 15.6086C41.2879 15.5031 41.404 15.4613 41.4442 15.3403C41.4669 15.2714 41.5302 15.2467 41.599 15.2484C41.6738 15.2498 41.7351 15.2833 41.7526 15.3595C41.7756 15.4594 41.8553 15.5031 41.9333 15.5741C41.9554 15.4696 41.9382 15.375 41.9723 15.2889C41.9843 15.2901 41.996 15.2926 42.0074 15.2964C42.0372 15.3093 42.0641 15.3578 42.0993 15.3119C42.1344 15.2661 42.0855 15.2472 42.0627 15.2239C41.9561 15.1147 41.8466 15.0083 41.74 14.8991C41.6806 14.838 41.6222 14.8407 41.5593 14.8921H41.559ZM43.9705 16.8892C44.5709 16.9018 45.1399 16.4526 45.2545 15.8632C45.2754 15.7553 45.3166 15.7361 45.4091 15.742C45.4491 15.7449 45.5143 15.7686 45.5278 15.7189C45.5457 15.6528 45.5457 15.583 45.5278 15.5169C45.5121 15.4638 45.4433 15.4955 45.3982 15.4907C45.3418 15.4844 45.2771 15.5103 45.2686 15.4119C45.2533 15.2055 45.1673 15.0238 45.0506 14.8557C45.0108 14.7982 45.0045 14.7563 45.0644 14.7153C45.1569 14.6522 45.1005 14.6066 45.0481 14.5584C44.9997 14.514 44.9592 14.4388 44.8911 14.536C44.8555 14.587 44.8214 14.595 44.764 14.5521C44.5905 14.4225 44.3991 14.3301 44.1794 14.3095C44.114 14.3037 44.0616 14.2877 44.0788 14.2023C44.0989 14.1031 44.0352 14.1009 43.9645 14.1053C43.9013 14.1101 43.8143 14.0798 43.8334 14.1982C43.847 14.2821 43.8065 14.3098 43.7285 14.3195C43.5749 14.3401 43.4359 14.4012 43.3014 14.479C43.2171 14.5276 43.1473 14.6488 43.0591 14.626C42.9709 14.6032 42.9118 14.496 42.8411 14.4252C42.7173 14.3027 42.72 14.3039 42.5988 14.4395C42.5639 14.4788 42.5618 14.5026 42.5988 14.5385C42.6715 14.6078 42.7381 14.684 42.8142 14.7507C42.8903 14.8174 42.9111 14.87 42.8491 14.9622C42.7752 15.0691 42.73 15.1932 42.7178 15.3226C42.7078 15.456 42.6577 15.5166 42.5191 15.4892C42.4915 15.4837 42.4552 15.4769 42.4365 15.5179C42.382 15.636 42.4486 15.7454 42.5794 15.74C42.6582 15.7369 42.6969 15.7512 42.7149 15.8414C42.7723 16.1338 42.9285 16.3975 43.1572 16.5883C43.3859 16.7791 43.6731 16.8853 43.9708 16.8892H43.9705ZM39.1494 16.8892C39.7406 16.8853 40.2735 16.4769 40.4029 15.9042C40.4344 15.764 40.4838 15.7231 40.6132 15.7439C40.6457 15.7492 40.6842 15.7558 40.6995 15.7036C40.7406 15.5639 40.6929 15.4854 40.5541 15.4934C40.4662 15.498 40.433 15.4691 40.4254 15.383C40.4061 15.1902 40.3252 15.0192 40.2154 14.8618C40.1711 14.7987 40.1694 14.7558 40.2314 14.7114C40.3188 14.6493 40.2607 14.6057 40.2113 14.5627C40.1657 14.5232 40.1272 14.4342 40.0555 14.5341C40.0148 14.5909 39.9799 14.5928 39.9191 14.5479C39.7495 14.4225 39.5606 14.3296 39.3447 14.3127C39.2696 14.3066 39.226 14.2816 39.2386 14.1945C39.2563 14.0711 39.1601 14.1155 39.1017 14.1089C39.037 14.1017 38.9762 14.1038 38.9932 14.1984C39.0075 14.2782 38.9745 14.3117 38.8926 14.3224C38.6661 14.352 38.4708 14.4567 38.3 14.6032C38.24 14.6546 38.2109 14.6416 38.1658 14.5926C38.1007 14.5213 38.0205 14.4616 37.9623 14.3859C37.8933 14.2971 37.8555 14.3503 37.8049 14.4002C37.7508 14.4538 37.6944 14.4972 37.7881 14.57C37.8608 14.6268 37.9165 14.7044 37.9875 14.764C38.0585 14.8237 38.073 14.872 38.0188 14.9547C37.941 15.0685 37.8929 15.2 37.8787 15.3372C37.8681 15.4611 37.8235 15.5179 37.6941 15.4929C37.6362 15.4817 37.5972 15.4951 37.5943 15.5724C37.5885 15.7434 37.5841 15.7471 37.7583 15.7441C37.831 15.7429 37.863 15.7623 37.8768 15.839C37.9865 16.4395 38.5389 16.8933 39.1511 16.8892H39.1494ZM42.0397 16.2052C41.9495 16.2731 41.8902 16.3282 41.887 16.4451C41.8829 16.5998 41.7218 16.7182 41.5668 16.7143C41.4047 16.7104 41.2518 16.5804 41.2518 16.4233C41.2518 16.3355 41.2092 16.2945 41.1566 16.2455C41.113 16.205 41.0907 16.197 41.0694 16.2668C41.0418 16.3509 41.0079 16.4327 40.9679 16.5116C40.8579 16.7374 40.8572 16.7361 41.0527 16.8863C41.0798 16.9069 41.0956 16.9207 41.1343 16.8982C41.4725 16.7022 41.8117 16.7022 42.1518 16.8982C42.2308 16.9435 42.2463 16.8497 42.2948 16.8273C42.3275 16.8123 42.3362 16.7859 42.3103 16.7495C42.194 16.5848 42.1111 16.4019 42.0409 16.2055L42.0397 16.2052ZM41.8582 16.2377C42.0162 16.1041 42.0416 16.01 41.9428 15.9025C41.8502 15.8021 41.7504 15.7085 41.6537 15.6115C41.6135 15.5712 41.5719 15.5659 41.5278 15.6059C41.4117 15.7109 41.2884 15.8094 41.1828 15.9244C41.1343 15.9765 41.0883 16.0575 41.1675 16.1356C41.2339 16.2011 41.2925 16.2739 41.3722 16.1475C41.3945 16.1121 41.441 16.0975 41.4859 16.0856C41.6503 16.0432 41.7676 16.1133 41.8594 16.2377H41.8582ZM45.0978 17.1955C44.9386 17.1737 44.9282 17.1875 44.9701 17.3488C44.9704 17.2629 44.9655 17.1732 45.099 17.1955H45.0978ZM41.5946 14.8026L41.6135 14.7931C41.6077 14.7895 41.6019 14.7834 41.5956 14.7832C41.5893 14.783 41.583 14.7885 41.5767 14.7914L41.5946 14.8026Z" fill="#02BE8C"/>
<path d="M73.2002 9.81291C73.9467 9.81291 74.6931 9.81291 75.4395 9.81291C75.488 9.81064 75.5367 9.81267 75.5848 9.81897C75.6856 9.83716 75.7258 9.91357 75.6861 10.0074C75.6707 10.0402 75.6524 10.0716 75.6316 10.1013C74.945 11.1555 74.2586 12.21 73.5723 13.2648C73.4367 13.4743 73.2508 13.5699 73.0057 13.5694C72.3157 13.5682 71.6248 13.5694 70.936 13.5694C70.6707 13.5694 70.5709 13.4683 70.5709 13.2039V10.1644C70.5709 9.91624 70.6736 9.81364 70.9246 9.8134C71.6832 9.81259 72.4418 9.81243 73.2002 9.81291Z" fill="#02BE8C"/>
<path d="M44.2434 18.5331C44.2407 18.6544 44.2373 18.7757 44.2358 18.8957C44.2358 18.9389 44.2358 18.9787 44.175 18.9743C44.1561 18.9731 44.1249 18.9714 44.1266 18.9954C44.1292 19.1339 44.0272 19.0898 43.957 19.091C43.7472 19.0944 43.5374 19.091 43.3271 19.0927C43.2738 19.0927 43.2174 19.1024 43.2302 19.0175C43.2333 18.9969 43.2249 18.9724 43.1992 18.976C43.0902 18.9918 43.1117 18.9151 43.1108 18.8547C43.1108 18.8264 43.1108 18.7982 43.1108 18.7699C43.1108 18.4766 43.0865 18.449 42.7958 18.5086C42.7336 18.5213 42.6335 18.5867 42.6325 18.6862C42.6289 19.1584 42.6308 19.6309 42.6325 20.1031C42.6325 20.1291 42.6185 20.1637 42.6519 20.1788C42.6853 20.1938 42.736 20.1764 42.7328 20.2416C42.7275 20.35 42.7299 20.4587 42.7222 20.5668C42.7205 20.5923 42.6817 20.5841 42.6587 20.5858C42.3309 20.61 42.3309 20.61 42.336 20.286C42.336 20.2353 42.3219 20.1785 42.4087 20.181C42.4455 20.181 42.4329 20.1375 42.4329 20.1123C42.4329 19.6318 42.4329 19.1513 42.4329 18.6709C42.4329 18.6486 42.4423 18.618 42.4145 18.6074C42.3798 18.5943 42.3316 18.6074 42.3345 18.5431C42.3396 18.4344 42.3362 18.3248 42.3437 18.2171C42.3454 18.1929 42.3852 18.2008 42.4084 18.2004C42.469 18.2004 42.5296 18.2052 42.5901 18.2004C42.6907 18.1902 42.7544 18.2101 42.7328 18.3318C42.7234 18.3849 42.7556 18.4034 42.8055 18.3997C42.8256 18.3983 42.846 18.3997 42.8661 18.3997C43.1008 18.3997 43.102 18.3997 43.1105 18.1703C43.1125 18.1201 43.1151 18.0818 43.18 18.0881C43.245 18.0944 43.2261 18.0381 43.2358 18.0042L44.1113 18.0056C44.1174 18.0282 44.1193 18.0682 44.1302 18.0708C44.324 18.1157 44.208 18.2649 44.2305 18.3655H44.0549C44.1733 18.3602 44.2344 18.4143 44.2434 18.5331ZM43.8848 18.482C43.8848 18.4539 43.8791 18.4262 43.8682 18.4004C43.8573 18.3746 43.8414 18.3512 43.8213 18.3317C43.8012 18.3121 43.7774 18.2968 43.7513 18.2866C43.7253 18.2765 43.6974 18.2716 43.6694 18.2724C43.615 18.2758 43.5641 18.3003 43.5274 18.3407C43.4908 18.3811 43.4713 18.4342 43.4732 18.4887C43.4724 18.5167 43.4773 18.5446 43.4874 18.5707C43.4976 18.5967 43.5128 18.6205 43.5323 18.6406C43.5517 18.6607 43.575 18.6767 43.6007 18.6877C43.6264 18.6987 43.6541 18.7045 43.682 18.7046C43.71 18.7033 43.7374 18.6965 43.7628 18.6845C43.7881 18.6726 43.8109 18.6558 43.8297 18.635C43.8485 18.6143 43.8631 18.59 43.8726 18.5636C43.882 18.5372 43.8862 18.5092 43.8848 18.4812V18.482Z" fill="#02BE8C"/>
<path d="M40.1806 18.5351C40.1793 18.6437 40.1781 18.7523 40.1768 18.8608C40.1768 18.8809 40.1838 18.9149 40.1755 18.919C40.0941 18.9607 40.0723 19.0851 39.975 19.0888C39.7327 19.098 39.4924 19.0917 39.2511 19.0922C39.2053 19.0922 39.1585 19.0973 39.1665 19.0272C39.1689 19.0073 39.1651 18.976 39.1447 18.9774C38.9993 18.9869 39.0548 18.878 39.0493 18.8116C39.0415 18.7196 39.0449 18.6267 39.0434 18.5343L39.0689 18.5101H39.2842C39.2877 18.5121 39.2915 18.5134 39.2954 18.514C39.2983 18.514 39.3034 18.5108 39.3039 18.5084C39.3262 18.3844 39.3099 18.3648 39.1827 18.3643C39.1394 18.3643 39.096 18.3643 39.0526 18.366C39.0526 18.2852 39.0526 18.2043 39.0526 18.1235C39.0919 18.113 39.1479 18.1453 39.1648 18.0791L39.1716 18.002H40.0525L40.0576 18.0774C40.0736 18.1477 40.1319 18.1126 40.1719 18.1232C40.1719 18.204 40.1719 18.2848 40.1719 18.3658C40.0697 18.376 39.9633 18.3347 39.8647 18.39C39.8647 18.3971 39.8647 18.4043 39.8647 18.4114L39.8051 18.4419C39.7521 18.2855 39.5982 18.2736 39.5028 18.3274C39.4073 18.3813 39.3892 18.5215 39.4582 18.6132C39.552 18.7376 39.7247 18.6976 39.81 18.5319C39.8204 18.534 39.8311 18.5329 39.8409 18.5288C39.8507 18.5248 39.8591 18.5179 39.865 18.5091H40.153L40.1806 18.5351Z" fill="#02BE8C"/>
<path d="M41.6524 19.0391C41.8539 19.0391 42.0552 19.0413 42.2566 19.0379C42.3196 19.0367 42.3336 19.0571 42.3401 19.1191C42.3784 19.4951 42.1844 19.621 41.9099 19.7012C41.7188 19.7561 41.5155 19.7516 41.327 19.6881C41.0268 19.5911 40.9183 19.416 40.9483 19.1041C40.9549 19.0362 40.9905 19.0398 41.0363 19.0398C41.2417 19.0397 41.4471 19.0394 41.6524 19.0391Z" fill="#02BE8C"/>
<path d="M41.6366 18.6899C41.4838 18.6899 41.3311 18.6874 41.1785 18.6913C41.1145 18.6928 41.0976 18.6719 41.0964 18.6086C41.093 18.4226 41.0898 18.4228 41.281 18.4228C41.5463 18.4228 41.8118 18.4294 42.0766 18.4197C42.1912 18.4155 42.1977 18.4667 42.1936 18.5543C42.1902 18.6324 42.2057 18.7029 42.0824 18.6928C41.9346 18.6809 41.7851 18.6901 41.6366 18.6899Z" fill="#02BE8C"/>
<path d="M41.6444 17.8004C41.7977 17.8004 41.9511 17.8038 42.1047 17.7989C42.1737 17.797 42.1997 17.8193 42.1917 17.8877C42.1882 17.9239 42.1882 17.9604 42.1917 17.9966C42.1955 18.048 42.1762 18.0677 42.1231 18.0674C41.8043 18.0658 41.4855 18.0658 41.1666 18.0674C41.1143 18.0674 41.0998 18.0475 41.0961 17.9966C41.0816 17.8004 41.0797 17.8004 41.2696 17.8004H41.6444Z" fill="#02BE8C"/>
<path d="M41.6433 18.9939C41.4904 18.9939 41.3378 18.9912 41.1851 18.9954C41.1197 18.9971 41.0955 18.9808 41.0955 18.91C41.0955 18.7298 41.0911 18.7298 41.2716 18.7298C41.5449 18.7298 41.8182 18.7327 42.0912 18.7281C42.1692 18.7269 42.1944 18.7472 42.1925 18.8278C42.1886 18.9939 42.1925 18.9939 42.0289 18.9939H41.6433Z" fill="#02BE8C"/>
<path d="M42.19 17.4946C42.1943 17.7546 42.1943 17.7546 41.9395 17.7546C41.7021 17.7546 41.4646 17.7488 41.2275 17.7573C41.1213 17.7612 41.0789 17.733 41.0964 17.6254C41.1009 17.5813 41.1023 17.5369 41.1008 17.4927L42.19 17.4946Z" fill="#02BE8C"/>
<path d="M41.657 18.1153C41.8065 18.1153 41.9557 18.1187 42.1049 18.1138C42.1754 18.1114 42.1919 18.1381 42.1922 18.2036C42.1922 18.376 42.1963 18.376 42.0199 18.376C41.7454 18.376 41.4707 18.3699 41.1962 18.3789C41.0719 18.3828 41.0993 18.3079 41.0974 18.2397C41.0954 18.1716 41.0853 18.1053 41.1967 18.1126C41.3498 18.1228 41.5036 18.1153 41.657 18.1153Z" fill="#02BE8C"/>
<path d="M43.4961 19.5126C43.494 19.6044 43.4559 19.6916 43.3901 19.7555C43.3243 19.8194 43.236 19.8548 43.1443 19.8541C43.0546 19.8521 42.969 19.8157 42.9052 19.7526C42.8413 19.6895 42.804 19.6043 42.8008 19.5145C42.7984 19.3297 42.9607 19.1663 43.1472 19.1655C43.2391 19.1664 43.327 19.2032 43.3922 19.268C43.4573 19.3329 43.4946 19.4206 43.4961 19.5126ZM43.3466 19.5126C43.345 19.4599 43.323 19.4099 43.2852 19.3731C43.2475 19.3363 43.197 19.3156 43.1443 19.3154C43.0935 19.3173 43.0453 19.3383 43.0093 19.3743C42.9734 19.4103 42.9524 19.4586 42.9505 19.5095C42.9505 19.5356 42.9557 19.5615 42.966 19.5856C42.9762 19.6097 42.9912 19.6314 43.0101 19.6496C43.0289 19.6677 43.0512 19.6818 43.0757 19.6911C43.1001 19.7003 43.1262 19.7046 43.1523 19.7035C43.2032 19.7036 43.2522 19.6837 43.2886 19.6479C43.3249 19.6122 43.3458 19.5636 43.3466 19.5126Z" fill="#02BE8C"/>
<path d="M40.4853 19.5099C40.4842 19.6016 40.447 19.6891 40.3818 19.7535C40.3166 19.8178 40.2287 19.8538 40.1372 19.8536C40.0477 19.853 39.962 19.8175 39.8981 19.7547C39.8343 19.6919 39.7973 19.6068 39.7951 19.5172C39.7949 19.4257 39.8305 19.3378 39.8943 19.2723C39.958 19.2068 40.0448 19.1688 40.1362 19.1665C40.2277 19.1667 40.3154 19.2028 40.3807 19.267C40.4459 19.3312 40.4835 19.4184 40.4853 19.5099ZM40.1398 19.3159C40.0873 19.3169 40.0373 19.3383 40.0003 19.3755C39.9633 19.4128 39.9421 19.463 39.9414 19.5155C39.9433 19.566 39.9648 19.6138 40.0013 19.6486C40.0378 19.6835 40.0864 19.7028 40.1369 19.7023C40.162 19.7035 40.187 19.6996 40.2105 19.6909C40.2341 19.6822 40.2556 19.6688 40.2739 19.6516C40.2921 19.6344 40.3067 19.6136 40.3168 19.5906C40.3268 19.5676 40.3322 19.5428 40.3324 19.5177C40.3339 19.4916 40.33 19.4654 40.3209 19.4408C40.3119 19.4162 40.2979 19.3938 40.2799 19.3748C40.2618 19.3559 40.2401 19.3408 40.216 19.3306C40.1919 19.3204 40.166 19.3152 40.1398 19.3154V19.3159Z" fill="#02BE8C"/>
<path d="M40.6613 20.206C40.6603 19.6741 40.6593 19.142 40.6581 18.6099H40.8137L40.8093 20.2075H40.6882L40.6613 20.206Z" fill="#02BE8C"/>
<path d="M39.0537 18.3663C39.0971 18.3663 39.1404 18.3644 39.1838 18.3647C39.3105 18.3647 39.3268 18.3848 39.3049 18.5087C39.3049 18.5111 39.2994 18.5141 39.2965 18.5143C39.2925 18.5138 39.2887 18.5125 39.2853 18.5104C39.2982 18.4216 39.2691 18.386 39.1707 18.3865C39.0724 18.387 39.0593 18.4333 39.0699 18.5104L39.0445 18.5347C38.8965 18.5347 38.7485 18.5347 38.6004 18.5364C38.5231 18.5364 38.4396 18.5184 38.3887 18.6033C38.3914 18.5599 38.4432 18.5002 38.379 18.4777C38.3051 18.4517 38.2186 18.4328 38.1467 18.5194V18.2492C38.1492 18.2464 38.1522 18.2441 38.1556 18.2424C38.159 18.2408 38.1628 18.2399 38.1665 18.2397L38.1753 18.2485C38.1753 18.3011 38.1491 18.3656 38.2441 18.3656C38.339 18.3656 38.3143 18.3016 38.3126 18.2485L38.3209 18.2407C38.3829 18.2407 38.4456 18.2388 38.4323 18.3336C38.4275 18.369 38.4565 18.3821 38.488 18.3799C38.6755 18.3727 38.865 18.3962 39.0537 18.3663Z" fill="#02BE8C"/>
<path d="M44.245 18.5335C44.2361 18.4153 44.175 18.3613 44.0553 18.3637H44.231C44.4221 18.3993 44.6152 18.3717 44.8071 18.3794C44.8427 18.3809 44.8613 18.361 44.8555 18.328C44.8395 18.2262 44.9142 18.2463 44.9699 18.2397C44.9941 18.3215 44.9214 18.4563 45.0825 18.4469C45.021 18.5073 44.9171 18.46 44.8543 18.5349L44.245 18.5335Z" fill="#02BE8C"/>
<path d="M40.6621 20.2047H40.6887C40.721 20.2388 40.7533 20.2388 40.7856 20.2047H40.8099C40.8886 20.1976 40.9187 20.2253 40.9179 20.3121C40.916 20.5949 40.8937 20.6172 40.6081 20.5753C40.5964 20.5736 40.5775 20.5753 40.5739 20.5692C40.517 20.469 40.5548 20.3604 40.5509 20.2556C40.5485 20.1777 40.6243 20.2221 40.6621 20.2047ZM40.6643 20.4244C40.7021 20.4596 40.742 20.4511 40.7827 20.4227H40.6657V20.2791C40.6512 20.3291 40.6199 20.3805 40.6643 20.4246V20.4244ZM40.8324 20.2912C40.8292 20.2847 40.8261 20.2786 40.8229 20.2726C40.8193 20.2784 40.8133 20.2842 40.813 20.29C40.8128 20.2959 40.8184 20.3022 40.8215 20.3085L40.8324 20.2912Z" fill="#02BE8C"/>
<path d="M44.8541 18.5349C44.9169 18.46 45.0208 18.5073 45.0823 18.4469C44.9215 18.4563 44.9929 18.3215 44.9697 18.2397L45.1242 18.2419L45.1933 18.2482C45.202 18.2548 45.2107 18.2613 45.2197 18.2676C45.2302 18.3725 45.2302 18.4781 45.2197 18.5829L45.193 18.6024C45.1058 18.6036 45.0186 18.6023 44.9316 18.607C44.8737 18.6116 44.8522 18.589 44.8541 18.5349Z" fill="#02BE8C"/>
<path d="M40.8151 18.6084H40.6595C40.6074 18.6046 40.5384 18.6269 40.5444 18.5332C40.5558 18.4442 40.5265 18.3974 40.4274 18.412C40.384 18.418 40.34 18.418 40.2966 18.412C40.1963 18.3977 40.1696 18.4469 40.1813 18.5349L40.1546 18.5107C40.1694 18.4219 40.1411 18.377 40.0425 18.3894C39.9837 18.3935 39.9247 18.3943 39.8658 18.3918C39.9644 18.3356 40.0708 18.3768 40.173 18.3676C40.2993 18.3898 40.4284 18.3898 40.5546 18.3676C40.887 18.3596 40.8277 18.3504 40.8352 18.6038C40.8324 18.606 40.8291 18.6076 40.8256 18.6084C40.8221 18.6092 40.8185 18.6092 40.8151 18.6084ZM40.7269 18.4144C40.6755 18.4076 40.6668 18.4421 40.6658 18.4872C40.6658 18.5388 40.6886 18.5563 40.7385 18.5573C40.7986 18.5585 40.8129 18.5282 40.8112 18.4755C40.8095 18.4229 40.7777 18.412 40.7264 18.4154L40.7269 18.4144Z" fill="#02BE8C"/>
<path d="M38.1459 18.2489V18.5191C38.2186 18.4325 38.3044 18.4515 38.3783 18.4774C38.4425 18.5 38.3906 18.5596 38.3879 18.603C38.3078 18.6042 38.2273 18.603 38.1474 18.6074C38.0822 18.6118 38.0505 18.5946 38.0563 18.522C38.0612 18.4539 38.0612 18.3855 38.0563 18.3173C38.0519 18.2448 38.0895 18.237 38.1459 18.2489Z" fill="#02BE8C"/>
<path d="M40.8347 18.6025C40.8272 18.3491 40.8865 18.3583 40.5541 18.3663C40.5321 18.278 40.5529 18.2307 40.6573 18.2428C40.7323 18.2483 40.8075 18.25 40.8826 18.2479L40.9085 18.2676C40.9187 18.3724 40.9187 18.478 40.9085 18.5829L40.8824 18.6025H40.8347Z" fill="#02BE8C"/>
<path d="M39.9853 17.449C40.0117 17.3656 40.0977 17.3801 40.1549 17.3464C40.1348 17.3743 40.1549 17.3857 40.1743 17.4022C40.2264 17.4452 40.247 17.498 40.208 17.5611C40.1958 17.5822 40.1771 17.5989 40.1547 17.6085C40.1323 17.6181 40.1074 17.6202 40.0837 17.6145C40.0127 17.6018 39.9819 17.5562 39.9868 17.4854C39.9863 17.4733 39.9856 17.4612 39.9853 17.449Z" fill="#02BE8C"/>
<path d="M37.2376 16.7224C37.3118 16.7358 37.3571 16.7741 37.3508 16.8534C37.345 16.9261 37.2977 16.9611 37.2296 16.9586C37.1616 16.9562 37.1146 16.9128 37.1148 16.8432C37.1139 16.767 37.165 16.7304 37.2376 16.7224Z" fill="#02BE8C"/>
<path d="M46.0212 16.8419C46.0178 16.9203 45.9727 16.9588 45.9056 16.9588C45.831 16.9588 45.7816 16.9127 45.7845 16.8376C45.7874 16.7624 45.8407 16.7199 45.9143 16.725C45.9292 16.725 45.944 16.728 45.9576 16.734C45.9713 16.74 45.9836 16.7488 45.9936 16.7598C46.0037 16.7708 46.0113 16.7838 46.0161 16.7979C46.0208 16.8121 46.0226 16.8271 46.0212 16.8419Z" fill="#02BE8C"/>
<path d="M40.181 18.5356C40.1694 18.4475 40.196 18.3983 40.2963 18.4126C40.3397 18.4187 40.3838 18.4187 40.4272 18.4126C40.5262 18.3986 40.5556 18.4454 40.5442 18.5339L40.181 18.5356Z" fill="#02BE8C"/>
<path d="M40.0531 18.003H39.1722C39.1707 17.9572 39.2061 17.9654 39.2315 17.9654C39.4858 17.9654 39.7397 17.9654 39.9935 17.9654C40.0192 17.9657 40.0543 17.9572 40.0531 18.003Z" fill="#02BE8C"/>
<path d="M44.1108 18.004L43.2352 18.0025C43.2335 17.9564 43.2684 17.9656 43.2943 17.9656C43.5478 17.9656 43.8012 17.9656 44.0546 17.9656C44.0793 17.9659 44.1176 17.9554 44.1108 18.004Z" fill="#02BE8C"/>
<path d="M38.1455 17.3507C38.1467 17.1773 38.1663 17.153 38.285 17.179C38.3471 17.1925 38.3541 17.2275 38.3284 17.3972C38.3042 17.3635 38.3161 17.3262 38.3165 17.2915C38.3165 17.235 38.3061 17.1993 38.2376 17.2015C38.169 17.2037 38.17 17.243 38.1707 17.2903C38.1707 17.3184 38.1707 17.3466 38.169 17.3747L38.1455 17.3507Z" fill="#02BE8C"/>
<path d="M39.1657 18.0796C39.1487 18.146 39.0928 18.1136 39.0532 18.1241C39.0673 18.0494 39.1312 18.1017 39.1657 18.0796Z" fill="#02BE8C"/>
<path d="M40.1731 18.1246C40.133 18.1139 40.0744 18.1489 40.0584 18.0786C40.0927 18.1039 40.1585 18.0504 40.1731 18.1246Z" fill="#02BE8C"/>
<path d="M45.125 18.2421L44.9701 18.2399C44.9681 18.2368 44.9673 18.2331 44.9678 18.2294C44.9684 18.2258 44.9702 18.2224 44.973 18.22H45.1187C45.1224 18.2268 45.1245 18.2344 45.125 18.2421Z" fill="#02BE8C"/>
<path d="M38.1716 18.22H38.3154C38.3199 18.2258 38.322 18.2333 38.3212 18.2406L38.3129 18.2484H38.1752L38.1665 18.2397C38.1656 18.2362 38.1656 18.2326 38.1665 18.2292C38.1674 18.2257 38.1691 18.2226 38.1716 18.22Z" fill="#02BE8C"/>
<path d="M40.9091 18.269L40.8826 18.2489C40.8989 18.2457 40.9106 18.2487 40.9091 18.269Z" fill="#02BE8C"/>
<path d="M40.8826 18.6031L40.9093 18.583C40.9106 18.6035 40.8987 18.6065 40.8826 18.6031Z" fill="#02BE8C"/>
<path d="M45.1933 18.6031L45.2209 18.583C45.2222 18.6038 45.2099 18.6066 45.1933 18.6031Z" fill="#02BE8C"/>
<path d="M45.2206 18.269C45.2114 18.2625 45.2024 18.2557 45.1933 18.249C45.2099 18.2457 45.2217 18.2484 45.2206 18.269Z" fill="#02BE8C"/>
<path d="M41.9719 15.289C41.9331 15.1593 41.8105 15.1003 41.7296 15.006C41.6848 14.9536 41.6414 14.891 41.5583 14.8922C41.6209 14.8408 41.6795 14.8381 41.7393 14.8993C41.8459 15.0084 41.9554 15.1149 42.062 15.224C42.0848 15.2483 42.1315 15.2689 42.0986 15.3121C42.0657 15.3552 42.0366 15.3094 42.0068 15.2965C41.9955 15.2928 41.9838 15.2902 41.9719 15.289Z" fill="#02BE8C"/>
<path d="M45.0996 17.1956C44.965 17.1732 44.9706 17.2632 44.9716 17.3493C44.9291 17.1875 44.94 17.1737 45.0996 17.1956Z" fill="#02BE8C"/>
<path d="M39.8658 18.3913C39.9247 18.3938 39.9837 18.393 40.0424 18.3889C40.141 18.3768 40.1694 18.4217 40.1546 18.5102H39.8666C39.8666 18.4777 39.8666 18.4452 39.8666 18.4132C39.8661 18.4056 39.8661 18.3984 39.8658 18.3913Z" fill="#02BE8C"/>
<path d="M39.0687 18.5099C39.0581 18.4328 39.0687 18.3865 39.1695 18.386C39.2703 18.3855 39.2969 18.4212 39.2841 18.5099H39.0687Z" fill="#02BE8C"/>
<path d="M39.8667 18.4126C39.8667 18.4454 39.8667 18.478 39.8667 18.5099C39.8607 18.5187 39.8524 18.5256 39.8426 18.5296C39.8327 18.5337 39.822 18.5348 39.8115 18.5327C39.8101 18.5026 39.8084 18.4727 39.8067 18.4425L39.8667 18.4126Z" fill="#02BE8C"/>
<path d="M40.7858 20.2073C40.7535 20.2414 40.7212 20.2414 40.6889 20.2073H40.7858Z" fill="#02BE8C"/>
<path d="M38.1746 18.249H38.3123C38.314 18.3023 38.3386 18.3662 38.2436 18.3665C38.1486 18.3667 38.1739 18.3018 38.1746 18.249Z" fill="#02BE8C"/>
<path d="M40.6648 20.425C40.6204 20.381 40.6517 20.3294 40.6663 20.2803V20.4233L40.6648 20.425Z" fill="#02BE8C"/>
<path d="M40.666 20.4229H40.7833C40.7425 20.4513 40.7024 20.4598 40.6645 20.4246L40.666 20.4229Z" fill="#02BE8C"/>
<path d="M40.8324 20.2924L40.8212 20.3101C40.8179 20.3037 40.8122 20.2974 40.8124 20.2912C40.8127 20.2849 40.8189 20.2792 40.8227 20.2732C40.8259 20.2799 40.8292 20.2857 40.8324 20.2924Z" fill="#02BE8C"/>
<path d="M40.7257 18.4157C40.7767 18.4118 40.8088 18.4222 40.8103 18.4779C40.8117 18.5336 40.7972 18.5611 40.7374 18.5599C40.6888 18.5599 40.6645 18.5414 40.6645 18.4896C40.666 18.4434 40.6747 18.4088 40.7257 18.4157Z" fill="#02BE8C"/>
<path d="M44.762 15.5889C44.7623 15.6909 44.7423 15.792 44.7032 15.8863C44.6642 15.9806 44.6068 16.0661 44.5345 16.138C44.4621 16.2099 44.3763 16.2667 44.2818 16.3052C44.1874 16.3436 44.0863 16.3629 43.9843 16.3619C43.7787 16.3619 43.5815 16.2801 43.4361 16.1346C43.2908 15.989 43.2091 15.7916 43.2091 15.5857C43.2091 15.1613 43.5674 14.8052 43.9887 14.8096C44.1943 14.8106 44.3912 14.8932 44.5362 15.0393C44.6811 15.1854 44.7623 15.383 44.762 15.5889ZM44.4189 15.5937C44.4199 15.5363 44.4094 15.4792 44.388 15.4258C44.3666 15.3725 44.3348 15.3239 44.2945 15.2831C44.2541 15.2422 44.206 15.2098 44.1529 15.1878C44.0999 15.1658 44.043 15.1547 43.9855 15.155C43.8717 15.1562 43.7628 15.2019 43.6822 15.2824C43.6016 15.3629 43.5556 15.4718 43.5541 15.5857C43.5546 15.6998 43.6 15.8089 43.6804 15.8897C43.7608 15.9705 43.8697 16.0163 43.9836 16.0172C44.04 16.0181 44.096 16.0078 44.1484 15.987C44.2008 15.9662 44.2486 15.9352 44.289 15.8959C44.3294 15.8565 44.3617 15.8096 44.384 15.7578C44.4063 15.7059 44.4182 15.6502 44.4189 15.5937Z" fill="#02BE8C"/>
<path d="M43.9872 16.7415C43.4561 16.7437 42.9653 16.3535 42.8647 15.8492C42.8577 15.8148 42.811 15.7561 42.8911 15.7471C42.9454 15.7413 43.0072 15.7229 43.0302 15.8138C43.1087 16.125 43.2938 16.3564 43.5894 16.4847C44.1398 16.7241 44.7547 16.4468 44.9419 15.8385C44.9523 15.8048 44.9349 15.7571 44.9952 15.7442C45.1062 15.7199 45.142 15.7498 45.1113 15.8616C44.9868 16.3156 44.5875 16.7357 43.9872 16.7415Z" fill="#02BE8C"/>
<path d="M43.832 14.5371C43.8416 14.5915 43.823 14.6223 43.7675 14.6317C43.6122 14.6592 43.4678 14.7298 43.3508 14.8357C43.2796 14.8988 43.2554 14.8357 43.2178 14.8032C43.1611 14.7525 43.2144 14.7268 43.2454 14.7018C43.3917 14.5815 43.5651 14.4989 43.7506 14.4612C43.8315 14.445 43.8421 14.4741 43.832 14.5371Z" fill="#02BE8C"/>
<path d="M44.0816 14.5292C44.0687 14.4598 44.0884 14.4388 44.1647 14.4506C44.34 14.4782 44.5067 14.5456 44.6519 14.6478C44.6788 14.6667 44.7422 14.6842 44.6933 14.7356C44.6579 14.7727 44.633 14.8462 44.5511 14.7841C44.4355 14.6951 44.2979 14.6392 44.153 14.6226C44.0908 14.6165 44.0697 14.5879 44.0816 14.5292Z" fill="#02BE8C"/>
<path d="M45.0507 15.4892C44.9892 15.497 44.9589 15.4807 44.9526 15.4218C44.9378 15.2931 44.8907 15.1703 44.8157 15.0647C44.7607 14.9847 44.8274 14.9541 44.8676 14.9192C44.9296 14.8663 44.9386 14.9435 44.9567 14.9709C45.0425 15.0981 45.0997 15.2424 45.1244 15.3939C45.1353 15.4635 45.1292 15.5101 45.0507 15.4892Z" fill="#02BE8C"/>
<path d="M42.9148 15.493C42.8421 15.5073 42.8375 15.4595 42.8506 15.3933C42.8729 15.2713 42.9143 15.1536 42.9731 15.0445C42.9867 15.0202 42.9974 14.9545 43.039 14.9863C43.0807 15.0181 43.1602 15.0435 43.1217 15.1233C43.0704 15.2229 43.0352 15.33 43.0172 15.4406C43.0083 15.5036 42.9666 15.4886 42.9148 15.493Z" fill="#02BE8C"/>
<path d="M39.9252 15.5857C39.9255 15.6877 39.9057 15.7888 39.8669 15.8831C39.828 15.9774 39.7709 16.0631 39.6989 16.1352C39.6268 16.2073 39.5412 16.2645 39.447 16.3034C39.3528 16.3423 39.2519 16.3621 39.15 16.3618C38.9441 16.3622 38.7464 16.281 38.6001 16.1359C38.4539 15.9909 38.3709 15.7937 38.3694 15.5876C38.3718 15.3817 38.4546 15.1849 38.6001 15.0393C38.7455 14.8937 38.9421 14.8108 39.1478 14.8083C39.3535 14.8094 39.5504 14.8916 39.696 15.0372C39.8415 15.1827 39.9239 15.3798 39.9252 15.5857ZM39.5797 15.5869C39.5801 15.5305 39.5693 15.4746 39.5481 15.4223C39.5269 15.3701 39.4956 15.3225 39.456 15.2824C39.4164 15.2423 39.3693 15.2103 39.3173 15.1884C39.2654 15.1665 39.2097 15.155 39.1534 15.1547C39.0961 15.1541 39.0392 15.165 38.9862 15.1867C38.9331 15.2085 38.885 15.2406 38.8446 15.2814C38.8042 15.3221 38.7724 15.3705 38.751 15.4237C38.7297 15.4769 38.7192 15.5339 38.7202 15.5913C38.7204 15.6476 38.7318 15.7034 38.7537 15.7554C38.7755 15.8073 38.8075 15.8544 38.8476 15.8939C38.8878 15.9334 38.9354 15.9646 38.9877 15.9856C39.0399 16.0066 39.0958 16.017 39.1521 16.0162C39.2084 16.0162 39.2641 16.0051 39.3161 15.9835C39.368 15.9619 39.4152 15.9303 39.4549 15.8904C39.4947 15.8505 39.5261 15.8032 39.5475 15.7511C39.569 15.699 39.5799 15.6432 39.5797 15.5869Z" fill="#02BE8C"/>
<path d="M39.1665 16.7409C38.5253 16.7358 38.1342 16.2832 38.0259 15.8544C37.9998 15.7508 38.0325 15.7241 38.134 15.7433C38.1841 15.7525 38.1825 15.7879 38.1921 15.8221C38.3106 16.266 38.7009 16.5718 39.1469 16.5709C39.6007 16.5709 39.9888 16.2674 40.1048 15.8127C40.1291 15.7156 40.1913 15.7421 40.2434 15.7472C40.3197 15.7547 40.279 15.8178 40.2735 15.8517C40.2051 16.2531 39.7647 16.6647 39.3492 16.721C39.2814 16.7302 39.2128 16.7358 39.1665 16.7409Z" fill="#02BE8C"/>
<path d="M38.9812 14.4521C39.0233 14.5686 38.987 14.6282 38.86 14.6493C38.7268 14.6717 38.6112 14.7442 38.5129 14.8339C38.4419 14.8984 38.4186 14.8363 38.3799 14.8034C38.3212 14.7534 38.3728 14.7272 38.4041 14.7017C38.5747 14.5657 38.7631 14.474 38.9812 14.4521Z" fill="#02BE8C"/>
<path d="M39.2416 14.5312C39.2278 14.4528 39.2571 14.4393 39.3346 14.4514C39.5091 14.4799 39.6748 14.5478 39.8191 14.65C39.8492 14.6706 39.9015 14.693 39.8501 14.7398C39.817 14.7701 39.7959 14.8409 39.7261 14.7914C39.6031 14.7 39.4592 14.6411 39.3075 14.62C39.252 14.6139 39.2307 14.5867 39.2416 14.5312Z" fill="#02BE8C"/>
<path d="M40.213 15.4892C40.1534 15.4996 40.1222 15.4811 40.1161 15.4244C40.0998 15.2957 40.0529 15.1729 39.9793 15.0662C39.9245 14.9856 39.9885 14.9548 40.0294 14.9206C40.0924 14.8673 40.1021 14.9449 40.1193 14.973C40.2038 15.1012 40.2615 15.2452 40.2889 15.3963C40.3008 15.4712 40.2908 15.5078 40.213 15.4892Z" fill="#02BE8C"/>
<path d="M38.0871 15.4908C38.0113 15.5039 37.9958 15.4706 38.011 15.3957C38.0333 15.2738 38.0741 15.1561 38.1322 15.0467C38.1469 15.0202 38.1506 14.9497 38.2068 14.9899C38.246 15.0188 38.3175 15.0493 38.2831 15.1204C38.2324 15.2201 38.1968 15.3269 38.1777 15.4372C38.1692 15.4956 38.1327 15.4932 38.0871 15.4908Z" fill="#02BE8C"/>
<path d="M43.6818 15.5829C43.6821 15.5426 43.6904 15.5027 43.7063 15.4657C43.7222 15.4286 43.7453 15.3952 43.7743 15.3672C43.8033 15.3392 43.8376 15.3174 43.8752 15.3029C43.9128 15.2884 43.9529 15.2816 43.9931 15.2829C44.0334 15.2834 44.0731 15.2919 44.1101 15.3079C44.147 15.3239 44.1805 15.3471 44.2085 15.376C44.2365 15.405 44.2585 15.4392 44.2733 15.4767C44.288 15.5142 44.2952 15.5542 44.2945 15.5945C44.291 15.6739 44.2571 15.7488 44.1999 15.8039C44.1428 15.859 44.0666 15.8899 43.9873 15.8904C43.947 15.8907 43.907 15.883 43.8697 15.8676C43.8324 15.8522 43.7985 15.8295 43.77 15.8009C43.7416 15.7723 43.7191 15.7382 43.704 15.7008C43.6888 15.6634 43.6813 15.6233 43.6818 15.5829Z" fill="#02BE8C"/>
<path d="M38.8445 15.5841C38.8441 15.5438 38.8519 15.5038 38.8674 15.4665C38.8829 15.4292 38.9058 15.3955 38.9347 15.3673C38.9636 15.3392 38.9978 15.3172 39.0355 15.3027C39.0731 15.2882 39.1133 15.2814 39.1536 15.2829C39.1939 15.283 39.2338 15.2911 39.2708 15.3069C39.3079 15.3227 39.3415 15.3457 39.3695 15.3747C39.3975 15.4037 39.4193 15.4381 39.4338 15.4757C39.4483 15.5134 39.4551 15.5535 39.4538 15.5938C39.4519 15.6733 39.4191 15.7489 39.3622 15.8045C39.3054 15.86 39.2291 15.891 39.1497 15.891C39.1094 15.8914 39.0694 15.8838 39.0321 15.8685C38.9947 15.8532 38.9609 15.8306 38.9324 15.802C38.904 15.7734 38.8815 15.7394 38.8664 15.702C38.8513 15.6646 38.8438 15.6245 38.8445 15.5841Z" fill="#02BE8C"/>
<path d="M48.1741 26.8787H45.7171V27.4772H46.6441V30.2537H47.2606V27.4772H48.1741V26.8787ZM50.0196 29.0342V30.2717H50.6046V28.9442C50.6046 28.3997 50.2626 27.8822 49.5336 27.8822C49.4256 27.8822 49.1241 27.9452 48.9486 28.1567V26.7797H48.3411V30.2717H48.9486V29.0522C48.9486 28.7732 49.1916 28.4942 49.5246 28.4942C49.9071 28.4942 50.0196 28.7552 50.0196 29.0342ZM52.4907 28.8362H51.3117C51.3612 28.5167 51.6222 28.3727 51.9237 28.3727C52.2297 28.3727 52.4502 28.5437 52.4907 28.8362ZM50.7492 29.0567C50.7492 29.7092 51.1722 30.2672 51.9192 30.2672C52.7202 30.2672 52.9407 29.7272 52.9407 29.7272L52.4052 29.4977C52.4052 29.4977 52.3242 29.7272 51.9237 29.7272C51.5907 29.7272 51.3927 29.5652 51.3117 29.3132H53.0532C53.0532 29.3132 53.0802 28.8542 52.9362 28.4897C52.9227 28.4627 52.6842 27.8372 51.9192 27.8372C51.1722 27.8372 50.7492 28.3952 50.7492 29.0567ZM55.1631 29.6957C54.7896 29.6957 54.5376 29.4212 54.5376 29.0567C54.5376 28.6877 54.7896 28.4132 55.1631 28.4132C55.5366 28.4132 55.7886 28.6877 55.7886 29.0567C55.7886 29.4212 55.5366 29.6957 55.1631 29.6957ZM53.9841 29.0567C53.9841 29.7092 54.4656 30.2717 55.1631 30.2717C55.8966 30.2717 56.3421 29.7092 56.3421 29.0567C56.3421 28.3952 55.8966 27.8372 55.1631 27.8372C54.4656 27.8372 53.9841 28.3952 53.9841 29.0567ZM57.0608 28.2467V27.8372H56.4533V30.2537H57.0608V29.0477C57.0608 28.7552 57.3218 28.4087 57.7538 28.4087V27.8327C57.5783 27.8327 57.2273 27.9497 57.0608 28.2467ZM57.965 27.8282V30.2717H58.5635V27.8282H57.965ZM57.938 26.9687C57.938 27.1487 58.0505 27.2927 58.262 27.2927C58.4735 27.2927 58.586 27.1487 58.586 26.9687C58.586 26.7842 58.4735 26.6402 58.262 26.6402C58.0505 26.6402 57.938 26.7842 57.938 26.9687ZM60.0091 29.6732C59.6176 29.6732 59.4376 29.4032 59.4376 29.0432C59.4376 28.6967 59.6176 28.4267 60.0091 28.4267C60.3196 28.4267 60.5896 28.6967 60.5896 29.0432C60.5896 29.4032 60.3196 29.6732 60.0091 29.6732ZM58.8166 29.0477C58.8166 29.7542 59.2306 30.2627 59.9596 30.2627C60.1441 30.2627 60.4186 30.1997 60.6436 29.9207V30.1997C60.6436 30.5642 60.1711 30.6722 59.9461 30.6722C59.8201 30.6722 59.5321 30.6227 59.3746 30.3797L58.8571 30.7262C59.0821 31.0592 59.5231 31.2617 59.9461 31.2617C60.6256 31.2617 61.2556 30.8702 61.2601 30.1097V27.8282H60.6436V28.1702C60.4456 27.9002 60.1396 27.8372 59.9596 27.8372C59.2306 27.8372 58.8166 28.3502 58.8166 29.0477ZM61.5866 27.8282V30.2717H62.1851V27.8282H61.5866ZM61.5596 26.9687C61.5596 27.1487 61.6721 27.2927 61.8836 27.2927C62.0951 27.2927 62.2076 27.1487 62.2076 26.9687C62.2076 26.7842 62.0951 26.6402 61.8836 26.6402C61.6721 26.6402 61.5596 26.7842 61.5596 26.9687ZM64.2248 28.9937V30.2537H64.8323V28.9847C64.8323 28.1432 64.3598 27.8507 63.7298 27.8507C63.5228 27.8507 63.2528 27.9407 63.1313 28.1657V27.8507H62.5238V30.2537H63.1313V29.0027C63.1178 28.6787 63.3608 28.4402 63.6623 28.4402C64.0583 28.4402 64.2248 28.6652 64.2248 28.9937Z" fill="#02BE8C"/>
</svg>
