<svg width="84" height="31" viewBox="0 0 84 31" fill="none" xmlns="http://www.w3.org/2000/svg">
<path fill-rule="evenodd" clip-rule="evenodd" d="M40.2238 7.38953C40.469 7.56506 40.673 7.79167 40.8216 8.05364C40.9702 8.31561 41.0598 8.60665 41.0842 8.90659C41.0842 8.9197 41.0842 8.93412 41.0842 8.94723V21.561C41.0862 21.8702 41.0261 22.1768 40.9074 22.4626C40.7888 22.7483 40.614 23.0076 40.3933 23.225C40.1727 23.4425 39.9106 23.6138 39.6226 23.7288C39.3345 23.8439 39.0263 23.9003 38.716 23.8949H29.2693C28.9158 23.899 28.5658 23.8239 28.2454 23.675C27.925 23.5261 27.6422 23.3073 27.4181 23.0348C27.401 23.0151 27.3852 22.9941 27.3681 22.9731C27.3182 22.9069 27.2716 22.8382 27.2287 22.7673L27.205 22.728L27.1734 22.6716C27.1642 22.6558 27.1563 22.6401 27.1484 22.6231C27.1142 22.5565 27.0835 22.4882 27.0563 22.4185C27.0405 22.3766 27.0247 22.3359 27.0116 22.2874C27.0075 22.2758 27.0039 22.264 27.001 22.252C26.9918 22.2258 26.9853 22.1995 26.9774 22.172C26.9695 22.1445 26.9774 22.1563 26.9708 22.1484C26.9642 22.1196 26.9563 22.0894 26.951 22.0606C26.9504 22.0527 26.9504 22.0448 26.951 22.037C26.9205 21.8806 26.906 21.7216 26.9076 21.5623V11.921H30.7587C30.812 11.9209 30.8637 11.9395 30.9047 11.9735L30.9205 11.9879C30.9401 12.007 30.9557 12.0297 30.9665 12.0548C30.9814 12.0845 30.989 12.1173 30.9889 12.1505V19.6571C30.9888 19.6728 30.9914 19.6883 30.9968 19.703C31.0032 19.7223 31.014 19.7398 31.0284 19.7542C31.0367 19.7623 31.046 19.7693 31.056 19.7751C31.0762 19.7861 31.0988 19.792 31.1218 19.7922H36.8687C36.9053 19.7919 36.9402 19.7773 36.9661 19.7515C36.979 19.7389 36.9892 19.7238 36.996 19.7071C37.0028 19.6904 37.006 19.6725 37.0056 19.6545V11.2366C37.0063 11.2152 37.0017 11.194 36.9923 11.1749C36.9829 11.1557 36.9689 11.139 36.9516 11.1265L36.9345 11.1146H36.9214C36.9048 11.1073 36.8869 11.1033 36.8687 11.1028H26.9116V8.94854C26.9116 8.93543 26.9116 8.92101 26.9116 8.9079C26.9513 8.41563 27.1664 7.95378 27.5181 7.60588L27.5865 7.54163C27.6115 7.51802 27.6378 7.49574 27.6642 7.47476L27.7194 7.42886C28.1362 7.11609 28.645 6.94923 29.1667 6.95421H38.8344C39.235 6.95233 39.6298 7.05013 39.983 7.23874C40.029 7.26365 40.0751 7.29119 40.1146 7.31872L40.1277 7.32659L40.1856 7.36592L40.2224 7.39215L40.2238 7.38953ZM22.6382 7.04862L25.4301 10.7646L25.5156 10.8799C25.534 10.8994 25.546 10.924 25.5499 10.9505C25.5539 10.9769 25.5496 11.0039 25.5378 11.0279C25.5259 11.0518 25.5069 11.0716 25.4835 11.0845C25.46 11.0975 25.4331 11.1029 25.4064 11.1002H11.4548V8.85283C11.4548 7.74224 12.3126 6.96601 13.5981 6.95683H22.4593C22.4942 6.95744 22.5284 6.96603 22.5595 6.98194C22.5905 6.99786 22.6174 7.02067 22.6382 7.04862ZM67.8573 6.95683H73.8621C73.8873 6.95687 73.912 6.96379 73.9336 6.97685C73.9551 6.9899 73.9727 7.00858 73.9844 7.03087C73.996 7.05316 74.0013 7.07821 73.9997 7.1033C73.9981 7.12838 73.9896 7.15255 73.9752 7.17318L73.9463 7.21645L71.4465 10.8354C71.3934 10.9249 71.3155 10.9973 71.2221 11.0438C71.1288 11.0904 71.0239 11.109 70.9202 11.0976H67.8546L67.8573 6.95683ZM56.958 12.5307V8.85152C56.9285 8.37907 56.7274 7.93348 56.3923 7.59801C56.0331 7.24661 55.4476 6.95683 54.4911 6.95683H43.1512C43.1059 6.95689 43.0617 6.97023 43.0241 6.99518C42.9864 7.02014 42.9569 7.05559 42.9393 7.09713C42.9342 7.11131 42.9298 7.12575 42.9262 7.1404C42.9248 7.15567 42.9248 7.17102 42.9262 7.18629V11.1002H52.161C52.1763 11.1002 52.1914 11.1029 52.2058 11.1081C52.2159 11.1118 52.2256 11.1167 52.2347 11.1225C52.2597 11.1402 52.2781 11.1655 52.2873 11.1946C52.288 11.2038 52.288 11.213 52.2873 11.2222V14.3887C52.2874 14.4243 52.2738 14.4585 52.2493 14.4843C52.2249 14.5102 52.1914 14.5257 52.1558 14.5277H47.5508C47.5141 14.5274 47.479 14.5126 47.4531 14.4865C47.4272 14.4605 47.4127 14.4254 47.4127 14.3887V12.1505C47.4132 12.1174 47.406 12.0846 47.3917 12.0548C47.3734 12.0153 47.344 11.9819 47.3072 11.9586C47.2703 11.9353 47.2274 11.9232 47.1838 11.9237H42.9222V23.6589C42.9209 23.6742 42.9209 23.6895 42.9222 23.7048C42.9259 23.7196 42.9307 23.7341 42.9367 23.7481C42.9539 23.7899 42.9832 23.8257 43.021 23.8507C43.0588 23.8757 43.1032 23.8888 43.1485 23.8884H47.1785C47.2121 23.8884 47.2453 23.8813 47.2759 23.8674C47.3276 23.8428 47.3687 23.8004 47.3917 23.7481C47.3917 23.7336 47.4009 23.7192 47.4048 23.7048C47.4061 23.6895 47.4061 23.6742 47.4048 23.6589V18.5924H54.6964C55.1552 18.5739 55.598 18.4186 55.9673 18.1466L56.0581 18.0797L56.145 18.0089C56.1884 17.9722 56.2292 17.9355 56.2699 17.8962C56.687 17.4963 56.9646 16.9678 56.9554 16.4303V12.5307H56.958ZM67.0363 6.95683H58.3724C58.3459 6.95681 58.3196 6.9617 58.2948 6.97126L58.2632 6.98436C58.2265 7.00422 58.1959 7.0336 58.1746 7.06937C58.1533 7.10515 58.1421 7.146 58.1422 7.1876V10.8708C58.1422 10.9316 58.1664 10.99 58.2096 11.033C58.2528 11.076 58.3114 11.1002 58.3724 11.1002H62.4129C62.4295 11.1005 62.446 11.1036 62.4616 11.1094C62.4815 11.1164 62.4994 11.128 62.5138 11.1433C62.5282 11.1586 62.5387 11.1771 62.5445 11.1973C62.5457 11.2064 62.5457 11.2157 62.5445 11.2248C62.5451 11.2291 62.5451 11.2336 62.5445 11.2379V23.6589C62.5431 23.6742 62.5431 23.6895 62.5445 23.7048C62.5477 23.7196 62.5521 23.734 62.5576 23.7481C62.5803 23.8003 62.6215 23.8423 62.6734 23.8661C62.7033 23.8808 62.7362 23.8885 62.7695 23.8884H66.8007C66.8618 23.8884 66.9204 23.8642 66.9636 23.8212C67.0067 23.7781 67.031 23.7198 67.031 23.6589L67.0363 6.95683ZM25.5327 20.6313C25.5327 20.6772 25.5327 20.7257 25.5327 20.773C25.5286 21.5817 25.2081 22.3569 24.6394 22.9338C24.3408 23.2406 23.9827 23.4836 23.5869 23.6479C23.191 23.8122 22.7657 23.8945 22.3369 23.8897H10.2286C10.2036 23.8897 10.1787 23.8857 10.1549 23.8779C10.1254 23.8673 10.0982 23.8513 10.0747 23.8307L10.0602 23.8149C10.0268 23.7787 10.006 23.7327 10.001 23.6838C10.0003 23.676 10.0003 23.6681 10.001 23.6602V20.0256C9.99968 20.0099 9.99968 19.9941 10.001 19.9784C10.001 19.9718 10.001 19.9639 10.001 19.9574C10.016 19.9109 10.0453 19.8702 10.0847 19.841C10.1241 19.8119 10.1716 19.7957 10.2207 19.7948H19.3069C19.3226 19.7949 19.3382 19.7923 19.3529 19.7869C19.3749 19.7793 19.3947 19.7662 19.4102 19.7489C19.4258 19.7316 19.4367 19.7106 19.442 19.688C19.4472 19.6653 19.4466 19.6417 19.4403 19.6194C19.4339 19.597 19.422 19.5766 19.4055 19.5601L14.8006 14.8765L12.5074 12.5347L12.4034 12.4285L11.9811 11.9997C11.9745 11.9933 11.97 11.9851 11.9682 11.9761C11.9664 11.9671 11.9673 11.9577 11.9708 11.9493C11.9743 11.9408 11.9804 11.9336 11.9881 11.9286C11.9957 11.9235 12.0048 11.9209 12.014 11.921H18.0333C18.0929 11.921 18.1513 11.9378 18.2017 11.9696C18.2222 11.9816 18.2412 11.9962 18.2583 12.0128C18.5885 12.3354 19.7437 13.463 20.9015 14.609L20.9975 14.7034L21.0936 14.7978L21.1909 14.8948L21.3804 15.0837L21.8475 15.5478C22.3948 16.0946 22.8856 16.5968 23.2184 16.9403C23.3237 17.0505 23.4289 17.1593 23.5342 17.2655L23.6723 17.4058L23.7434 17.4779L23.85 17.5867C23.9171 17.6562 23.9815 17.7257 24.0513 17.7952L24.1499 17.8988C24.1999 17.9513 24.2486 18.005 24.2973 18.0575L24.4012 18.1715L24.492 18.2751C24.5275 18.3145 24.5617 18.3551 24.596 18.3957C24.6302 18.4364 24.6762 18.4915 24.7144 18.54L24.7565 18.5937C24.7788 18.6213 24.8012 18.6488 24.8223 18.6777C24.8433 18.7065 24.8657 18.734 24.8854 18.7629L24.9025 18.7865L24.9525 18.8586V18.8678L24.9591 18.8756L25.0143 18.9622L25.0301 18.9871L25.0709 19.0566C25.0765 19.0649 25.0814 19.0737 25.0854 19.0828C25.1025 19.1117 25.1183 19.1405 25.1341 19.1707V19.1772C25.1341 19.1772 25.1407 19.189 25.1433 19.1956L25.1788 19.2638L25.1867 19.2808L25.1946 19.2965C25.2078 19.3241 25.2196 19.3503 25.2314 19.3778C25.2344 19.3823 25.2366 19.3871 25.238 19.3923C25.2405 19.3969 25.2426 19.4018 25.2446 19.4067C25.256 19.4312 25.2665 19.4561 25.2762 19.4814L25.292 19.5181C25.2999 19.5404 25.3091 19.5627 25.317 19.5837C25.3162 19.5894 25.3162 19.5951 25.317 19.6007C25.317 19.6007 25.317 19.6112 25.317 19.6165L25.3485 19.7069L25.3604 19.7463C25.367 19.766 25.3735 19.7869 25.3788 19.8079L25.3906 19.8472C25.3972 19.8748 25.4051 19.901 25.4117 19.9285C25.4123 19.9329 25.4123 19.9373 25.4117 19.9417C25.4117 19.9482 25.4117 19.9535 25.4117 19.96L25.4314 20.0465C25.4307 20.0526 25.4307 20.0588 25.4314 20.0649C25.4314 20.0951 25.4433 20.1239 25.4485 20.1541V20.179L25.4643 20.2786C25.4643 20.2852 25.4643 20.2931 25.4643 20.2996C25.4643 20.335 25.4735 20.3704 25.4775 20.4045C25.5327 20.4884 25.5327 20.5592 25.5327 20.6313Z" fill="url(#paint0_linear_3399_20098)"/>
<defs>
<linearGradient id="paint0_linear_3399_20098" x1="46.2286" y1="31.2455" x2="37.8474" y2="-0.419781" gradientUnits="userSpaceOnUse">
<stop stop-color="#00FFD1"/>
<stop offset="1" stop-color="#8F00FF"/>
</linearGradient>
</defs>
</svg>
