<?xml version="1.0" encoding="utf-8"?>
<!-- Generator: Adobe Illustrator 24.0.3, SVG Export Plug-In . SVG Version: 6.00 Build 0)  -->
<svg version="1.1" id="레이어_1" xmlns="http://www.w3.org/2000/svg" xmlns:xlink="http://www.w3.org/1999/xlink" x="0px"
	 y="0px" viewBox="0 0 84 23.2" style="enable-background:new 0 0 84 23.2;" xml:space="preserve">
<style type="text/css">
	.st0{fill-rule:evenodd;clip-rule:evenodd;fill:url(#SVGID_1_);}
</style>
<title>자산 1</title>
<linearGradient id="SVGID_1_" gradientUnits="userSpaceOnUse" x1="13.1966" y1="6.7961" x2="79.6966" y2="17.8795">
	<stop  offset="0.3742" style="stop-color:#1CECA3"/>
	<stop  offset="0.8398" style="stop-color:#0AD8B7"/>
</linearGradient>
<path class="st0" d="M40.2,3.6c0.2,0.2,0.4,0.4,0.6,0.7c0.1,0.3,0.2,0.6,0.3,0.9c0,0,0,0,0,0v12.6c0,0.3-0.1,0.6-0.2,0.9
	c-0.1,0.3-0.3,0.5-0.5,0.8c-0.2,0.2-0.5,0.4-0.8,0.5c-0.3,0.1-0.6,0.2-0.9,0.2h-9.4c-0.4,0-0.7-0.1-1-0.2c-0.3-0.1-0.6-0.4-0.8-0.6
	c0,0,0,0-0.1-0.1c0-0.1-0.1-0.1-0.1-0.2l0,0l0-0.1c0,0,0,0,0,0c0-0.1-0.1-0.1-0.1-0.2c0,0,0-0.1,0-0.1c0,0,0,0,0,0c0,0,0-0.1,0-0.1
	c0,0,0,0,0,0c0,0,0-0.1,0-0.1c0,0,0,0,0,0c0-0.2,0-0.3,0-0.5V8.1h3.9c0.1,0,0.1,0,0.1,0.1l0,0c0,0,0,0,0,0.1c0,0,0,0.1,0,0.1v7.5
	c0,0,0,0,0,0c0,0,0,0,0,0.1c0,0,0,0,0,0c0,0,0,0,0.1,0h5.7c0,0,0.1,0,0.1,0c0,0,0,0,0,0c0,0,0,0,0-0.1V7.4c0,0,0,0,0-0.1
	c0,0,0,0,0,0l0,0h0c0,0,0,0-0.1,0h-10V5.1c0,0,0,0,0,0c0-0.5,0.3-1,0.6-1.3l0.1-0.1c0,0,0.1,0,0.1-0.1l0.1,0
	c0.4-0.3,0.9-0.5,1.4-0.5h9.7c0.4,0,0.8,0.1,1.1,0.3c0,0,0.1,0.1,0.1,0.1L40.2,3.6L40.2,3.6L40.2,3.6L40.2,3.6z M22.6,3.2l2.8,3.7
	l0.1,0.1c0,0,0,0,0,0.1c0,0,0,0.1,0,0.1c0,0,0,0-0.1,0.1c0,0-0.1,0-0.1,0h-14V5c0-1.1,0.9-1.9,2.1-1.9h8.9
	C22.5,3.1,22.5,3.1,22.6,3.2C22.6,3.2,22.6,3.2,22.6,3.2z M67.9,3.1h6c0,0,0,0,0.1,0c0,0,0,0,0.1,0.1c0,0,0,0,0,0.1c0,0,0,0,0,0.1
	l0,0L71.4,7c-0.1,0.1-0.1,0.2-0.2,0.2c-0.1,0-0.2,0.1-0.3,0.1h-3.1L67.9,3.1z M57,8.7V5c0-0.5-0.2-0.9-0.6-1.3
	c-0.4-0.4-0.9-0.6-1.9-0.6H43.2c0,0-0.1,0-0.1,0c0,0-0.1,0.1-0.1,0.1c0,0,0,0,0,0c0,0,0,0,0,0v3.9h9.2c0,0,0,0,0,0c0,0,0,0,0,0
	c0,0,0,0,0.1,0.1c0,0,0,0,0,0v3.2c0,0,0,0.1,0,0.1c0,0-0.1,0-0.1,0h-4.6c0,0-0.1,0-0.1,0c0,0,0-0.1,0-0.1V8.3c0,0,0-0.1,0-0.1
	c0,0,0-0.1-0.1-0.1c0,0-0.1,0-0.1,0h-4.3v11.7c0,0,0,0,0,0c0,0,0,0,0,0c0,0,0,0.1,0.1,0.1s0.1,0,0.1,0h4c0,0,0.1,0,0.1,0
	c0.1,0,0.1-0.1,0.1-0.1c0,0,0,0,0,0c0,0,0,0,0,0v-5.1h7.3c0.5,0,0.9-0.2,1.3-0.4l0.1-0.1l0.1-0.1c0,0,0.1-0.1,0.1-0.1
	c0.4-0.4,0.7-0.9,0.7-1.5L57,8.7L57,8.7z M67,3.1h-8.7c0,0-0.1,0-0.1,0l0,0c0,0-0.1,0-0.1,0.1c0,0,0,0.1,0,0.1v3.7
	c0,0.1,0,0.1,0.1,0.2c0,0,0.1,0.1,0.2,0.1h4c0,0,0,0,0,0c0,0,0,0,0.1,0c0,0,0,0,0,0.1c0,0,0,0,0,0c0,0,0,0,0,0v12.4c0,0,0,0,0,0
	c0,0,0,0,0,0c0,0.1,0.1,0.1,0.1,0.1c0,0,0.1,0,0.1,0h4c0.1,0,0.1,0,0.2-0.1c0,0,0.1-0.1,0.1-0.2L67,3.1z M25.5,16.8c0,0,0,0.1,0,0.1
	c0,0.8-0.3,1.6-0.9,2.2c-0.3,0.3-0.7,0.5-1.1,0.7c-0.4,0.2-0.8,0.2-1.2,0.2H10.2c0,0,0,0-0.1,0c0,0-0.1,0-0.1,0l0,0
	c0,0-0.1-0.1-0.1-0.1c0,0,0,0,0,0v-3.6c0,0,0,0,0,0c0,0,0,0,0,0c0,0,0-0.1,0.1-0.1c0,0,0.1,0,0.1,0h9.1c0,0,0,0,0,0c0,0,0,0,0.1,0
	c0,0,0,0,0-0.1c0,0,0,0,0-0.1c0,0,0,0,0-0.1l-4.6-4.7l-2.3-2.3l-0.1-0.1L12,8.2c0,0,0,0,0,0c0,0,0,0,0,0c0,0,0,0,0,0c0,0,0,0,0,0h6
	c0.1,0,0.1,0,0.2,0c0,0,0,0,0.1,0c0.3,0.3,1.5,1.5,2.6,2.6l0.1,0.1l0.1,0.1l0.1,0.1l0.2,0.2l0.5,0.5c0.5,0.5,1,1,1.4,1.4
	c0.1,0.1,0.2,0.2,0.3,0.3l0.1,0.1l0.1,0.1l0.1,0.1c0.1,0.1,0.1,0.1,0.2,0.2l0.1,0.1c0,0.1,0.1,0.1,0.1,0.2l0.1,0.1l0.1,0.1
	c0,0,0.1,0.1,0.1,0.1c0,0,0.1,0.1,0.1,0.1l0,0.1c0,0,0,0.1,0.1,0.1c0,0,0,0.1,0.1,0.1l0,0l0,0.1v0l0,0l0.1,0.1l0,0l0,0.1
	c0,0,0,0,0,0c0,0,0,0.1,0,0.1v0c0,0,0,0,0,0l0,0.1l0,0l0,0c0,0,0,0.1,0,0.1c0,0,0,0,0,0c0,0,0,0,0,0c0,0,0,0,0,0.1l0,0
	c0,0,0,0,0,0.1c0,0,0,0,0,0c0,0,0,0,0,0l0,0.1l0,0c0,0,0,0,0,0.1l0,0c0,0,0,0.1,0,0.1c0,0,0,0,0,0c0,0,0,0,0,0l0,0.1c0,0,0,0,0,0
	c0,0,0,0.1,0,0.1v0l0,0.1c0,0,0,0,0,0c0,0,0,0.1,0,0.1C25.5,16.7,25.5,16.7,25.5,16.8z"/>
</svg>
