<svg width="98" height="36" viewBox="0 0 98 36" fill="none" xmlns="http://www.w3.org/2000/svg">
<path fill-rule="evenodd" clip-rule="evenodd" d="M83.5284 14.0886V25.515C83.5284 31.0379 79.0512 35.515 73.5284 35.515H24.4718C18.949 35.515 14.4718 31.0379 14.4718 25.515V14.0886C14.4718 8.56573 18.949 4.08856 24.4718 4.08856H47.9414C48.5945 4.08856 49.0052 3.94161 49.4241 3.44058C49.764 3.03395 50.2569 2.5907 50.7529 2.14454C51.2844 1.66656 51.8196 1.18523 52.1744 0.741996C52.3901 0.472676 52.6676 0.268685 53.0155 0.18711C53.4432 0.086822 54.1293 0.0546167 54.7801 0.433518C55.3911 0.789209 55.9868 1.12494 56.6897 1.04916C57.4221 0.970186 58.672 0.72888 59.3516 0.444548C59.699 0.299236 60.1135 0.230101 60.5659 0.321489C60.98 0.405155 61.3154 0.659845 61.5731 0.970525C61.5987 1.00143 61.6243 1.03223 61.6497 1.06293C62.1889 1.7136 62.6879 2.3158 63.3677 2.82822C63.4691 2.90467 63.5749 2.988 63.6843 3.0742C64.2751 3.53962 64.972 4.08856 65.6577 4.08856H73.5284C79.0512 4.08856 83.5284 8.56572 83.5284 14.0886ZM24.8099 9.67137C22.0024 9.67137 19.7265 11.9473 19.7265 14.7547V24.8488C19.7265 27.6562 22.0024 29.9321 24.8099 29.9321H73.1912C75.9986 29.9321 78.2745 27.6562 78.2745 24.8488V14.7548C78.2745 11.9473 75.9986 9.67137 73.1912 9.67137H24.8099Z" fill="#29ABE2"/>
<path d="M35.7708 14.7099L33.2893 11.3897C33.2704 11.3645 33.2459 11.344 33.2177 11.3299C33.1896 11.3158 33.1586 11.3084 33.1271 11.3083H25.249C24.1069 11.3163 23.3434 12.0096 23.3434 13.001V15.0096H35.7496C35.7724 15.0097 35.7947 15.0033 35.8141 14.9913C35.8335 14.9793 35.8492 14.9621 35.8594 14.9416C35.8696 14.9211 35.8739 14.8982 35.8719 14.8755C35.8698 14.8527 35.8615 14.8309 35.8478 14.8126L35.7708 14.7099Z" fill="#29ABE2"/>
<path d="M77.0996 11.3084H71.762V15.0096H74.4864C74.7137 15.0096 74.8242 14.9519 74.9518 14.7721L77.1741 11.5405L77.2004 11.5022C77.2134 11.4838 77.2211 11.4621 77.2226 11.4395C77.2241 11.417 77.2194 11.3944 77.209 11.3744C77.1985 11.3544 77.1828 11.3376 77.1635 11.3259C77.1442 11.3143 77.1221 11.3082 77.0996 11.3084Z" fill="#29ABE2"/>
<path d="M62.5038 16.2873V13.0003C62.5038 13.0003 62.498 12.3717 62.0009 11.8807C61.6821 11.565 61.1615 11.3076 60.3109 11.3076H50.2254C50.1853 11.3076 50.146 11.3195 50.1125 11.3418C50.079 11.3641 50.0528 11.3958 50.0371 11.433C50.0318 11.4453 50.0279 11.4582 50.0253 11.4714C50.0224 11.485 50.021 11.4989 50.021 11.5128V11.6411V11.8053V14.5088V14.6759V15.0102H58.2301C58.2435 15.0102 58.2568 15.0125 58.2695 15.0169C58.2789 15.02 58.2878 15.0243 58.2962 15.0297L58.3 15.0323C58.3225 15.0479 58.3391 15.0706 58.3472 15.0967C58.3496 15.1045 58.3513 15.1126 58.3522 15.1207C58.3522 15.125 58.3522 15.129 58.3522 15.1333V15.5909V17.6374V17.9501C58.3522 17.9827 58.3393 18.0141 58.3163 18.0371C58.2933 18.0602 58.2621 18.0732 58.2296 18.0732H54.1354C54.1028 18.0732 54.0716 18.0602 54.0486 18.0371C54.0256 18.0141 54.0127 17.9827 54.0127 17.9501V17.7328V16.4466V15.9469C54.0123 15.8928 53.9908 15.8411 53.9527 15.8029C53.9146 15.7647 53.8631 15.743 53.8092 15.7426H50.021V25.7129V26.1688V26.2316C50.021 26.2455 50.0224 26.2594 50.0253 26.273C50.0279 26.2862 50.0318 26.2991 50.0371 26.3114C50.0528 26.3485 50.0791 26.3802 50.1125 26.4025C50.146 26.4248 50.1853 26.4367 50.2254 26.4368H53.8085C53.8486 26.4367 53.8879 26.4247 53.9214 26.4024C53.9549 26.3802 53.9812 26.3485 53.997 26.3114C54.0021 26.299 54.0061 26.2862 54.0088 26.273C54.0116 26.2594 54.0129 26.2455 54.0129 26.2316V26.1688V25.5874V21.7011H60.4481C60.4639 21.7011 60.4794 21.7011 60.4951 21.7011C60.8866 21.6963 61.2864 21.545 61.625 21.303C61.652 21.2844 61.6788 21.2638 61.7051 21.2432C61.7314 21.2226 61.7571 21.2018 61.7826 21.1802C61.8196 21.1479 61.8577 21.1143 61.8936 21.0798C62.2636 20.7227 62.5115 20.2506 62.5028 19.7709L62.5038 16.2873Z" fill="#29ABE2"/>
<path d="M48.8187 13.05C48.797 12.7818 48.7174 12.5216 48.5853 12.2875C48.4533 12.0534 48.272 11.851 48.054 11.6943L48.0207 11.6706C48.0041 11.6591 47.9873 11.6477 47.9702 11.6366L47.9582 11.629C47.919 11.6042 47.8788 11.5804 47.8378 11.5577C47.5239 11.389 47.1731 11.3014 46.8171 11.3025H38.2226C37.7335 11.304 37.2878 11.4602 36.9409 11.728C36.9241 11.7408 36.9074 11.7539 36.8911 11.7675C36.8674 11.7861 36.8443 11.8072 36.8217 11.8279C36.7992 11.8485 36.7809 11.865 36.7611 11.8856L36.7599 11.8865C36.4475 12.1973 36.2562 12.6101 36.2208 13.0502C36.2208 13.0619 36.2195 13.0736 36.2195 13.0855C36.2195 13.0855 36.2195 13.0864 36.2195 13.0868V15.0094H45.0686C45.085 15.0094 45.1012 15.0126 45.1163 15.019L45.1271 15.0242C45.1325 15.0272 45.1377 15.0306 45.1426 15.0344C45.1577 15.0459 45.17 15.0607 45.1784 15.0777C45.1869 15.0947 45.1913 15.1135 45.1912 15.1325V22.6522C45.1913 22.6684 45.1881 22.6844 45.182 22.6994C45.1758 22.7143 45.1668 22.7279 45.1554 22.7393C45.144 22.7508 45.1305 22.7598 45.1156 22.766C45.1007 22.7722 45.0847 22.7754 45.0686 22.7753H39.9606C39.9401 22.7754 39.92 22.7702 39.9021 22.7605L39.8986 22.7583C39.8895 22.7532 39.8812 22.7469 39.8738 22.7397C39.8509 22.7165 39.838 22.6852 39.8379 22.6526V15.947C39.838 15.9174 39.8317 15.8882 39.8194 15.8614C39.8093 15.8393 39.7955 15.8192 39.7785 15.8019C39.7739 15.7973 39.769 15.7929 39.7639 15.7888C39.7275 15.7585 39.6817 15.7419 39.6344 15.7418H36.2118V24.3483C36.2101 24.4904 36.2231 24.6324 36.2504 24.7718C36.2517 24.7789 36.2532 24.786 36.2547 24.793C36.2602 24.8198 36.2664 24.8463 36.2732 24.8725C36.2754 24.8812 36.2776 24.8911 36.28 24.8989C36.2865 24.923 36.2932 24.9472 36.3006 24.9709C36.3037 24.9813 36.3071 24.9919 36.3104 25.0023C36.3226 25.0394 36.3357 25.0766 36.3502 25.1137C36.3743 25.1761 36.4016 25.2372 36.4319 25.2968C36.4391 25.3113 36.4467 25.3256 36.4543 25.3399C36.4619 25.3542 36.4728 25.3732 36.4821 25.3897L36.5032 25.4255C36.5413 25.4888 36.5829 25.5499 36.6277 25.6086C36.6421 25.6272 36.6567 25.6458 36.6719 25.6643C36.8716 25.9078 37.1233 26.1032 37.4082 26.236C37.6932 26.3689 38.0043 26.4359 38.3184 26.432H46.7153C47.8439 26.4469 48.8338 25.5433 48.8211 24.3475V17.9845V14.4279V13.0868C48.8201 13.0745 48.8198 13.063 48.8187 13.05Z" fill="#29ABE2"/>
<path d="M71.032 11.3083H63.325C63.2913 11.3088 63.2582 11.3172 63.2283 11.3327C63.1958 11.3502 63.1687 11.3763 63.1498 11.408C63.131 11.4398 63.121 11.4762 63.1212 11.5132V14.8044C63.1212 14.8587 63.1426 14.9107 63.1807 14.9492C63.2188 14.9877 63.2706 15.0094 63.3247 15.0096H66.9166C66.9427 15.0097 66.9681 15.0182 66.9892 15.0337C67.0102 15.0493 67.0258 15.0711 67.0337 15.0962C67.0361 15.104 67.0377 15.112 67.0387 15.1201C67.0387 15.1244 67.0387 15.1285 67.0387 15.1328V25.7073V26.117V26.2308C67.0387 26.2448 67.0401 26.2586 67.0429 26.2722C67.0455 26.2854 67.0495 26.2983 67.0548 26.3107C67.0705 26.3478 67.0967 26.3795 67.1302 26.4017C67.1637 26.424 67.2029 26.4359 67.2431 26.436H70.8267C70.8807 26.436 70.9326 26.4145 70.9709 26.3763C71.0092 26.338 71.0308 26.286 71.0311 26.2318V11.3083H71.032Z" fill="#29ABE2"/>
<path d="M35.8616 23.6509C35.8616 23.6078 35.8616 23.5652 35.8601 23.5233C35.8581 23.4592 35.854 23.3964 35.8484 23.3357C35.8455 23.3041 35.8418 23.2726 35.8379 23.2414C35.837 23.2349 35.8362 23.2286 35.8355 23.2228C35.8314 23.1931 35.8272 23.1636 35.8222 23.134C35.8211 23.1268 35.8196 23.1194 35.8185 23.1119C35.8138 23.0854 35.8088 23.0586 35.8035 23.0321C35.8022 23.0256 35.8007 23.0191 35.7994 23.0124C35.794 22.9866 35.7881 22.9608 35.782 22.935C35.7796 22.9255 35.7774 22.9164 35.775 22.9064C35.7691 22.8824 35.763 22.8584 35.7565 22.8347C35.7565 22.8324 35.7552 22.8302 35.7545 22.8278C35.7513 22.8161 35.7478 22.8046 35.7445 22.7929C35.7389 22.7743 35.7334 22.7558 35.7276 22.7372L35.7165 22.7019C35.7076 22.6752 35.698 22.6484 35.6891 22.6219L35.6784 22.5929C35.671 22.5732 35.6636 22.5537 35.656 22.5344L35.6427 22.501C35.6335 22.4785 35.6242 22.4562 35.6144 22.4341C35.6107 22.4252 35.6068 22.4155 35.6029 22.4077C35.5922 22.3838 35.5811 22.36 35.5698 22.3362L35.5556 22.3069C35.5454 22.2863 35.535 22.2657 35.5243 22.2453C35.5206 22.2378 35.5169 22.2306 35.513 22.2233C35.499 22.1968 35.4843 22.1704 35.4695 22.1442L35.4562 22.121C35.4442 22.1002 35.432 22.0798 35.4192 22.0594L35.4057 22.0373C35.3894 22.0111 35.373 21.9853 35.3559 21.9595L35.346 21.9446C35.3313 21.9229 35.3165 21.9015 35.3014 21.8802L35.2864 21.859C35.268 21.8334 35.2495 21.808 35.2309 21.7828C35.2113 21.7574 35.1915 21.7323 35.1719 21.7073L35.1338 21.6592C35.0988 21.6156 35.0635 21.5723 35.0276 21.5292C34.9972 21.492 34.9665 21.4571 34.9351 21.4215C34.9083 21.3904 34.8813 21.3594 34.854 21.3286C34.8237 21.2943 34.7928 21.2603 34.7615 21.2265C34.7182 21.1789 34.6745 21.1316 34.6304 21.0846C34.6006 21.0528 34.5707 21.0211 34.5404 20.9897C34.4809 20.9278 34.4209 20.8659 34.3604 20.804C34.3292 20.7717 34.2975 20.7394 34.2659 20.7071L34.0809 20.5173C33.9876 20.4218 33.8941 20.3249 33.8002 20.2266C33.5042 19.9154 33.068 19.4716 32.581 18.9824C32.446 18.8469 32.307 18.7078 32.1661 18.5672L31.9972 18.3988L31.9104 18.3122L31.7405 18.1432C30.7114 17.1202 29.6844 16.1125 29.391 15.8241C29.3757 15.8094 29.3588 15.7964 29.3406 15.7853C29.2957 15.7574 29.2439 15.7425 29.191 15.7424H23.8332C23.8251 15.7424 23.8172 15.7448 23.8105 15.7493C23.8038 15.7537 23.7985 15.7601 23.7954 15.7676C23.7923 15.775 23.7914 15.7833 23.7929 15.7912C23.7945 15.7992 23.7983 15.8065 23.8039 15.8123L24.1793 16.1957L24.2718 16.2906L26.3206 18.3826L30.4168 22.5665C30.4338 22.5838 30.4454 22.6057 30.45 22.6295C30.4547 22.6533 30.4522 22.6779 30.4429 22.7003C30.4336 22.7227 30.4179 22.7419 30.3978 22.7553C30.3777 22.7688 30.354 22.776 30.3299 22.776H22.2523C22.2198 22.7758 22.1877 22.7835 22.1587 22.7983C22.1297 22.8131 22.1047 22.8347 22.0858 22.8612C22.0727 22.8791 22.0627 22.8991 22.0562 22.9203C22.0542 22.9266 22.0525 22.9333 22.051 22.94C22.0483 22.9536 22.047 22.9674 22.0469 22.9812V25.9395V26.2301C22.0469 26.2371 22.0473 26.2441 22.048 26.2511C22.0524 26.2948 22.0709 26.336 22.1006 26.3683C22.1049 26.3732 22.1095 26.3779 22.1145 26.3822C22.152 26.4164 22.2007 26.4353 22.2514 26.4355H33.0188C33.7873 26.4355 34.5367 26.1404 35.0659 25.5813C35.6749 24.9378 35.8545 24.2399 35.8599 23.6499L35.8616 23.6509Z" fill="#29ABE2"/>
</svg>
