<svg width="98" height="36" viewBox="0 0 98 36" fill="none" xmlns="http://www.w3.org/2000/svg">
<path d="M19.79 14.0781C19.8629 14.0782 19.9339 14.099 19.9951 14.1367C20.0198 14.1519 20.0435 14.17 20.0645 14.1904C20.4683 14.5858 21.8758 15.9651 23.2861 17.3652C23.3636 17.4421 23.4421 17.5198 23.5195 17.5967C23.5591 17.6358 23.5984 17.6757 23.6377 17.7148C23.7149 17.7917 23.7934 17.8689 23.8701 17.9453L24.4395 18.5146C25.1066 19.1836 25.7064 19.7911 26.1113 20.2168C26.2397 20.3518 26.3675 20.4848 26.4951 20.6152C26.5802 20.7023 26.6657 20.789 26.75 20.875C26.7932 20.9191 26.8369 20.9637 26.8799 21.0078C26.9623 21.0925 27.0448 21.1775 27.126 21.2627C27.1669 21.3058 27.2093 21.3502 27.25 21.3936C27.3101 21.4576 27.3704 21.5221 27.4297 21.5869C27.4719 21.633 27.514 21.6799 27.5557 21.7266C27.5925 21.768 27.6295 21.8104 27.666 21.8525C27.7082 21.9011 27.7506 21.9507 27.792 22C27.8408 22.0583 27.8897 22.1181 27.9375 22.1777C27.9549 22.1994 27.9731 22.2212 27.9902 22.2432C28.0172 22.2772 28.0439 22.3121 28.0703 22.3467C28.0963 22.3809 28.1225 22.4162 28.1475 22.4512C28.1541 22.4605 28.1613 22.4701 28.168 22.4795C28.1884 22.5086 28.2096 22.5388 28.2295 22.5684C28.2339 22.575 28.2387 22.5822 28.2432 22.5889C28.2663 22.6237 28.2884 22.6598 28.3105 22.6953C28.3168 22.7051 28.3231 22.7156 28.3291 22.7256C28.346 22.7534 28.3635 22.7815 28.3799 22.8096C28.3861 22.8198 28.3915 22.8313 28.3975 22.8418C28.4176 22.8773 28.4379 22.9132 28.457 22.9492C28.462 22.9589 28.4675 22.9698 28.4727 22.9795C28.4873 23.0073 28.5018 23.0364 28.5156 23.0645C28.5221 23.0777 28.5289 23.0913 28.5352 23.1045C28.5505 23.1365 28.5655 23.1696 28.5801 23.2021C28.5853 23.2139 28.5914 23.2265 28.5967 23.2383C28.61 23.2685 28.6225 23.2996 28.6348 23.3301C28.6407 23.3448 28.6474 23.3601 28.6533 23.375C28.6639 23.4012 28.6738 23.4284 28.6836 23.4551C28.6884 23.4681 28.6935 23.4821 28.6982 23.4951C28.7111 23.5312 28.7245 23.5679 28.7363 23.6045C28.7413 23.6202 28.747 23.6366 28.752 23.6523C28.76 23.6773 28.7671 23.7033 28.7744 23.7285C28.7792 23.7441 28.7836 23.7606 28.7881 23.7764C28.7891 23.7793 28.7903 23.7833 28.791 23.7861C28.7998 23.8184 28.8093 23.8513 28.8174 23.8838C28.8204 23.8965 28.8232 23.9099 28.8262 23.9229C28.8345 23.9576 28.8433 23.993 28.8506 24.0283C28.8525 24.037 28.8537 24.047 28.8555 24.0557C28.8628 24.0918 28.8697 24.1286 28.876 24.165C28.8777 24.175 28.8801 24.1853 28.8818 24.1953C28.8886 24.2352 28.8941 24.276 28.8994 24.3164C28.9004 24.3249 28.9023 24.3343 28.9033 24.3428C28.9089 24.3855 28.9139 24.4287 28.918 24.4717C28.9255 24.5546 28.9308 24.641 28.9336 24.7285C28.9356 24.7858 28.9361 24.8445 28.9355 24.9033V24.9053C28.9278 25.7119 28.6818 26.6673 27.8477 27.5479C27.1221 28.3134 26.0941 28.7177 25.041 28.7178H10.2803C10.2487 28.7178 10.2177 28.7117 10.1895 28.7021C10.1536 28.6898 10.1205 28.6696 10.0928 28.6445C10.0863 28.6386 10.0792 28.6315 10.0732 28.625C10.0339 28.5819 10.0074 28.526 10.001 28.4648C10 28.4557 10 28.4459 10 28.4365V23.9883C10 23.969 10.0012 23.9497 10.0049 23.9316C10.0066 23.9226 10.009 23.9131 10.0117 23.9043C10.0206 23.8749 10.0353 23.8476 10.0527 23.8232C10.1037 23.7528 10.186 23.7072 10.2793 23.707H21.3516C21.372 23.707 21.3918 23.7033 21.4092 23.6973C21.518 23.6585 21.5614 23.5119 21.4717 23.4199L15.8564 17.6924L13.0488 14.8291L12.9209 14.6992L12.4072 14.1738C12.3725 14.1382 12.3976 14.0781 12.4473 14.0781H19.79ZM64.2246 8.00684C65.3907 8.00684 66.105 8.36013 66.542 8.79102C67.2152 9.45518 67.2312 10.3033 67.2314 10.3232V19.5908C67.2431 20.2473 66.9046 20.8937 66.3965 21.3828C66.3473 21.4303 66.2963 21.4763 66.2441 21.5205C66.2094 21.55 66.1737 21.5795 66.1377 21.6074C66.1019 21.6355 66.0651 21.6622 66.0283 21.6885C65.5643 22.0194 65.0163 22.2267 64.4795 22.2334C64.4581 22.2339 64.4362 22.2339 64.415 22.2334L64.4141 22.2344H55.5928V28.4346C55.5927 28.454 55.5904 28.473 55.5869 28.4912C55.5834 28.5092 55.5782 28.5265 55.5713 28.543C55.5442 28.6072 55.4935 28.6592 55.4307 28.6885C55.3949 28.705 55.3546 28.7148 55.3125 28.7148H50.4004C50.3584 28.7148 50.3189 28.7052 50.2832 28.6885C50.2203 28.6592 50.1697 28.6073 50.1426 28.543C50.1356 28.5264 50.1295 28.5093 50.126 28.4912C50.1225 28.473 50.1201 28.4537 50.1201 28.4346V14.0762H55.3135C55.4261 14.0763 55.523 14.1429 55.5674 14.2393C55.5838 14.275 55.5937 14.3147 55.5938 14.3564V17.0977C55.5938 17.1907 55.6689 17.2666 55.7617 17.2666H61.374C61.4667 17.2665 61.542 17.1906 61.542 17.0977V13.2412C61.542 13.2356 61.5415 13.23 61.541 13.2246C61.54 13.2134 61.5375 13.2021 61.5342 13.1914C61.523 13.1554 61.5001 13.1246 61.4697 13.1035C61.468 13.1023 61.4666 13.1006 61.4648 13.0996C61.4534 13.0925 61.4407 13.0864 61.4277 13.082C61.4107 13.0763 61.3928 13.0733 61.374 13.0732H50.1201V8.28711C50.1201 8.26763 50.1224 8.24869 50.126 8.23047C50.1295 8.21226 50.1345 8.19444 50.1416 8.17773C50.184 8.07689 50.2843 8.00684 50.4004 8.00684H64.2246ZM79.5156 28.4336C79.5155 28.5884 79.3898 28.7136 79.2354 28.7139H74.3223C74.2806 28.7138 74.2405 28.705 74.2051 28.6885C74.1425 28.6593 74.0916 28.6069 74.0645 28.543C74.0575 28.5264 74.0514 28.5083 74.0479 28.4902C74.0444 28.4722 74.042 28.4526 74.042 28.4336V13.2236C74.0409 13.2128 74.0383 13.2018 74.0352 13.1914C74.0199 13.1421 73.9823 13.1023 73.9346 13.084C73.9161 13.077 73.8957 13.0733 73.875 13.0732H68.9502C68.7959 13.0728 68.67 12.9467 68.6699 12.792V8.28711C68.6701 8.18058 68.7301 8.08755 68.8174 8.04004L68.8184 8.03906C68.8301 8.03262 68.8428 8.02696 68.8555 8.02246C68.885 8.0117 68.9172 8.00596 68.9502 8.00586H79.5156V28.4336ZM45.1377 8C45.6503 8.00153 46.128 8.12717 46.5371 8.34961C46.5933 8.38005 46.6487 8.41205 46.7021 8.44629C46.7075 8.44959 46.7132 8.45347 46.7188 8.45703C46.7421 8.47201 46.7653 8.48817 46.7881 8.50391C46.8031 8.51444 46.818 8.52535 46.833 8.53613C47.3836 8.93625 47.7652 9.5353 47.8652 10.248L47.8818 10.3926C47.8831 10.4094 47.8838 10.4266 47.8838 10.4434V17.1484L47.8828 25.8594C47.9003 27.496 46.5424 28.7332 44.9951 28.7129H33.4844C32.594 28.7245 31.7662 28.3199 31.2275 27.6621C31.2068 27.637 31.1868 27.6109 31.167 27.585C31.1059 27.505 31.0495 27.4208 30.9971 27.334C30.9872 27.3178 30.9771 27.3016 30.9678 27.2852C30.9549 27.2629 30.9421 27.2396 30.9297 27.2168C30.9191 27.1974 30.9095 27.1778 30.8994 27.1582C30.8581 27.0769 30.8206 26.9932 30.7871 26.9072C30.7676 26.857 30.7491 26.8057 30.7324 26.7539C30.7279 26.7398 30.723 26.7251 30.7188 26.7109C30.7089 26.6785 30.6993 26.6455 30.6904 26.6123C30.6872 26.6005 30.6846 26.588 30.6816 26.5762C30.6728 26.5404 30.6638 26.5043 30.6562 26.4678C30.6542 26.4581 30.6522 26.4481 30.6504 26.4385C30.6137 26.2524 30.5957 26.0589 30.5977 25.8594V14.0771H35.29C35.3578 14.0771 35.4203 14.1014 35.4688 14.1416C35.4755 14.1471 35.4821 14.1529 35.4883 14.1592C35.5115 14.1825 35.531 14.2101 35.5449 14.2402C35.5614 14.2761 35.5703 14.3165 35.5703 14.3584V23.5371C35.5703 23.5566 35.574 23.5753 35.5801 23.5928C35.5884 23.6167 35.6024 23.6385 35.6201 23.6562C35.6299 23.666 35.6411 23.6744 35.6533 23.6816C35.6548 23.6827 35.6564 23.6845 35.6582 23.6855C35.682 23.6985 35.7095 23.705 35.7383 23.7051H42.7412C42.7874 23.705 42.829 23.6865 42.8594 23.6562C42.8898 23.6258 42.9091 23.5836 42.9092 23.5371V13.2432C42.9092 13.1885 42.8831 13.1401 42.8428 13.1094C42.836 13.1043 42.8288 13.0988 42.8213 13.0947C42.8166 13.0922 42.8116 13.0899 42.8066 13.0879C42.7867 13.0795 42.7644 13.0743 42.7412 13.0742H30.6104V10.4404C30.6106 10.4246 30.6111 10.4084 30.6123 10.3926C30.6661 9.76193 30.937 9.21263 31.3516 8.7998L31.3525 8.79785C31.3796 8.77094 31.4072 8.74439 31.4355 8.71875C31.4665 8.69054 31.4988 8.6634 31.5312 8.63672C31.5534 8.61827 31.5757 8.59973 31.5986 8.58203C32.0742 8.21546 32.6859 8.00203 33.3564 8H45.1377ZM25.1855 8.00684C25.2729 8.00692 25.3558 8.04817 25.4082 8.11816L28.8096 12.6631L28.915 12.8037C28.9976 12.9147 28.9184 13.074 28.7803 13.0742H11.7744V10.3242C11.7744 8.96701 12.8202 8.01805 14.3857 8.00684H25.1855ZM87.832 8.00586C87.9675 8.00606 88.0474 8.15874 87.9707 8.27051L87.9346 8.32227L84.8887 12.748C84.7137 12.9941 84.5617 13.0732 84.25 13.0732H80.5146V8.00586H87.832Z" fill="#FC6F88"/>
</svg>
