<svg width="5000" height="1040" viewBox="0 0 3700 1040" fill="none" xmlns="http://www.w3.org/2000/svg">
<path d="M943.908 234.335L773.185 6.25875C770.566 2.71432 766.405 0.710938 762.091 0.710938H220.029C141.447 1.32736 88.9053 48.946 88.9053 117.061V254.985H942.367C949.301 254.985 953.307 246.972 949.147 241.424L943.908 234.335Z" fill="#BDEC00"/>
<path d="M3905.68 0.557617H3538.5V254.832H3726.02C3741.74 254.832 3749.29 250.825 3758.07 238.497L3910.92 16.4305L3912.77 13.8107C3916.62 8.26288 3912.77 0.557617 3905.83 0.557617H3905.68Z" fill="#BDEC00"/>
<path d="M2871.94 342.672V116.907C2871.94 116.907 2871.48 73.7571 2837.43 40.0079C2815.55 18.4331 2779.65 0.710938 2721.25 0.710938H2027.57C2021.71 0.710938 2016.78 4.25539 2014.63 9.34088C2014.32 10.1114 2014.01 11.036 2013.86 11.9607C2013.7 12.8853 2013.55 13.81 2013.55 14.7346V254.985H2578.26C2579.18 254.985 2580.11 255.14 2581.03 255.448C2581.65 255.602 2582.27 255.91 2582.88 256.372C2582.88 256.372 2583.04 256.372 2583.19 256.527C2584.73 257.605 2585.81 259.146 2586.43 260.996C2586.58 261.458 2586.73 262.074 2586.73 262.691C2586.73 262.999 2586.73 263.307 2586.73 263.615V457.172C2586.73 461.795 2582.88 465.648 2578.26 465.648H2296.6C2291.97 465.648 2288.12 461.795 2288.12 457.172V319.556C2288.12 317.398 2287.66 315.395 2286.89 313.7C2284.73 308.922 2279.8 305.532 2274.1 305.532H2013.55V1026.13C2013.55 1027.06 2013.55 1028.13 2013.86 1028.9C2014.01 1029.83 2014.32 1030.75 2014.63 1031.52C2016.01 1034.76 2018.48 1037.38 2021.71 1038.77C2023.56 1039.54 2025.57 1040.15 2027.57 1040.15H2274.1C2276.26 1040.15 2278.26 1039.69 2279.96 1038.77C2283.04 1037.23 2285.66 1034.76 2287.04 1031.52C2287.35 1030.75 2287.66 1029.83 2287.81 1028.9C2287.97 1027.98 2288.12 1027.06 2288.12 1026.13V714.991H2730.8C2731.88 714.991 2732.96 714.991 2734.04 714.991C2761 714.683 2788.43 704.204 2811.69 687.714C2813.54 686.327 2815.39 685.095 2817.24 683.553C2819.09 682.167 2820.79 680.625 2822.63 679.239C2825.25 677.081 2827.87 674.77 2830.34 672.304C2855.92 647.801 2872.87 615.285 2872.25 582.306V342.98L2871.94 342.672Z" fill="#BDEC00"/>
<path d="M1900.91 120.297C1897.52 81.3086 1877.8 48.6382 1848.37 27.2175C1847.6 26.6011 1846.83 26.1388 1846.06 25.5224C1844.98 24.7518 1843.75 23.9813 1842.52 23.2108C1842.21 23.0567 1841.9 22.9026 1841.75 22.7484C1839.13 21.0533 1836.35 19.3581 1833.43 17.8171C1812.93 6.72145 1788.9 0.403129 1763.16 0.249023H1171.95C1138.36 0.249023 1107.7 11.0364 1083.82 29.5291C1082.58 30.4537 1081.5 31.3784 1080.43 32.303C1078.73 33.69 1077.19 35.0769 1075.65 36.4639C1074.26 37.6967 1072.88 39.0837 1071.49 40.4706C1050.69 61.1208 1037.13 88.7057 1034.35 120.451C1034.35 121.222 1034.35 122.147 1034.35 122.917V255.14H1643.13C1644.37 255.14 1645.45 255.448 1646.37 255.756C1646.68 255.756 1646.83 255.91 1647.14 256.065C1647.45 256.219 1647.91 256.527 1648.22 256.835C1650.22 258.376 1651.61 260.842 1651.61 263.616V780.178C1651.61 782.49 1650.68 784.647 1649.14 786.188C1647.6 787.729 1645.45 788.654 1643.13 788.654H1291.83C1290.44 788.654 1289.05 788.346 1287.82 787.575C1287.82 787.575 1287.67 787.575 1287.51 787.575C1286.9 787.267 1286.28 786.805 1285.82 786.342C1284.89 785.418 1284.28 784.339 1283.81 783.106C1283.51 782.182 1283.35 781.257 1283.35 780.332V319.71C1283.35 317.553 1282.89 315.549 1282.12 313.854C1281.35 312.313 1280.42 310.926 1279.35 309.847C1279.04 309.539 1278.73 309.231 1278.42 308.923C1275.96 306.919 1272.87 305.687 1269.48 305.687H1034.05V896.99C1034.05 907.007 1034.82 916.716 1036.67 926.116C1036.67 926.579 1036.82 927.041 1036.97 927.503C1037.28 929.352 1037.74 931.202 1038.21 932.897C1038.21 933.513 1038.52 934.13 1038.67 934.746C1039.13 936.441 1039.59 938.137 1040.06 939.678C1040.21 940.448 1040.52 941.065 1040.67 941.835C1041.44 944.455 1042.37 947.075 1043.45 949.54C1045.14 953.855 1046.99 958.016 1049.15 962.177C1049.61 963.102 1050.23 964.18 1050.69 965.105C1051.3 966.184 1051.92 967.417 1052.54 968.495C1053 969.266 1053.46 970.19 1053.92 970.961C1056.54 975.276 1059.47 979.591 1062.55 983.598C1063.48 984.831 1064.56 986.218 1065.63 987.45C1092.6 1020.43 1134.2 1040.77 1178.88 1040.15H1756.54C1834.2 1041.23 1902.3 979.129 1901.38 896.99V459.792V215.381V123.225C1901.38 122.455 1901.38 121.53 1901.38 120.76L1900.91 120.297Z" fill="#BDEC00"/>
<path d="M3488.27 0.557617H2958.07C2956.38 0.557617 2954.84 0.86582 2953.3 1.48224C2952.68 1.63635 2952.06 1.94455 2951.45 2.25276C2946.98 4.71845 2944.05 9.34165 2944.05 14.7353V240.808C2944.05 248.668 2950.37 254.832 2958.07 254.832H3205.22C3206.3 254.832 3207.22 254.986 3208.15 255.449C3210.61 256.373 3212.46 258.376 3213.23 260.842C3213.39 261.305 3213.54 261.921 3213.54 262.537C3213.54 262.846 3213.54 263.154 3213.54 263.462V1025.98C3213.54 1026.9 3213.54 1027.98 3213.85 1028.75C3214 1029.68 3214.31 1030.6 3214.62 1031.37C3216.01 1034.61 3218.47 1037.23 3221.71 1038.61C3223.56 1039.38 3225.56 1040 3227.56 1040H3474.09C3481.8 1040 3488.12 1033.68 3488.12 1025.98V0.557617H3488.27Z" fill="#BDEC00"/>
<path d="M950.226 848.601C950.226 845.673 950.226 842.745 950.226 839.817C950.226 835.348 949.764 831.033 949.455 826.872C949.301 824.715 948.993 822.557 948.685 820.4C948.685 819.938 948.685 819.475 948.531 819.013C948.223 817.01 947.915 815.006 947.607 812.849C947.607 812.386 947.452 811.77 947.298 811.308C946.99 809.458 946.682 807.609 946.22 805.76C946.22 805.298 946.066 804.835 945.912 804.373C945.603 802.524 945.141 800.829 944.679 798.979C944.679 798.363 944.371 797.592 944.217 796.976C943.754 795.281 943.446 793.74 942.984 792.044C942.984 792.044 942.984 791.736 942.984 791.582C942.83 790.812 942.522 790.041 942.214 789.116C941.905 787.884 941.443 786.651 940.981 785.264C940.673 784.493 940.519 783.723 940.211 782.798C939.594 780.949 938.978 779.1 938.362 777.25C938.053 776.634 937.899 775.863 937.591 775.247C937.129 773.86 936.513 772.627 936.05 771.24C935.742 770.47 935.434 769.699 935.126 768.929C934.509 767.388 933.893 765.847 933.123 764.305C932.815 763.689 932.66 763.073 932.352 762.456C931.582 760.761 930.812 759.22 930.041 757.525C929.733 756.908 929.425 756.138 929.117 755.521C928.346 754.134 927.73 752.747 926.959 751.361C926.651 750.898 926.497 750.282 926.189 749.819C925.265 747.97 924.186 746.121 923.261 744.426C922.953 743.964 922.645 743.347 922.337 742.885C921.567 741.498 920.642 740.111 919.872 738.724C919.564 738.262 919.255 737.645 918.947 737.183C917.869 735.334 916.636 733.638 915.557 731.789C915.403 731.481 915.095 731.173 914.941 730.71C913.862 729.169 912.938 727.782 911.859 726.241C911.551 725.779 911.243 725.317 910.781 724.854C909.548 723.159 908.161 721.31 906.929 719.615C905.542 717.92 904.155 716.07 902.923 714.375C901.998 713.296 901.228 712.218 900.303 711.139C897.838 708.211 895.527 705.129 893.061 702.201C890.904 699.735 888.901 697.269 886.744 694.804C884.895 692.646 883.046 690.643 881.197 688.485C879.04 686.174 877.037 683.862 874.88 681.551C871.952 678.314 868.87 675.078 865.789 671.842C863.786 669.685 861.629 667.527 859.625 665.369C855.465 661.055 851.459 656.894 847.299 652.579C845.142 650.421 842.985 648.11 840.827 645.952C836.513 641.637 832.353 637.322 828.039 632.853C821.567 626.227 815.25 619.6 808.778 612.819C788.439 591.399 758.393 560.886 724.957 527.445C715.713 518.199 706.159 508.644 696.452 498.935C692.6 495.083 688.748 491.23 684.896 487.377C682.893 485.374 680.89 483.371 678.887 481.521C675.035 477.669 671.029 473.816 667.177 469.963C596.453 399.691 525.729 330.498 505.544 310.618C504.466 309.539 503.387 308.769 502.154 307.998C499.073 306.149 495.529 305.07 491.831 305.07H122.804C120.338 305.07 119.106 308.152 120.801 309.848L146.686 336.2L153.158 342.672L293.989 486.453L575.806 773.86C580.274 778.483 578.117 785.88 572.57 787.729C571.646 788.038 570.721 788.192 569.797 788.192H14.0215C9.39902 788.192 5.2388 790.503 2.6194 794.048C1.69491 795.281 1.07858 796.668 0.616329 798.055C0.616329 798.517 0.308165 798.979 0.308165 799.442C0.154082 800.366 0 801.291 0 802.215V1025.51C0 1025.51 0 1026.44 0 1026.9C0.308165 1029.98 1.69491 1032.76 3.54389 1034.92C3.85206 1035.22 4.16022 1035.53 4.46839 1035.84C5.85513 1037.07 7.55004 1038.15 9.39902 1038.77C10.7858 1039.23 12.3266 1039.54 13.8674 1039.54H754.541C807.392 1039.54 859.009 1019.35 895.373 980.824C937.283 936.596 949.61 888.669 949.918 848.139L950.226 848.601Z" fill="#BDEC00"/>
</svg>
