<svg width="1306" height="347" viewBox="0 0 1306 347" fill="none" xmlns="http://www.w3.org/2000/svg">
<path fill-rule="evenodd" clip-rule="evenodd" d="M616.742 9.00401C626.569 16.145 633.171 27.0713 634.279 40.056L634.287 40.0688C634.308 40.3495 634.317 40.6302 634.317 40.9109V71.644L634.308 153.1L634.291 298.833C634.584 326.214 611.879 346.91 585.992 346.57H393.408C378.51 346.766 364.665 339.995 355.652 328.988C355.304 328.566 354.969 328.137 354.638 327.703C353.616 326.363 352.665 324.964 351.787 323.509C351.621 323.237 351.46 322.965 351.303 322.689C351.087 322.314 350.874 321.932 350.667 321.549C350.488 321.221 350.319 320.894 350.149 320.562C349.457 319.201 348.834 317.806 348.273 316.368C347.947 315.526 347.641 314.672 347.361 313.804C347.285 313.566 347.208 313.323 347.136 313.085C346.971 312.541 346.814 311.992 346.665 311.435C346.649 311.378 346.634 311.32 346.619 311.262C346.602 311.197 346.585 311.132 346.568 311.067L346.508 310.831C346.36 310.231 346.22 309.623 346.092 309.011C346.058 308.849 346.025 308.687 345.995 308.526C345.38 305.408 345.074 302.167 345.108 298.824V101.709H423.619C424.752 101.709 425.792 102.109 426.602 102.781C426.716 102.875 426.827 102.977 426.933 103.083C427.323 103.474 427.642 103.938 427.875 104.444C428.151 105.044 428.308 105.707 428.308 106.409V259.981C428.308 260.308 428.367 260.619 428.469 260.912C428.609 261.312 428.834 261.673 429.131 261.971C429.296 262.137 429.487 262.282 429.695 262.405C429.721 262.422 429.746 262.439 429.776 262.456C430.175 262.673 430.633 262.796 431.117 262.796H548.27C549.047 262.796 549.751 262.481 550.26 261.971C550.769 261.461 551.083 260.755 551.083 259.976V87.7548C551.083 86.8361 550.646 86.0238 549.967 85.5091C549.853 85.4241 549.738 85.3433 549.611 85.2752C549.53 85.2327 549.45 85.1901 549.365 85.1561C549.03 85.0158 548.66 84.935 548.27 84.935H345.316V40.8982V40.8641C345.32 40.5962 345.329 40.324 345.35 40.056C346.249 29.504 350.777 20.3131 357.714 13.406L357.736 13.3847C358.19 12.9339 358.652 12.4916 359.127 12.062C359.645 11.5899 360.175 11.1306 360.719 10.684C361.092 10.3735 361.474 10.0715 361.86 9.77382C369.816 3.64082 380.038 0.0682046 391.257 0.0341797H588.372C596.947 0.0596984 604.937 2.15649 611.781 5.87797C612.723 6.38834 613.648 6.93274 614.544 7.50691C614.594 7.5381 614.646 7.57064 614.698 7.60378L614.82 7.68129C615.21 7.93222 615.596 8.19592 615.978 8.45961C616.23 8.63637 616.482 8.8173 616.734 8.99827L616.734 8.99864L616.742 9.00401ZM958.021 38.9068V114.179L958.025 114.174V193.959C958.22 204.944 952.556 215.756 944.053 223.939C943.229 224.734 942.381 225.5 941.507 226.24C940.925 226.733 940.331 227.218 939.729 227.686C939.126 228.158 938.511 228.613 937.891 229.055C930.127 234.593 920.961 238.059 911.979 238.17C911.618 238.178 911.257 238.178 910.901 238.17L910.884 238.174H763.307V327.154V340.47V341.908C763.307 342.235 763.273 342.55 763.214 342.856C763.154 343.162 763.061 343.456 762.942 343.737C762.488 344.813 761.644 345.68 760.591 346.169C759.993 346.446 759.327 346.607 758.623 346.607H676.433C675.728 346.607 675.062 346.45 674.464 346.169C673.412 345.68 672.567 344.813 672.113 343.737C671.995 343.456 671.901 343.162 671.842 342.856C671.782 342.55 671.748 342.231 671.748 341.908V340.47V330.029V101.683H758.627C760.515 101.683 762.14 102.806 762.883 104.422C763.159 105.022 763.316 105.685 763.316 106.387V117.836V147.268V152.244C763.316 153.801 764.576 155.064 766.129 155.064H860.025C861.578 155.064 862.839 153.801 862.839 152.244V145.082V98.2081V87.7284C862.839 87.6306 862.834 87.5328 862.826 87.4392C862.809 87.2521 862.771 87.0692 862.716 86.8905C862.529 86.2866 862.143 85.7677 861.634 85.4147C861.604 85.3935 861.574 85.3722 861.544 85.3552C861.354 85.2361 861.15 85.134 860.933 85.0617C860.645 84.9639 860.344 84.9086 860.025 84.9086H671.744V77.27V73.4464V11.538V7.77825V4.83934C671.744 4.51185 671.778 4.19712 671.838 3.8909C671.897 3.58467 671.99 3.29121 672.109 3.0105C672.818 1.32202 674.485 0.139648 676.429 0.139648H907.727C927.237 0.139648 939.177 6.05574 946.488 13.2648C957.889 24.51 958.021 38.9068 958.021 38.9068ZM986.784 0.139648H1163.54V341.903C1163.54 344.498 1161.44 346.603 1158.85 346.603H1076.66C1075.95 346.603 1075.29 346.446 1074.69 346.165C1073.64 345.676 1072.79 344.808 1072.34 343.732C1072.22 343.451 1072.13 343.158 1072.07 342.852C1072.01 342.546 1071.97 342.227 1071.97 341.903V339.296V329.918V87.7326C1071.97 87.6348 1071.97 87.537 1071.96 87.4434C1071.94 87.2563 1071.91 87.0734 1071.85 86.8948C1071.6 86.0654 1070.97 85.4062 1070.17 85.1C1069.85 84.9809 1069.52 84.9128 1069.17 84.9128H986.784C984.196 84.9128 982.096 82.8075 982.096 80.2131V4.8436C982.096 3.05729 983.084 1.5049 984.548 0.709565L984.565 0.701057C984.765 0.590476 984.973 0.501163 985.189 0.424607C985.69 0.241723 986.224 0.139648 986.784 0.139648ZM1180.26 0.13974H1302.68C1304.95 0.13974 1306.28 2.69161 1305 4.56298L1304.4 5.43913L1253.43 79.4732C1250.51 83.5902 1247.97 84.9129 1242.76 84.9129H1180.26V0.13974ZM315.208 78.0441L258.295 2.00677C257.417 0.832907 256.038 0.139648 254.574 0.139648H73.8835C47.6905 0.326786 30.1875 16.2037 30.1875 38.9111V84.9129H314.716C317.033 84.9129 318.357 82.2589 316.965 80.4003L315.204 78.0441H315.208ZM317.311 282.824C317.319 281.837 317.311 280.863 317.277 279.902C317.23 278.435 317.137 276.997 317.009 275.607C316.941 274.884 316.861 274.165 316.767 273.446C316.759 273.373 316.749 273.3 316.74 273.226C316.73 273.153 316.721 273.08 316.712 273.008C316.623 272.327 316.521 271.651 316.407 270.979C316.392 270.894 316.377 270.81 316.362 270.726C316.347 270.642 316.333 270.558 316.318 270.473C316.212 269.861 316.097 269.252 315.974 268.644C315.96 268.575 315.946 268.504 315.932 268.434C315.923 268.389 315.914 268.344 315.904 268.3C315.896 268.264 315.889 268.229 315.881 268.193C315.758 267.598 315.622 267.007 315.482 266.42C315.431 266.199 315.376 265.982 315.325 265.765C315.189 265.216 315.045 264.672 314.896 264.127C314.892 264.111 314.887 264.094 314.883 264.077C314.872 264.041 314.861 264.004 314.85 263.97C314.804 263.812 314.759 263.653 314.713 263.495C314.681 263.387 314.649 263.278 314.616 263.17C314.493 262.745 314.366 262.324 314.23 261.903L313.975 261.099C313.776 260.482 313.564 259.87 313.347 259.262C313.307 259.152 313.266 259.041 313.225 258.931C313.183 258.82 313.142 258.709 313.101 258.598C312.936 258.148 312.766 257.701 312.588 257.259C312.525 257.1 312.461 256.941 312.398 256.783C312.359 256.687 312.321 256.592 312.282 256.497C312.074 255.983 311.858 255.472 311.633 254.962C311.589 254.862 311.545 254.762 311.502 254.662C311.485 254.624 311.469 254.586 311.452 254.549C311.425 254.486 311.398 254.424 311.37 254.362C311.124 253.814 310.869 253.265 310.611 252.725C310.561 252.62 310.511 252.516 310.46 252.412C310.429 252.348 310.398 252.284 310.366 252.22L310.284 252.053C310.051 251.581 309.813 251.109 309.567 250.641C309.53 250.571 309.493 250.501 309.457 250.431C309.428 250.376 309.4 250.32 309.372 250.265L309.308 250.139C308.985 249.531 308.655 248.927 308.315 248.327C308.213 248.148 308.111 247.97 308.005 247.795C307.729 247.323 307.454 246.855 307.169 246.388L307.169 246.387C307.067 246.217 306.966 246.047 306.86 245.882C306.486 245.282 306.109 244.686 305.718 244.099C305.68 244.042 305.642 243.986 305.603 243.929C305.565 243.873 305.527 243.817 305.489 243.759C305.154 243.262 304.814 242.768 304.471 242.279L304.127 241.794C303.707 241.207 303.278 240.629 302.841 240.055C302.396 239.472 301.942 238.898 301.488 238.324C301.199 237.954 300.907 237.588 300.614 237.222C299.812 236.223 298.997 235.236 298.178 234.258C297.482 233.428 296.782 232.608 296.074 231.791C295.458 231.081 294.839 230.379 294.219 229.681C293.519 228.899 292.819 228.12 292.11 227.346C291.113 226.258 290.112 225.173 289.102 224.097C288.438 223.39 287.765 222.682 287.096 221.979L287.04 221.919C285.678 220.49 284.299 219.07 282.916 217.649C282.194 216.909 281.473 216.169 280.747 215.429C280.264 214.936 279.78 214.442 279.295 213.948C278.361 212.997 277.425 212.042 276.487 211.083C274.349 208.896 272.202 206.685 270.05 204.422C263.274 197.298 253.256 187.133 242.092 175.939C238.995 172.834 235.808 169.649 232.575 166.429L232.554 166.408L228.68 162.55C228.018 161.891 227.356 161.232 226.69 160.572C226.384 160.269 226.079 159.966 225.773 159.662C225.431 159.322 225.088 158.981 224.745 158.641C224.095 157.994 223.445 157.348 222.794 156.702C199.19 133.267 175.636 110.194 168.889 103.589C168.537 103.245 168.151 102.951 167.735 102.696C166.708 102.062 165.525 101.718 164.303 101.718H41.4422C40.6105 101.718 40.1904 102.722 40.7717 103.317L49.3811 112.095L51.5154 114.273L98.4913 162.184L192.439 258.011C193.949 259.551 193.211 262.001 191.382 262.647C191.09 262.749 190.776 262.809 190.432 262.809H5.18444C3.61872 262.809 2.23969 263.579 1.38682 264.761C1.09404 265.169 0.856425 265.62 0.707914 266.114C0.66124 266.262 0.623051 266.411 0.593349 266.564C0.529702 266.871 0.5 267.185 0.5 267.513V335.265V341.934C0.5 342.096 0.508486 342.257 0.525459 342.415C0.631538 343.444 1.06858 344.375 1.73051 345.098C1.83235 345.209 1.93843 345.315 2.04875 345.417C2.5155 345.843 3.07135 346.174 3.67812 346.383C4.15335 346.544 4.65829 346.638 5.18868 346.638H252.153C269.775 346.638 286.964 339.884 299.103 327.074C313.067 312.337 317.188 296.353 317.315 282.854L317.311 282.824Z" fill="url(#paint0_linear_1_880)"/>
<defs>
<linearGradient id="paint0_linear_1_880" x1="653" y1="0.0341797" x2="653" y2="346.638" gradientUnits="userSpaceOnUse">
<stop stop-color="#495870"/>
<stop offset="1" stop-color="#1E293B"/>
</linearGradient>
</defs>
</svg>
