<svg width="2500" height="520" viewBox="0 0 2500 520" fill="none" xmlns="http://www.w3.org/2000/svg">
<path fill-rule="evenodd" clip-rule="evenodd" d="M1195.53 13.4572C1210.27 24.1706 1220.18 40.563 1221.84 60.0437L1221.85 60.0628C1221.89 60.484 1221.9 60.9051 1221.9 61.3262V107.434L1221.89 229.64L1221.86 448.279C1222.3 489.359 1188.23 520.408 1149.4 519.898H860.469C838.118 520.191 817.346 510.033 803.825 493.52C803.303 492.888 802.8 492.243 802.304 491.592C800.769 489.583 799.344 487.483 798.026 485.301C797.777 484.893 797.536 484.484 797.3 484.069C796.975 483.508 796.657 482.934 796.345 482.359C796.078 481.868 795.823 481.377 795.568 480.879C794.531 478.837 793.595 476.744 792.755 474.588C792.265 473.324 791.806 472.042 791.386 470.74C791.272 470.383 791.157 470.019 791.049 469.662C790.8 468.845 790.565 468.022 790.342 467.186C790.274 466.937 790.209 466.684 790.146 466.434L790.145 466.431L790.144 466.427L790.107 466.28C789.884 465.38 789.674 464.468 789.483 463.549L789.481 463.543C789.431 463.302 789.38 463.062 789.336 462.821C788.413 458.144 787.955 453.282 788.006 448.267V152.54H905.794C907.493 152.54 909.053 153.14 910.269 154.148C910.441 154.289 910.606 154.442 910.765 154.601C911.351 155.188 911.829 155.884 912.179 156.643C912.592 157.543 912.828 158.538 912.828 159.591V389.99C912.828 390.482 912.917 390.948 913.07 391.388C913.28 391.988 913.617 392.53 914.063 392.977C914.311 393.225 914.598 393.442 914.91 393.627L914.911 393.629C914.93 393.641 914.949 393.654 914.969 393.666C914.988 393.679 915.009 393.691 915.031 393.704C915.629 394.029 916.316 394.215 917.042 394.215H1092.8C1093.97 394.215 1095.03 393.742 1095.79 392.977C1096.55 392.211 1097.02 391.152 1097.02 389.984V131.605C1097.02 130.227 1096.37 129.008 1095.35 128.236C1095.18 128.108 1095.01 127.987 1094.82 127.885C1094.69 127.821 1094.57 127.757 1094.45 127.706C1093.94 127.496 1093.39 127.374 1092.8 127.374H788.318V61.3071V61.256C788.324 60.854 788.337 60.4457 788.369 60.0437C789.718 44.2128 796.511 30.4238 806.919 20.0614L806.951 20.0294C807.632 19.3531 808.326 18.6895 809.039 18.045C809.815 17.3367 810.611 16.6476 811.426 15.9776C811.986 15.5118 812.559 15.0588 813.138 14.6121C825.074 5.41095 840.41 0.0510467 857.241 0H1152.97C1165.83 0.038285 1177.82 3.18404 1188.09 8.76727C1189.5 9.53298 1190.89 10.3497 1192.23 11.2111C1192.37 11.2941 1192.51 11.3834 1192.65 11.4727C1193.23 11.8492 1193.81 12.2448 1194.38 12.6404C1194.76 12.9067 1195.14 13.1792 1195.52 13.4517L1195.53 13.4572ZM1707.54 58.3196V171.248L1707.55 171.241V290.939C1707.84 307.421 1699.34 323.641 1686.59 335.918C1685.35 337.111 1684.08 338.26 1682.77 339.37C1681.89 340.11 1681 340.838 1680.1 341.539C1679.19 342.248 1678.27 342.931 1677.34 343.594C1665.69 351.902 1651.94 357.102 1638.47 357.268C1637.92 357.281 1637.38 357.281 1636.85 357.268L1636.82 357.275H1415.42V490.768V510.747V512.903C1415.42 513.395 1415.37 513.867 1415.28 514.326C1415.19 514.786 1415.05 515.226 1414.87 515.647C1414.19 517.261 1412.92 518.563 1411.34 519.297C1410.45 519.712 1409.45 519.954 1408.39 519.954H1285.08C1284.03 519.954 1283.03 519.718 1282.13 519.297C1280.55 518.563 1279.28 517.261 1278.6 515.647C1278.42 515.226 1278.28 514.786 1278.2 514.326C1278.11 513.867 1278.06 513.388 1278.06 512.903V510.747V495.082V152.501H1408.4C1411.23 152.501 1413.67 154.185 1414.78 156.61C1415.2 157.51 1415.43 158.505 1415.43 159.558V176.735V220.891V228.356C1415.43 230.692 1417.32 232.587 1419.65 232.587H1560.52C1562.85 232.587 1564.74 230.692 1564.74 228.356V217.611V147.288V131.565C1564.74 131.497 1564.74 131.429 1564.74 131.361C1564.74 131.32 1564.73 131.28 1564.73 131.24C1564.73 131.203 1564.73 131.167 1564.72 131.131C1564.7 130.851 1564.64 130.576 1564.56 130.308C1564.28 129.402 1563.7 128.624 1562.93 128.094C1562.91 128.077 1562.89 128.06 1562.86 128.044C1562.85 128.038 1562.84 128.032 1562.84 128.025L1562.82 128.014L1562.8 128.005C1562.51 127.826 1562.21 127.673 1561.88 127.564C1561.45 127.418 1561 127.335 1560.52 127.335H1278.05V115.875V110.138V17.2589V11.6182V7.20905C1278.05 6.71773 1278.1 6.24555 1278.19 5.78613C1278.28 5.32671 1278.42 4.88643 1278.6 4.4653C1279.66 1.9321 1282.16 0.158232 1285.08 0.158232H1632.09C1661.36 0.158232 1679.27 9.03398 1690.24 19.8495C1707.34 36.7204 1707.54 58.3196 1707.54 58.3196ZM1750.69 0.158232H2015.87V512.897C2015.87 516.789 2012.72 519.948 2008.84 519.948H1885.53C1884.47 519.948 1883.47 519.711 1882.58 519.29C1881 518.557 1879.73 517.255 1879.05 515.641C1878.87 515.219 1878.73 514.779 1878.64 514.32C1878.55 513.86 1878.5 513.382 1878.5 512.897V508.985V494.916V131.572C1878.5 131.425 1878.5 131.278 1878.48 131.138C1878.46 130.857 1878.4 130.583 1878.32 130.315C1877.94 129.07 1876.99 128.081 1875.79 127.622C1875.32 127.443 1874.82 127.341 1874.29 127.341H1750.69C1746.81 127.341 1743.66 124.183 1743.66 120.29V7.21544C1743.66 4.53548 1745.14 2.20648 1747.34 1.01326L1747.37 1.0005C1747.66 0.834596 1747.98 0.700602 1748.3 0.585747C1749.05 0.311371 1749.85 0.158232 1750.69 0.158232ZM2040.96 0.158261H2224.63C2228.03 0.158261 2230.03 3.98676 2228.1 6.79433L2227.2 8.10878L2150.74 119.18C2146.35 125.357 2142.55 127.341 2134.73 127.341H2040.96V0.158261ZM743.148 117.036L657.763 2.95942C656.445 1.19831 654.376 0.158232 652.18 0.158232H381.095C341.799 0.438989 315.539 24.2587 315.539 58.326V127.341H742.41C745.885 127.341 747.872 123.359 745.784 120.571L743.142 117.036H743.148ZM746.302 424.262C746.315 422.782 746.302 421.32 746.251 419.878C746.181 417.677 746.041 415.52 745.85 413.434C745.748 412.349 745.627 411.271 745.487 410.192C745.473 410.068 745.456 409.941 745.44 409.815C745.427 409.721 745.415 409.627 745.404 409.535C745.271 408.514 745.118 407.499 744.946 406.491C744.932 406.411 744.918 406.331 744.904 406.251L744.863 406.02C744.846 405.924 744.829 405.829 744.812 405.732C744.653 404.813 744.481 403.901 744.297 402.988L744.277 402.889C744.239 402.697 744.2 402.502 744.157 402.312C743.972 401.419 743.768 400.532 743.558 399.651C743.482 399.319 743.399 398.994 743.323 398.668C743.119 397.845 742.903 397.029 742.68 396.212C742.661 396.135 742.635 396.052 742.61 395.976L742.609 395.974C742.495 395.572 742.381 395.171 742.26 394.776C742.075 394.138 741.884 393.506 741.68 392.875L741.298 391.669C740.999 390.743 740.681 389.825 740.356 388.912C740.296 388.746 740.234 388.58 740.172 388.414C740.11 388.248 740.048 388.083 739.987 387.917C739.739 387.24 739.484 386.57 739.217 385.907C739.144 385.724 739.071 385.542 738.998 385.36C738.918 385.16 738.839 384.962 738.759 384.765C738.447 383.992 738.122 383.227 737.785 382.461C737.741 382.362 737.697 382.263 737.654 382.165L737.588 382.012C737.522 381.862 737.457 381.712 737.39 381.561C737.021 380.738 736.639 379.915 736.25 379.105C736.131 378.85 736.007 378.6 735.883 378.347C735.842 378.264 735.801 378.18 735.76 378.097C735.41 377.388 735.054 376.68 734.684 375.978C734.584 375.792 734.488 375.602 734.392 375.414C734.36 375.351 734.328 375.288 734.296 375.225C733.812 374.313 733.316 373.407 732.806 372.507C732.654 372.239 732.501 371.971 732.342 371.709C731.928 371.001 731.514 370.299 731.088 369.597L731.073 369.573C731.037 369.512 731 369.451 730.964 369.391C730.852 369.205 730.739 369.02 730.623 368.838C730.063 367.938 729.496 367.045 728.911 366.164C728.796 365.992 728.681 365.826 728.567 365.654C728.064 364.907 727.555 364.167 727.039 363.433L726.523 362.706C725.893 361.825 725.25 360.958 724.594 360.096C723.926 359.223 723.246 358.362 722.565 357.501L722.564 357.5V357.499C722.131 356.944 721.692 356.395 721.252 355.847C720.049 354.347 718.827 352.867 717.598 351.399C716.554 350.155 715.504 348.923 714.441 347.698C713.518 346.633 712.588 345.58 711.659 344.533C710.609 343.359 709.558 342.192 708.495 341.03C706.999 339.397 705.497 337.77 703.982 336.155C702.981 335.09 701.969 334.025 700.962 332.966L700.888 332.888C698.844 330.744 696.776 328.613 694.7 326.482C693.618 325.372 692.536 324.261 691.447 323.151C690.726 322.415 690.003 321.678 689.279 320.94L689.262 320.923C687.864 319.498 686.461 318.068 685.056 316.63C681.848 313.35 678.626 310.032 675.399 306.638C665.233 295.95 650.203 280.699 633.454 263.905C628.807 259.247 624.026 254.468 619.175 249.638L619.144 249.606L613.332 243.818L613.31 243.797C612.324 242.815 611.338 241.833 610.346 240.851C609.374 239.887 608.403 238.921 607.431 237.955C606.455 236.984 605.478 236.014 604.502 235.045C569.089 199.886 533.752 165.27 523.63 155.361C523.102 154.844 522.522 154.404 521.898 154.021C520.358 153.07 518.582 152.553 516.748 152.553H332.424C331.177 152.553 330.546 154.059 331.419 154.952L344.335 168.122L347.537 171.389L418.014 243.269L558.961 387.036C561.227 389.346 560.119 393.021 557.375 393.991C556.936 394.144 556.465 394.234 555.95 394.234H278.028C275.679 394.234 273.61 395.389 272.33 397.163C271.891 397.775 271.535 398.451 271.312 399.192C271.242 399.415 271.185 399.638 271.14 399.868C271.045 400.327 271 400.8 271 401.291V502.938V512.943C271 513.185 271.013 513.428 271.038 513.664C271.197 515.208 271.853 516.605 272.846 517.69C272.999 517.856 273.158 518.016 273.324 518.169C274.024 518.807 274.858 519.305 275.768 519.617C276.481 519.86 277.239 520 278.034 520H648.548C674.985 520 700.773 509.867 718.986 490.648C739.936 468.539 746.117 444.559 746.308 424.307L746.302 424.262Z" fill="url(#paint0_linear_29_3480)"/>
<defs>
<linearGradient id="paint0_linear_29_3480" x1="1250" y1="-2.96363e-05" x2="1250" y2="520" gradientUnits="userSpaceOnUse">
<stop stop-color="#495870"/>
<stop offset="1" stop-color="#1E293B"/>
</linearGradient>
</defs>
</svg>
