<svg width="177" height="23" viewBox="0 0 177 23" fill="none" xmlns="http://www.w3.org/2000/svg">
<path d="M0.173935 21.9999L8.77756 1.16066H12.4691L20.9834 21.9999H17.5896L15.1782 15.897H5.86006L3.4189 21.9999H0.173935ZM6.87226 13.3069H14.166L10.534 4.13769L6.87226 13.3069Z" fill="white"/>
<path d="M25.2043 21.9999V1.16066H28.2409L39.8811 16.6412V1.16066H42.8284V21.9999H40.0895L28.1814 6.04299V21.9999H25.2043Z" fill="white"/>
<path d="M51.5133 19.2015H55.8002C56.8918 19.2015 57.904 19.0129 58.8368 18.6358C59.7696 18.2389 60.5833 17.703 61.278 17.0282C61.9925 16.3336 62.5383 15.5298 62.9153 14.6168C63.3123 13.684 63.5108 12.6718 63.5108 11.5803C63.5108 10.5085 63.3123 9.50627 62.9153 8.57347C62.5383 7.64066 61.9925 6.83687 61.278 6.16207C60.5833 5.46743 59.7696 4.93157 58.8368 4.55448C57.904 4.15754 56.8918 3.95907 55.8002 3.95907H51.5133V19.2015ZM48.3874 21.9999V1.16066H55.7407C57.3086 1.16066 58.7574 1.42859 60.0872 1.96446C61.4169 2.48048 62.5779 3.20489 63.5703 4.13769C64.5626 5.07049 65.3367 6.172 65.8924 7.4422C66.4481 8.7124 66.7259 10.0918 66.7259 11.5803C66.7259 13.0886 66.4481 14.4779 65.8924 15.7481C65.3565 16.9985 64.5924 18.09 63.6001 19.0228C62.6077 19.9556 61.4368 20.69 60.0872 21.2258C58.7574 21.7419 57.3086 21.9999 55.7407 21.9999H48.3874Z" fill="white"/>
<path d="M84.619 22.2976C82.9518 22.2976 81.3442 21.9701 79.7962 21.3152C78.2481 20.6602 76.8787 19.7373 75.6879 18.5465L77.5932 16.3435C78.7244 17.4549 79.8756 18.2786 81.0465 18.8145C82.2373 19.3503 83.4778 19.6183 84.7678 19.6183C85.78 19.6183 86.6632 19.4793 87.4174 19.2015C88.1914 18.9038 88.7868 18.487 89.2036 17.9511C89.6204 17.4153 89.8288 16.8099 89.8288 16.1351C89.8288 15.2023 89.5013 14.4878 88.8463 13.9917C88.1914 13.4955 87.1097 13.1184 85.6014 12.8604L82.1183 12.2948C80.213 11.9574 78.784 11.3421 77.8313 10.449C76.8985 9.55589 76.4321 8.36508 76.4321 6.87656C76.4321 5.68575 76.7497 4.64379 77.3848 3.75068C78.0199 2.83772 78.913 2.13316 80.0641 1.63699C81.2351 1.14081 82.5847 0.892727 84.1129 0.892727C85.6212 0.892727 87.0998 1.14081 88.5486 1.63699C90.0173 2.11331 91.3371 2.80795 92.5081 3.72091L90.7814 6.10253C88.5387 4.3957 86.2663 3.54229 83.964 3.54229C83.0511 3.54229 82.2572 3.67129 81.5824 3.9293C80.9076 4.18731 80.3817 4.55448 80.0046 5.0308C79.6275 5.48728 79.4389 6.02314 79.4389 6.6384C79.4389 7.49181 79.7267 8.14676 80.3023 8.60324C80.8778 9.03987 81.8305 9.35742 83.1602 9.55589L86.5243 10.1215C88.7273 10.4788 90.3448 11.1238 91.3768 12.0566C92.4089 12.9894 92.9249 14.2695 92.9249 15.897C92.9249 17.1672 92.5776 18.2885 91.8829 19.261C91.1883 20.2137 90.2158 20.9579 88.9654 21.4938C87.7151 22.0296 86.2663 22.2976 84.619 22.2976ZM106.062 22.3274C104.554 22.3274 103.144 22.0594 101.835 21.5236C100.525 20.9678 99.3636 20.2037 98.3514 19.2312C97.3591 18.2389 96.5851 17.0977 96.0294 15.8077C95.4935 14.4978 95.2256 13.0886 95.2256 11.5803C95.2256 10.0719 95.4935 8.6727 96.0294 7.38266C96.5851 6.07276 97.3591 4.93157 98.3514 3.95907C99.3636 2.96673 100.525 2.20262 101.835 1.66676C103.144 1.11104 104.554 0.833187 106.062 0.833187C107.57 0.833187 108.979 1.11104 110.289 1.66676C111.619 2.20262 112.78 2.96673 113.772 3.95907C114.765 4.93157 115.539 6.07276 116.095 7.38266C116.65 8.6727 116.928 10.0719 116.928 11.5803C116.928 13.0886 116.65 14.4978 116.095 15.8077C115.539 17.0977 114.765 18.2389 113.772 19.2312C112.78 20.2037 111.619 20.9678 110.289 21.5236C108.979 22.0594 107.57 22.3274 106.062 22.3274ZM106.092 19.4396C107.163 19.4396 108.156 19.2412 109.069 18.8442C110.002 18.4473 110.815 17.9015 111.51 17.2069C112.205 16.4924 112.75 15.6588 113.147 14.7062C113.544 13.7337 113.743 12.6917 113.743 11.5803C113.743 10.449 113.544 9.40704 113.147 8.45439C112.75 7.50174 112.205 6.67809 111.51 5.98345C110.815 5.26896 110.002 4.71325 109.069 4.31631C108.156 3.91938 107.163 3.72091 106.092 3.72091C105 3.72091 103.988 3.91938 103.055 4.31631C102.122 4.71325 101.309 5.26896 100.614 5.98345C99.9194 6.67809 99.3736 7.50174 98.9766 8.45439C98.5995 9.40704 98.411 10.4391 98.411 11.5505C98.411 12.6818 98.5995 13.7337 98.9766 14.7062C99.3736 15.6588 99.9194 16.4924 100.614 17.2069C101.309 17.9015 102.122 18.4473 103.055 18.8442C103.988 19.2412 105 19.4396 106.092 19.4396ZM120.518 21.9999V1.16066H130.163C131.533 1.16066 132.723 1.42859 133.736 1.96446C134.748 2.48048 135.542 3.20489 136.117 4.13769C136.693 5.07049 136.981 6.15215 136.981 7.38266C136.981 8.61316 136.693 9.69482 136.117 10.6276C135.542 11.5604 134.738 12.2948 133.706 12.8306C132.694 13.3466 131.513 13.6047 130.163 13.6047H123.643V21.9999H120.518ZM123.643 10.9551H129.836C131.066 10.9551 132.039 10.6375 132.753 10.0024C133.487 9.3475 133.855 8.48416 133.855 7.41243C133.855 6.34069 133.487 5.48728 132.753 4.85218C132.039 4.21708 131.066 3.89953 129.836 3.89953H123.643V10.9551ZM145.923 21.9999V3.9293H138.599V1.16066H156.372V3.9293H149.048V21.9999H145.923Z" fill="white"/>
<path d="M167.181 8.09935C166.69 8.09935 166.209 8.02972 165.738 7.89046C165.274 7.74457 164.883 7.54562 164.565 7.29363L165.122 6.28896C165.374 6.49454 165.679 6.66032 166.037 6.78632C166.395 6.91232 166.77 6.97532 167.161 6.97532C167.625 6.97532 167.986 6.88248 168.245 6.6968C168.504 6.50449 168.633 6.24586 168.633 5.92092C168.633 5.60261 168.514 5.35061 168.275 5.16493C168.036 4.97925 167.652 4.88641 167.121 4.88641H166.484V4.00111L168.474 1.63368L168.643 2.1211H164.903V1.03685H169.648V1.90226L167.658 4.26969L166.982 3.8718H167.37C168.225 3.8718 168.865 4.06411 169.29 4.44874C169.721 4.82673 169.936 5.31414 169.936 5.91097C169.936 6.30223 169.837 6.66364 169.638 6.99521C169.439 7.32679 169.134 7.59536 168.723 7.80093C168.318 7.99988 167.804 8.09935 167.181 8.09935ZM173.092 8.09935C172.601 8.09935 172.12 8.02972 171.65 7.89046C171.185 7.74457 170.794 7.54562 170.476 7.29363L171.023 6.28896C171.275 6.49454 171.58 6.66032 171.938 6.78632C172.303 6.91232 172.681 6.97532 173.072 6.97532C173.53 6.97532 173.888 6.87916 174.146 6.68685C174.412 6.49454 174.544 6.23591 174.544 5.91097C174.544 5.69213 174.488 5.49982 174.375 5.33403C174.269 5.16825 174.077 5.04225 173.798 4.95604C173.526 4.86983 173.152 4.82673 172.674 4.82673H170.993L171.351 1.03685H175.44V2.1211H171.829L172.505 1.50437L172.237 4.33932L171.56 3.73254H172.963C173.652 3.73254 174.206 3.82538 174.624 4.01106C175.048 4.19011 175.357 4.4421 175.549 4.76705C175.748 5.08536 175.847 5.45009 175.847 5.86124C175.847 6.26575 175.748 6.63711 175.549 6.97532C175.35 7.31352 175.045 7.58541 174.634 7.79099C174.229 7.99656 173.715 8.09935 173.092 8.09935Z" fill="#5BA3FF"/>
</svg>
