<svg width="163" height="22" viewBox="0 0 163 22" fill="none" xmlns="http://www.w3.org/2000/svg">
<path d="M31.4287 2.10336H35.1624V21.5922H31.4287V2.10336ZM22.6602 0.37793H43.931V3.65907H22.6602V0.37793Z" fill="white"/>
<path d="M5.10813 16.7271V13.6439H19.9298V16.7271H5.10813ZM14.9516 0.37793L25.1344 21.5922H21.1461L11.8967 1.79222H13.3393L4.08985 21.5922H0.101562L10.2844 0.37793H14.9516Z" fill="white"/>
<path d="M135.374 2.12094H139.108V21.6098H135.374V2.12094ZM126.605 0.395508H147.876V3.67665H126.605V0.395508Z" fill="white"/>
<path d="M117.534 0.395508C119.118 0.395508 120.485 0.678365 121.636 1.24408C122.805 1.80979 123.7 2.60179 124.323 3.62008C124.964 4.61951 125.284 5.77922 125.284 7.09922C125.284 8.41922 124.964 9.58837 124.323 10.6067C123.7 11.6061 122.805 12.3887 121.636 12.9544C120.485 13.5201 119.118 13.8029 117.534 13.8029H108.002V10.5784H117.393C118.675 10.5784 119.674 10.2672 120.391 9.64494C121.126 9.02265 121.494 8.17408 121.494 7.09922C121.494 6.02437 121.126 5.17579 120.391 4.55351C119.674 3.93122 118.675 3.62008 117.393 3.62008H108.37L110.038 1.75322V21.6098H106.305V0.395508H117.534Z" fill="white"/>
<path d="M89.95 22.0063C87.5363 22.0063 85.4148 21.5443 83.5857 20.6203C81.7565 19.6963 80.3328 18.414 79.3145 16.7734C78.2963 15.114 77.7871 13.1906 77.7871 11.0031C77.7871 8.81572 78.2963 6.90172 79.3145 5.26114C80.3328 3.60172 81.7565 2.31 83.5857 1.386C85.4148 0.462 87.5363 0 89.95 0C92.3637 0 94.4851 0.462 96.3143 1.386C98.1434 2.31 99.5671 3.60172 100.585 5.26114C101.604 6.90172 102.113 8.81572 102.113 11.0031C102.113 13.1906 101.604 15.114 100.585 16.7734C99.5671 18.414 98.1434 19.6963 96.3143 20.6203C94.4851 21.5443 92.3637 22.0063 89.95 22.0063ZM89.95 18.6686C91.666 18.6686 93.1463 18.3574 94.3908 17.7351C95.6354 17.1129 96.5971 16.2266 97.276 15.0763C97.9737 13.926 98.3225 12.5683 98.3225 11.0031C98.3225 9.438 97.9737 8.08029 97.276 6.93C96.5971 5.77972 95.6354 4.89343 94.3908 4.27114C93.1463 3.64886 91.666 3.33772 89.95 3.33772C88.2528 3.33772 86.7725 3.64886 85.5091 4.27114C84.2645 4.89343 83.2934 5.77972 82.5957 6.93C81.9168 8.08029 81.5774 9.438 81.5774 11.0031C81.5774 12.5683 81.9168 13.926 82.5957 15.0763C83.2934 16.2266 84.2645 17.1129 85.5091 17.7351C86.7725 18.3574 88.2528 18.6686 89.95 18.6686Z" fill="white"/>
<path d="M54.3457 14.7086H58.136C58.2491 15.5571 58.598 16.302 59.1826 16.9431C59.786 17.5843 60.578 18.084 61.5586 18.4423C62.5391 18.7817 63.6706 18.9514 64.9528 18.9514C66.8574 18.9514 68.366 18.6591 69.4786 18.0746C70.5911 17.4711 71.1474 16.6603 71.1474 15.642C71.1474 14.8123 70.8268 14.19 70.1857 13.7751C69.5446 13.3603 68.3848 13.0491 66.7066 12.8417L62.1243 12.2477C59.5597 11.9083 57.6928 11.2766 56.5237 10.3526C55.3734 9.40972 54.7983 8.08029 54.7983 6.36429C54.7983 5.06314 55.1848 3.94114 55.958 2.99829C56.75 2.03657 57.8626 1.30114 59.2957 0.792C60.7288 0.264 62.4071 0 64.3306 0C66.2351 0 67.9228 0.282858 69.3937 0.848572C70.8646 1.41429 72.0337 2.20629 72.9011 3.22457C73.7874 4.224 74.2683 5.40257 74.3437 6.76029H70.5534C70.4591 6.006 70.1386 5.35543 69.5917 4.80857C69.0637 4.26171 68.3471 3.83743 67.442 3.53571C66.5368 3.21514 65.4714 3.05486 64.2457 3.05486C62.5108 3.05486 61.1248 3.33772 60.0877 3.90343C59.0506 4.46914 58.532 5.24229 58.532 6.22286C58.532 6.97714 58.8337 7.56172 59.4371 7.97657C60.0594 8.37257 61.1343 8.67429 62.6617 8.88172L67.3006 9.53229C69.2051 9.79629 70.7043 10.1546 71.798 10.6071C72.9106 11.0409 73.7026 11.6349 74.174 12.3891C74.6454 13.1246 74.8811 14.0769 74.8811 15.246C74.8811 16.6037 74.4663 17.7917 73.6366 18.81C72.8068 19.8283 71.6377 20.6203 70.1291 21.186C68.6394 21.7329 66.8951 22.0063 64.8963 22.0063C62.8597 22.0063 61.0588 21.7046 59.4937 21.1011C57.9474 20.4789 56.7217 19.6209 55.8166 18.5271C54.9114 17.4334 54.4211 16.1606 54.3457 14.7086Z" fill="white"/>
<path d="M159.941 15.3516C160.469 15.3516 160.938 15.4327 161.346 15.5951C161.76 15.7521 162.092 15.9686 162.343 16.2446C162.598 16.5152 162.754 16.821 162.808 17.162H161.24C161.164 16.9996 161.027 16.8616 160.831 16.7479C160.635 16.6343 160.352 16.5774 159.982 16.5774C159.585 16.5774 159.252 16.6532 158.986 16.8048C158.724 16.9509 158.528 17.162 158.397 17.438C158.272 17.714 158.21 18.055 158.21 18.4609C158.21 18.8993 158.28 19.2673 158.422 19.565C158.564 19.8627 158.768 20.0873 159.035 20.2388C159.301 20.3904 159.628 20.4661 160.015 20.4661C160.281 20.4661 160.505 20.431 160.684 20.3606C160.87 20.2848 161.008 20.1847 161.101 20.0602C161.194 19.9303 161.24 19.7896 161.24 19.6381C161.24 19.4757 161.196 19.335 161.109 19.2159C161.022 19.0914 160.891 18.9967 160.717 18.9318C160.543 18.8668 160.325 18.8343 160.064 18.8343C159.715 18.8343 159.383 18.9101 159.067 19.0617C158.751 19.2132 158.463 19.4378 158.201 19.7355L157.63 19.3458C157.798 19.0102 158.016 18.7126 158.283 18.4528C158.55 18.1876 158.866 17.9792 159.231 17.8277C159.601 17.6761 160.017 17.6004 160.48 17.6004C160.992 17.6004 161.43 17.6842 161.795 17.852C162.16 18.0198 162.441 18.2525 162.637 18.5502C162.838 18.8425 162.939 19.1861 162.939 19.5812C162.939 19.9926 162.822 20.3579 162.588 20.6772C162.359 20.9965 162.027 21.2482 161.591 21.4322C161.155 21.6108 160.622 21.7001 159.99 21.7001C159.239 21.7001 158.613 21.5648 158.112 21.2942C157.616 21.0236 157.243 20.6502 156.993 20.1739C156.748 19.6976 156.625 19.151 156.625 18.534C156.625 17.917 156.748 17.3676 156.993 16.8859C157.243 16.4042 157.613 16.0281 158.103 15.7575C158.599 15.4869 159.212 15.3516 159.941 15.3516Z" fill="#495870"/>
<path d="M149.636 17.4461C149.668 17.0618 149.807 16.7127 150.052 16.3988C150.297 16.0795 150.651 15.8251 151.114 15.6357C151.577 15.4463 152.14 15.3516 152.805 15.3516C153.371 15.3516 153.864 15.4219 154.283 15.5626C154.708 15.7034 155.035 15.9009 155.263 16.1553C155.497 16.4097 155.615 16.71 155.615 17.0564C155.615 17.327 155.53 17.576 155.361 17.8033C155.198 18.0306 154.937 18.2119 154.577 18.3472C154.223 18.4771 153.76 18.5394 153.189 18.534V18.3635C153.722 18.3418 154.18 18.3797 154.561 18.4771C154.942 18.5746 155.233 18.7342 155.435 18.9561C155.642 19.178 155.745 19.4595 155.745 19.8004C155.745 20.1685 155.625 20.4959 155.386 20.7828C155.146 21.0696 154.798 21.2942 154.34 21.4566C153.888 21.619 153.333 21.7001 152.674 21.7001C152.037 21.7001 151.482 21.6135 151.008 21.4403C150.534 21.2672 150.164 21.0209 149.897 20.7016C149.636 20.3768 149.497 19.998 149.48 19.565H151.163C151.207 19.8356 151.348 20.044 151.588 20.1901C151.833 20.3362 152.195 20.4093 152.674 20.4093C153.11 20.4093 153.442 20.3444 153.671 20.2145C153.905 20.0846 154.022 19.9033 154.022 19.6705C154.022 19.5352 153.984 19.4216 153.907 19.3296C153.837 19.2376 153.709 19.1699 153.524 19.1266C153.338 19.0779 153.08 19.0535 152.748 19.0535H151.694V17.917H152.748C153.178 17.917 153.477 17.8601 153.646 17.7465C153.82 17.6328 153.907 17.4813 153.907 17.2919C153.907 17.0862 153.807 16.9265 153.605 16.8129C153.409 16.6992 153.112 16.6424 152.715 16.6424C152.29 16.6424 151.964 16.7127 151.735 16.8535C151.506 16.9942 151.37 17.1917 151.326 17.4461H149.636Z" fill="#495870"/>
</svg>
