<svg width="163" height="30" viewBox="0 0 163 30" fill="none" xmlns="http://www.w3.org/2000/svg">
<path d="M85.7859 2.11957V9.12757H81.4677V5.70525H75.6027L75.6017 11.5723L85.7856 15.8098L85.7859 18.4176L85.7869 26.1589L83.7501 28.1964H71.5303L71.5293 24.2846V21.2695H75.6027V24.6107H81.7129L81.7122 18.4176L71.5286 14.5061L71.5283 11.2465L71.5293 4.15696L73.5661 2.11957H85.7859ZM104.606 28.1964H90.3493V4.15696L92.3858 2.11957H104.606V28.1964ZM123.425 4.15696V18.4176H113.241V28.1964H109.168V2.11957H121.388L123.425 4.15696ZM142.413 6.19406H136.865V28.1724H132.644V6.19406H127.097V2.11957H142.413V6.19406ZM94.4223 24.2846H100.533V6.03101H94.4223V24.2846ZM113.241 14.5061H119.351V6.03101H113.241V14.5061Z" fill="#F9FAFA"/>
<path d="M153.031 2.05608L154.031 3.05241L154.086 3.10638V15.0436H146.7V11.2455H149.163V12.8395H151.703V9.06597H148.781V6.94165H151.703V4.20418H149.163V5.31998H146.7V2.00012H152.975L153.031 2.05608ZM163 6.28706L162.925 6.34279L159.998 8.53285V15.0436H157.615V7.55035L157.687 7.49463L160.617 5.22434V4.29601H158.077V5.41885H155.614V2.00012H163V6.28706Z" fill="#FC6F88"/>
<path d="M22.8926 28.359H18.8192V26.3219L18.8195 2.28257H22.8926V28.359ZM31.5284 18.2545L34.5837 24.6921L37.6387 18.2545L37.6383 2.28257H41.7117L41.712 19.8843L37.6387 28.359H31.5284L27.4553 19.8843L27.455 2.28257H31.5281L31.5284 18.2545ZM60.531 6.19401H50.3474V14.343H57.8425V18.4175H50.3474V24.1218H60.531V28.359H48.3106L46.2741 26.3219V2.28257H60.531V6.19401ZM14.2568 7.49774L14.2571 28.196H0.000318359L0 1.95648H8.79851L14.2568 7.49774ZM3.91073 24.2845H10.3467L10.3464 9.37209L6.96538 5.86825H3.9104L3.91073 24.2845Z" fill="#F9FAFA"/>
</svg>
