<svg width="147" height="103" viewBox="0 0 147 103" fill="none" xmlns="http://www.w3.org/2000/svg">
<g clip-path="url(#clip0_3422_26719)">
<rect width="147" height="103" fill="url(#paint0_linear_3422_26719)"/>
<rect x="12" y="24" width="64.9978" height="35.2368" rx="1.80702" fill="url(#paint1_linear_3422_26719)"/>
<path d="M44.4961 24L44.4961 59.2368" stroke="#202025" stroke-width="1.80702"/>
<path d="M76.9922 41.209H11.9944" stroke="#202025" stroke-width="1.80702"/>
<ellipse cx="90.1624" cy="95.0147" rx="36.5921" ry="6.09868" fill="#F77234"/>
<path d="M106.762 66.1143H119.048C124.094 66.1143 128.185 70.2047 128.185 75.2505V75.2505C128.185 80.2963 124.094 84.3867 119.048 84.3867H106.762" stroke="white" stroke-width="4.41059"/>
<path d="M69.582 62.3428H118.729V70.5339C118.729 84.1053 107.727 95.1071 94.1553 95.1071C80.5839 95.1071 69.582 84.1053 69.582 70.5339V62.3428Z" fill="white"/>
<path d="M117.468 62.6526C117.468 63.2958 117.094 64.0922 115.999 64.9884C114.914 65.877 113.266 66.7333 111.119 67.4765C106.837 68.9588 100.839 69.8986 94.1553 69.8986C87.4714 69.8986 81.4738 68.9588 77.1916 67.4765C75.0445 66.7333 73.397 65.877 72.3112 64.9884C71.2162 64.0922 70.8422 63.2958 70.8422 62.6526C70.8422 62.0094 71.2162 61.2131 72.3112 60.3169C73.397 59.4283 75.0445 58.5719 77.1916 57.8287C81.4738 56.3464 87.4714 55.4067 94.1553 55.4067C100.839 55.4067 106.837 56.3464 111.119 57.8287C113.266 58.5719 114.914 59.4283 115.999 60.3169C117.094 61.2131 117.468 62.0094 117.468 62.6526Z" fill="#643E29" stroke="white" stroke-width="2.52034"/>
<path d="M93.0824 43.071C93.0824 39.2014 89.8472 37.3472 88.2296 36.541C91.55 36.541 96.6582 38.4758 97.9353 41.8618C99.5652 46.1832 96.9234 48.8661 93.5933 52.0195C90.7837 54.6798 95.6366 58.9525 97.1691 60.4842C92.5716 60.4842 87.7188 56.3728 87.7188 52.2613C87.7188 47.908 93.0824 47.908 93.0824 43.071Z" fill="white"/>
<circle cx="5.68045" cy="-0.258025" r="9.68045" fill="#FDBBF9"/>
<circle cx="25.0414" cy="-0.258025" r="9.68045" fill="#FDBBF9"/>
<circle cx="44.4021" cy="-0.258025" r="9.68045" fill="#FDBBF9"/>
<circle cx="63.7632" cy="-0.258025" r="9.68045" fill="#FDBBF9"/>
<circle cx="83.1241" cy="-0.258025" r="9.68045" fill="#FDBBF9"/>
<circle cx="102.485" cy="-0.258025" r="9.68045" fill="#FDBBF9"/>
<circle cx="121.846" cy="-0.258025" r="9.68045" fill="#FDBBF9"/>
<circle cx="141.207" cy="-0.258025" r="9.68045" fill="#FDBBF9"/>
<path d="M52.6361 74.184C51.2377 75.3479 50.602 76.2917 49.818 78.3679C49.0341 76.2917 48.3984 75.3479 47 74.184C48.3984 73.02 49.0341 72.0763 49.818 70C50.602 72.0763 51.2377 73.02 52.6361 74.184Z" fill="white"/>
<circle cx="59.6494" cy="82.6494" r="1.39941" stroke="white" stroke-width="0.5"/>
</g>
<defs>
<linearGradient id="paint0_linear_3422_26719" x1="73.5" y1="0" x2="73.5" y2="103" gradientUnits="userSpaceOnUse">
<stop stop-color="#0F1012"/>
<stop offset="1" stop-color="#0F1012" stop-opacity="0"/>
</linearGradient>
<linearGradient id="paint1_linear_3422_26719" x1="12" y1="24" x2="47.6737" y2="72.9636" gradientUnits="userSpaceOnUse">
<stop stop-color="#FFA480"/>
<stop offset="1" stop-color="#619EFF"/>
</linearGradient>
<clipPath id="clip0_3422_26719">
<rect width="147" height="103" fill="white"/>
</clipPath>
</defs>
</svg>
