<svg width="64" height="64" viewBox="0 0 64 64" fill="none" xmlns="http://www.w3.org/2000/svg">
<ellipse cx="34.3077" cy="38.1882" rx="29.172" ry="23.1413" transform="rotate(15 34.3077 38.1882)" fill="#1C2584"/>
<path fill-rule="evenodd" clip-rule="evenodd" d="M52.5065 36.7777C58.1969 36.7777 62.8099 32.1647 62.8099 26.4743C62.8099 20.7839 58.1969 16.1709 52.5065 16.1709C46.8161 16.1709 42.2031 20.7839 42.2031 26.4743C42.2031 32.1647 46.8161 36.7777 52.5065 36.7777ZM52.5052 33.2722C56.2598 33.2722 59.3034 30.2285 59.3034 26.474C59.3034 22.7194 56.2598 19.6758 52.5052 19.6758C48.7507 19.6758 45.707 22.7194 45.707 26.474C45.707 30.2285 48.7507 33.2722 52.5052 33.2722Z" fill="#F0F0F0"/>
<circle cx="27.1731" cy="26.7199" r="25.5949" fill="white"/>
<mask id="mask0_264_29946" style="mask-type:alpha" maskUnits="userSpaceOnUse" x="5" y="4" width="45" height="45">
<circle cx="27.2134" cy="26.4019" r="22.0591" fill="#F0F0F0"/>
</mask>
<g mask="url(#mask0_264_29946)">
<ellipse cx="40.1568" cy="30.4474" rx="8.98879" ry="22.0591" transform="rotate(15 40.1568 30.4474)" fill="#F7F7F7" fill-opacity="0.968627"/>
</g>
<circle cx="27.2173" cy="26.4019" r="22.0591" fill="#2952BC"/>
<mask id="mask1_264_29946" style="mask-type:alpha" maskUnits="userSpaceOnUse" x="16" y="16" width="33" height="31">
<ellipse cx="32.3762" cy="31.2418" rx="16.1575" ry="14.8639" fill="#955836"/>
</mask>
<g mask="url(#mask1_264_29946)">
<circle cx="27.2173" cy="26.4019" r="22.0591" fill="#3E74FD"/>
</g>
<path d="M15.5064 20.4878C16.9567 21.4932 20.2617 22.1626 22.0387 22.2967C22.2424 22.3121 22.3382 22.5729 22.187 22.7101L18.2792 26.2557C18.1894 26.3372 18.0507 26.3323 17.9695 26.2422C16.5459 24.6637 15.3174 22.1303 15.1465 20.6637C15.1244 20.474 15.3494 20.379 15.5064 20.4878Z" fill="#3E74FD"/>
<circle cx="26.3648" cy="31.2417" r="1.21438" fill="#2952BC"/>
<circle cx="32.3745" cy="31.2417" r="1.21438" fill="#2952BC"/>
<circle cx="38.3863" cy="31.2417" r="1.21438" fill="#2952BC"/>
</svg>
