<svg width="153" height="103" viewBox="0 0 153 103" fill="none" xmlns="http://www.w3.org/2000/svg">
<path d="M51.9276 91.6646L48.3711 87.2335L124.088 24.3498L126.131 28.4097C127.412 30.9561 127.411 33.9591 126.129 36.5049L97.0301 94.2579C93.9726 100.326 86.999 103.323 80.4923 101.364L54.8775 93.6544C53.7156 93.3047 52.687 92.6109 51.9276 91.6646Z" fill="url(#paint0_linear_3422_26373)"/>
<path d="M77.2296 97.6475L53.0276 90.4754C47.5018 88.8378 44.9177 82.501 47.7225 77.4663L78.6623 21.9276C81.4112 16.9931 87.032 14.3984 92.5706 15.5071L119.307 20.8592C123.857 21.77 126.278 26.7753 124.167 30.9076L93.6747 90.5937C90.607 96.5985 83.6947 99.5634 77.2296 97.6475Z" fill="url(#paint1_linear_3422_26373)"/>
<path d="M77.6294 95.0918L53.9413 88.2792C49.6075 87.0328 47.5656 82.0738 49.7654 78.1373L80.5151 23.1091C82.8762 18.8839 87.6843 16.6534 92.435 17.5794L95.7891 18.2332C96.478 18.3675 96.8244 19.1451 96.4636 19.747C96.1022 20.3498 96.45 21.1283 97.1401 21.2613L107.742 23.3044C108.635 23.4766 109.552 23.1565 110.144 22.4659C110.742 21.7684 111.67 21.4494 112.571 21.6324L118.546 22.8469C121.794 23.5072 123.513 27.088 121.996 30.0352L91.6154 89.0516C88.9931 94.1456 83.1355 96.6754 77.6294 95.0918Z" fill="url(#paint2_linear_3422_26373)"/>
<g opacity="0.4" filter="url(#filter0_f_3422_26373)">
<path d="M62.4276 48.368L66.2843 41.4492C66.9449 40.2641 68.5688 40.0667 69.494 41.059L76.1335 48.1798C79.1055 51.3674 78.4736 56.4668 74.8134 58.8325L49.0821 75.4631C48.2019 76.032 47.1506 75.0356 47.6716 74.1262L62.4276 48.368Z" fill="black"/>
</g>
<path d="M16.6143 21.158L18.3122 13.4865L76.5139 39.5109L74.3519 46.0175C73.8061 47.6602 72.4554 48.9078 70.7746 49.3215L36.4463 57.7725C31.9118 58.8888 27.2849 56.3134 25.8442 51.8712L16.741 23.8014C16.464 22.9473 16.4202 22.0347 16.6143 21.158Z" fill="url(#paint3_linear_3422_26373)"/>
<path d="M18.4269 18.129C16.9318 13.834 19.4995 9.19247 23.9324 8.17694L56.3314 0.754664C60.0236 -0.0911811 63.7777 1.89794 65.1514 5.42794L76.4043 34.3454C78.0939 38.6875 75.5341 43.5173 70.9923 44.5566L37.4917 52.2227C33.6976 53.0909 29.8578 50.9661 28.5782 47.2903L18.4269 18.129Z" fill="url(#paint4_linear_3422_26373)"/>
<path d="M75.4753 41.6064C75.0405 43.6103 70.7887 44.6124 70.7887 44.6124L37.6066 52.4604C33.808 53.3589 29.9434 51.2473 28.6475 47.5653L20.2467 23.6961C20.2163 23.6095 20.1847 23.5269 20.1502 23.4418C19.7958 22.5684 17.7195 17.3401 18.1263 15.7125" stroke="url(#paint5_linear_3422_26373)" stroke-width="0.954352"/>
<path d="M39.8798 33.5996L38.0217 34.0286L29.6406 27.8441L32.5036 35.3026L30.8144 35.6925L26.9625 25.658L28.8206 25.229L37.2121 31.4405L34.3387 23.955L36.0279 23.5651L39.8798 33.5996ZM45.5575 22.892L39.8002 24.2211L40.8615 26.986L45.8728 25.8291L46.4113 27.2318L41.4 28.3887L42.5752 31.4504L48.3326 30.1212L48.871 31.5238L41.4245 33.243L37.5726 23.2084L45.0191 21.4893L45.5575 22.892ZM61.2139 28.6743L59.6796 29.0285L54.2301 22.1377L54.6964 30.1789L53.1621 30.5332L45.9177 21.2818L47.6913 20.8723L52.9112 27.6839L52.3277 19.8166L54.1577 19.3941L59.302 26.2085L58.5867 18.357L60.3603 17.9475L61.2139 28.6743ZM66.8038 24.227L65.1709 24.604L61.9501 17.0519L64.132 16.5481L66.8038 24.227ZM65.8933 26.8451C65.7932 26.5844 65.7995 26.348 65.9122 26.136C66.025 25.924 66.2174 25.7866 66.4895 25.7237C66.7711 25.6587 67.0291 25.6922 67.2636 25.824C67.5075 25.9537 67.6795 26.1489 67.7796 26.4097C67.8831 26.6794 67.8785 26.9203 67.7658 27.1323C67.6624 27.3421 67.47 27.4795 67.1885 27.5445C66.9163 27.6074 66.6583 27.5739 66.4144 27.4443C66.1705 27.3146 65.9968 27.1149 65.8933 26.8451Z" fill="#1C2584"/>
<path d="M37.5039 80.9937C30.8293 80.9937 31.2059 72.7541 31.2088 67.0913C31.2058 72.8666 30.7839 80.9937 24.9136 80.9937C30.8049 80.9937 31.2088 88.4351 31.2088 94.6167C31.2088 88.4351 30.8049 80.9937 37.5039 80.9937Z" fill="white"/>
<path d="M18.4531 57.3802C15.4532 57.3802 15.6279 54.4635 15.6292 52.4587C15.6278 54.5033 15.4326 57.3802 12.7942 57.3802C15.4421 57.3802 15.6292 60.0146 15.6292 62.203C15.6292 60.0146 15.4421 57.3802 18.4531 57.3802Z" fill="white"/>
<path d="M144.238 37.3519C138.811 37.3519 139.117 30.6538 139.119 26.0504C139.117 30.7452 138.774 37.3519 134 37.3519C138.791 37.3519 139.119 43.4011 139.119 48.4263C139.119 43.4011 138.791 37.3519 144.238 37.3519Z" fill="#FDBBF9"/>
<circle cx="148.5" cy="28.7061" r="0.871094" fill="white"/>
<defs>
<filter id="filter0_f_3422_26373" x="42.5329" y="35.4227" width="40.4813" height="45.2072" filterUnits="userSpaceOnUse" color-interpolation-filters="sRGB">
<feFlood flood-opacity="0" result="BackgroundImageFix"/>
<feBlend mode="normal" in="SourceGraphic" in2="BackgroundImageFix" result="shape"/>
<feGaussianBlur stdDeviation="2.5" result="effect1_foregroundBlur_3422_26373"/>
</filter>
<linearGradient id="paint0_linear_3422_26373" x1="124.509" y1="24.3496" x2="88.2694" y2="104.751" gradientUnits="userSpaceOnUse">
<stop stop-color="#D4591C"/>
<stop offset="1" stop-color="#853D11"/>
</linearGradient>
<linearGradient id="paint1_linear_3422_26373" x1="52.8727" y1="87.1169" x2="124.07" y2="22.4272" gradientUnits="userSpaceOnUse">
<stop stop-color="#D4591C"/>
<stop offset="1" stop-color="#FF834A"/>
</linearGradient>
<linearGradient id="paint2_linear_3422_26373" x1="128.154" y1="24.3995" x2="49.4519" y2="80.2766" gradientUnits="userSpaceOnUse">
<stop offset="0.0942789" stop-color="#FFA480"/>
<stop offset="0.37" stop-color="#FFCEBD"/>
<stop offset="0.744822" stop-color="#FFA480"/>
</linearGradient>
<linearGradient id="paint3_linear_3422_26373" x1="88.7736" y1="70.2942" x2="-12.7214" y2="11.696" gradientUnits="userSpaceOnUse">
<stop stop-color="#4194AB"/>
<stop offset="1" stop-color="#5CDBFE"/>
</linearGradient>
<linearGradient id="paint4_linear_3422_26373" x1="42.4743" y1="3.91879" x2="52.7611" y2="48.7458" gradientUnits="userSpaceOnUse">
<stop stop-color="#5CDBFE"/>
<stop offset="1" stop-color="#89E6FF"/>
</linearGradient>
<linearGradient id="paint5_linear_3422_26373" x1="18.3619" y1="15.2336" x2="75.5253" y2="40.462" gradientUnits="userSpaceOnUse">
<stop stop-color="#9BE9FF" stop-opacity="0"/>
<stop offset="0.067448" stop-color="#9BE9FF"/>
<stop offset="0.895148" stop-color="#9BE9FF"/>
<stop offset="1" stop-color="#9BE9FF" stop-opacity="0"/>
</linearGradient>
</defs>
</svg>
