<svg width="147" height="104" viewBox="0 0 147 104" fill="none" xmlns="http://www.w3.org/2000/svg">
<path d="M63.9953 7.29676L56.3008 6.56738L110.722 23.3708L119.899 24.5031L63.9953 7.29676Z" fill="#FFA480"/>
<path d="M83.2203 102.011L110.675 23.3357L56.2983 6.56836L29.3086 76.7031L83.2203 102.011Z" fill="#FF834A"/>
<g opacity="0.35" filter="url(#filter0_f_3422_26577)">
<path d="M29 76.6396L78.9435 99.8546C78.9435 99.8546 88.2987 80.6344 94.4293 65.6047C100.56 50.5749 109.402 26.7597 109.402 26.7597L58.3483 11.4648L29 76.6396Z" fill="black"/>
</g>
<path d="M96.5291 99.0366L83.207 102.014L110.639 23.3486L119.858 24.4961L96.5291 99.0366Z" fill="url(#paint0_linear_3422_26577)"/>
<path d="M13.9339 59.4362L68.5063 87.5973C68.5063 87.5973 81.0515 79.3712 91.2429 62.952C103.769 42.7708 110.8 23.3773 110.8 23.3773L56.2612 6.59023C56.2612 6.59023 54.6139 12.9807 41.0805 33.7422C27.5472 54.5037 13.9339 59.4362 13.9339 59.4362Z" fill="url(#paint1_linear_3422_26577)"/>
<path d="M110.447 23.2483C110.447 23.2483 103.769 42.7732 91.2429 62.9544C81.0516 79.3737 68.2937 87.9819 68.2937 87.9819L13.7213 59.8207" stroke="url(#paint2_linear_3422_26577)" stroke-width="0.884221"/>
<path d="M46.76 45.0935C50.0437 46.4202 53.3968 45.1828 55.3325 41.9612C57.2683 38.7395 56.4217 35.8054 53.138 34.4787L50.3333 33.3712L43.9801 43.9447L46.76 45.0935ZM39.4655 45.1748L48.7719 29.6862L54.6469 32.0599C59.5613 34.0454 61.1128 38.6246 58.3705 43.1886C55.6282 47.7526 50.2549 49.534 45.3404 47.5484L39.4655 45.1748ZM73.1817 39.5484L70.4427 57.6904L67.1813 56.3727L67.8785 51.7011L60.9089 48.8852L56.794 52.176L53.5327 50.8583L69.5406 38.0773L73.1817 39.5484ZM63.3883 46.8841L68.3027 48.8697L69.3373 42.2042L63.3883 46.8841ZM94.3357 48.0952L82.0082 54.8434L78.3725 60.8942L75.3345 59.6668L78.9702 53.6159L78.0065 41.4977L81.6253 42.9598L82.0651 51.6069L90.7169 46.6331L94.3357 48.0952Z" fill="#FF834A"/>
<ellipse cx="95.271" cy="23.3623" rx="1.40157" ry="1.79914" transform="rotate(15 95.271 23.3623)" fill="#363636"/>
<ellipse cx="65.0754" cy="13.9013" rx="1.33659" ry="1.78417" transform="rotate(15 65.0754 13.9013)" fill="#363636"/>
<path d="M93.9302 24.4689C94.2984 25.1022 95.1102 25.3171 95.7435 24.949C96.3767 24.5809 96.5917 23.7691 96.2236 23.1358L93.9302 24.4689ZM95.2482 19.5039C95.2482 15.5059 98.4893 12.2648 102.487 12.2648V9.61214C97.0242 9.61214 92.5955 14.0408 92.5955 19.5039H95.2482ZM96.2236 23.1358C95.6036 22.0693 95.2482 20.8301 95.2482 19.5039H92.5955C92.5955 21.3109 93.0813 23.0085 93.9302 24.4689L96.2236 23.1358ZM102.487 12.2648C104.686 12.2648 106.53 13.2531 107.648 14.7938C108.759 16.3266 109.213 18.4951 108.44 20.9776L110.972 21.7668C111.977 18.5422 111.432 15.4938 109.795 13.2365C108.164 10.9871 105.51 9.61214 102.487 9.61214V12.2648Z" fill="url(#paint3_linear_3422_26577)"/>
<path d="M63.6998 14.9894C64.0679 15.6227 64.8797 15.8377 65.513 15.4695C66.1463 15.1014 66.3612 14.2896 65.9931 13.6563L63.6998 14.9894ZM65.0177 10.0244C65.0177 6.02637 68.2588 2.78532 72.2568 2.78532V0.132652C66.7938 0.132652 62.3651 4.56135 62.3651 10.0244H65.0177ZM65.9931 13.6563C65.3732 12.5899 65.0177 11.3507 65.0177 10.0244H62.3651C62.3651 11.8314 62.8508 13.529 63.6998 14.9894L65.9931 13.6563ZM72.2568 2.78532C76.5447 2.78532 79.7767 6.69164 78.246 11.6853L80.7822 12.4627C82.811 5.84399 78.4112 0.132652 72.2568 0.132652V2.78532Z" fill="url(#paint4_linear_3422_26577)"/>
<circle cx="142.094" cy="46.043" r="1" fill="white"/>
<path d="M129.601 51.9578C133.455 62.0306 128.41 62.0258 132.244 51.9604C122.179 55.7951 122.175 50.7493 132.247 54.6039C128.393 44.5311 133.438 44.5359 129.603 54.6014C139.668 50.766 139.674 55.8117 129.601 51.9578Z" fill="white"/>
<path d="M104.9 64.1433L112.09 90.9767C112.167 91.2638 112.327 91.5217 112.55 91.7178C112.773 91.9139 113.049 92.0393 113.344 92.0782C113.638 92.117 113.938 92.0676 114.204 91.9361C114.471 91.8045 114.692 91.5969 114.84 91.3394L120.271 81.9334C121.066 80.5553 122.376 79.5495 123.913 79.1374L133.279 76.6279C133.579 76.5471 133.847 76.3747 134.046 76.1346C134.244 75.8946 134.363 75.5988 134.385 75.2882C134.408 74.9777 134.333 74.6678 134.172 74.4015C134.011 74.1353 133.77 73.9259 133.484 73.8024L106.943 62.3755C106.684 62.2639 106.398 62.2276 106.12 62.2706C105.841 62.3137 105.58 62.4344 105.367 62.619C105.154 62.8035 104.997 63.0444 104.915 63.314C104.832 63.5836 104.827 63.871 104.9 64.1433Z" fill="#FDBBF9" stroke="url(#paint5_linear_3422_26577)" stroke-width="1.5"/>
<defs>
<filter id="filter0_f_3422_26577" x="25.4631" y="7.92796" width="87.4754" height="95.4637" filterUnits="userSpaceOnUse" color-interpolation-filters="sRGB">
<feFlood flood-opacity="0" result="BackgroundImageFix"/>
<feBlend mode="normal" in="SourceGraphic" in2="BackgroundImageFix" result="shape"/>
<feGaussianBlur stdDeviation="1.76844" result="effect1_foregroundBlur_3422_26577"/>
</filter>
<linearGradient id="paint0_linear_3422_26577" x1="101.372" y1="23.3555" x2="101.372" y2="101.832" gradientUnits="userSpaceOnUse">
<stop stop-color="#D4591C"/>
<stop offset="1" stop-color="#853D11"/>
</linearGradient>
<linearGradient id="paint1_linear_3422_26577" x1="79.246" y1="14.1246" x2="42.0405" y2="73.1273" gradientUnits="userSpaceOnUse">
<stop stop-color="#FFECE5"/>
<stop offset="1" stop-color="#FFCEBD"/>
</linearGradient>
<linearGradient id="paint2_linear_3422_26577" x1="110.806" y1="23.3801" x2="15.2516" y2="59.7662" gradientUnits="userSpaceOnUse">
<stop stop-color="#FFA480"/>
<stop offset="0.59896" stop-color="#FF834A"/>
<stop offset="1" stop-color="#FFA480"/>
</linearGradient>
<linearGradient id="paint3_linear_3422_26577" x1="102.06" y1="10.9385" x2="102.06" y2="23.8023" gradientUnits="userSpaceOnUse">
<stop stop-color="#FF834A"/>
<stop offset="1" stop-color="#AD4E17"/>
</linearGradient>
<linearGradient id="paint4_linear_3422_26577" x1="71.8297" y1="1.45898" x2="71.8297" y2="14.3229" gradientUnits="userSpaceOnUse">
<stop stop-color="#FF834A"/>
<stop offset="1" stop-color="#AD4E17"/>
</linearGradient>
<linearGradient id="paint5_linear_3422_26577" x1="104.512" y1="63.4461" x2="120.898" y2="92.4282" gradientUnits="userSpaceOnUse">
<stop stop-color="#FFDDFD"/>
<stop offset="1" stop-color="#BC60A7"/>
</linearGradient>
</defs>
</svg>
