<svg width="129" height="103" viewBox="0 0 129 103" fill="none" xmlns="http://www.w3.org/2000/svg">
<path fill-rule="evenodd" clip-rule="evenodd" d="M21.1254 2.13184C10.1528 2.13184 1.25781 11.0268 1.25781 21.9994C1.25781 32.972 10.1528 41.867 21.1254 41.867H51.8913L60.7773 50.9609L60.7739 41.867H61.8483C72.8209 41.867 81.7159 32.972 81.7159 21.9994C81.7159 11.0268 72.8209 2.13184 61.8483 2.13184H21.1254Z" fill="url(#paint0_linear_3422_26641)"/>
<path d="M21.1285 50.249C32.1011 50.249 40.9961 59.144 40.9961 70.1166L40.9961 80.3084C40.9961 91.281 32.1011 100.176 21.1285 100.176C10.156 100.176 1.26095 91.281 1.26095 80.3084L1.26095 70.1166C1.26095 59.144 10.156 50.249 21.1285 50.249Z" fill="#3F3F47"/>
<path d="M21.1289 60.5195V89.9059" stroke="white" stroke-width="0.710345"/>
<path d="M57.0297 75.2037L55.5465 73.8535C50.2786 69.0766 46.8008 65.9158 46.8008 62.0595C46.8008 58.8988 49.2762 56.4336 52.4267 56.4336C54.2066 56.4336 55.9148 57.2621 57.0297 58.5612C58.1447 57.2621 59.8529 56.4336 61.6328 56.4336C64.7833 56.4336 67.2587 58.8988 67.2587 62.0595C67.2587 65.9158 63.7809 69.0766 58.5129 73.8535L57.0297 75.2037Z" fill="#FF6E1D"/>
<path d="M57.0297 100.159L55.5465 98.8086C50.2786 94.0317 46.8008 90.8709 46.8008 87.0146C46.8008 83.8539 49.2762 81.3887 52.4267 81.3887C54.2066 81.3887 55.9148 82.2172 57.0297 83.5163C58.1447 82.2172 59.8529 81.3887 61.6328 81.3887C64.7833 81.3887 67.2587 83.8539 67.2587 87.0146C67.2587 90.8709 63.7809 94.0317 58.5129 98.8086L57.0297 100.159Z" fill="#FDBBF9"/>
<rect x="87.8008" y="2.13086" width="39.7793" height="39.7793" rx="19.8897" fill="#FF6E1D"/>
<path d="M107.694 32.2672L106.211 30.917C100.943 26.1401 97.4648 22.9793 97.4648 19.123C97.4648 15.9623 99.9403 13.4971 103.091 13.4971C104.871 13.4971 106.579 14.3256 107.694 15.6247C108.809 14.3256 110.517 13.4971 112.297 13.4971C115.447 13.4971 117.923 15.9623 117.923 19.123C117.923 22.9793 114.445 26.1401 109.177 30.917L107.694 32.2672Z" fill="white"/>
<circle cx="24.5879" cy="22.0215" r="2.86913" fill="#BC60A7"/>
<circle cx="41.6916" cy="22.0215" r="2.86913" fill="#BC60A7"/>
<circle cx="58.7954" cy="22.0215" r="2.86913" fill="#BC60A7"/>
<path fill-rule="evenodd" clip-rule="evenodd" d="M78.9484 100.159C75.8099 100.159 73.2656 97.6597 73.2656 94.5764V62.6423C73.2656 59.559 75.8099 57.0595 78.9484 57.0595H94.1115C94.7713 57.0595 95.3939 56.7538 95.7975 56.2318L99.298 51.7037C99.8667 50.9681 100.977 50.9681 101.546 51.7037L105.046 56.2318C105.45 56.7538 106.073 57.0595 106.732 57.0595H121.896C125.035 57.0595 127.579 59.559 127.579 62.6423V94.5764C127.579 97.6597 125.035 100.159 121.896 100.159H78.9484Z" fill="#FFCEBD"/>
<path d="M84.4492 68.957H116.395" stroke="#FFA480" stroke-width="1.77586" stroke-linecap="round"/>
<path d="M84.4492 78.9023H116.395" stroke="#FFA480" stroke-width="1.77586" stroke-linecap="round"/>
<path d="M84.4492 88.8467H116.395" stroke="#FFA480" stroke-width="1.77586" stroke-linecap="round"/>
<path d="M5.25391 42V50.513" stroke="white" stroke-width="0.537767"/>
<path d="M9.51172 46.2559L0.998681 46.2559" stroke="white" stroke-width="0.537767"/>
<path d="M8.26562 43.2451L2.246 49.2647" stroke="white" stroke-width="0.537767"/>
<path d="M8.26562 49.2666L2.246 43.247" stroke="white" stroke-width="0.537767"/>
<circle cx="84.694" cy="3.69396" r="1.40036" stroke="white" stroke-width="0.58721"/>
<path d="M119.544 50.5422C123.873 61.8578 118.206 61.8524 122.514 50.545C111.206 54.8529 111.202 49.1845 122.516 53.5147C118.187 42.1991 123.855 42.2045 119.547 53.5119C130.853 49.2032 130.86 54.8716 119.544 50.5422Z" fill="white"/>
<defs>
<linearGradient id="paint0_linear_3422_26641" x1="18" y1="2" x2="54.5" y2="39.5" gradientUnits="userSpaceOnUse">
<stop stop-color="#FFE6FD"/>
<stop offset="1" stop-color="#FDBBF9"/>
</linearGradient>
</defs>
</svg>
