<svg width="153" height="103" viewBox="0 0 153 103" fill="none" xmlns="http://www.w3.org/2000/svg">
<path d="M48.957 2H94.9967L88.3975 9.83054L94.9967 17.6611H48.957V2Z" fill="url(#paint0_linear_3422_26418)"/>
<g clip-path="url(#clip0_3422_26418)">
<path d="M58.2914 9.19238H57.8511C57.8083 9.19238 57.7734 9.2271 57.7734 9.27004V13.4624C57.7734 13.5053 57.8083 13.5401 57.8511 13.5401H58.2914C58.3343 13.5401 58.3691 13.5053 58.3691 13.4624V9.27004C58.3691 9.22719 58.3343 9.19238 58.2914 9.19238Z" fill="white"/>
<path d="M56.346 7.98641H55.1328C54.7517 7.98641 54.4426 7.67758 54.4426 7.29689V7.24673C54.4426 7.21924 54.4649 7.19684 54.4925 7.19684H54.9909C55.0185 7.19684 55.0408 7.21915 55.0408 7.24673C55.0408 7.32546 55.1045 7.3891 55.1832 7.3891H56.3754C56.5075 7.3891 56.6146 7.28208 56.6146 7.15016V6.96655C56.6146 6.86114 56.529 6.77563 56.4235 6.77563H55.2152C54.7598 6.77563 54.3906 6.40682 54.3906 5.95188V5.7589C54.3906 5.28102 54.7784 4.89355 55.2568 4.89355H56.3975C56.8186 4.89355 57.1602 5.23478 57.1602 5.65554C57.1602 5.68303 57.1378 5.70544 57.1102 5.70544H56.5958C56.5773 5.70544 56.5622 5.69035 56.5622 5.67197V5.65046C56.5622 5.56245 56.4907 5.49095 56.4027 5.49095H55.223C55.0936 5.49095 54.9886 5.59583 54.9886 5.72516V5.9176C54.9886 6.06175 55.1055 6.17832 55.2496 6.17832H56.4852C56.8868 6.17832 57.2123 6.50349 57.2123 6.9047V7.12079C57.2123 7.59867 56.8245 7.98614 56.3461 7.98614V7.98641H56.346Z" fill="white"/>
<path d="M59.4491 5.50457C59.6026 5.50457 59.7273 5.62944 59.7273 5.78269V7.12173C59.7273 7.27516 59.6023 7.39977 59.4491 7.39977H58.3952C58.2417 7.39977 58.1171 7.2749 58.1171 7.12173V5.78269C58.1171 5.62926 58.242 5.50457 58.3952 5.50457H59.4491ZM59.4491 4.90735H58.3952C57.9116 4.90735 57.5196 5.29919 57.5196 5.7826V7.12164C57.5196 7.60515 57.9116 7.9969 58.3952 7.9969H59.4491C59.9327 7.9969 60.3248 7.60506 60.3248 7.12164V5.7826C60.3248 5.2991 59.9327 4.90735 59.4491 4.90735Z" fill="white"/>
<path d="M73.5545 11.0962C73.708 11.0962 73.8327 11.2211 73.8327 11.3744V12.7134C73.8327 12.8668 73.7078 12.9914 73.5545 12.9914H72.5006C72.3471 12.9914 72.2225 12.8666 72.2225 12.7134V11.3744C72.2225 11.2209 72.3474 11.0962 72.5006 11.0962H73.5545ZM73.5545 10.499H72.5006C72.017 10.499 71.625 10.8909 71.625 11.3743V12.7133C71.625 13.1968 72.017 13.5886 72.5006 13.5886H73.5545C74.0382 13.5886 74.4302 13.1967 74.4302 12.7133V11.3743C74.4302 10.8908 74.0382 10.499 73.5545 10.499Z" fill="white"/>
<path d="M61.2636 4.90723H60.8264C60.782 4.90723 60.7461 4.9432 60.7461 4.98747V9.19041C60.7461 9.23477 60.7821 9.27065 60.8264 9.27065H61.2636C61.3079 9.27065 61.3438 9.23468 61.3438 9.19041V4.98756C61.3438 4.9432 61.3079 4.90732 61.2636 4.90732V4.90723Z" fill="white"/>
<path d="M71.2146 10.5755C71.2146 10.5324 71.1798 10.4976 71.1366 10.4976H70.056C69.7672 10.4976 69.6372 10.6404 69.5591 10.9V10.5623C69.5591 10.5192 69.5244 10.4844 69.4812 10.4844H69.039C68.9959 10.4844 68.9609 10.5192 68.9609 10.5623V13.4919C68.9609 13.535 68.9958 13.5698 69.039 13.5698H69.4812C69.5243 13.5698 69.5591 13.535 69.5591 13.4919V11.5235C69.5591 11.2867 69.7512 11.0949 69.9884 11.0949H71.1363C71.1794 11.0949 71.2143 11.0601 71.2143 11.017V10.5753L71.2146 10.5756V10.5755Z" fill="white"/>
<path d="M59.0312 10.5727V11.0143C59.0312 11.0574 59.0661 11.0922 59.1092 11.0922H60.8504C60.9885 11.0922 61.1002 11.2039 61.1002 11.3418V13.5168C61.1002 13.5599 61.135 13.5948 61.1781 13.5948H61.6203C61.6634 13.5948 61.6983 13.5599 61.6983 13.5168V11.1443C61.6983 10.7873 61.4058 10.4951 61.0485 10.4951H59.1095C59.0663 10.4951 59.0315 10.5299 59.0315 10.573L59.0312 10.5728V10.5727Z" fill="white"/>
<path d="M62.7422 4.91912H61.7829C61.5122 4.91912 61.293 5.13834 61.293 5.40852V7.44439C61.293 7.75045 61.5414 7.99877 61.848 7.99877H62.7424C63.1701 7.99877 63.5167 7.65245 63.5167 7.22535V5.69263C63.5167 5.26553 63.1701 4.91921 62.7424 4.91921L62.7422 4.91895V4.91912ZM62.9313 7.0912C62.9313 7.26088 62.7937 7.39824 62.6238 7.39824H61.6902C61.4995 7.39824 61.345 7.24392 61.345 7.05353V5.87284C61.345 5.68245 61.4995 5.52813 61.6902 5.52813H62.6238C62.7937 5.52813 62.9313 5.66558 62.9313 5.83517V7.09147V7.0912Z" fill="white"/>
<path d="M68.3109 10.4844H67.8737C67.8293 10.4844 67.7934 10.5203 67.7934 10.5646V14.1369C67.7934 14.476 67.5207 14.7507 67.1817 14.7507H65.8277C65.7847 14.7507 65.75 14.7854 65.75 14.8283V15.2687C65.75 15.3118 65.7847 15.3464 65.8277 15.3464H67.2907C67.8985 15.3464 68.3912 14.8537 68.3912 14.2461V10.5646C68.3912 10.5203 68.3552 10.4844 68.3109 10.4844H68.3109Z" fill="white"/>
<path d="M66.3995 10.4969H67.3587C67.6295 10.4969 67.8487 10.7162 67.8487 10.9863V13.0222C67.8487 13.3283 67.6003 13.5766 67.2936 13.5766H66.3992C65.9716 13.5766 65.6249 13.2303 65.6249 12.8032V11.2705C65.6249 10.8434 65.9719 10.4969 66.3995 10.4969ZM66.2104 12.669C66.2104 12.8387 66.348 12.9761 66.5178 12.9761H67.4515C67.6422 12.9761 67.7966 12.8217 67.7966 12.6314V11.4507C67.7966 11.2603 67.6422 11.106 67.4515 11.106H66.5178C66.348 11.106 66.2104 11.2434 66.2104 11.413V12.669Z" fill="white"/>
<path d="M83.6662 13.5402H84.1034C84.1478 13.5402 84.1837 13.5042 84.1837 13.4599V9.257C84.1837 9.21264 84.1477 9.17676 84.1034 9.17676H83.6662C83.6218 9.17676 83.5859 9.21273 83.5859 9.257V13.4599C83.5859 13.5043 83.6219 13.5402 83.6662 13.5402Z" fill="white"/>
<path d="M82.2003 13.5289H83.1596C83.4303 13.5289 83.6495 13.3096 83.6495 13.0395V11.0036C83.6495 10.6975 83.4011 10.4492 83.0945 10.4492H82.2001C81.7724 10.4492 81.4258 10.7955 81.4258 11.2226V12.7554C81.4258 13.1825 81.7724 13.5288 82.2001 13.5288L82.2003 13.529V13.5289ZM82.0112 11.3568C82.0112 11.1871 82.1488 11.0497 82.3187 11.0497H83.2523C83.443 11.0497 83.5975 11.2041 83.5975 11.3945V12.5751C83.5975 12.7655 83.443 12.9199 83.2523 12.9199H82.3187C82.1488 12.9199 82.0112 12.7824 82.0112 12.6128V11.3565V11.3568Z" fill="white"/>
<path d="M80.8956 13.5414C80.9422 13.5414 80.9799 13.5037 80.9799 13.4571V11.2527C80.9799 10.8256 80.6333 10.4793 80.2056 10.4793L80.2054 10.479H79.2462C79.0606 10.479 78.8994 10.582 78.8162 10.7338C78.8142 10.7374 78.8088 10.7361 78.8088 10.7319V10.5501C78.8088 10.5036 78.7711 10.4658 78.7245 10.4658H78.2952C78.2487 10.4658 78.2109 10.5036 78.2109 10.5501V13.457C78.2109 13.5035 78.2486 13.5413 78.2952 13.5413H78.7245C78.771 13.5413 78.8088 13.5035 78.8088 13.457V11.413C78.819 11.2317 78.9693 11.0879 79.1534 11.0879H80.0871C80.2569 11.0879 80.3945 11.2254 80.3945 11.395V13.457C80.3945 13.5035 80.4322 13.5413 80.4788 13.5413H80.8957L80.8956 13.5414Z" fill="white"/>
<path d="M75.057 10.4658C75.0104 10.4658 74.9727 10.5035 74.9727 10.5501V12.7545C74.9727 13.1816 75.3193 13.5279 75.7469 13.5279L75.7472 13.5281H76.7064C76.892 13.5281 77.0532 13.4251 77.1364 13.2734C77.1384 13.2697 77.1438 13.2711 77.1438 13.2753V13.4571C77.1438 13.5036 77.1815 13.5414 77.2281 13.5414H77.6574C77.7039 13.5414 77.7417 13.5036 77.7417 13.4571V10.5502C77.7417 10.5037 77.704 10.4659 77.6574 10.4659H77.2281C77.1816 10.4659 77.1438 10.5037 77.1438 10.5502V12.5942C77.1336 12.7754 76.9833 12.9192 76.7992 12.9192H75.8655C75.6957 12.9192 75.5581 12.7818 75.5581 12.6122V10.5502C75.5581 10.5037 75.5204 10.4659 75.4738 10.4659H75.0569L75.057 10.4658Z" fill="white"/>
<path d="M64.9464 10.4658H64.5172C64.4707 10.4658 64.4329 10.5036 64.4329 10.5501V12.5938C64.4329 12.5938 64.4329 12.594 64.4329 12.5941C64.4227 12.7754 64.2724 12.9191 64.0884 12.9191H63.1547C62.9848 12.9191 62.8472 12.7817 62.8472 12.6121V10.5501C62.8472 10.5036 62.8096 10.4658 62.7629 10.4658H62.346C62.2995 10.4658 62.2617 10.5036 62.2617 10.5501V12.7545C62.2617 13.1816 62.6084 13.5279 63.036 13.5279L63.0363 13.5281H63.9955C64.1811 13.5281 64.3422 13.4251 64.4255 13.2734C64.4274 13.2697 64.4329 13.2711 64.4329 13.2753V14.1359C64.4329 14.4751 64.1602 14.7497 63.8212 14.7497H62.4672C62.4242 14.7497 62.3895 14.7844 62.3895 14.8274V15.2678C62.3895 15.3108 62.4242 15.3454 62.4672 15.3454H63.9302C64.538 15.3454 65.0307 14.8527 65.0307 14.2451V10.5502C65.0307 10.5037 64.993 10.4659 64.9465 10.4659L64.9464 10.4658Z" fill="white"/>
<path d="M54.9081 10.4844H54.4709C54.4265 10.4844 54.3906 10.5203 54.3906 10.5646V14.7676C54.3906 14.8119 54.4266 14.8478 54.4709 14.8478H54.9081C54.9525 14.8478 54.9884 14.8118 54.9884 14.7676V10.5646C54.9884 10.5203 54.9524 10.4844 54.9081 10.4844Z" fill="white"/>
<path d="M56.3789 10.4963H55.4197C55.1489 10.4963 54.9297 10.7155 54.9297 10.9857V13.0215C54.9297 13.3276 55.1781 13.5759 55.4848 13.5759H56.3792C56.8068 13.5759 57.1534 13.2296 57.1534 12.8025V11.2698C57.1534 10.8427 56.8068 10.4964 56.3792 10.4964L56.3789 10.4961V10.4963ZM56.568 12.6683C56.568 12.838 56.4304 12.9754 56.2606 12.9754H55.3269C55.1362 12.9754 54.9817 12.8211 54.9817 12.6307V11.45C54.9817 11.2596 55.1362 11.1053 55.3269 11.1053H56.2606C56.4304 11.1053 56.568 11.2427 56.568 11.4123V12.6686V12.6683Z" fill="white"/>
<path d="M65.0339 7.38867C64.8324 7.38867 64.6692 7.2256 64.6692 7.02432V5.50222H65.735C65.7781 5.50222 65.813 5.46741 65.813 5.4243V4.98256C65.813 4.93945 65.7782 4.90464 65.735 4.90464H64.6692V4.14042C64.6692 4.09731 64.6345 4.0625 64.5912 4.0625H64.2011C64.158 4.0625 64.1231 4.09731 64.1231 4.14042V4.72604C64.1231 4.82476 64.043 4.90473 63.9442 4.90473H63.8631C63.82 4.90473 63.7852 4.93954 63.7852 4.98265V5.42439C63.7852 5.4675 63.82 5.50231 63.8631 5.50231H64.0711V7.02441C64.0711 7.55549 64.5021 7.98607 65.0337 7.98607H65.7405C65.7836 7.98607 65.8184 7.95126 65.8184 7.90815V7.46641C65.8184 7.4233 65.7837 7.38849 65.7405 7.38849H65.0337L65.034 7.38876L65.0339 7.38867Z" fill="white"/>
<path d="M59.4604 11.8155C59.1135 11.8155 58.832 12.0964 58.832 12.4433V12.9482C58.832 13.2947 59.1132 13.5759 59.4604 13.5759H60.3777C61.0085 13.5759 61.2527 13.065 61.2527 12.435V11.6289L59.4603 11.8155H59.4604ZM61.0968 12.4671C61.0968 12.7808 60.8972 12.9829 60.5832 12.9829H59.7423C59.5697 12.9829 59.4297 12.8949 59.4297 12.7226V12.6271C59.4297 12.4547 59.5698 12.3667 59.7423 12.3667L61.0968 12.2219V12.4672V12.4671Z" fill="white"/>
</g>
<path d="M74.309 57.8271H66.6328C66.0633 57.8271 65.6016 58.2889 65.6016 58.8584V67.1808C65.6016 67.7503 66.0633 68.212 66.6328 68.212H70.099C72.6498 68.212 75.0882 69.2618 76.8412 71.1148L101.814 97.5116C103.567 99.3645 106.005 100.414 108.556 100.414H115.666C116.235 100.414 116.697 99.9527 116.697 99.3831V91.4971C116.697 90.9275 116.235 90.4658 115.666 90.4658H113.775C111.262 90.4658 108.856 89.4464 107.107 87.6406L80.9769 60.6524C79.2285 58.8466 76.8225 57.8271 74.309 57.8271Z" fill="url(#paint1_linear_3422_26418)"/>
<path d="M48.957 2V25.6249" stroke="url(#paint2_linear_3422_26418)" stroke-width="1.54688"/>
<path fill-rule="evenodd" clip-rule="evenodd" d="M67.6353 38.0264H29.6562V69.0716H67.6353V38.0264ZM48.6466 49.3477C42.8422 49.3477 38.1367 54.0531 38.1367 59.8575V69.0713H59.1565V59.8575C59.1565 54.0531 54.4511 49.3477 48.6466 49.3477Z" fill="url(#paint3_linear_3422_26418)"/>
<rect x="65.7344" y="79.3438" width="34.0312" height="2.0625" rx="1.03125" transform="rotate(-180 65.7344 79.3438)" fill="#AD4E17"/>
<rect x="65.7344" y="85.5312" width="34.0312" height="2.0625" rx="1.03125" transform="rotate(-180 65.7344 85.5312)" fill="#D4591C"/>
<rect x="65.7344" y="91.7188" width="34.0312" height="2.0625" rx="1.03125" transform="rotate(-180 65.7344 91.7188)" fill="#F77234"/>
<rect x="34.7969" y="71.0938" width="29.9062" height="5.15625" rx="0.515625" transform="rotate(90 34.7969 71.0938)" fill="url(#paint4_linear_3422_26418)"/>
<g filter="url(#filter0_d_3422_26418)">
<rect x="84.2969" y="43.25" width="37.125" height="37.125" rx="18.5625" fill="#5CDBFE"/>
<rect x="85.0703" y="44.0234" width="35.5781" height="35.5781" rx="17.7891" stroke="url(#paint5_linear_3422_26418)" stroke-width="1.54688"/>
<path d="M102.859 53.5625V70.0625" stroke="#0E5A6F" stroke-width="3.09375" stroke-linecap="round"/>
<path d="M111.109 61.8125L94.6094 61.8125" stroke="#0E5A6F" stroke-width="3.09375" stroke-linecap="round"/>
</g>
<path d="M48.2554 21.5566C48.6353 21.2459 49.1815 21.2459 49.5613 21.5566L72.4651 40.2918C73.2152 40.9055 72.7813 42.1213 71.8121 42.1213H26.0047C25.0355 42.1213 24.6015 40.9055 25.3517 40.2918L48.2554 21.5566Z" fill="#FFCEBD"/>
<rect x="67.7969" y="71.0938" width="29.9062" height="5.15625" rx="0.515625" transform="rotate(90 67.7969 71.0938)" fill="url(#paint6_linear_3422_26418)"/>
<rect x="25.5156" y="68" width="45.375" height="5.15625" rx="1.03125" fill="url(#paint7_linear_3422_26418)"/>
<path d="M125.672 41.1875V49.7005" stroke="white" stroke-width="0.537767"/>
<path d="M129.93 45.4434L121.417 45.4434" stroke="white" stroke-width="0.537767"/>
<path d="M128.684 42.4326L122.664 48.4522" stroke="white" stroke-width="0.537767"/>
<path d="M128.684 48.4541L122.664 42.4345" stroke="white" stroke-width="0.537767"/>
<circle cx="117.96" cy="35.6627" r="1.40036" stroke="white" stroke-width="0.58721"/>
<defs>
<filter id="filter0_d_3422_26418" x="79.1406" y="41.1875" width="45.375" height="45.375" filterUnits="userSpaceOnUse" color-interpolation-filters="sRGB">
<feFlood flood-opacity="0" result="BackgroundImageFix"/>
<feColorMatrix in="SourceAlpha" type="matrix" values="0 0 0 0 0 0 0 0 0 0 0 0 0 0 0 0 0 0 127 0" result="hardAlpha"/>
<feOffset dx="-1.03125" dy="2.0625"/>
<feGaussianBlur stdDeviation="2.0625"/>
<feComposite in2="hardAlpha" operator="out"/>
<feColorMatrix type="matrix" values="0 0 0 0 0.275765 0 0 0 0 0.275765 0 0 0 0 0.275765 0 0 0 0.5 0"/>
<feBlend mode="normal" in2="BackgroundImageFix" result="effect1_dropShadow_3422_26418"/>
<feBlend mode="normal" in="SourceGraphic" in2="effect1_dropShadow_3422_26418" result="shape"/>
</filter>
<linearGradient id="paint0_linear_3422_26418" x1="71.9769" y1="2" x2="71.9769" y2="17.6611" gradientUnits="userSpaceOnUse">
<stop stop-color="#F77234"/>
<stop offset="1" stop-color="#F77234"/>
</linearGradient>
<linearGradient id="paint1_linear_3422_26418" x1="79" y1="58" x2="66" y2="58" gradientUnits="userSpaceOnUse">
<stop stop-color="#D4591C"/>
<stop offset="1" stop-color="#AD4E17"/>
</linearGradient>
<linearGradient id="paint2_linear_3422_26418" x1="49.457" y1="2" x2="49.457" y2="25.6249" gradientUnits="userSpaceOnUse">
<stop stop-color="#F77234"/>
<stop offset="1" stop-color="#853D11"/>
</linearGradient>
<linearGradient id="paint3_linear_3422_26418" x1="48.2026" y1="42.7345" x2="48.6458" y2="69.0716" gradientUnits="userSpaceOnUse">
<stop stop-color="#FFA480"/>
<stop offset="1" stop-color="#FFCEBD"/>
</linearGradient>
<linearGradient id="paint4_linear_3422_26418" x1="34.7969" y1="73.6719" x2="64.7031" y2="73.6719" gradientUnits="userSpaceOnUse">
<stop stop-color="#D4591C"/>
<stop offset="1" stop-color="#FFA480"/>
</linearGradient>
<linearGradient id="paint5_linear_3422_26418" x1="116.266" y1="75.2187" x2="89.4531" y2="48.4063" gradientUnits="userSpaceOnUse">
<stop stop-color="#35B1FF"/>
<stop offset="1" stop-color="#C2F0FF"/>
</linearGradient>
<linearGradient id="paint6_linear_3422_26418" x1="67.7969" y1="73.6719" x2="97.7031" y2="73.6719" gradientUnits="userSpaceOnUse">
<stop stop-color="#D4591C"/>
<stop offset="1" stop-color="#FFA480"/>
</linearGradient>
<linearGradient id="paint7_linear_3422_26418" x1="25.5156" y1="70.5781" x2="70.8906" y2="70.5781" gradientUnits="userSpaceOnUse">
<stop stop-color="#FF834A"/>
<stop offset="1" stop-color="#FFA480"/>
</linearGradient>
<clipPath id="clip0_3422_26418">
<rect width="29.7989" height="11.2831" fill="white" transform="translate(54.3906 4.0625)"/>
</clipPath>
</defs>
</svg>
