<svg viewBox="0 0 3948 1072" fill="none" xmlns="http://www.w3.org/2000/svg">
<path d="M612.314 1023.04V772.12C612.314 737.804 627.469 705.239 653.723 683.143L1450.47 12.5705C1482.24 -14.175 1530.78 8.41776 1530.78 49.9551L1530.78 304.591C1530.79 339.019 1515.53 371.677 1489.13 393.773L692.528 1060.52C660.725 1087.13 612.314 1064.52 612.314 1023.04Z" fill="white"/>
<path d="M1273.5 1072C1246.51 1072 1224.63 1050.12 1224.63 1023.13L1224.63 814.713C1224.63 787.723 1246.51 765.843 1273.5 765.843L1481.91 765.843C1508.9 765.843 1530.78 787.723 1530.78 814.713L1530.78 1023.13C1530.78 1050.12 1508.9 1072 1481.91 1072L1273.5 1072Z" fill="white"/>
<path fill-rule="evenodd" clip-rule="evenodd" d="M4.1411 1042.6C1.47856 1036.57 9.29861e-06 1029.9 8.76427e-06 1022.88L0 814.496C-6.03698e-08 813.061 0.0618758 811.64 0.183105 810.236V772.12C0.183105 737.803 15.3349 705.239 41.5831 683.143L838.168 12.5705C869.94 -14.175 918.467 8.41776 918.468 49.9551L918.47 304.591C918.471 339.019 903.221 371.677 876.827 393.773L306.015 871.626V1022.88C306.015 1049.87 284.146 1071.74 257.168 1071.74H54.2357C33.4673 1073.9 12.6216 1062.25 4.1411 1042.6Z" fill="white"/>
<path d="M1956.97 437.983H1821.6C1779.07 437.983 1744.58 403.512 1744.58 361.011V355.416C1744.58 352.343 1747.08 349.85 1750.15 349.85H1805.76C1808.83 349.85 1811.33 352.343 1811.33 355.416C1811.33 364.2 1818.43 371.303 1827.22 371.303H1960.25C1974.98 371.303 1986.93 359.359 1986.93 344.631V324.135C1986.93 312.364 1977.39 302.826 1965.61 302.826H1830.79C1779.97 302.826 1738.78 261.659 1738.78 210.866V189.326C1738.78 135.982 1782.06 92.7275 1835.43 92.7275H1962.71C2009.7 92.7275 2047.82 130.822 2047.82 177.788C2047.82 180.861 2045.32 183.354 2042.25 183.354H1984.84C1982.78 183.354 1981.1 181.672 1981.1 179.614V177.208C1981.1 167.38 1973.13 159.407 1963.29 159.407H1831.66C1817.22 159.407 1805.5 171.12 1805.5 185.557V207.04C1805.5 223.13 1818.55 236.147 1834.62 236.147H1972.49C2017.3 236.147 2053.62 272.444 2053.62 317.235V341.355C2053.62 394.699 2010.34 437.954 1956.97 437.954V437.983Z" fill="white"/>
<path d="M3850.64 1067.91H3715.27C3672.74 1067.91 3638.25 1033.44 3638.25 990.934V985.339C3638.25 982.266 3640.75 979.773 3643.82 979.773H3699.43C3702.5 979.773 3705 982.266 3705 985.339C3705 994.123 3712.1 1001.23 3720.89 1001.23H3853.92C3868.65 1001.23 3880.6 989.282 3880.6 974.554V954.058C3880.6 942.287 3871.06 932.749 3859.28 932.749H3724.49C3673.67 932.749 3632.48 891.582 3632.48 840.789V819.249C3632.48 765.905 3675.76 722.65 3729.13 722.65H3856.41C3903.4 722.65 3941.52 760.745 3941.52 807.71C3941.52 810.783 3939.02 813.277 3935.95 813.277H3878.54C3876.48 813.277 3874.8 811.595 3874.8 809.537V807.131C3874.8 797.303 3866.82 789.33 3856.99 789.33H3725.36C3710.92 789.33 3699.2 801.042 3699.2 815.48V836.962C3699.2 853.052 3712.25 866.069 3728.32 866.069H3866.19C3911 866.069 3947.32 902.366 3947.32 947.158V971.278C3947.32 1024.62 3904.04 1067.88 3850.67 1067.88L3850.64 1067.91Z" fill="white"/>
<path d="M2303.79 160.858C2320.92 160.858 2334.83 174.8 2334.83 191.901V341.375C2334.83 358.505 2320.89 372.417 2303.79 372.417H2186.2C2169.07 372.417 2155.16 358.476 2155.16 341.375V191.901C2155.16 174.771 2169.1 160.858 2186.2 160.858H2303.79ZM2303.79 94.1934H2186.2C2132.23 94.1934 2088.49 137.931 2088.49 191.901V341.375C2088.49 395.344 2132.23 439.082 2186.2 439.082H2303.79C2357.76 439.082 2401.5 395.344 2401.5 341.375V191.901C2401.5 137.931 2357.76 94.1934 2303.79 94.1934Z" fill="white"/>
<path d="M2505.84 94.1934H2457.06C2452.11 94.1934 2448.1 98.2045 2448.1 103.152V572.33C2448.1 577.278 2452.11 581.289 2457.06 581.289H2505.84C2510.79 581.289 2514.8 577.278 2514.8 572.33V103.152C2514.8 98.2045 2510.79 94.1934 2505.84 94.1934Z" fill="white"/>
<path d="M2717.56 581.909H2668.26C2663.46 581.909 2659.56 585.803 2659.56 590.607V1060.31C2659.56 1065.11 2663.46 1069 2668.26 1069H2717.56C2722.37 1069 2726.26 1065.11 2726.26 1060.31V590.607C2726.26 585.803 2722.37 581.909 2717.56 581.909Z" fill="white"/>
<path d="M3611.6 731.356C3611.6 726.544 3607.72 722.661 3602.9 722.661H3492.97C3460.75 722.661 3446.24 738.601 3437.54 767.584V729.877C3437.54 725.066 3433.66 721.183 3428.84 721.183H3379.5C3374.69 721.183 3370.8 725.066 3370.8 729.877V1060.31C3370.8 1065.12 3374.69 1069 3379.5 1069H3428.84C3433.66 1069 3437.54 1065.12 3437.54 1060.31V837.171C3437.54 810.739 3458.98 789.321 3485.43 789.321H3602.87C3607.69 789.321 3611.57 785.437 3611.57 780.626V731.327L3611.6 731.356Z" fill="white"/>
<path d="M2801.75 915.435V848.729H2662.48V915.435H2801.75Z" fill="white"/>
<path d="M2905.19 718.253H2973.67C2977.93 718.253 2980.33 723.184 2977.67 726.549L2850.95 886.483H2764.01L2892.41 724.432C2895.51 720.516 2900.24 718.253 2905.22 718.253H2905.19Z" fill="white"/>
<path d="M2916.89 1071.94H2985.4C2989.66 1071.94 2992.04 1067.04 2989.43 1063.68L2850.95 886.486H2764.01L2904.02 1065.65C2907.12 1069.62 2911.87 1071.94 2916.89 1071.94Z" fill="white"/>
<path d="M2298.18 729.849V779.153C2298.18 783.964 2302.06 787.848 2306.88 787.848H2508.14C2523.54 787.848 2536.01 800.312 2536.01 815.703V1060.31C2536.01 1065.12 2539.9 1069 2544.71 1069H2594.05C2598.86 1069 2602.75 1065.12 2602.75 1060.31V793.645C2602.75 753.791 2570.12 721.183 2530.24 721.183H2306.91C2302.09 721.183 2298.21 725.067 2298.21 729.878L2298.18 729.849Z" fill="white"/>
<path d="M2670.65 95.6646H2563.62C2533.41 95.6646 2508.94 120.14 2508.94 150.3V377.569C2508.94 411.73 2536.66 439.454 2570.88 439.454H2670.68C2718.39 439.454 2757.07 400.797 2757.07 353.122V182.025C2757.07 134.35 2718.39 95.6936 2670.68 95.6936L2670.65 95.6646ZM2691.75 338.129C2691.75 357.066 2676.4 372.407 2657.44 372.407H2553.26C2531.99 372.407 2514.75 355.181 2514.75 333.925V202.122C2514.75 180.865 2531.99 163.639 2553.26 163.639H2657.44C2676.4 163.639 2691.75 178.98 2691.75 197.917V338.158V338.129Z" fill="white"/>
<path d="M2926.88 371.306C2904.41 371.306 2886.19 353.1 2886.19 330.633V160.721H3005.11C3009.92 160.721 3013.81 156.837 3013.81 152.024V102.712C3013.81 97.8997 3009.92 94.015 3005.11 94.015H2886.19V8.69704C2886.19 3.88468 2882.3 0 2877.49 0H2833.95C2829.14 0 2825.25 3.88468 2825.25 8.69704V74.0698C2825.25 85.0861 2816.32 94.015 2805.3 94.015H2796.25C2791.43 94.015 2787.55 97.8997 2787.55 102.712V152.024C2787.55 156.837 2791.43 160.721 2796.25 160.721H2819.45V330.633C2819.45 389.917 2867.54 437.983 2926.85 437.983H3005.72C3010.53 437.983 3014.42 434.098 3014.42 429.286V379.974C3014.42 375.161 3010.53 371.277 3005.72 371.277H2926.85L2926.88 371.306Z" fill="white"/>
<path d="M2141.04 717.212H2081.97C2052.67 717.212 2026.56 730.89 2009.67 752.162C1993.6 730.919 1968.13 717.212 1939.43 717.212H1883.26C1850.6 717.212 1821.9 734.194 1805.54 759.784V725.906C1805.54 721.095 1801.65 717.212 1796.84 717.212H1747.49C1742.67 717.212 1738.78 721.095 1738.78 725.906V1060.31C1738.78 1065.12 1742.67 1069 1747.49 1069H1796.84C1801.65 1069 1805.54 1065.12 1805.54 1060.31V819.077C1805.54 799.631 1821.32 783.866 1840.79 783.866H1914.05C1934.24 783.866 1950.6 800.211 1950.6 820.381V1060.28C1950.6 1065.09 1954.49 1068.97 1959.31 1068.97H2007.64C2012.46 1068.97 2016.34 1065.09 2016.34 1060.28V819.106C2016.34 799.66 2032.13 783.895 2051.59 783.895H2124.85C2145.04 783.895 2161.4 800.24 2161.4 820.41V1060.25C2161.4 1065.06 2165.29 1068.95 2170.11 1068.95H2220.47C2225.29 1068.95 2229.18 1065.06 2229.18 1060.25V805.109C2229.18 756.538 2189.78 717.183 2141.15 717.183L2141.04 717.212Z" fill="white"/>
<path d="M2346.32 872.497C2307.6 872.497 2276.2 903.852 2276.2 942.568V998.932C2276.2 1037.62 2307.58 1069 2346.32 1069H2455.64C2526.02 1069 2553.28 1011.97 2553.28 941.641V851.661L2346.32 872.497ZM2535.88 945.234C2535.88 980.241 2513.61 1002.82 2478.58 1002.82H2377.78C2358.53 1002.82 2342.9 992.992 2342.9 973.749V963.085C2342.9 943.843 2358.53 934.019 2377.78 934.019L2535.88 917.849V945.234Z" fill="white"/>
<path d="M3063.17 936.457V903.71H2996.48V948.668C2996.48 1016.74 3051.66 1071.94 3119.72 1071.94H3283.56C3288.37 1071.94 3292.26 1068.05 3292.26 1063.24V1013.9C3292.26 1009.09 3288.37 1005.2 3283.56 1005.2H3131.93C3093.97 1005.2 3063.17 974.425 3063.17 936.428V936.457Z" fill="white"/>
<path d="M2996.48 816.976V918.367H3309.44C3314.34 918.367 3318.28 914.393 3318.28 909.521V817.005C3318.28 764.076 3275.4 721.183 3222.49 721.183H3092.29C3039.39 721.183 2996.51 764.076 2996.51 817.005L2996.48 816.976ZM3251.6 851.662H3069.36C3065.94 851.662 3063.16 848.878 3063.16 845.456V811.582C3063.16 798.502 3073.77 787.887 3086.84 787.887H3227.88C3240.96 787.887 3251.57 798.502 3251.57 811.582V851.691L3251.6 851.662Z" fill="white"/>
</svg>
