<svg width="473" height="109" viewBox="0 0 473 109" fill="none" xmlns="http://www.w3.org/2000/svg">
<path d="M412.087 44.4486H386V42.2747C391.072 42.2747 402.667 40.8254 409.188 32.1298C414.406 25.1733 417.159 14.2554 417.884 9.66602H420.058L412.087 44.4486Z" fill="#CDF47C"/>
<path d="M409.913 41.5514L436 41.5514L436 43.7253C430.928 43.7253 419.333 45.1746 412.812 53.8702C407.594 60.8267 404.841 71.7446 404.116 76.334L401.942 76.334L409.913 41.5514Z" fill="#CDF47C"/>
<path d="M449.217 64.9565H432V63.5217C435.348 63.5217 443 62.5652 447.304 56.8261C450.748 52.2348 452.565 45.029 453.043 42H454.478L449.217 64.9565Z" fill="#606265"/>
<path d="M449.74 63.0435L466.957 63.0435L466.957 64.4783C463.609 64.4783 455.957 65.4348 451.653 71.1739C448.209 75.7652 446.392 82.971 445.914 86L444.479 86L449.74 63.0435Z" fill="#606265"/>
<path d="M20.16 93.368C22.032 93.296 24.336 92.864 26.136 92.072C28.44 90.992 30.456 89.624 31.896 87.32C34.56 82.784 33.12 78.248 31.104 75.8C29.736 74.072 27.504 72.416 20.808 70.184L18.216 69.248C17.064 68.888 16.2 68.384 15.264 67.736C14.616 67.304 14.112 66.872 13.896 66.44C13.464 65.792 13.32 65.072 13.896 64.136C14.688 63.056 16.056 62.696 17.64 62.624C19.656 62.696 22.248 63.128 24.48 64.712C24.84 65 25.128 65.288 25.344 65.576L32.112 60.608C31.392 59.6 30.384 58.664 29.304 57.8C25.416 54.92 20.664 54.272 17.64 54.344C14.256 54.488 9 55.64 6.552 60.176C4.392 64.424 5.4 69.104 7.56 71.768C7.992 72.416 9.144 73.712 10.728 74.72C12.096 75.656 12.96 76.16 15.048 76.952L17.712 77.96C22.752 79.76 23.4 79.904 24.408 80.696C25.2 81.272 25.416 82.208 24.696 83.216C24.264 83.792 23.688 84.152 22.896 84.44C22.032 84.8 21.24 85.016 20.232 85.088C17.568 85.088 15.984 84.584 13.32 82.784C11.808 81.704 11.088 80.408 10.656 79.472L3.528 83.36C4.32 84.872 6.12 88.04 8.64 89.912C12.312 92.432 15.984 93.512 20.16 93.368ZM57.4493 84.872C50.9692 84.872 46.8652 80.12 46.8652 73.784C46.8652 67.52 50.9692 62.768 57.4493 62.768C63.9293 62.768 68.0333 67.52 68.0333 73.784C68.0333 80.12 63.9293 84.872 57.4493 84.872ZM38.9452 73.784C38.9452 84.152 46.2892 93.008 57.4493 93.008C69.1133 93.008 75.9533 84.152 75.9533 73.784C75.9533 63.416 69.1133 54.56 57.4493 54.56C46.2892 54.56 38.9452 63.416 38.9452 73.784ZM101.792 85.16C96.2477 85.16 91.4237 80.192 91.4237 73.712C91.4237 67.304 96.2477 62.408 101.792 62.408C108.344 62.408 112.232 67.304 112.232 73.712C112.232 80.192 108.344 85.16 101.792 85.16ZM82.4237 108.992H91.0637V86.96C93.7277 91.712 99.8477 93.008 102.44 93.008C113.6 93.008 120.584 84.152 120.584 73.712C120.584 63.416 113.6 54.488 102.44 54.488C99.9197 54.488 93.7277 55.928 91.0637 60.464V54.488H82.4237V108.992ZM148.907 92.072L147.179 83.288C145.883 83.576 143.219 83.864 141.419 83.792C139.547 83.72 138.251 82.712 138.251 80.408V62.696H148.259V54.344H138.251V40.88H129.323V54.344H122.771V62.696H129.323V80.408C129.323 87.248 135.299 92.504 141.131 92.72C143.651 92.792 147.179 92.36 148.907 92.072ZM222.398 71.696V92.72H230.966V71.48C230.966 60.464 223.622 54.776 215.054 54.776C208.934 54.776 205.262 58.448 202.742 61.904C200.222 57.44 196.982 54.776 191.006 54.776C186.974 54.776 183.374 56.936 181.646 60.68V54.776H173.078V92.72H181.646V71.912C181.646 67.016 185.39 63.416 189.998 63.416C195.398 63.416 197.774 67.52 197.774 71.696V92.72H206.27V71.696C206.27 66.08 209.798 63.344 214.478 63.344C218.87 63.344 222.398 67.52 222.398 71.696ZM256.426 85.088C249.586 85.088 246.274 80.408 246.274 74.144C246.274 67.88 249.586 63.128 256.426 63.128C261.754 63.128 266.506 67.664 266.578 74.144C266.506 80.552 261.754 85.088 256.426 85.088ZM237.634 74.144C237.634 84.44 244.186 93.296 255.706 93.296C259.81 93.296 263.986 91.424 267.01 87.32V92.72H275.65V54.776H267.01V60.896C263.986 56.864 259.81 54.992 255.706 54.992C244.186 54.992 237.634 63.776 237.634 74.144ZM292.702 37.712H284.134V92.936H292.702V83.36L297.526 77.6L307.678 92.936H317.542L303.07 71.624L318.046 54.992H307.246L292.702 71.264V37.712ZM347.943 70.544H328.071C328.863 64.928 333.111 62.336 338.439 62.336C344.127 62.336 347.439 65.72 347.943 70.544ZM320.007 73.784C320.007 84.152 326.631 92.936 338.367 92.936C351.039 92.936 354.495 84.512 354.495 84.512L346.935 81.128C346.935 81.128 345.567 85.232 338.439 85.232C332.535 85.232 329.151 82.208 328.071 77.528H356.079C356.079 77.528 356.583 70.688 354.279 64.856C354.063 64.352 350.463 54.56 338.367 54.56C326.631 54.56 320.007 63.344 320.007 73.784ZM370.628 61.472V54.632H362.06V92.72H370.628V73.568C370.628 68.6 375.38 62.696 382.22 62.696V54.488C378.908 54.488 373.148 56.648 370.628 61.472ZM401.788 93.368C403.66 93.296 405.964 92.864 407.764 92.072C410.068 90.992 412.084 89.624 413.524 87.32C416.188 82.784 414.748 78.248 412.732 75.8C411.364 74.072 409.132 72.416 402.436 70.184L399.844 69.248C398.692 68.888 397.828 68.384 396.892 67.736C396.244 67.304 395.74 66.872 395.524 66.44C395.092 65.792 394.948 65.072 395.524 64.136C396.316 63.056 397.684 62.696 399.268 62.624C401.284 62.696 403.876 63.128 406.108 64.712C406.468 65 406.756 65.288 406.972 65.576L413.74 60.608C413.02 59.6 412.012 58.664 410.932 57.8C407.044 54.92 402.292 54.272 399.268 54.344C395.884 54.488 390.628 55.64 388.18 60.176C386.02 64.424 387.028 69.104 389.188 71.768C389.62 72.416 390.772 73.712 392.356 74.72C393.724 75.656 394.588 76.16 396.676 76.952L399.34 77.96C404.38 79.76 405.028 79.904 406.036 80.696C406.828 81.272 407.044 82.208 406.324 83.216C405.892 83.792 405.316 84.152 404.524 84.44C403.66 84.8 402.868 85.016 401.86 85.088C399.196 85.088 397.612 84.584 394.948 82.784C393.436 81.704 392.716 80.408 392.284 79.472L385.156 83.36C385.948 84.872 387.748 88.04 390.268 89.912C393.94 92.432 397.612 93.512 401.788 93.368Z" fill="white"/>
</svg>
