<svg width="476" height="318" viewBox="0 0 476 318" fill="none" xmlns="http://www.w3.org/2000/svg">
<path d="M223.43 39.317V178.44V303.598H378.579C378.579 303.598 394.053 304.555 404.63 296.998C414.231 290.139 415.43 279.866 415.43 275.762V39.3017C415.43 35.4807 412.332 32.3984 408.511 32.3984H230.348C226.527 32.3984 223.43 35.496 223.43 39.317Z" fill="#2E2E35"/>
<path fill-rule="evenodd" clip-rule="evenodd" d="M24.3344 0C19.0323 0 14.7341 4.29835 14.7344 9.60047L14.7355 33.6004C14.7358 38.9022 19.0338 43.2 24.3355 43.2H194.524C194.828 43.2 195.12 43.3148 195.342 43.5212L210.566 57.6798C211.334 58.3937 212.584 57.8493 212.584 56.801L212.583 44.4C212.583 43.7373 213.12 43.2 213.783 43.2H238.122C243.424 43.2 247.722 38.9019 247.722 33.6V9.6C247.722 4.29807 243.424 0 238.122 0H24.3344Z" fill="#C3C3C6"/>
<path d="M41.3848 13.9296V15.0888H39.2344V17.6928H41.3176V18.8688H30.5488V17.6928H32.632V15.0888H30.4816V13.9296H41.3848ZM29.2552 19.9944H42.6448V21.204H29.2552V19.9944ZM30.8512 22.3968H40.948V25.7568H32.3968V26.9832H41.3848V28.1424H30.9016V24.6816H39.436V23.5392H30.8512V22.3968ZM37.7056 17.6928V15.0888H34.1776V17.6928H37.7056ZM55.3292 14.9712V16.5168C55.3292 17.8272 55.2956 19.0032 55.2284 20.0448C55.1724 21.0864 55.0212 22.3072 54.7748 23.7072L53.2292 23.5728C53.4868 22.2624 53.6436 21.0864 53.6996 20.0448C53.7668 19.0032 53.8004 17.8272 53.8004 16.5168V16.2144H45.1316V14.9712H55.3292ZM43.6868 24.9H57.0932V26.1768H43.6868V24.9ZM62.9064 14.5176C63.668 14.5176 64.3512 14.6688 64.956 14.9712C65.5608 15.2736 66.0312 15.6936 66.3672 16.2312C66.7144 16.7576 66.888 17.3624 66.888 18.0456C66.888 18.7288 66.7144 19.3392 66.3672 19.8768C66.0312 20.4144 65.5608 20.8344 64.956 21.1368C64.3512 21.428 63.668 21.5736 62.9064 21.5736C62.1336 21.5736 61.4392 21.428 60.8232 21.1368C60.2184 20.8344 59.7424 20.4144 59.3952 19.8768C59.0592 19.3392 58.8912 18.7288 58.8912 18.0456C58.8912 17.3624 59.0592 16.7576 59.3952 16.2312C59.7424 15.6936 60.2184 15.2736 60.8232 14.9712C61.4392 14.6688 62.1336 14.5176 62.9064 14.5176ZM58.1856 23.8416C60.0672 23.8416 61.7808 23.8136 63.3264 23.7576C64.8832 23.6904 66.3672 23.5504 67.7784 23.3376L67.896 24.4632C66.44 24.7432 64.9504 24.9224 63.4272 25.0008C61.9152 25.0792 60.2296 25.1184 58.3704 25.1184L58.1856 23.8416ZM60.3864 18.0456C60.3864 18.6952 60.6216 19.2272 61.092 19.6416C61.5736 20.0448 62.1784 20.2464 62.9064 20.2464C63.6232 20.2464 64.2168 20.0448 64.6872 19.6416C65.1576 19.2272 65.3928 18.6952 65.3928 18.0456C65.3928 17.396 65.1576 16.8696 64.6872 16.4664C64.2168 16.052 63.6232 15.8448 62.9064 15.8448C62.1784 15.8448 61.5736 16.0464 61.092 16.4496C60.6216 16.8528 60.3864 17.3848 60.3864 18.0456ZM68.7024 13.4424H70.248V28.3104H68.7024V13.4424ZM88.4002 13.476V24.3792H86.8714V20.532H83.2258C82.8786 20.9464 82.4418 21.2712 81.9154 21.5064C81.389 21.7416 80.8234 21.8592 80.2186 21.8592C79.5018 21.8592 78.8466 21.7024 78.253 21.3888C77.6706 21.0752 77.2114 20.6384 76.8754 20.0784C76.5506 19.5072 76.3882 18.8632 76.3882 18.1464C76.3882 17.4296 76.5506 16.7856 76.8754 16.2144C77.2114 15.6432 77.6706 15.2008 78.253 14.8872C78.8466 14.5624 79.5018 14.4 80.2186 14.4C80.8234 14.4 81.3834 14.5176 81.8986 14.7528C82.4138 14.9768 82.8506 15.296 83.209 15.7104H86.8714V13.476H88.4002ZM77.833 18.1464C77.833 18.852 78.057 19.4288 78.505 19.8768C78.9642 20.3136 79.5354 20.532 80.2186 20.532C80.9018 20.532 81.4674 20.3136 81.9154 19.8768C82.3634 19.4288 82.5874 18.852 82.5874 18.1464C82.5874 17.4408 82.3634 16.8696 81.9154 16.4328C81.4674 15.9848 80.9018 15.7608 80.2186 15.7608C79.5354 15.7608 78.9642 15.9848 78.505 16.4328C78.057 16.8696 77.833 17.4408 77.833 18.1464ZM78.8578 23.2704H80.4034V26.7144H88.8034V27.9744H78.8578V23.2704ZM83.8978 16.9704C84.0098 17.3848 84.0658 17.7768 84.0658 18.1464C84.0658 18.5608 84.0098 18.936 83.8978 19.272H86.8714V16.9704H83.8978ZM102.16 13.476V16.584H104.277V17.844H102.16V20.9688H100.614V13.476H102.16ZM91.1894 14.2656H98.0606V20.2464H91.1894V14.2656ZM92.6678 21.6408H102.16V25.3872H94.2134V26.8656H102.664V28.092H92.6846V24.2448H100.648V22.8504H92.6678V21.6408ZM96.5654 19.0368V15.4752H92.7014V19.0368H96.5654ZM120.883 13.4592V21.0024H119.354V19.5744H115.608V18.3816H119.354V16.7352H115.793C115.345 17.8776 114.578 18.8352 113.491 19.608C112.416 20.3696 111.055 20.9464 109.409 21.3384L108.888 20.0952C110.624 19.7032 111.974 19.104 112.937 18.2976C113.911 17.48 114.46 16.5168 114.583 15.408H109.661V14.148H116.263C116.263 14.6744 116.224 15.1392 116.146 15.5424H119.354V13.4592H120.883ZM111.29 21.6408H120.883V25.3872H112.853V26.916H121.32V28.1424H111.324V24.228H119.354V22.8672H111.29V21.6408ZM128.175 14.3496V16.164C128.175 17.172 128.5 18.1072 129.149 18.9696C129.799 19.8208 130.678 20.4368 131.787 20.8176L130.997 22.0272C130.18 21.736 129.468 21.3048 128.864 20.7336C128.27 20.1624 127.805 19.496 127.469 18.7344C127.144 19.5856 126.668 20.3248 126.041 20.952C125.425 21.5792 124.686 22.0552 123.824 22.38L122.984 21.1704C124.137 20.7672 125.039 20.112 125.688 19.2048C126.338 18.2864 126.663 17.2616 126.663 16.1304V14.3496H128.175ZM125.352 23.3208H126.898V26.7144H135.248V27.9744H125.352V23.3208ZM133.08 13.4592H134.626V17.9448H136.76V19.2216H134.626V24.3792H133.08V13.4592ZM149.662 13.4424V28.3104H148.134V13.4424H149.662ZM138.02 19.776C138.02 18.7344 138.182 17.8216 138.507 17.0376C138.832 16.2536 139.28 15.6488 139.851 15.2232C140.422 14.7976 141.078 14.5848 141.817 14.5848C142.545 14.5848 143.194 14.7976 143.766 15.2232C144.348 15.6488 144.802 16.2536 145.126 17.0376C145.451 17.8216 145.614 18.7344 145.614 19.776C145.614 20.8176 145.451 21.736 145.126 22.5312C144.802 23.3152 144.348 23.92 143.766 24.3456C143.194 24.7712 142.545 24.984 141.817 24.984C141.078 24.984 140.422 24.7712 139.851 24.3456C139.28 23.92 138.832 23.3152 138.507 22.5312C138.182 21.736 138.02 20.8176 138.02 19.776ZM139.498 19.776C139.498 20.5488 139.594 21.2264 139.784 21.8088C139.986 22.38 140.26 22.8224 140.607 23.136C140.966 23.4496 141.369 23.6064 141.817 23.6064C142.265 23.6064 142.662 23.4496 143.01 23.136C143.368 22.8224 143.642 22.38 143.833 21.8088C144.034 21.2264 144.135 20.5488 144.135 19.776C144.135 19.0032 144.034 18.3312 143.833 17.76C143.642 17.1776 143.368 16.7352 143.01 16.4328C142.662 16.1192 142.265 15.9624 141.817 15.9624C141.369 15.9624 140.966 16.1192 140.607 16.4328C140.26 16.7352 139.986 17.1776 139.784 17.76C139.594 18.3312 139.498 19.0032 139.498 19.776ZM167.328 14.6016V15.8448H158.776V20.2968H167.479V21.5568H163.027V25.1856H168.991V26.4624H155.568V25.1856H161.498V21.5568H157.248V14.6016H167.328ZM173.628 15.2232V13.4088H175.14V15.2232H178.349V16.4496H175.14V16.668C175.14 17.5752 175.459 18.404 176.098 19.1544C176.747 19.9048 177.615 20.4368 178.702 20.7504L177.979 21.96C177.15 21.7024 176.428 21.316 175.812 20.8008C175.207 20.2856 174.737 19.6808 174.401 18.9864C174.076 19.748 173.6 20.4088 172.973 20.9688C172.346 21.5288 171.601 21.9488 170.738 22.2288L169.999 21.036C171.108 20.7 171.987 20.1288 172.637 19.3224C173.298 18.516 173.628 17.6312 173.628 16.668V16.4496H170.419V15.2232H173.628ZM171.864 23.2536H181.541V28.2936H179.995V24.4968H171.864V23.2536ZM179.995 13.476H181.541V17.34H183.674V18.6168H181.541V22.5144H179.995V13.476ZM196.964 13.476V22.6488H195.502V18.7176H193.822V22.4304H192.377V13.6944H193.822V17.4744H195.502V13.476H196.964ZM184.347 15.1056H187.337V13.5432H188.849V15.1056H191.789V16.3152H184.347V15.1056ZM184.935 19.5408C184.935 18.768 185.226 18.152 185.808 17.6928C186.391 17.2224 187.152 16.9872 188.093 16.9872C189.034 16.9872 189.796 17.2224 190.378 17.6928C190.96 18.152 191.252 18.768 191.252 19.5408C191.252 20.2912 190.955 20.9016 190.361 21.372C189.779 21.8424 189.023 22.0776 188.093 22.0776C187.164 22.0776 186.402 21.8424 185.808 21.372C185.226 20.9016 184.935 20.2912 184.935 19.5408ZM185.355 26.9664C186.251 26.664 186.956 26.1936 187.472 25.5552C187.998 24.9056 188.261 24.2336 188.261 23.5392V23.0856H189.74V23.5392C189.74 24.1664 189.908 24.7712 190.244 25.3536C190.58 25.936 191.061 26.412 191.688 26.7816C192.327 26.3896 192.82 25.8968 193.167 25.3032C193.514 24.6984 193.688 24.1104 193.688 23.5392V23.0856H195.2V23.5392C195.2 24.2896 195.457 24.9784 195.972 25.6056C196.488 26.2328 197.204 26.6864 198.123 26.9664L197.4 28.092C196.684 27.868 196.073 27.5264 195.569 27.0672C195.065 26.6192 194.684 26.0984 194.427 25.5048C194.18 26.1096 193.828 26.6528 193.368 27.1344C192.92 27.616 192.372 27.9856 191.722 28.2432C191.061 27.9968 190.501 27.6384 190.042 27.168C189.583 26.7088 189.23 26.1712 188.984 25.5552C188.704 26.1376 188.317 26.6472 187.824 27.084C187.332 27.532 186.744 27.868 186.06 28.092L185.355 26.9664ZM186.296 19.5408C186.296 19.9552 186.464 20.2968 186.8 20.5656C187.136 20.8232 187.567 20.952 188.093 20.952C188.62 20.952 189.051 20.8232 189.387 20.5656C189.723 20.2968 189.891 19.9552 189.891 19.5408C189.891 19.104 189.723 18.7568 189.387 18.4992C189.062 18.2416 188.631 18.1128 188.093 18.1128C187.556 18.1128 187.119 18.2416 186.783 18.4992C186.458 18.7568 186.296 19.104 186.296 19.5408ZM202.827 14.5848C203.488 14.5848 204.082 14.764 204.608 15.1224C205.146 15.4808 205.582 16.0016 205.918 16.6848C206.254 17.3568 206.456 18.1464 206.523 19.0536H209.581V13.4424H211.11V28.3104H209.581V20.28H206.54C206.495 21.232 206.305 22.0664 205.969 22.7832C205.644 23.4888 205.207 24.032 204.658 24.4128C204.121 24.7936 203.51 24.984 202.827 24.984C202.11 24.984 201.466 24.7712 200.895 24.3456C200.335 23.92 199.898 23.3152 199.585 22.5312C199.271 21.736 199.114 20.8176 199.114 19.776C199.114 18.7344 199.271 17.8216 199.585 17.0376C199.898 16.2536 200.335 15.6488 200.895 15.2232C201.466 14.7976 202.11 14.5848 202.827 14.5848ZM200.559 19.776C200.559 20.9408 200.766 21.8704 201.181 22.5648C201.595 23.2592 202.144 23.6064 202.827 23.6064C203.51 23.6064 204.059 23.2592 204.474 22.5648C204.888 21.8704 205.095 20.9408 205.095 19.776C205.095 18.6112 204.888 17.6872 204.474 17.004C204.059 16.3096 203.51 15.9624 202.827 15.9624C202.144 15.9624 201.595 16.3096 201.181 17.004C200.766 17.6872 200.559 18.6112 200.559 19.776ZM216.52 25.152V21.2376C215.904 20.9016 215.422 20.476 215.075 19.9608C214.739 19.4344 214.571 18.8464 214.571 18.1968C214.571 17.4352 214.8 16.7632 215.26 16.1808C215.73 15.5984 216.374 15.1504 217.192 14.8368C218.009 14.512 218.939 14.3496 219.98 14.3496C221.033 14.3496 221.968 14.512 222.786 14.8368C223.615 15.1504 224.259 15.5984 224.718 16.1808C225.177 16.7632 225.407 17.4352 225.407 18.1968C225.407 18.8464 225.239 19.4288 224.903 19.944C224.578 20.448 224.113 20.8736 223.508 21.2208V25.152H226.717V26.412H213.294V25.152H216.52ZM216.066 18.1968C216.066 18.7232 216.228 19.188 216.553 19.5912C216.889 19.9832 217.354 20.2912 217.948 20.5152C218.541 20.728 219.219 20.8344 219.98 20.8344C220.742 20.8344 221.42 20.728 222.013 20.5152C222.607 20.2912 223.072 19.9832 223.408 19.5912C223.744 19.188 223.912 18.7232 223.912 18.1968C223.912 17.6704 223.744 17.2112 223.408 16.8192C223.072 16.416 222.607 16.108 222.013 15.8952C221.42 15.6712 220.742 15.5592 219.98 15.5592C219.219 15.5592 218.541 15.6712 217.948 15.8952C217.354 16.108 216.889 16.416 216.553 16.8192C216.228 17.2112 216.066 17.6704 216.066 18.1968ZM221.963 25.152V21.8088C221.38 21.9544 220.72 22.0272 219.98 22.0272C219.264 22.0272 218.614 21.9544 218.032 21.8088V25.152H221.963ZM230.565 23.9256H229.187L228.918 14.6016H230.8L230.565 23.9256ZM228.935 26.3448C228.935 26.076 229.025 25.8576 229.204 25.6896C229.383 25.5104 229.613 25.4208 229.893 25.4208C230.162 25.4208 230.38 25.5104 230.548 25.6896C230.727 25.8576 230.817 26.076 230.817 26.3448C230.817 26.6248 230.727 26.8544 230.548 27.0336C230.38 27.2128 230.162 27.3024 229.893 27.3024C229.613 27.3024 229.383 27.2128 229.204 27.0336C229.025 26.8544 228.935 26.6248 228.935 26.3448Z" fill="#202025"/>
<path d="M323.12 181.582C315.913 164.988 298.096 164.499 290.089 166.329L221.023 303.602H380.623C364.859 269.843 330.327 198.176 323.12 181.582Z" fill="url(#paint0_linear_1572_2466)"/>
<path d="M70.3771 304.958C85.4904 260.647 116.919 181.78 117.911 177.448C119.15 172.033 124.098 166.202 131.107 165.786C136.646 165.456 245.087 165.642 300.585 165.78C301.353 165.708 302.044 165.718 302.62 165.786C301.95 165.784 301.272 165.782 300.585 165.78C296.596 166.158 290.544 168.787 287.778 177.448C283.655 190.357 244.899 304.056 243.25 308.637C241.601 313.218 237.478 316.967 223.048 317.8C208.618 318.633 81.5143 316.62 77.8037 316.62C74.0931 316.62 67.9357 312.119 70.3771 304.958Z" fill="url(#paint1_linear_1572_2466)"/>
<path d="M138.867 193.598H256.423" stroke="#F77234" stroke-opacity="0.6" stroke-width="3.6"/>
<path d="M124.477 228.227H242.032" stroke="#F77234" stroke-opacity="0.6" stroke-width="3.6"/>
<path d="M246.523 70.8008H390.692" stroke="#66666D" stroke-width="3.6"/>
<path d="M247.719 105.602H391.887" stroke="#66666D" stroke-width="3.6"/>
<path d="M456.195 177.602V215.602" stroke="white" stroke-width="2.4"/>
<path d="M475.188 196.602L437.195 196.602" stroke="white" stroke-width="2.4"/>
<path d="M469.625 183.164L442.76 210.034" stroke="white" stroke-width="2.4"/>
<path d="M469.625 210.039L442.76 183.169" stroke="white" stroke-width="2.4"/>
<circle cx="431.805" cy="236" r="4.13518" stroke="white" stroke-width="1.72963"/>
<circle cx="189.065" cy="108.44" r="2.83853" fill="white"/>
<path d="M62.4056 98.176C58.8236 102.239 57.1953 108.554 55.1872 115.801C53.1791 108.554 51.5508 102.239 47.9688 98.176C51.5508 94.113 53.1791 87.7984 55.1872 80.5508C57.1953 87.7984 58.8236 94.113 62.4056 98.176Z" fill="white"/>
<path d="M133.266 190.441C122.25 199.39 109.709 203.974 98.5091 204.375C87.3128 204.775 77.8334 201.031 71.9513 193.79C66.0692 186.549 64.3474 176.503 67.0341 165.626C69.7218 154.746 76.7796 143.411 87.7957 134.463C98.8119 125.515 111.353 120.93 122.553 120.529C133.749 120.129 143.229 123.873 149.111 131.114C154.993 138.356 156.714 148.401 154.028 159.278C151.34 170.158 144.282 181.493 133.266 190.441Z" stroke="#3F3F47" stroke-width="11.7912"/>
<path d="M64.0999 194.067C82.1292 218.615 113.788 217.376 139.605 196.405C163.658 176.867 171.092 146.776 154.803 125.638C154.803 125.638 148.279 171.905 131.27 185.721C114.262 199.536 64.0999 194.067 64.0999 194.067Z" fill="url(#paint2_linear_1572_2466)"/>
<g filter="url(#filter0_b_1572_2466)">
<ellipse cx="107.626" cy="157.381" rx="41.1189" ry="56.9114" transform="rotate(50.9135 107.626 157.381)" fill="white" fill-opacity="0.15"/>
<path d="M130.552 185.605C119.044 194.953 106.035 199.917 94.4531 200.572C82.864 201.228 73.098 197.594 67.1435 190.264C61.1891 182.933 59.634 172.63 62.6511 161.421C65.6661 150.22 73.1914 138.504 84.6996 129.156C96.2079 119.808 109.217 114.844 120.799 114.189C132.388 113.533 142.154 117.167 148.108 124.497C154.063 131.828 155.618 142.131 152.601 153.34C149.586 164.541 142.06 176.257 130.552 185.605Z" stroke="#619EFF" stroke-width="9.51299"/>
</g>
<path d="M124.111 173.711C139.462 161.242 144.603 142.142 135.594 131.051" stroke="white" stroke-width="2.64"/>
<path d="M64.2017 192.645C78.5197 210.272 109.261 209.024 133.792 189.098C158.323 169.172 166.086 140.616 151.768 122.989" stroke="url(#paint3_linear_1572_2466)" stroke-width="1.98"/>
<path d="M67.3793 198.882C67.6503 198.641 68.0082 198.524 68.3602 198.611C69.2463 198.829 71.1252 199.48 73.5174 201.38C75.9657 203.324 77.3717 205.613 77.9559 206.716C78.1699 207.12 78.1166 207.602 77.8514 207.974L66.0466 224.55C65.6175 225.152 64.7771 225.285 64.1836 224.843L51.3139 215.272C50.6421 214.772 50.5992 213.781 51.2252 213.225L67.3793 198.882Z" fill="url(#paint4_linear_1572_2466)" fill-opacity="0.968627"/>
<path d="M50.4964 208.732C50.9077 208.341 51.4211 208.076 51.9876 208.053C53.8059 207.979 58.2391 208.297 62.7158 212.414C67.5356 216.846 69.3015 220.964 69.9154 222.942C70.1556 223.716 69.934 224.531 69.4278 225.164L30.152 274.272C28.9427 275.783 26.6103 275.757 25.3719 274.269C23.3004 271.78 20.002 268.058 15.9648 264.346C12.2337 260.915 8.50802 258.421 5.83907 256.839C4.03497 255.769 3.63395 253.178 5.15568 251.735L50.4964 208.732Z" fill="url(#paint5_linear_1572_2466)"/>
<path d="M28.8565 274.887C28.4415 275.323 27.7444 275.55 26.7203 275.477C25.7004 275.405 24.4327 275.039 22.9937 274.388C20.1202 273.089 16.6668 270.704 13.3309 267.533C9.9951 264.361 7.43912 261.033 5.99639 258.229C5.27391 256.824 4.84369 255.577 4.72003 254.562C4.59585 253.543 4.78713 252.835 5.20212 252.399C5.61711 251.962 6.31422 251.735 7.33836 251.808C8.35822 251.88 9.62597 252.247 11.0649 252.897C13.9384 254.197 17.3919 256.581 20.7277 259.752C24.0636 262.924 26.6195 266.252 28.0623 269.057C28.7847 270.461 29.215 271.708 29.3386 272.723C29.4628 273.742 29.2715 274.45 28.8565 274.887Z" fill="#F77234" stroke="url(#paint6_linear_1572_2466)" stroke-width="0.99"/>
<path d="M217.295 133.416C205.455 160.733 195.858 150.8 222.323 138.62C195.858 126.336 205.457 116.442 217.295 143.805C229.135 116.488 238.731 126.421 212.267 138.601C238.731 150.882 229.135 160.779 217.295 133.416Z" fill="white"/>
<defs>
<filter id="filter0_b_1572_2466" x="46.7984" y="99.7555" width="121.653" height="115.247" filterUnits="userSpaceOnUse" color-interpolation-filters="sRGB">
<feFlood flood-opacity="0" result="BackgroundImageFix"/>
<feGaussianBlur in="BackgroundImageFix" stdDeviation="4.8"/>
<feComposite in2="SourceAlpha" operator="in" result="effect1_backgroundBlur_1572_2466"/>
<feBlend mode="normal" in="SourceGraphic" in2="effect1_backgroundBlur_1572_2466" result="shape"/>
</filter>
<linearGradient id="paint0_linear_1572_2466" x1="251.519" y1="165.602" x2="284.539" y2="307.258" gradientUnits="userSpaceOnUse">
<stop stop-color="#0F1012"/>
<stop offset="1" stop-color="#202025"/>
</linearGradient>
<linearGradient id="paint1_linear_1572_2466" x1="242.02" y1="165.602" x2="187.42" y2="318.002" gradientUnits="userSpaceOnUse">
<stop stop-color="#FFA480"/>
<stop offset="1" stop-color="#C8E1FF"/>
</linearGradient>
<linearGradient id="paint2_linear_1572_2466" x1="168.665" y1="143.758" x2="81.2472" y2="214.766" gradientUnits="userSpaceOnUse">
<stop stop-color="#346FFA"/>
<stop offset="1" stop-color="#2C53DF"/>
</linearGradient>
<linearGradient id="paint3_linear_1572_2466" x1="154.184" y1="124.739" x2="64.438" y2="193.692" gradientUnits="userSpaceOnUse">
<stop stop-color="#4485FF"/>
<stop offset="0.5" stop-color="#C8E1FF"/>
<stop offset="1" stop-color="#4485FF"/>
</linearGradient>
<linearGradient id="paint4_linear_1572_2466" x1="71.4986" y1="217.25" x2="58.0721" y2="207.296" gradientUnits="userSpaceOnUse">
<stop stop-color="#B4B4B4"/>
<stop offset="1" stop-color="#F7F7F7"/>
</linearGradient>
<linearGradient id="paint5_linear_1572_2466" x1="27.3344" y1="228.389" x2="47.6679" y2="253.16" gradientUnits="userSpaceOnUse">
<stop stop-color="#FDBBF9"/>
<stop offset="1" stop-color="#F77234"/>
</linearGradient>
<linearGradient id="paint6_linear_1572_2466" x1="21.0688" y1="259.394" x2="13.3775" y2="267.593" gradientUnits="userSpaceOnUse">
<stop stop-color="#FFA480"/>
<stop offset="1" stop-color="#F77234"/>
</linearGradient>
</defs>
</svg>
