<svg width="32" height="32" viewBox="0 0 32 32" fill="none" xmlns="http://www.w3.org/2000/svg">
<rect x="2.89453" y="6.80664" width="14.6895" height="19.1133" fill="#346FFA" fill-opacity="0.6"/>
<path d="M4.2624 30C3.6352 30 3.10133 29.7797 2.6608 29.3392C2.22027 28.8987 2 28.3653 2 27.739V4.261C2 3.63567 2.22027 3.10227 2.6608 2.6608C3.10133 2.22027 3.6352 2 4.2624 2H16.539C17.1643 2 17.6977 2.22027 18.1392 2.6608C18.5797 3.10133 18.8 3.6352 18.8 4.2624V23.7018H17.4V6.9H3.4V25.1H17.4V23.1078H18.8V27.7376C18.8 28.3648 18.5797 28.8987 18.1392 29.3392C17.6987 29.7797 17.1653 30 16.539 30H4.2624Z" fill="#619EFF"/>
<rect x="7.16797" y="12.8486" width="22.832" height="13.7165" rx="3" fill="#8FC0FF"/>
<path d="M14.4492 16.457L11.1992 19.707L14.4492 22.957" stroke="#346FFA" stroke-width="1.3" stroke-linecap="round" stroke-linejoin="round"/>
<path d="M22.918 22.957L26.168 19.707L22.918 16.457" stroke="#346FFA" stroke-width="1.3" stroke-linecap="round" stroke-linejoin="round"/>
<path d="M17 22.8488L20.4667 16.5654" stroke="#346FFA" stroke-width="1.3" stroke-linecap="round" stroke-linejoin="round"/>
</svg>
