<svg width="32" height="32" viewBox="0 0 32 32" fill="none" xmlns="http://www.w3.org/2000/svg">
<g clip-path="url(#clip0_1208_36494)">
<path d="M3.64258 2.34375L27.884 2.3457" stroke="#346FFA"/>
<path d="M24.168 9.52832C24.168 5.51833 19.9172 2.26758 15.9072 2.26758C11.8972 2.26758 7.64648 5.51832 7.64648 9.52832" stroke="#346FFA"/>
<circle cx="7.64603" cy="9.68216" r="1.08139" fill="#619EFF" stroke="#346FFA" stroke-width="0.308968"/>
<circle cx="24.1675" cy="9.68021" r="1.08139" fill="#619EFF" stroke="#346FFA" stroke-width="0.308968"/>
<rect x="26.8029" y="1.26386" width="2.16278" height="2.16278" fill="#619EFF" stroke="#346FFA" stroke-width="0.308968"/>
<rect x="2.71894" y="1.26386" width="2.16278" height="2.16278" fill="#619EFF" stroke="#346FFA" stroke-width="0.308968"/>
<circle cx="15.8413" cy="2.189" r="1.08139" fill="#619EFF" stroke="#346FFA" stroke-width="0.308968"/>
<path d="M7.83594 20.9042C7.83614 14.787 12.6866 9.52965 15.4552 6.77038C15.6706 6.55568 16.0153 6.55569 16.2306 6.77049C18.9958 9.52881 23.8081 14.7758 23.8076 20.9148C23.8072 25.0506 21.8084 26.6046 20.5095 27.9674C20.4133 28.0683 20.3616 28.2027 20.3616 28.342V31.4093C20.3616 31.7166 20.1124 31.9658 19.8051 31.9658H12.1629C11.8555 31.9658 11.6064 31.7166 11.6064 31.4093L11.6064 28.342C11.6064 28.2027 11.5549 28.0682 11.4579 27.9681C10.1366 26.6044 7.8358 25.0408 7.83594 20.9042Z" fill="#8FC0FF"/>
<mask id="mask0_1208_36494" style="mask-type:alpha" maskUnits="userSpaceOnUse" x="7" y="6" width="17" height="26">
<path d="M7.83905 19.7903C7.83925 13.6759 12.6852 9.43192 15.4544 6.76616C15.6736 6.55524 16.0186 6.55525 16.2376 6.76627C19.0034 9.43104 23.8113 13.6647 23.8107 19.8009C23.8103 23.9393 21.809 26.5252 20.5101 27.9646C20.4168 28.0681 20.3647 28.2017 20.3647 28.341L20.3647 31.4083C20.3647 31.7156 20.1155 31.9648 19.8082 31.9648L12.166 31.9648C11.8586 31.9648 11.6095 31.7156 11.6095 31.4083L11.6095 28.341C11.6095 28.2017 11.5576 28.068 11.4634 27.9653C10.1425 26.5253 7.83891 23.9294 7.83905 19.7903Z" fill="#8FC0FF"/>
</mask>
<g mask="url(#mask0_1208_36494)">
<path d="M15.8457 5.26758L15.8466 19.3045" stroke="#17181C" stroke-width="0.836479"/>
<path d="M10.62 31.4871L10.62 28.1457L21.3769 28.1467L21.3769 31.4881C21.3769 31.8619 21.0738 32.165 20.6999 32.165L11.2968 32.164C10.923 32.164 10.62 31.861 10.62 31.4871Z" fill="#346FFA"/>
</g>
<circle cx="15.8418" cy="17.6951" r="1.79245" transform="rotate(45 15.8418 17.6951)" fill="#17181C"/>
</g>
<defs>
<clipPath id="clip0_1208_36494">
<rect width="32" height="32" fill="white"/>
</clipPath>
</defs>
</svg>
