<svg width="32" height="32" viewBox="0 0 32 32" fill="none" xmlns="http://www.w3.org/2000/svg">
<circle cx="16.167" cy="15.8331" r="4.98149" fill="#619EFF"/>
<circle cx="16.167" cy="15.8331" r="8.98149" stroke="#346FFA" stroke-opacity="0.6" stroke-width="8"/>
<circle cx="15.999" cy="16" r="11.708" stroke="#8FC0FF" stroke-width="3.5"/>
<path d="M15.5757 15.6512C15.3414 15.8855 15.3414 16.2654 15.5757 16.4997C15.8101 16.734 16.19 16.734 16.4243 16.4997L15.5757 15.6512ZM16.4243 16.4997L27.6906 5.23285L26.8421 4.38434L15.5757 15.6512L16.4243 16.4997Z" fill="#346FFA"/>
<path fill-rule="evenodd" clip-rule="evenodd" d="M23.4184 4.38805C23.3317 4.47474 23.2831 4.59237 23.2832 4.71497L23.2874 8.70265L23.2874 8.70267H23.2874L23.2874 8.70667L23.2914 8.70267L27.2791 8.70687C27.4017 8.707 27.5193 8.65836 27.606 8.57166L30.9439 5.23381C31.2345 4.94315 31.029 4.44616 30.6179 4.44573L27.5476 4.44249L27.5444 1.37615C27.5439 0.965095 27.0469 0.759542 26.7563 1.0502L23.4184 4.38805Z" fill="#346FFA"/>
</svg>
