<svg width="32" height="32" viewBox="0 0 32 32" fill="none" xmlns="http://www.w3.org/2000/svg">
<path d="M24.1719 13.3582C24.1719 12.5099 23.4842 11.8223 22.636 11.8223H5.96134C5.11309 11.8223 4.42545 12.5099 4.42545 13.3582V27.3628C4.42545 27.7947 4.92729 28.0325 5.26157 27.759L7.16349 26.2032C7.43788 25.9788 7.78147 25.8561 8.13596 25.8561H22.636C23.4842 25.8561 24.1719 25.1685 24.1719 24.3203V13.3582Z" fill="#346FFA"/>
<path d="M9.25391 5.66187C9.25391 4.81362 9.94155 4.12598 10.7898 4.12598H27.4644C28.3127 4.12598 29.0003 4.81362 29.0003 5.66187V19.6665C29.0003 20.0984 28.4985 20.3362 28.1642 20.0628L26.2623 18.5069C25.9879 18.2825 25.6443 18.1599 25.2898 18.1599H10.7898C9.94155 18.1599 9.25391 17.4722 9.25391 16.624V5.66187Z" fill="#8FC0FF"/>
<circle cx="19.1239" cy="11.1181" r="1.04189" fill="#346FFA"/>
<circle cx="14.5946" cy="11.1181" r="1.04189" fill="#346FFA"/>
<circle cx="23.6591" cy="11.1181" r="1.04189" fill="#346FFA"/>
</svg>
