<svg width="324" height="96" viewBox="0 0 324 96" fill="none" xmlns="http://www.w3.org/2000/svg">
<path fill-rule="evenodd" clip-rule="evenodd" d="M46.9031 -6.10352e-05H31.301V15.602H46.9031V-6.10352e-05ZM31.3003 15.602H15.6982V31.2042H31.3003V15.602ZM101.788 64.7951H86.1862V80.3972H101.788V64.7951ZM117.391 64.7951H101.789V80.3972H117.391V64.7951ZM15.7005 80.397L0.0983685 80.397L0.0983658 95.9991H15.7005L15.7005 80.397ZM47.2696 31.2048H62.8717V46.8069H47.2696V31.2048ZM86.1854 80.3972H70.5833V95.9993H86.1854V80.3972ZM86.1847 0.000590002H101.787V15.6027H86.1847V0.000590002ZM117.39 15.6021H101.788V31.2042H117.39V15.6021ZM132.991 31.2042H148.593V15.6021H132.991V31.2042ZM132.992 46.807H117.39V31.2049L132.992 31.2049L132.992 46.807ZM164.194 64.7951V80.3972H148.592V64.7951H164.194ZM253.517 96H237.915V80.3979H253.517V96ZM308.397 95.9999H292.795V80.3978H308.397V95.9999ZM324 80.3978H308.398V64.7957H324V80.3978ZM276.828 64.7957H292.43V49.1936H276.828V64.7957ZM191.105 64.7949H206.707V80.397H191.105V64.7949ZM206.709 49.1928H222.311V64.7949H206.709V49.1928ZM175.505 31.2042V15.6021H191.107V31.2042H175.505Z" fill="url(#paint0_linear_1_6)"/>
<defs>
<linearGradient id="paint0_linear_1_6" x1="324" y1="96" x2="271.689" y2="-80.4958" gradientUnits="userSpaceOnUse">
<stop stop-color="#00FFD1" stop-opacity="0"/>
<stop offset="1" stop-color="#8F00FF"/>
</linearGradient>
</defs>
</svg>
