<svg width="99" height="83" viewBox="0 0 99 83" fill="none" xmlns="http://www.w3.org/2000/svg">
<path d="M68.7743 48.9657C68.7743 66.8819 56.6871 82.9956 39.445 82.9956C22.2029 82.9956 8.2254 68.4717 8.2254 50.5554C8.2254 32.6392 22.2029 18.1152 39.445 18.1152C56.6871 18.1152 67.7798 29.3436 68.7743 48.9657Z" fill="#515159"/>
<path d="M1.08681 51.5882C1.03683 55.7811 3.50912 61.4915 7.26017 63.8628C7.90102 64.2673 8.80939 64.4179 9.31796 64.6997C10.1293 64.7917 11.3434 64.948 10.7878 65.8155C12.0019 67.7097 12.6104 69.643 14.1949 71.6488C24.3721 84.5482 44.5796 87.2486 56.941 75.5794C62.2236 70.5943 65.1663 63.8042 66.348 56.8886L65.616 56.5203C58.6578 58.1356 54.2953 53.5103 52.993 47.5571C52.0699 46.4384 49.4242 46.3548 49.1185 48.023C46.9049 61.1791 29.6518 61.4302 27.3236 48.2852C27.1472 48.1457 26.9502 48.0453 26.7298 47.9811L13.9362 48.2545C13.6746 48.0118 13.41 47.7273 13.1396 47.4037C13.4041 47.3367 13.3982 47.2419 13.1396 47.1247C13.1249 45.8219 10.7319 45.0659 9.48552 44.7228C4.43512 43.3307 0.00500488 46.4468 1.08681 51.5882Z" fill="#515159"/>
<path d="M65.4348 34.3177L49.8895 23.0928C43.3244 32.4939 31.5296 37.0397 20.3021 38.1078C18.8872 40.232 17.4449 42.335 15.9812 44.4289C15.3897 45.2725 13.9748 46.6805 13.5967 47.3663C13.557 47.4361 13.6302 47.5727 13.5967 47.6698C13.6333 47.9065 13.737 48.2646 13.9047 48.2646C18.6494 48.2585 23.5893 47.8792 28.2699 47.3967C30.7765 35.8774 42.7785 31.271 49.5693 42.6051C50.3256 45.0813 51.9966 48.1462 54.6799 45.8248C55.9241 40.4141 58.4306 35.4405 64.8128 35.228L65.4379 34.6211V34.3177H65.4348Z" fill="#515159"/>
<path d="M1.09299 52.2216C1.18143 44.4379 8.08505 43.1573 13.5951 47.3663C14.4611 47.5028 15.5741 45.9947 16.1169 45.2482C17.6843 43.0845 19.2455 40.8723 20.6299 38.566C31.7964 37.7315 43.1459 33.034 50.074 23.9728L64.2136 34.1841C64.5581 34.3358 65.0857 34.436 65.4333 34.3146C60.4965 20.6104 45.2804 13.8312 31.2811 15.5002C31.1561 3.10703 16.7298 -3.99691 6.36829 2.39087C-3.31325 8.35988 -1.41354 22.6527 8.40522 27.4868C5.42605 30.6883 3.07809 34.9913 1.85532 39.1699C0.656944 43.2635 -0.0626907 48.0612 1.09299 52.2186V52.2216Z" fill="#2E2E35"/>
<path d="M9.19951 64.6858C9.70569 64.9801 10.4162 65.3989 10.7242 65.8996C11.087 65.5415 11.7823 65.9694 12.3708 65.8996C13.7094 65.7418 15.2066 63.742 13.9198 63.4719C13.5905 63.4021 12.63 64.5037 11.7091 64.6281C10.7882 64.7525 9.9039 64.0637 9.19951 64.6858Z" fill="#2E2E35"/>
<path d="M61.6052 44.5089C58.0253 43.4498 57.4429 49.8376 60.2147 50.4566C63.8282 51.2669 63.9257 45.1947 61.6052 44.5089Z" fill="#2E2E35"/>
<path d="M42.6417 44.5089C39.0618 43.4498 38.4794 49.8376 41.2512 50.4566C44.8646 51.2669 44.9622 45.1947 42.6417 44.5089Z" fill="#2E2E35"/>
<path d="M82.6523 68.5706C78.2867 71.9429 72.7937 73.5328 67.2917 73.0167C61.7896 72.5006 56.6919 69.9172 53.0364 65.7925C49.3808 61.6679 47.4421 56.3119 47.6148 50.8148C47.7876 45.3177 50.0589 40.0927 53.9664 36.2035C57.8745 32.3149 63.1248 30.0546 68.6486 29.8826C74.1723 29.7107 79.5543 31.6401 83.699 35.278C87.8438 38.9159 90.4396 43.9889 90.9582 49.4644C91.4769 54.9399 89.8792 60.4063 86.4906 64.7509L97.4986 75.7057C97.8561 76.036 98.1174 76.4562 98.2551 76.922C98.3927 77.3877 98.4016 77.8818 98.2808 78.3521C98.1599 78.8225 97.9138 79.2517 97.5684 79.5946C97.223 79.9374 96.7911 80.1812 96.3181 80.3002C95.846 80.4202 95.3502 80.4116 94.8825 80.2753C94.4149 80.139 93.9927 79.88 93.6603 79.5255L82.6523 68.5706ZM85.6216 51.4898C85.6538 49.3406 85.2562 47.2066 84.4521 45.2117C83.6479 43.2169 82.4532 41.4011 80.9374 39.8699C79.4216 38.3388 77.615 37.1229 75.6227 36.293C73.6304 35.4631 71.4921 35.0357 69.3323 35.0357C67.1725 35.0357 65.0342 35.4631 63.0419 36.293C61.0496 37.1229 59.243 38.3388 57.7272 39.8699C56.2114 41.4011 55.0167 43.2169 54.2125 45.2117C53.4083 47.2066 53.0108 49.3406 53.043 51.4898C53.1068 55.7472 54.851 59.8088 57.8989 62.7971C60.9468 65.7854 65.0537 67.4605 69.3323 67.4605C73.6109 67.4605 77.7177 65.7854 80.7656 62.7971C83.8135 59.8088 85.5578 55.7472 85.6216 51.4898Z" fill="#808087"/>
</svg>
