<svg width="86" height="86" viewBox="0 0 86 86" fill="none" xmlns="http://www.w3.org/2000/svg">
<g id="card icon">
<rect id="Rectangle 42681" x="1.49992" y="1.86686" width="82.6667" height="82.6667" rx="17.3333" fill="#FCFCFC" stroke="white" stroke-width="2.66667"/>
<rect id="Rectangle 42680" x="4.29992" y="4.66686" width="77.0667" height="77.0667" rx="14.5333" fill="#FCFCFC" stroke="#202025" stroke-width="2.93333"/>
<g id="Icon / Users / user-filled">
<path id="Union" fill-rule="evenodd" clip-rule="evenodd" d="M35.2502 36.7C35.2502 32.5119 38.6454 29.1167 42.8335 29.1167C47.0217 29.1167 50.4169 32.5119 50.4169 36.7C50.4169 40.8882 47.0217 44.2834 42.8335 44.2834C38.6454 44.2834 35.2502 40.8882 35.2502 36.7ZM39.0158 47.1722H46.6512C48.4685 47.1718 49.6268 47.1716 50.603 47.4677C52.7958 48.1329 54.5118 49.8489 55.177 52.0417C55.4731 53.0179 55.4729 54.1762 55.4725 55.9935L55.4724 56.2C55.4724 56.7983 54.9874 57.2834 54.3891 57.2834H31.278C30.6797 57.2834 30.1946 56.7983 30.1946 56.2L30.1946 55.9935C30.1942 54.1762 30.1939 53.0179 30.4901 52.0417C31.1553 49.8489 32.8713 48.1329 35.0641 47.4677C36.0403 47.1716 37.1986 47.1718 39.0158 47.1722Z" fill="#202025"/>
</g>
</g>
</svg>
