<svg width="324" height="96" viewBox="0 0 324 96" fill="none" xmlns="http://www.w3.org/2000/svg">
<path fill-rule="evenodd" clip-rule="evenodd" d="M277.195 96L292.797 96L292.797 80.3979L277.195 80.3979L277.195 96ZM292.798 80.3979L308.4 80.3979L308.4 64.7958L292.798 64.7958L292.798 80.3979ZM222.31 31.2049L237.912 31.2049L237.912 15.6028L222.31 15.6028L222.31 31.2049ZM206.707 31.2049L222.309 31.2049L222.309 15.6028L206.707 15.6028L206.707 31.2049ZM308.398 15.6029L324 15.603L324 0.000839233L308.398 0.000837869L308.398 15.6029ZM276.829 64.7951L261.227 64.7951L261.227 49.193L276.829 49.193L276.829 64.7951ZM237.913 15.6027L253.515 15.6027L253.515 0.000627078L237.913 0.000625714L237.913 15.6027ZM237.914 95.9993L222.312 95.9993L222.312 80.3972L237.914 80.3972L237.914 95.9993ZM206.708 80.3978L222.311 80.3978L222.311 64.7957L206.708 64.7957L206.708 80.3978ZM191.107 64.7957L175.505 64.7957L175.505 80.3978L191.107 80.3978L191.107 64.7957ZM191.106 49.1929L206.708 49.1929L206.708 64.7951L191.106 64.7951L191.106 49.1929ZM159.904 31.2049L159.904 15.6027L175.506 15.6027L175.506 31.2049L159.904 31.2049ZM70.5812 -4.50428e-05L86.1833 -4.36788e-05L86.1833 15.6021L70.5812 15.6021L70.5812 -4.50428e-05ZM15.7011 -2.69523e-05L31.3032 -2.55884e-05L31.3032 15.6021L15.7011 15.6021L15.7011 -2.69523e-05ZM0.0983652 15.6021L15.7005 15.6021L15.7005 31.2042L0.0983638 31.2042L0.0983652 15.6021ZM47.2708 31.2042L31.6687 31.2042L31.6687 46.8063L47.2708 46.8063L47.2708 31.2042ZM132.994 31.205L117.392 31.205L117.392 15.6029L132.994 15.6029L132.994 31.205ZM117.39 46.8071L101.788 46.8071L101.788 31.205L117.39 31.205L117.39 46.8071ZM148.594 64.7957L148.594 80.3978L132.992 80.3978L132.992 64.7957L148.594 64.7957Z" fill="url(#paint0_linear_1_43)"/>
<defs>
<linearGradient id="paint0_linear_1_43" x1="0.0983665" y1="-5.12046e-05" x2="52.4093" y2="176.496" gradientUnits="userSpaceOnUse">
<stop stop-color="#00FFD1" stop-opacity="0"/>
<stop offset="1" stop-color="#8F00FF"/>
</linearGradient>
</defs>
</svg>
