<svg width="127" height="48" viewBox="0 0 127 48" fill="none" xmlns="http://www.w3.org/2000/svg">
<g clip-path="url(#clip0_1_82)">
<path fill-rule="evenodd" clip-rule="evenodd" d="M138.597 48.0001L146.399 48.0001L146.399 40.1991L138.597 40.1991L138.597 48.0001ZM146.399 40.1993L154.2 40.1993L154.2 32.3983L146.399 32.3983L146.399 40.1993ZM111.155 15.6027L118.956 15.6027L118.956 7.80161L111.155 7.80161L111.155 15.6027ZM103.353 15.6027L111.154 15.6027L111.154 7.80161L103.353 7.80161L103.353 15.6027ZM154.199 7.80188L162 7.80188L162 0.000823975L154.199 0.000824657L154.199 7.80188ZM138.414 32.3976L130.613 32.3976L130.613 24.5965L138.414 24.5965L138.414 32.3976ZM118.957 7.8014L126.758 7.80139L126.758 0.000338774L118.957 0.000339456L118.957 7.8014ZM118.957 48.0001L111.156 48.0001L111.156 40.1991L118.957 40.1991L118.957 48.0001ZM103.354 40.1993L111.155 40.1993L111.155 32.3983L103.354 32.3983L103.354 40.1993ZM95.5531 32.3981L87.752 32.3981L87.752 40.1992L95.5531 40.1992L95.5531 32.3981ZM95.5528 24.5968L103.354 24.5968L103.354 32.3979L95.5528 32.3979L95.5528 24.5968ZM79.9522 15.6027L79.9522 7.80162L87.7533 7.80162L87.7533 15.6027L79.9522 15.6027ZM7.85165 0.000135546L15.6527 0.000134864L15.6527 7.80119L7.85193 7.80119L7.85193 15.602L0.05087 15.602L0.0508693 7.80092L7.85165 7.80092L7.85165 0.000135546ZM23.6371 15.6022L15.836 15.6022L15.836 23.4032L23.6371 23.4032L23.6371 15.6022ZM35.2911 0.000133148L43.0922 0.000132466L43.0922 7.80119L35.2911 7.80119L35.2911 0.000133148ZM66.4972 15.6027L58.6961 15.6027L58.6961 7.80161L66.4972 7.80161L66.4972 15.6027ZM58.6954 23.4035L50.8943 23.4035L50.8943 15.6024L58.6954 15.6024L58.6954 23.4035ZM74.297 32.3981L74.297 40.1991L66.4959 40.1991L66.4959 32.3981L74.297 32.3981Z" fill="url(#paint0_linear_1_82)"/>
</g>
<defs>
<linearGradient id="paint0_linear_1_82" x1="0.0508686" y1="0.000136228" x2="26.2066" y2="88.2479" gradientUnits="userSpaceOnUse">
<stop stop-color="#00FFD1" stop-opacity="0"/>
<stop offset="1" stop-color="#8F00FF"/>
</linearGradient>
<clipPath id="clip0_1_82">
<rect width="127" height="48" fill="white"/>
</clipPath>
</defs>
</svg>
